<?xml version="1.0" encoding="utf-8"?>
<!-- Generator: Adobe Illustrator 23.0.1, SVG Export Plug-In . SVG Version: 6.00 Build 0)  -->
<svg version="1.1" id="Layer_1" xmlns="http://www.w3.org/2000/svg" xmlns:xlink="http://www.w3.org/1999/xlink" x="0px" y="0px"
	 viewBox="0 0 150 150" style="enable-background:new 0 0 150 150;" xml:space="preserve">
<style type="text/css">
	.st0{fill:#141934;}
	.st1{fill:url(#SVGID_1_);}
	.st2{fill:url(#SVGID_2_);}
	.st3{fill:url(#SVGID_3_);}
</style>
<g id="dev">
	<path class="st0" d="M17,49.5v51c0,4.9,2.6,9.5,6.9,11.9l44.2,25.5c4.3,2.5,9.5,2.5,13.8,0l44.2-25.5c4.3-2.5,6.9-7,6.9-11.9v-51
		c0-4.9-2.6-9.5-6.9-11.9L81.9,12.1c-4.3-2.5-9.5-2.5-13.8,0L23.9,37.6C19.7,40,17,44.6,17,49.5z"/>
	
		<linearGradient id="SVGID_1_" gradientUnits="userSpaceOnUse" x1="75" y1="4.025" x2="75" y2="146.075" gradientTransform="matrix(1 0 0 -1 0 150)">
		<stop  offset="0" style="stop-color:#0185FF"/>
		<stop  offset="0.6" style="stop-color:#0180F6"/>
		<stop  offset="1" style="stop-color:#1C2A5F;stop-opacity:0"/>
	</linearGradient>
	<path class="st1" d="M75,146c-2.6,0-5.1-0.7-7.4-2l-48.7-28.1c-4.6-2.6-7.4-7.5-7.4-12.8V46.9c0-5.3,2.8-10.2,7.4-12.8L67.6,5.9
		c4.6-2.6,10.2-2.6,14.8,0L131.1,34c4.6,2.6,7.4,7.5,7.4,12.8v56.3c0,5.3-2.8,10.2-7.4,12.8L82.4,144C80.1,145.4,77.6,146,75,146z
		 M75,6c-2.2,0-4.4,0.6-6.4,1.7L19.9,35.8c-3.9,2.3-6.4,6.5-6.4,11.1v56.3c0,4.6,2.4,8.8,6.4,11.1l48.7,28.1c3.9,2.3,8.8,2.3,12.8,0
		l48.7-28.1c3.9-2.3,6.4-6.5,6.4-11.1V46.9c0-4.6-2.4-8.8-6.4-11.1L81.4,7.7C79.4,6.5,77.2,6,75,6z"/>
	
		<linearGradient id="SVGID_2_" gradientUnits="userSpaceOnUse" x1="75" y1="3.925" x2="75" y2="137.125" gradientTransform="matrix(1 0 0 -1 0 150)">
		<stop  offset="0" style="stop-color:#0185FF"/>
		<stop  offset="0.5" style="stop-color:#0586FF;stop-opacity:0.5"/>
		<stop  offset="1" style="stop-color:#141934;stop-opacity:0"/>
	</linearGradient>
	<path class="st2" d="M75,14.9c7.8,0,15.1,3,20.6,8.5L147.2,75l-66.8,66.8c-1.4,1.4-3.3,2.2-5.3,2.2s-3.9-0.8-5.3-2.2L2.8,75
		l51.5-51.5C59.9,18,67.2,14.9,75,14.9 M75,12.9c-8,0-16,3-22,9.1L0,75l68.3,68.3c1.9,1.9,4.3,2.8,6.7,2.8s4.9-0.9,6.7-2.8L150,75
		L97,22C91,16,83,12.9,75,12.9L75,12.9z"/>
	
		<linearGradient id="SVGID_3_" gradientUnits="userSpaceOnUse" x1="75" y1="93.025" x2="75" y2="57.025" gradientTransform="matrix(1 0 0 -1 0 150)">
		<stop  offset="0" style="stop-color:#1AB5E9"/>
		<stop  offset="1" style="stop-color:#0186FE"/>
	</linearGradient>
	<path class="st3" d="M75,81.3c-3.5,0-6.3-2.8-6.3-6.3s2.8-6.3,6.3-6.3s6.3,2.8,6.3,6.3S78.5,81.3,75,81.3 M88.4,76.7
		c0.1-0.6,0.1-1.2,0.1-1.7s-0.1-1.2-0.1-1.8l3.8-2.9c0.3-0.3,0.4-0.8,0.2-1.2l-3.6-6.2c-0.2-0.4-0.7-0.6-1.1-0.4l-4.5,1.8
		c-0.9-0.7-1.9-1.3-3-1.8l-0.7-4.8c-0.1-0.4-0.4-0.8-0.9-0.8h-7.2c-0.5,0-0.8,0.3-0.9,0.8l-0.7,4.8c-1.1,0.5-2.1,1.1-3,1.8l-4.5-1.8
		c-0.4-0.2-0.9,0-1.1,0.4l-3.6,6.2c-0.2,0.4-0.1,0.9,0.2,1.2l3.8,2.9c-0.1,0.6-0.1,1.2-0.1,1.8s0.1,1.2,0.1,1.7l-3.8,3
		c-0.3,0.3-0.4,0.8-0.2,1.2l3.6,6.2c0.2,0.4,0.7,0.5,1.1,0.4l4.5-1.8c0.9,0.7,1.9,1.3,3,1.8l0.7,4.8c0.1,0.4,0.4,0.8,0.9,0.8h7.2
		c0.5,0,0.8-0.3,0.9-0.8l0.7-4.8c1.1-0.5,2.1-1.1,3-1.8l4.5,1.8c0.4,0.1,0.9,0,1.1-0.4l3.6-6.2c0.2-0.4,0.1-0.9-0.2-1.2L88.4,76.7z"
		/>
</g>
</svg>
