<?xml version="1.0" encoding="UTF-8"?>
<svg width="1374px" height="923px" viewBox="0 0 1374 923" version="1.1" xmlns="http://www.w3.org/2000/svg" xmlns:xlink="http://www.w3.org/1999/xlink">
    <!-- Generator: sketchtool 49.2 (51160) - http://www.bohemiancoding.com/sketch -->
    <title>6BE5B066-AC58-4328-9A8D-3981B6D559B5@1,5x</title>
    <desc>Created with sketchtool.</desc>
    <defs>
        <linearGradient x1="50%" y1="-16.2853469%" x2="50%" y2="209.303593%" id="linearGradient-1">
            <stop stop-color="#0A1129" offset="0%"></stop>
            <stop stop-color="#021D39" offset="100%"></stop>
        </linearGradient>
        <radialGradient cx="49.0857661%" cy="15.0810403%" fx="49.0857661%" fy="15.0810403%" r="65.3610366%" gradientTransform="translate(0.490858,0.150810),scale(0.538958,1.000000),rotate(90.000000),scale(1.000000,1.991935),translate(-0.490858,-0.150810)" id="radialGradient-2">
            <stop stop-color="#0084FF" offset="0%"></stop>
            <stop stop-color="#25CADF" stop-opacity="0" offset="100%"></stop>
        </radialGradient>
        <path d="M200.173563,382.336481 L118.881704,341.183335 C113.954278,338.688878 111.981968,332.672252 114.476425,327.744826 C115.438305,325.844777 116.981655,324.301427 118.881704,323.339547 L200.173563,282.186401 C206.962396,278.749626 214.978785,278.735807 221.779426,282.149157 L303.814847,323.324029 C308.750844,325.801483 310.743886,331.811273 308.266431,336.74727 C307.300532,338.671695 305.739273,340.232954 303.814847,341.198854 L221.779426,382.373726 C214.978785,385.787075 206.962396,385.773256 200.173563,382.336481 Z" id="path-3"></path>
        <filter x="-29.3%" y="-52.4%" width="158.6%" height="208.6%" filterUnits="objectBoundingBox" id="filter-4">
            <feGaussianBlur stdDeviation="12.6953125" in="SourceGraphic"></feGaussianBlur>
        </filter>
        <filter x="-34.7%" y="-62.4%" width="169.3%" height="228.6%" filterUnits="objectBoundingBox" id="filter-5">
            <feOffset dx="0" dy="2" in="SourceAlpha" result="shadowOffsetOuter1"></feOffset>
            <feGaussianBlur stdDeviation="9.5" in="shadowOffsetOuter1" result="shadowBlurOuter1"></feGaussianBlur>
            <feColorMatrix values="0 0 0 0 0   0 0 0 0 0   0 0 0 0 0  0 0 0 0.5 0" type="matrix" in="shadowBlurOuter1"></feColorMatrix>
        </filter>
        <path d="M1146.05378,380.264083 L1064.76192,339.110937 C1059.83449,336.616479 1057.86218,330.599854 1060.35664,325.672428 C1061.31852,323.772379 1062.86187,322.229029 1064.76192,321.267149 L1146.05378,280.114003 C1152.84261,276.677228 1160.859,276.663409 1167.65964,280.076758 L1249.69506,321.25163 C1254.63106,323.729085 1256.6241,329.738875 1254.14664,334.674871 C1253.18074,336.599297 1251.61949,338.160556 1249.69506,339.126456 L1167.65964,380.301328 C1160.859,383.714677 1152.84261,383.700858 1146.05378,380.264083 Z" id="path-6"></path>
        <filter x="-29.3%" y="-52.4%" width="158.6%" height="208.6%" filterUnits="objectBoundingBox" id="filter-7">
            <feGaussianBlur stdDeviation="12.6953125" in="SourceGraphic"></feGaussianBlur>
        </filter>
        <filter x="-34.7%" y="-62.4%" width="169.3%" height="228.6%" filterUnits="objectBoundingBox" id="filter-8">
            <feOffset dx="0" dy="2" in="SourceAlpha" result="shadowOffsetOuter1"></feOffset>
            <feGaussianBlur stdDeviation="9.5" in="shadowOffsetOuter1" result="shadowBlurOuter1"></feGaussianBlur>
            <feColorMatrix values="0 0 0 0 0   0 0 0 0 0   0 0 0 0 0  0 0 0 0.5 0" type="matrix" in="shadowBlurOuter1"></feColorMatrix>
        </filter>
        <path d="M1147.09092,856.915667 L1065.79907,815.762521 C1060.87164,813.268063 1058.89933,807.251438 1061.39379,802.324012 C1062.35567,800.423963 1063.89902,798.880613 1065.79907,797.918733 L1147.09092,756.765587 C1153.87976,753.328812 1161.89615,753.314993 1168.69679,756.728342 L1250.73221,797.903214 C1255.66821,800.380669 1257.66125,806.390458 1255.18379,811.326455 C1254.21789,813.250881 1252.65663,814.812139 1250.73221,815.778039 L1168.69679,856.952911 C1161.89615,860.36626 1153.87976,860.352441 1147.09092,856.915667 Z" id="path-9"></path>
        <filter x="-29.3%" y="-52.4%" width="158.6%" height="208.6%" filterUnits="objectBoundingBox" id="filter-10">
            <feGaussianBlur stdDeviation="12.6953125" in="SourceGraphic"></feGaussianBlur>
        </filter>
        <filter x="-34.7%" y="-62.4%" width="169.3%" height="228.6%" filterUnits="objectBoundingBox" id="filter-11">
            <feOffset dx="0" dy="2" in="SourceAlpha" result="shadowOffsetOuter1"></feOffset>
            <feGaussianBlur stdDeviation="9.5" in="shadowOffsetOuter1" result="shadowBlurOuter1"></feGaussianBlur>
            <feColorMatrix values="0 0 0 0 0   0 0 0 0 0   0 0 0 0 0  0 0 0 0.5 0" type="matrix" in="shadowBlurOuter1"></feColorMatrix>
        </filter>
        <path d="M200.173563,851.734671 L118.881704,810.581525 C113.954278,808.087068 111.981968,802.070442 114.476425,797.143016 C115.438305,795.242967 116.981655,793.699617 118.881704,792.737737 L200.173563,751.584591 C206.962396,748.147816 214.978785,748.133998 221.779426,751.547347 L303.814847,792.722219 C308.750844,795.199673 310.743886,801.209463 308.266431,806.14546 C307.300532,808.069886 305.739273,809.631144 303.814847,810.597044 L221.779426,851.771916 C214.978785,855.185265 206.962396,855.171446 200.173563,851.734671 Z" id="path-12"></path>
        <filter x="-29.3%" y="-52.4%" width="158.6%" height="208.6%" filterUnits="objectBoundingBox" id="filter-13">
            <feGaussianBlur stdDeviation="12.6953125" in="SourceGraphic"></feGaussianBlur>
        </filter>
        <filter x="-34.7%" y="-62.4%" width="169.3%" height="228.6%" filterUnits="objectBoundingBox" id="filter-14">
            <feOffset dx="0" dy="2" in="SourceAlpha" result="shadowOffsetOuter1"></feOffset>
            <feGaussianBlur stdDeviation="9.5" in="shadowOffsetOuter1" result="shadowBlurOuter1"></feGaussianBlur>
            <feColorMatrix values="0 0 0 0 0   0 0 0 0 0   0 0 0 0 0  0 0 0 0.5 0" type="matrix" in="shadowBlurOuter1"></feColorMatrix>
        </filter>
        <radialGradient cx="49.0857661%" cy="15.0810403%" fx="49.0857661%" fy="15.0810403%" r="65.3610366%" gradientTransform="translate(0.490858,0.150810),scale(0.516585,1.000000),rotate(90.000000),scale(1.000000,1.991935),translate(-0.490858,-0.150810)" id="radialGradient-15">
            <stop stop-color="#0084FF" offset="0%"></stop>
            <stop stop-color="#25CADF" stop-opacity="0" offset="100%"></stop>
        </radialGradient>
        <path d="M673.077705,752.573628 L418.571677,623.725484 C413.644307,621.230916 411.672131,615.214247 414.166698,610.286877 C415.128552,608.386986 416.671786,606.843751 418.571677,605.881898 L673.077705,477.033754 C679.866798,473.596657 687.883623,473.582837 694.684525,476.996507 L951.426242,605.866378 C956.362184,608.343943 958.355092,614.353777 955.877528,619.289718 C954.911654,621.213987 953.350511,622.775129 951.426242,623.741004 L694.684525,752.610875 C687.883623,756.024545 679.866798,756.010725 673.077705,752.573628 Z" id="path-16"></path>
        <filter x="-10.5%" y="-19.6%" width="121.0%" height="140.7%" filterUnits="objectBoundingBox" id="filter-17">
            <feGaussianBlur stdDeviation="12.6953125" in="SourceGraphic"></feGaussianBlur>
        </filter>
        <filter x="-12.4%" y="-23.4%" width="124.9%" height="148.2%" filterUnits="objectBoundingBox" id="filter-18">
            <feOffset dx="0" dy="2" in="SourceAlpha" result="shadowOffsetOuter1"></feOffset>
            <feGaussianBlur stdDeviation="9.5" in="shadowOffsetOuter1" result="shadowBlurOuter1"></feGaussianBlur>
            <feColorMatrix values="0 0 0 0 0   0 0 0 0 0   0 0 0 0 0  0 0 0 0.5 0" type="matrix" in="shadowBlurOuter1"></feColorMatrix>
        </filter>
        <linearGradient x1="27.3203503%" y1="-69.8575854%" x2="50%" y2="144.025188%" id="linearGradient-19">
            <stop stop-color="#4763FF" offset="0%"></stop>
            <stop stop-color="#021D39" offset="100%"></stop>
        </linearGradient>
        <linearGradient x1="12.9242892%" y1="-10.7719741%" x2="50%" y2="93.0969285%" id="linearGradient-20">
            <stop stop-color="#0084FF" offset="0%"></stop>
            <stop stop-color="#25CADF" offset="100%"></stop>
        </linearGradient>
        <linearGradient x1="50%" y1="-16.2853469%" x2="50%" y2="209.303593%" id="linearGradient-21">
            <stop stop-color="#4763FF" offset="0%"></stop>
            <stop stop-color="#021D39" offset="100%"></stop>
        </linearGradient>
        <linearGradient x1="50%" y1="23.7207227%" x2="56.1567894%" y2="108.631119%" id="linearGradient-22">
            <stop stop-color="#007CEF" offset="0%"></stop>
            <stop stop-color="#25CADF" offset="100%"></stop>
        </linearGradient>
        <path d="M230.335211,248.373859 L5.68255847,134.639511 C0.755188294,132.144943 -1.21698783,126.128274 1.2775798,121.200904 C2.23943305,119.301013 3.78266729,117.757778 5.68255847,116.795925 L230.335211,3.06157707 C237.124303,-0.375520059 245.141128,-0.389340115 251.94203,3.02432948 L478.573205,116.780405 C483.509146,119.25797 485.502054,125.267804 483.02449,130.203745 C482.058616,132.128014 480.497473,133.689157 478.573205,134.655031 L251.94203,248.411107 C245.141128,251.824776 237.124303,251.810956 230.335211,248.373859 Z" id="path-23"></path>
        <linearGradient x1="12.9242892%" y1="-10.7719741%" x2="50%" y2="75.0313665%" id="linearGradient-25">
            <stop stop-color="#0084FF" offset="0%"></stop>
            <stop stop-color="#25CADF" offset="100%"></stop>
        </linearGradient>
        <linearGradient x1="-19.2818609%" y1="63.2168489%" x2="125.314127%" y2="77.05202%" id="linearGradient-26">
            <stop stop-color="#4763FF" offset="0%"></stop>
            <stop stop-color="#021D39" offset="100%"></stop>
        </linearGradient>
        <path d="M69.7492327,85.3222982 L6.03537411,52.9539237 C1.11150035,50.4524617 -0.852252468,44.4330379 1.64920944,39.5091641 C2.60938729,37.6191515 4.14536149,36.0831773 6.03537411,35.1229994 L69.7492327,2.7546249 C76.5545525,-0.702662805 84.5986479,-0.716558463 91.4158715,2.71719718 L155.721929,35.1074045 C160.654416,37.5918402 162.638953,43.6044437 160.154517,48.5369303 C159.190249,50.4513451 157.636344,52.0052502 155.721929,52.9695185 L91.4158715,85.3597259 C84.5986479,88.7934815 76.5545525,88.7795859 69.7492327,85.3222982 Z" id="path-27"></path>
        <path d="M70.8915481,85.4467415 L6.15879241,52.977018 C1.22216398,50.5008225 -0.772410975,44.4915414 1.70378455,39.5549129 C2.66997571,37.628681 4.23256053,36.0660962 6.15879241,35.0999051 L70.8915481,2.6301816 C77.6372778,-0.753452806 85.5816722,-0.767072331 92.3389638,2.59341308 L157.672478,35.0845848 C162.617567,37.5438396 164.632735,43.5462466 162.17348,48.4913361 C161.203452,50.4418768 159.623019,52.02231 157.672478,52.9923382 L92.3389638,85.48351 C85.5816722,88.8439954 77.6372778,88.8303759 70.8915481,85.4467415 Z" id="path-29"></path>
        <linearGradient x1="143.213716%" y1="100%" x2="-42.925529%" y2="0%" id="linearGradient-31">
            <stop stop-color="#4763FF" offset="0%"></stop>
            <stop stop-color="#021D39" offset="100%"></stop>
        </linearGradient>
        <linearGradient x1="63.6395444%" y1="78.9117328%" x2="-3.60035639%" y2="-42.6206611%" id="linearGradient-32">
            <stop stop-color="#4763FF" offset="0%"></stop>
            <stop stop-color="#021D39" offset="100%"></stop>
        </linearGradient>
        <path d="M70.8915481,85.4467415 L6.15879241,52.977018 C1.22216398,50.5008225 -0.772410975,44.4915414 1.70378455,39.5549129 C2.66997571,37.628681 4.23256053,36.0660962 6.15879241,35.0999051 L70.8915481,2.6301816 C77.6372778,-0.753452806 85.5816722,-0.767072331 92.3389638,2.59341308 L157.672478,35.0845848 C162.617567,37.5438396 164.632735,43.5462466 162.17348,48.4913361 C161.203452,50.4418768 159.623019,52.02231 157.672478,52.9923382 L92.3389638,85.48351 C85.5816722,88.8439954 77.6372778,88.8303759 70.8915481,85.4467415 Z" id="path-33"></path>
        <path d="M70.8915481,85.4467415 L6.15879241,52.977018 C1.22216398,50.5008225 -0.772410975,44.4915414 1.70378455,39.5549129 C2.66997571,37.628681 4.23256053,36.0660962 6.15879241,35.0999051 L70.8915481,2.6301816 C77.6372778,-0.753452806 85.5816722,-0.767072331 92.3389638,2.59341308 L157.672478,35.0845848 C162.617567,37.5438396 164.632735,43.5462466 162.17348,48.4913361 C161.203452,50.4418768 159.623019,52.02231 157.672478,52.9923382 L92.3389638,85.48351 C85.5816722,88.8439954 77.6372778,88.8303759 70.8915481,85.4467415 Z" id="path-35"></path>
        <radialGradient cx="51.0123822%" cy="50%" fx="51.0123822%" fy="50%" r="70.5395285%" gradientTransform="translate(0.510124,0.500000),scale(0.508547,1.000000),rotate(86.105244),scale(1.000000,1.874969),translate(-0.510124,-0.500000)" id="radialGradient-37">
            <stop stop-color="#1796FF" stop-opacity="0" offset="0%"></stop>
            <stop stop-color="#0084FF" offset="100%"></stop>
        </radialGradient>
        <linearGradient x1="60.0446776%" y1="6.15170065%" x2="80.6010444%" y2="100%" id="linearGradient-38">
            <stop stop-color="#000000" offset="0%"></stop>
            <stop stop-color="#FFFFFF" offset="100%"></stop>
        </linearGradient>
        <linearGradient x1="50%" y1="23.7207227%" x2="59.9951386%" y2="172.424791%" id="linearGradient-39">
            <stop stop-color="#007CEF" offset="0%"></stop>
            <stop stop-color="#25CADF" offset="100%"></stop>
        </linearGradient>
        <polygon id="path-40" points="0.206991427 0 0.206991427 118.126697 201.01195 118.146588 201.01195 0.277143491"></polygon>
        <linearGradient x1="50%" y1="87.7881671%" x2="83.7363941%" y2="173.106448%" id="linearGradient-42">
            <stop stop-color="#007CEF" offset="0%"></stop>
            <stop stop-color="#25CADF" offset="100%"></stop>
        </linearGradient>
        <linearGradient x1="100%" y1="30.6947687%" x2="55.5656677%" y2="89.0461009%" id="linearGradient-43">
            <stop stop-color="#007CEF" offset="0%"></stop>
            <stop stop-color="#25CADF" stop-opacity="0" offset="100%"></stop>
        </linearGradient>
        <linearGradient x1="50%" y1="-10.270619%" x2="50%" y2="100%" id="linearGradient-44">
            <stop stop-color="#FFFFFF" stop-opacity="0.184159873" offset="0%"></stop>
            <stop stop-color="#FFFFFF" stop-opacity="0" offset="100%"></stop>
        </linearGradient>
        <path d="M89.3369578,106.228183 L5.19793922,63.3084276 C0.27820043,60.798843 -1.6756156,54.7761864 0.833968976,49.8564477 C1.79213954,47.9780695 3.31956105,46.450648 5.19793922,45.4924774 L89.3369578,2.57272246 C96.161365,-0.908443456 104.237653,-0.922428432 111.074075,2.53508226 L195.98131,45.476794 C200.909711,47.9693254 202.884373,53.9851794 200.391841,58.9135799 C199.429498,60.8163893 197.88412,62.3617679 195.98131,63.324111 L111.074075,106.265823 C104.237653,109.723333 96.161365,109.709348 89.3369578,106.228183 Z" id="path-45"></path>
        <path d="M67.638314,83.3268644 L6.04979481,51.9102375 C1.13005603,49.4006529 -0.823760003,43.3779964 1.68582457,38.4582576 C2.64399513,36.5798794 4.17141665,35.0524579 6.04979481,34.0942874 L67.638314,2.67766049 C74.4627212,-0.803505422 82.5390092,-0.817490398 89.3754314,2.64002029 L151.53791,34.0786039 C156.46631,36.5711354 158.440972,42.5869894 155.948441,47.5153899 C154.986098,49.4181992 153.440719,50.9635778 151.53791,51.9259209 L89.3754314,83.3645046 C82.5390092,86.8220153 74.4627212,86.8080303 67.638314,83.3268644 Z" id="path-46"></path>
        <linearGradient x1="47.4120606%" y1="24.1766744%" x2="50%" y2="273.773779%" id="linearGradient-48">
            <stop stop-color="#FFFFFF" stop-opacity="0" offset="0%"></stop>
            <stop stop-color="#25CADF" offset="100%"></stop>
        </linearGradient>
        <linearGradient x1="50%" y1="-8.53145326%" x2="50%" y2="273.773779%" id="linearGradient-49">
            <stop stop-color="#FFFFFF" stop-opacity="0" offset="0%"></stop>
            <stop stop-color="#25CADF" offset="100%"></stop>
        </linearGradient>
        <filter x="-10.4%" y="-2.9%" width="120.8%" height="105.8%" filterUnits="objectBoundingBox" id="filter-50">
            <feGaussianBlur stdDeviation="2.6953125" in="SourceGraphic"></feGaussianBlur>
        </filter>
        <filter x="-10.4%" y="-2.9%" width="120.8%" height="105.8%" filterUnits="objectBoundingBox" id="filter-51">
            <feGaussianBlur stdDeviation="2.6953125" in="SourceGraphic"></feGaussianBlur>
        </filter>
        <filter x="-5.2%" y="-9.7%" width="110.5%" height="119.3%" filterUnits="objectBoundingBox" id="filter-52">
            <feGaussianBlur stdDeviation="2.6953125" in="SourceGraphic"></feGaussianBlur>
        </filter>
        <linearGradient x1="65.6973965%" y1="44.4794481%" x2="0%" y2="86.700551%" id="linearGradient-53">
            <stop stop-color="#00D2CE" stop-opacity="0" offset="0%"></stop>
            <stop stop-color="#651FFF" offset="100%"></stop>
        </linearGradient>
        <linearGradient x1="100%" y1="8.64920169%" x2="31.7566368%" y2="50%" id="linearGradient-54">
            <stop stop-color="#00D2CE" offset="0%"></stop>
            <stop stop-color="#651FFF" stop-opacity="0" offset="100%"></stop>
        </linearGradient>
        <linearGradient x1="65.6973965%" y1="44.4794481%" x2="0%" y2="86.700551%" id="linearGradient-55">
            <stop stop-color="#FFFFFF" stop-opacity="0" offset="0%"></stop>
            <stop stop-color="#FFFFFF" offset="100%"></stop>
        </linearGradient>
        <linearGradient x1="100%" y1="8.64920169%" x2="31.7566368%" y2="50%" id="linearGradient-56">
            <stop stop-color="#FFFFFF" offset="0%"></stop>
            <stop stop-color="#FFFFFF" stop-opacity="0" offset="100%"></stop>
        </linearGradient>
        <linearGradient x1="50%" y1="3.23175275%" x2="50%" y2="104.386044%" id="linearGradient-57">
            <stop stop-color="#0084FF" stop-opacity="0" offset="0%"></stop>
            <stop stop-color="#25CADF" offset="100%"></stop>
        </linearGradient>
        <linearGradient x1="50%" y1="-8.53145326%" x2="50%" y2="273.773779%" id="linearGradient-58">
            <stop stop-color="#FFFFFF" stop-opacity="0" offset="0%"></stop>
            <stop stop-color="#FFFFFF" offset="100%"></stop>
        </linearGradient>
        <filter x="-10.0%" y="-3.2%" width="120.0%" height="106.4%" filterUnits="objectBoundingBox" id="filter-59">
            <feGaussianBlur stdDeviation="2.6953125" in="SourceGraphic"></feGaussianBlur>
        </filter>
        <linearGradient x1="50%" y1="-8.53145326%" x2="50%" y2="265.742154%" id="linearGradient-60">
            <stop stop-color="#FFFFFF" stop-opacity="0" offset="0%"></stop>
            <stop stop-color="#FFFFFF" offset="100%"></stop>
        </linearGradient>
        <filter x="-10.0%" y="-3.2%" width="120.0%" height="106.4%" filterUnits="objectBoundingBox" id="filter-61">
            <feGaussianBlur stdDeviation="2.6953125" in="SourceGraphic"></feGaussianBlur>
        </filter>
        <filter x="-5.0%" y="-9.2%" width="110.0%" height="118.4%" filterUnits="objectBoundingBox" id="filter-62">
            <feGaussianBlur stdDeviation="2.6953125" in="SourceGraphic"></feGaussianBlur>
        </filter>
        <filter x="-10.0%" y="-3.2%" width="120.0%" height="106.4%" filterUnits="objectBoundingBox" id="filter-63">
            <feGaussianBlur stdDeviation="2.6953125" in="SourceGraphic"></feGaussianBlur>
        </filter>
        <filter x="-10.0%" y="-3.2%" width="120.0%" height="106.4%" filterUnits="objectBoundingBox" id="filter-64">
            <feGaussianBlur stdDeviation="2.6953125" in="SourceGraphic"></feGaussianBlur>
        </filter>
        <filter x="-5.0%" y="-9.2%" width="110.0%" height="118.4%" filterUnits="objectBoundingBox" id="filter-65">
            <feGaussianBlur stdDeviation="2.6953125" in="SourceGraphic"></feGaussianBlur>
        </filter>
        <linearGradient x1="44.9841057%" y1="100%" x2="50%" y2="123.047121%" id="linearGradient-66">
            <stop stop-color="#0084FF" offset="0%"></stop>
            <stop stop-color="#1796FF" offset="100%"></stop>
        </linearGradient>
        <path d="M39.3518962,4.43668345 C43.3034329,4.43668345 46.5067864,7.62710061 46.5067864,11.5626796 C46.5067864,14.1992982 45.0758083,16.515247 42.9293413,17.7266663 L42.9293413,22.2516739 L46.5067864,22.2516739 C60.337165,22.2516739 71.5489021,33.418134 71.5489021,47.1926606 L75.1263472,47.1926606 C77.1021156,47.1926606 78.7037923,48.7878691 78.7037923,50.7556587 L78.7037923,61.4446529 C78.7037923,63.4124424 77.1021156,65.007651 75.1263472,65.007651 L71.5489021,65.007651 L71.5489021,68.5706491 C71.5489021,72.5062281 68.3455486,75.6966453 64.3940119,75.6966453 L14.3097804,75.6966453 C10.3582437,75.6966453 7.15489021,72.5062281 7.15489021,68.5706491 L7.15489021,65.007651 L3.57744511,65.007651 C1.60167673,65.007651 0,63.4124424 0,61.4446529 L0,50.7556587 C-3.97176192e-16,48.7878691 1.60167673,47.1926606 3.57744511,47.1926606 L7.15489021,47.1926606 C7.15489021,33.418134 18.3666273,22.2516739 32.1970059,22.2516739 L35.7744511,22.2516739 L35.7744511,17.7266663 C33.627984,16.515247 32.1970059,14.1992982 32.1970059,11.5626796 C32.1970059,7.62710061 35.4003594,4.43668345 39.3518962,4.43668345 Z M23.2533932,43.6296625 C18.3139722,43.6296625 14.3097804,47.6176839 14.3097804,52.5371577 C14.3097804,57.4566315 18.3139722,61.4446529 23.2533932,61.4446529 C28.1928141,61.4446529 32.1970059,57.4566315 32.1970059,52.5371577 C32.1970059,47.6176839 28.1928141,43.6296625 23.2533932,43.6296625 Z M55.4503991,43.6296625 C50.5109782,43.6296625 46.5067864,47.6176839 46.5067864,52.5371577 C46.5067864,57.4566315 50.5109782,61.4446529 55.4503991,61.4446529 C60.3898201,61.4446529 64.3940119,57.4566315 64.3940119,52.5371577 C64.3940119,47.6176839 60.3898201,43.6296625 55.4503991,43.6296625 Z" id="path-67"></path>
        <filter x="-24.1%" y="-23.9%" width="148.3%" height="153.3%" filterUnits="objectBoundingBox" id="filter-68">
            <feOffset dx="0" dy="2" in="SourceAlpha" result="shadowOffsetOuter1"></feOffset>
            <feGaussianBlur stdDeviation="6" in="shadowOffsetOuter1" result="shadowBlurOuter1"></feGaussianBlur>
            <feColorMatrix values="0 0 0 0 0.396078431   0 0 0 0 0.121568627   0 0 0 0 1  0 0 0 0.5 0" type="matrix" in="shadowBlurOuter1"></feColorMatrix>
        </filter>
        <linearGradient x1="50%" y1="100%" x2="50%" y2="0%" id="linearGradient-69">
            <stop stop-color="#04C0FF" offset="0%"></stop>
            <stop stop-color="#1796FF" offset="100%"></stop>
        </linearGradient>
        <filter x="-10.0%" y="-3.2%" width="120.0%" height="106.4%" filterUnits="objectBoundingBox" id="filter-70">
            <feGaussianBlur stdDeviation="2.6953125" in="SourceGraphic"></feGaussianBlur>
        </filter>
        <filter x="-10.0%" y="-3.2%" width="120.0%" height="106.4%" filterUnits="objectBoundingBox" id="filter-71">
            <feGaussianBlur stdDeviation="2.6953125" in="SourceGraphic"></feGaussianBlur>
        </filter>
        <filter x="-5.0%" y="-9.2%" width="110.0%" height="118.4%" filterUnits="objectBoundingBox" id="filter-72">
            <feGaussianBlur stdDeviation="2.6953125" in="SourceGraphic"></feGaussianBlur>
        </filter>
        <path d="M60.0629539,67.9032143 C55.8960864,67.9032143 52.5550846,64.5277687 52.5550846,60.402224 C52.5550846,56.2391743 55.8960864,52.9012336 60.0629539,52.9012336 C64.2094355,52.9012336 67.5708231,56.2595414 67.5708231,60.402224 C67.5708231,64.5449066 64.2094355,67.9032143 60.0629539,67.9032143 Z M60.0629539,45.4002433 C51.7699905,45.4002433 45.0472154,52.1168588 45.0472154,60.402224 C45.0472154,68.6875891 51.7699905,75.4042047 60.0629539,75.4042047 C68.3559172,75.4042047 75.0786923,68.6875891 75.0786923,60.402224 C75.0786923,52.1168588 68.3559172,45.4002433 60.0629539,45.4002433 Z M37.5393462,38.2743025 C35.647696,38.2743025 33.8335229,39.0250691 32.4959242,40.3614422 C31.1583255,41.6978153 30.4068704,43.5103263 30.4068704,45.4002433 C30.4068704,49.3357917 33.6001886,52.5261841 37.5393462,52.5261841 C41.4785038,52.5261841 44.6718219,49.3357917 44.6718219,45.4002433 C44.6718219,43.5103263 43.9203668,41.6978153 42.5827681,40.3614422 C41.2451695,39.0250691 39.4309963,38.2743025 37.5393462,38.2743025 Z M15.0157385,67.9032143 C10.848871,67.9032143 7.50786923,64.5277687 7.50786923,60.402224 C7.50786923,56.2391743 10.848871,52.9012336 15.0157385,52.9012336 C19.1622201,52.9012336 22.5236077,56.2595414 22.5236077,60.402224 C22.5236077,64.5449066 19.1622201,67.9032143 15.0157385,67.9032143 Z M15.0157385,45.4002433 C6.7227751,45.4002433 1.66708186e-15,52.1168588 0,60.402224 C1.66708186e-15,68.6875891 6.7227751,75.4042047 15.0157385,75.4042047 C23.3087018,75.4042047 30.0314769,68.6875891 30.0314769,60.402224 C30.0314769,52.1168588 23.3087018,45.4002433 15.0157385,45.4002433 Z M37.5393462,11.6457867 C41.6858278,11.6457867 45.0472154,15.0040945 45.0472154,19.1467771 C45.0472154,23.2894596 41.6858278,26.6477674 37.5393462,26.6477674 C33.3724787,26.6477674 30.0314769,23.2723218 30.0314769,19.1467771 C30.0314769,14.9837274 33.3724787,11.6457867 37.5393462,11.6457867 Z M37.5393462,34.1487578 C45.8323095,34.1487578 52.5550846,27.4321422 52.5550846,19.1467771 C52.5550846,10.8614119 45.8323095,4.14479638 37.5393462,4.14479638 C29.2463828,4.14479638 22.5236077,10.8614119 22.5236077,19.1467771 C22.5236077,27.4321422 29.2463828,34.1487578 37.5393462,34.1487578 Z" id="path-73"></path>
        <filter x="-25.3%" y="-23.9%" width="150.6%" height="153.3%" filterUnits="objectBoundingBox" id="filter-74">
            <feOffset dx="0" dy="2" in="SourceAlpha" result="shadowOffsetOuter1"></feOffset>
            <feGaussianBlur stdDeviation="6" in="shadowOffsetOuter1" result="shadowBlurOuter1"></feGaussianBlur>
            <feColorMatrix values="0 0 0 0 0.396078431   0 0 0 0 0.121568627   0 0 0 0 1  0 0 0 0.5 0" type="matrix" in="shadowBlurOuter1"></feColorMatrix>
        </filter>
        <filter x="-10.0%" y="-3.2%" width="120.0%" height="106.4%" filterUnits="objectBoundingBox" id="filter-75">
            <feGaussianBlur stdDeviation="2.6953125" in="SourceGraphic"></feGaussianBlur>
        </filter>
        <filter x="-10.0%" y="-3.2%" width="120.0%" height="106.4%" filterUnits="objectBoundingBox" id="filter-76">
            <feGaussianBlur stdDeviation="2.6953125" in="SourceGraphic"></feGaussianBlur>
        </filter>
        <filter x="-5.0%" y="-9.2%" width="110.0%" height="118.4%" filterUnits="objectBoundingBox" id="filter-77">
            <feGaussianBlur stdDeviation="2.6953125" in="SourceGraphic"></feGaussianBlur>
        </filter>
        <path d="M8.68754015,76.2728884 L0.320573437,41.9038914 L0,40.4981146 C-3.55908011e-16,38.733594 1.43525617,37.3031674 3.20573437,37.3031674 L17.8879978,37.3031674 L52.6381584,37.3031674 L67.3204218,37.3031674 C69.0909,37.3031674 70.5261562,38.733594 70.5261562,40.4981146 L70.3979268,41.4246493 L61.838616,76.2728884 C60.7807237,78.3496041 58.6008243,79.7873303 56.1003515,79.7873303 L14.4258047,79.7873303 C11.9253319,79.7873303 9.74543249,78.3496041 8.68754015,76.2728884 Z M35.2630781,52.1553544 C31.7221217,52.1553544 28.8516093,55.0162076 28.8516093,58.5452489 C28.8516093,62.0742901 31.7221217,64.9351433 35.2630781,64.9351433 C38.8040345,64.9351433 41.6745468,62.0742901 41.6745468,58.5452489 C41.6745468,55.0162076 38.8040345,52.1553544 35.2630781,52.1553544 Z" id="path-78"></path>
        <filter x="-26.9%" y="-40.0%" width="153.9%" height="189.4%" filterUnits="objectBoundingBox" id="filter-79">
            <feOffset dx="0" dy="2" in="SourceAlpha" result="shadowOffsetOuter1"></feOffset>
            <feGaussianBlur stdDeviation="6" in="shadowOffsetOuter1" result="shadowBlurOuter1"></feGaussianBlur>
            <feColorMatrix values="0 0 0 0 0.396078431   0 0 0 0 0.121568627   0 0 0 0 1  0 0 0 0.5 0" type="matrix" in="shadowBlurOuter1"></feColorMatrix>
        </filter>
        <polygon id="path-80" points="41.1393758 33.158371 30.4239297 33.158371 30.4239297 22.6498469 21.7801365 22.6498469 21.7801365 18.5050505 35.7816528 4.14479638 49.7831691 18.5050505 49.7831691 22.6498469 41.1393758 22.6498469"></polygon>
        <filter x="-67.8%" y="-58.6%" width="235.7%" height="231.0%" filterUnits="objectBoundingBox" id="filter-81">
            <feOffset dx="0" dy="2" in="SourceAlpha" result="shadowOffsetOuter1"></feOffset>
            <feGaussianBlur stdDeviation="6" in="shadowOffsetOuter1" result="shadowBlurOuter1"></feGaussianBlur>
            <feColorMatrix values="0 0 0 0 0.396078431   0 0 0 0 0.121568627   0 0 0 0 1  0 0 0 0.5 0" type="matrix" in="shadowBlurOuter1"></feColorMatrix>
        </filter>
        <path d="M50.2678007,25.4927018 C50.2678007,26.9856341 50.2678007,28.3664982 50.2678007,29.6352941 C54.423941,32.6195475 54.2146254,36.5630252 54.2146254,41.8920491 L54.2146254,50.7737557 L78.823351,50.7737557 L78.823351,41.8920491 C78.823351,33.6142986 62.6325941,28.2024682 54.2844846,28.2024682 L50.2678007,25.4927018 Z M25.0801571,29.45766 C16.7320477,29.45766 0,33.6142986 0,41.8920491 L0,50.7737557 L50.1603143,50.7737557 L50.1603143,41.8920491 C50.1603143,33.6142986 33.4282666,29.45766 25.0801571,29.45766 Z M25.0801571,21.3160957 C31.0164664,21.3160957 35.8287959,16.5443251 35.8287959,10.6580478 C35.8287959,4.77177055 31.0164664,0 25.0801571,0 C19.1438479,0 14.3315184,4.77177055 14.3315184,10.6580478 C14.3315184,16.5443251 19.1438479,21.3160957 25.0801571,21.3160957 Z M53.7431939,21.3160957 C59.6795032,21.3160957 64.4918327,16.5443251 64.4918327,10.6580478 C64.4918327,4.77177055 59.6795032,0 53.7431939,0 C47.8068846,0 42.9945551,4.77177055 42.9945551,10.6580478 C42.9945551,16.5443251 47.8068846,21.3160957 53.7431939,21.3160957 Z" id="path-82"></path>
        <filter x="-24.1%" y="-33.5%" width="148.2%" height="174.8%" filterUnits="objectBoundingBox" id="filter-83">
            <feOffset dx="0" dy="2" in="SourceAlpha" result="shadowOffsetOuter1"></feOffset>
            <feGaussianBlur stdDeviation="6" in="shadowOffsetOuter1" result="shadowBlurOuter1"></feGaussianBlur>
            <feColorMatrix values="0 0 0 0 0.396078431   0 0 0 0 0.121568627   0 0 0 0 1  0 0 0 0.5 0" type="matrix" in="shadowBlurOuter1"></feColorMatrix>
        </filter>
    </defs>
    <g id="Page-1" stroke="none" stroke-width="1" fill="none" fill-rule="evenodd">
        <g id="Ecommerce-Platform" transform="translate(-227.000000, -86.000000)">
            <g transform="translate(229.000000, 90.000000)">
                <g id="Path-32" opacity="0.482450181" filter="url(#filter-4)">
                    <use fill="black" fill-opacity="1" filter="url(#filter-5)" xlink:href="#path-3"></use>
                    <use fill="url(#linearGradient-1)" fill-rule="evenodd" xlink:href="#path-3"></use>
                    <use fill="url(#radialGradient-2)" fill-rule="evenodd" xlink:href="#path-3"></use>
                </g>
                <g id="Path-32" opacity="0.482450181" filter="url(#filter-7)">
                    <use fill="black" fill-opacity="1" filter="url(#filter-8)" xlink:href="#path-6"></use>
                    <use fill="url(#linearGradient-1)" fill-rule="evenodd" xlink:href="#path-6"></use>
                    <use fill="url(#radialGradient-2)" fill-rule="evenodd" xlink:href="#path-6"></use>
                </g>
                <g id="Path-32" opacity="0.482450181" filter="url(#filter-10)">
                    <use fill="black" fill-opacity="1" filter="url(#filter-11)" xlink:href="#path-9"></use>
                    <use fill="url(#linearGradient-1)" fill-rule="evenodd" xlink:href="#path-9"></use>
                    <use fill="url(#radialGradient-2)" fill-rule="evenodd" xlink:href="#path-9"></use>
                </g>
                <g id="Path-32" opacity="0.482450181" filter="url(#filter-13)">
                    <use fill="black" fill-opacity="1" filter="url(#filter-14)" xlink:href="#path-12"></use>
                    <use fill="url(#linearGradient-1)" fill-rule="evenodd" xlink:href="#path-12"></use>
                    <use fill="url(#radialGradient-2)" fill-rule="evenodd" xlink:href="#path-12"></use>
                </g>
                <g id="Path-32" opacity="0.482450181" filter="url(#filter-17)">
                    <use fill="black" fill-opacity="1" filter="url(#filter-18)" xlink:href="#path-16"></use>
                    <use fill="url(#linearGradient-1)" fill-rule="evenodd" xlink:href="#path-16"></use>
                    <use fill="url(#radialGradient-15)" fill-rule="evenodd" xlink:href="#path-16"></use>
                </g>
                <g id="Group-2" transform="translate(2.074299, 197.914027)">
                    <path d="M672.078777,607.733972 L313.167174,426.13263 C308.239229,423.639198 306.265666,417.622984 308.759097,412.695039 C309.721224,410.793519 311.265655,409.249088 313.167174,408.286961 L672.078777,226.685619 C678.865193,223.251843 686.877528,223.238036 693.675738,226.648402 L1055.72241,408.271454 C1060.65892,410.747886 1062.6532,416.757263 1060.17677,421.693772 C1059.21063,423.619665 1057.6483,425.182001 1055.72241,426.148137 L693.675738,607.771189 C686.877528,611.181556 678.865193,611.167748 672.078777,607.733972 Z" id="Path-32-Copy-3" stroke="#0A1129" stroke-width="4" opacity="0.597995924"></path>
                    <g id="Group-37-Copy-3" transform="translate(0.000000, 22.796380)">
                        <path d="M198.17347,216.347639 L4.85671989,118.483074 C-0.0707060801,115.988616 -2.04301678,109.971991 0.451440639,105.044565 C1.41332047,103.144516 2.95667076,101.601166 4.85671989,100.639286 L198.17347,2.77472019 C204.962303,-0.662054752 212.978693,-0.675873601 219.779334,2.73747547 L414.804667,100.623767 C419.740663,103.101222 421.733705,109.111012 419.256251,114.047008 C418.290351,115.971434 416.729093,117.532693 414.804667,118.498592 L219.779334,216.384884 C212.978693,219.798233 204.962303,219.784414 198.17347,216.347639 Z" id="Path-32-Copy-3" stroke="#0A1129" stroke-width="4" opacity="0.597995924"></path>
                        <path d="M198.17347,687.818228 L4.85671989,589.953662 C-0.0707060801,587.459205 -2.04301678,581.442579 0.451440639,576.515153 C1.41332047,574.615104 2.95667076,573.071754 4.85671989,572.109874 L198.17347,474.245308 C204.962303,470.808533 212.978693,470.794715 219.779334,474.208064 L414.804667,572.094355 C419.740663,574.57181 421.733705,580.5816 419.256251,585.517596 C418.290351,587.442022 416.729093,589.003281 414.804667,589.969181 L219.779334,687.855472 C212.978693,691.268821 204.962303,691.255003 198.17347,687.818228 Z" id="Path-32-Copy-3" stroke="#0A1129" stroke-width="4" opacity="0.597995924"></path>
                        <path d="M1145.09083,692.999223 L951.774082,595.134657 C946.846656,592.6402 944.874345,586.623575 947.368802,581.696149 C948.330682,579.7961 949.874032,578.252749 951.774082,577.29087 L1145.09083,479.426304 C1151.87966,475.989529 1159.89605,475.97571 1166.6967,479.389059 L1361.72203,577.275351 C1366.65802,579.752806 1368.65107,585.762595 1366.17361,590.698592 C1365.20771,592.623018 1363.64645,594.184276 1361.72203,595.150176 L1166.6967,693.036468 C1159.89605,696.449817 1151.87966,696.435998 1145.09083,692.999223 Z" id="Path-32-Copy-2" stroke="#0A1129" stroke-width="4" opacity="0.597995924"></path>
                        <path d="M1145.09083,217.383839 L951.774082,119.519273 C946.846656,117.024815 944.874345,111.00819 947.368802,106.080764 C948.330682,104.180715 949.874032,102.637365 951.774082,101.675485 L1145.09083,3.81091928 C1151.87966,0.374144343 1159.89605,0.360325495 1166.6967,3.77367457 L1361.72203,101.659966 C1366.65802,104.137421 1368.65107,110.147211 1366.17361,115.083207 C1365.20771,117.007633 1363.64645,118.568892 1361.72203,119.534791 L1166.6967,217.421083 C1159.89605,220.834432 1151.87966,220.820613 1145.09083,217.383839 Z" id="Path-32-Copy-3" stroke="#0A1129" stroke-width="4" opacity="0.597995924"></path>
                        <path d="M411.436086,353.18094 C411.205616,351.717934 411.297568,350.193915 411.748294,348.71979 L411.748294,320.18552 L461.292978,320.18552 L671.305507,213.862992 C678.094599,210.425895 686.111424,210.412075 692.912326,213.825744 L904.808181,320.18552 L954.71289,320.18552 L954.71289,348.650385 C955.166383,350.101122 955.291496,351.655662 955.048233,353.193395 C955.36192,355.184378 955.078472,357.288804 954.105329,359.227553 C953.139455,361.151822 951.578312,362.712964 949.654044,363.678839 L692.912326,492.54871 C686.111424,495.96238 678.094599,495.94856 671.305507,492.511462 L416.799478,363.663319 C412.827757,361.652565 410.776088,357.353427 411.436086,353.18094 Z" id="Combined-Shape-Copy-3" fill="url(#linearGradient-19)"></path>
                        <path d="M411.436086,337.637954 C411.205616,336.174948 411.297568,334.650928 411.748294,333.176803 L411.748294,304.642534 L461.292978,304.642534 L671.305507,198.320005 C678.094599,194.882908 686.111424,194.869088 692.912326,198.282758 L904.808181,304.642534 L954.71289,304.642534 L954.71289,333.107399 C955.166383,334.558135 955.291496,336.112676 955.048233,337.650409 C955.36192,339.641391 955.078472,341.745818 954.105329,343.684567 C953.139455,345.608835 951.578312,347.169978 949.654044,348.135852 L692.912326,477.005724 C686.111424,480.419393 678.094599,480.405573 671.305507,476.968476 L416.799478,348.120332 C412.827757,346.109579 410.776088,341.810441 411.436086,337.637954 Z" id="Combined-Shape-Copy" fill="url(#linearGradient-20)"></path>
                        <path d="M411.436086,333.493158 C411.205616,332.030151 411.297568,330.506132 411.748294,329.032007 L411.748294,300.497738 L461.292978,300.497738 L671.305507,194.175209 C678.094599,190.738112 686.111424,190.724292 692.912326,194.137961 L904.808181,300.497738 L954.71289,300.497738 L954.71289,328.962602 C955.166383,330.413339 955.291496,331.967879 955.048233,333.505612 C955.36192,335.496595 955.078472,337.601021 954.105329,339.53977 C953.139455,341.464039 951.578312,343.025181 949.654044,343.991056 L692.912326,472.860927 C686.111424,476.274597 678.094599,476.260777 671.305507,472.82368 L416.799478,343.975536 C412.827757,341.964782 410.776088,337.665644 411.436086,333.493158 Z" id="Combined-Shape" fill="url(#linearGradient-19)"></path>
                        <path d="M671.003407,438.605302 L416.497378,309.757158 C411.570008,307.26259 409.597832,301.245921 412.0924,296.318551 C413.054253,294.41866 414.597487,292.875426 416.497378,291.913572 L671.003407,163.065429 C677.792499,159.628331 685.809324,159.614511 692.610226,163.028181 L949.351944,291.898052 C954.287885,294.375617 956.280794,300.385451 953.803229,305.321392 C952.837355,307.245661 951.276212,308.806804 949.351944,309.772678 L692.610226,438.642549 C685.809324,442.056219 677.792499,442.042399 671.003407,438.605302 Z" id="Path-32" fill="url(#linearGradient-21)"></path>
                        <g id="Path-32-Copy-6" transform="translate(440.788476, 175.117647)">
                            <mask id="mask-24" fill="white">
                                <use xlink:href="#path-23"></use>
                            </mask>
                            <use id="Mask" fill="url(#linearGradient-22)" xlink:href="#path-23"></use>
                            <path d="M230.335211,257.699651 L5.68255847,143.965303 C0.755188294,141.470735 -1.21698783,135.454066 1.2775798,130.526696 C2.23943305,128.626805 3.78266729,127.08357 5.68255847,126.121717 L230.335211,12.3873689 C237.124303,8.9502718 245.141128,8.93645174 251.94203,12.3501213 L478.573205,126.106197 C483.509146,128.583762 485.502054,134.593596 483.02449,139.529537 C482.058616,141.453806 480.497473,143.014948 478.573205,143.980823 L251.94203,257.736899 C245.141128,261.150568 237.124303,261.136748 230.335211,257.699651 Z" fill="url(#linearGradient-25)" mask="url(#mask-24)"></path>
                        </g>
                    </g>
                    <g id="Group" transform="translate(1056.855193, 1.036199)">
                        <path d="M0.816096771,131.321998 L0.816096771,102.771744 L50.5815573,102.771744 L87.1242833,84.2723741 C93.913116,80.8355992 101.929506,80.8217803 108.730147,84.2351294 L145.661869,102.771744 L196.046537,102.771744 L196.046537,132.198899 C196.523912,134.36278 196.288643,136.698439 195.217152,138.833242 C194.251252,140.757668 192.689993,142.318927 190.765567,143.284827 L108.730147,184.459699 C101.929506,187.873048 93.913116,187.859229 87.1242833,184.422454 L5.8324247,143.269308 C1.39287907,141.021835 -0.647771461,135.915146 0.816096771,131.321998 Z" id="Combined-Shape-Copy-6" fill="url(#linearGradient-26)"></path>
                        <path d="M0.816096771,110.598016 L0.816096771,82.0477618 L50.5815573,82.0477618 L87.1242833,63.5483922 C93.913116,60.1116173 101.929506,60.0977984 108.730147,63.5111475 L145.661869,82.0477618 L196.046537,82.0477618 L196.046537,111.474917 C196.523912,113.638798 196.288643,115.974457 195.217152,118.10926 C194.251252,120.033686 192.689993,121.594945 190.765567,122.560845 L108.730147,163.735717 C101.929506,167.149066 93.913116,167.135247 87.1242833,163.698472 L5.8324247,122.545326 C1.39287907,120.297853 -0.647771461,115.191164 0.816096771,110.598016 Z" id="Combined-Shape-Copy-5" fill="url(#linearGradient-25)"></path>
                        <path d="M0.816096771,106.45322 L0.816096771,77.9029654 L50.5815573,77.9029654 L87.1242833,59.4035958 C93.913116,55.9668209 101.929506,55.953002 108.730147,59.3663511 L145.661869,77.9029654 L196.046537,77.9029654 L196.046537,107.330121 C196.523912,109.494001 196.288643,111.829661 195.217152,113.964464 C194.251252,115.88889 192.689993,117.450149 190.765567,118.416048 L108.730147,159.59092 C101.929506,163.004269 93.913116,162.990451 87.1242833,159.553676 L5.8324247,118.40053 C1.39287907,116.153056 -0.647771461,111.046368 0.816096771,106.45322 Z" id="Combined-Shape-Copy-4" fill="url(#linearGradient-26)"></path>
                        <path d="M0.816096771,85.7292382 L0.816096771,57.1789835 L50.5815573,57.1789835 L87.1242833,38.6796139 C93.913116,35.242839 101.929506,35.2290201 108.730147,38.6423692 L145.661869,57.1789835 L196.046537,57.1789835 L196.046537,86.606139 C196.523912,88.7700195 196.288643,91.1056792 195.217152,93.2404822 C194.251252,95.1649081 192.689993,96.7261666 190.765567,97.6920664 L108.730147,138.866938 C101.929506,142.280287 93.913116,142.266469 87.1242833,138.829694 L5.8324247,97.6765477 C1.39287907,95.4290746 -0.647771461,90.322386 0.816096771,85.7292382 Z" id="Combined-Shape-Copy-2" fill="url(#linearGradient-25)"></path>
                        <path d="M0.816096771,81.5844418 L0.816096771,53.0341871 L50.5815573,53.0341871 L87.1242833,34.5348175 C93.913116,31.0980426 101.929506,31.0842238 108.730147,34.4975728 L145.661869,53.0341871 L196.046537,53.0341871 L196.046537,82.4613426 C196.523912,84.6252231 196.288643,86.9608828 195.217152,89.0956858 C194.251252,91.0201118 192.689993,92.5813702 190.765567,93.54727 L108.730147,134.722142 C101.929506,138.135491 93.913116,138.121672 87.1242833,134.684897 L5.8324247,93.5317514 C1.39287907,91.2842782 -0.647771461,86.1775896 0.816096771,81.5844418 Z" id="Combined-Shape" fill="url(#linearGradient-26)"></path>
                        <path d="M87.1242833,103.598924 L5.8324247,62.4457785 C0.904998735,59.9513211 -1.06731197,53.9346958 1.42714545,49.0072699 C2.38902528,47.1072207 3.93237558,45.5638704 5.8324247,44.6019906 L87.1242833,3.44884469 C93.913116,0.0120697522 101.929506,-0.00174909677 108.730147,3.41159998 L190.765567,44.586472 C195.701564,47.0639266 197.694606,53.0737163 195.217152,58.009713 C194.251252,59.9341389 192.689993,61.4953974 190.765567,62.4612971 L108.730147,103.636169 C101.929506,107.049518 93.913116,107.035699 87.1242833,103.598924 Z" id="Path-32" fill="url(#linearGradient-21)"></path>
                        <g id="Path-32-Copy-8" transform="translate(17.112964, 9.325792)">
                            <mask id="mask-28" fill="white">
                                <use xlink:href="#path-27"></use>
                            </mask>
                            <use id="Mask" fill="url(#linearGradient-22)" xlink:href="#path-27"></use>
                            <path d="M69.7492327,91.5394927 L6.03537411,59.1711182 C1.11150035,56.6696563 -0.852252468,50.6502324 1.64920944,45.7263587 C2.60938729,43.8363461 4.14536149,42.3003719 6.03537411,41.340194 L69.7492327,8.97181947 C76.5545525,5.51453177 84.5986479,5.50063611 91.4158715,8.93439175 L155.721929,41.3245991 C160.654416,43.8090348 162.638953,49.8216383 160.154517,54.7541248 C159.190249,56.6685397 157.636344,58.2224448 155.721929,59.1867131 L91.4158715,91.5769205 C84.5986479,95.0106761 76.5545525,94.9967805 69.7492327,91.5394927 Z" fill="url(#linearGradient-25)" mask="url(#mask-28)"></path>
                        </g>
                    </g>
                    <g id="Group-Copy" transform="translate(1057.892343, 477.687783)">
                        <path d="M0.816096771,131.321998 L0.816096771,102.771744 L50.5815573,102.771744 L87.1242833,84.2723741 C93.913116,80.8355992 101.929506,80.8217803 108.730147,84.2351294 L145.661869,102.771744 L196.046537,102.771744 L196.046537,132.198899 C196.523912,134.36278 196.288643,136.698439 195.217152,138.833242 C194.251252,140.757668 192.689993,142.318927 190.765567,143.284827 L108.730147,184.459699 C101.929506,187.873048 93.913116,187.859229 87.1242833,184.422454 L5.8324247,143.269308 C1.39287907,141.021835 -0.647771461,135.915146 0.816096771,131.321998 Z" id="Combined-Shape-Copy-6" fill="url(#linearGradient-19)"></path>
                        <path d="M0.816096771,110.598016 L0.816096771,82.0477618 L50.5815573,82.0477618 L87.1242833,63.5483922 C93.913116,60.1116173 101.929506,60.0977984 108.730147,63.5111475 L145.661869,82.0477618 L196.046537,82.0477618 L196.046537,111.474917 C196.523912,113.638798 196.288643,115.974457 195.217152,118.10926 C194.251252,120.033686 192.689993,121.594945 190.765567,122.560845 L108.730147,163.735717 C101.929506,167.149066 93.913116,167.135247 87.1242833,163.698472 L5.8324247,122.545326 C1.39287907,120.297853 -0.647771461,115.191164 0.816096771,110.598016 Z" id="Combined-Shape-Copy-5" fill="url(#linearGradient-25)"></path>
                        <path d="M0.816096771,106.45322 L0.816096771,77.9029654 L50.5815573,77.9029654 L87.1242833,59.4035958 C93.913116,55.9668209 101.929506,55.953002 108.730147,59.3663511 L145.661869,77.9029654 L196.046537,77.9029654 L196.046537,107.330121 C196.523912,109.494001 196.288643,111.829661 195.217152,113.964464 C194.251252,115.88889 192.689993,117.450149 190.765567,118.416048 L108.730147,159.59092 C101.929506,163.004269 93.913116,162.990451 87.1242833,159.553676 L5.8324247,118.40053 C1.39287907,116.153056 -0.647771461,111.046368 0.816096771,106.45322 Z" id="Combined-Shape-Copy-4" fill="url(#linearGradient-19)"></path>
                        <path d="M0.816096771,85.7292382 L0.816096771,57.1789835 L50.5815573,57.1789835 L87.1242833,38.6796139 C93.913116,35.242839 101.929506,35.2290201 108.730147,38.6423692 L145.661869,57.1789835 L196.046537,57.1789835 L196.046537,86.606139 C196.523912,88.7700195 196.288643,91.1056792 195.217152,93.2404822 C194.251252,95.1649081 192.689993,96.7261666 190.765567,97.6920664 L108.730147,138.866938 C101.929506,142.280287 93.913116,142.266469 87.1242833,138.829694 L5.8324247,97.6765477 C1.39287907,95.4290746 -0.647771461,90.322386 0.816096771,85.7292382 Z" id="Combined-Shape-Copy-2" fill="url(#linearGradient-25)"></path>
                        <path d="M0.816096771,81.5844418 L0.816096771,53.0341871 L50.5815573,53.0341871 L87.1242833,34.5348175 C93.913116,31.0980426 101.929506,31.0842238 108.730147,34.4975728 L145.661869,53.0341871 L196.046537,53.0341871 L196.046537,82.4613426 C196.523912,84.6252231 196.288643,86.9608828 195.217152,89.0956858 C194.251252,91.0201118 192.689993,92.5813702 190.765567,93.54727 L108.730147,134.722142 C101.929506,138.135491 93.913116,138.121672 87.1242833,134.684897 L5.8324247,93.5317514 C1.39287907,91.2842782 -0.647771461,86.1775896 0.816096771,81.5844418 Z" id="Combined-Shape" fill="url(#linearGradient-19)"></path>
                        <path d="M87.1242833,103.598924 L5.8324247,62.4457785 C0.904998735,59.9513211 -1.06731197,53.9346958 1.42714545,49.0072699 C2.38902528,47.1072207 3.93237558,45.5638704 5.8324247,44.6019906 L87.1242833,3.44884469 C93.913116,0.0120697522 101.929506,-0.00174909677 108.730147,3.41159998 L190.765567,44.586472 C195.701564,47.0639266 197.694606,53.0737163 195.217152,58.009713 C194.251252,59.9341389 192.689993,61.4953974 190.765567,62.4612971 L108.730147,103.636169 C101.929506,107.049518 93.913116,107.035699 87.1242833,103.598924 Z" id="Path-32" fill="url(#linearGradient-21)"></path>
                    </g>
                    <g id="Path-32-Copy-8" transform="translate(1074.486732, 486.495475)">
                        <mask id="mask-30" fill="white">
                            <use xlink:href="#path-29"></use>
                        </mask>
                        <use id="Mask" fill="url(#linearGradient-22)" xlink:href="#path-29"></use>
                        <path d="M70.8915481,91.663936 L6.15879241,59.1942126 C1.22216398,56.7180171 -0.772410975,50.7087359 1.70378455,45.7721075 C2.66997571,43.8458756 4.23256053,42.2832908 6.15879241,41.3170996 L70.8915481,8.84737617 C77.6372778,5.46374176 85.5816722,5.45012224 92.3389638,8.81060765 L157.672478,41.3017794 C162.617567,43.7610342 164.632735,49.7634412 162.17348,54.7085307 C161.203452,56.6590714 159.623019,58.2395046 157.672478,59.2095328 L92.3389638,91.7007046 C85.5816722,95.06119 77.6372778,95.0475705 70.8915481,91.663936 Z" fill="url(#linearGradient-25)" mask="url(#mask-30)"></path>
                    </g>
                    <g id="Group-Copy-3" transform="translate(110.974981, 0.000000)">
                        <path d="M0.816096771,131.321998 L0.816096771,102.771744 L50.5815573,102.771744 L87.1242833,84.2723741 C93.913116,80.8355992 101.929506,80.8217803 108.730147,84.2351294 L145.661869,102.771744 L196.046537,102.771744 L196.046537,132.198899 C196.523912,134.36278 196.288643,136.698439 195.217152,138.833242 C194.251252,140.757668 192.689993,142.318927 190.765567,143.284827 L108.730147,184.459699 C101.929506,187.873048 93.913116,187.859229 87.1242833,184.422454 L5.8324247,143.269308 C1.39287907,141.021835 -0.647771461,135.915146 0.816096771,131.321998 Z" id="Combined-Shape-Copy-6" fill="url(#linearGradient-31)"></path>
                        <path d="M0.816096771,110.598016 L0.816096771,82.0477618 L50.5815573,82.0477618 L87.1242833,63.5483922 C93.913116,60.1116173 101.929506,60.0977984 108.730147,63.5111475 L145.661869,82.0477618 L196.046537,82.0477618 L196.046537,111.474917 C196.523912,113.638798 196.288643,115.974457 195.217152,118.10926 C194.251252,120.033686 192.689993,121.594945 190.765567,122.560845 L108.730147,163.735717 C101.929506,167.149066 93.913116,167.135247 87.1242833,163.698472 L5.8324247,122.545326 C1.39287907,120.297853 -0.647771461,115.191164 0.816096771,110.598016 Z" id="Combined-Shape-Copy-5" fill="url(#linearGradient-25)"></path>
                        <path d="M0.816096771,106.45322 L0.816096771,77.9029654 L50.5815573,77.9029654 L87.1242833,59.4035958 C93.913116,55.9668209 101.929506,55.953002 108.730147,59.3663511 L145.661869,77.9029654 L196.046537,77.9029654 L196.046537,107.330121 C196.523912,109.494001 196.288643,111.829661 195.217152,113.964464 C194.251252,115.88889 192.689993,117.450149 190.765567,118.416048 L108.730147,159.59092 C101.929506,163.004269 93.913116,162.990451 87.1242833,159.553676 L5.8324247,118.40053 C1.39287907,116.153056 -0.647771461,111.046368 0.816096771,106.45322 Z" id="Combined-Shape-Copy-4" fill="url(#linearGradient-31)"></path>
                        <path d="M0.816096771,85.7292382 L0.816096771,57.1789835 L50.5815573,57.1789835 L87.1242833,38.6796139 C93.913116,35.242839 101.929506,35.2290201 108.730147,38.6423692 L145.661869,57.1789835 L196.046537,57.1789835 L196.046537,86.606139 C196.523912,88.7700195 196.288643,91.1056792 195.217152,93.2404822 C194.251252,95.1649081 192.689993,96.7261666 190.765567,97.6920664 L108.730147,138.866938 C101.929506,142.280287 93.913116,142.266469 87.1242833,138.829694 L5.8324247,97.6765477 C1.39287907,95.4290746 -0.647771461,90.322386 0.816096771,85.7292382 Z" id="Combined-Shape-Copy-2" fill="url(#linearGradient-25)"></path>
                        <path d="M0.816096771,81.5844418 L0.816096771,53.0341871 L50.5815573,53.0341871 L87.1242833,34.5348175 C93.913116,31.0980426 101.929506,31.0842238 108.730147,34.4975728 L145.661869,53.0341871 L196.046537,53.0341871 L196.046537,82.4613426 C196.523912,84.6252231 196.288643,86.9608828 195.217152,89.0956858 C194.251252,91.0201118 192.689993,92.5813702 190.765567,93.54727 L108.730147,134.722142 C101.929506,138.135491 93.913116,138.121672 87.1242833,134.684897 L5.8324247,93.5317514 C1.39287907,91.2842782 -0.647771461,86.1775896 0.816096771,81.5844418 Z" id="Combined-Shape" fill="url(#linearGradient-31)"></path>
                        <path d="M87.1242833,103.598924 L5.8324247,62.4457785 C0.904998735,59.9513211 -1.06731197,53.9346958 1.42714545,49.0072699 C2.38902528,47.1072207 3.93237558,45.5638704 5.8324247,44.6019906 L87.1242833,3.44884469 C93.913116,0.0120697522 101.929506,-0.00174909677 108.730147,3.41159998 L190.765567,44.586472 C195.701564,47.0639266 197.694606,53.0737163 195.217152,58.009713 C194.251252,59.9341389 192.689993,61.4953974 190.765567,62.4612971 L108.730147,103.636169 C101.929506,107.049518 93.913116,107.035699 87.1242833,103.598924 Z" id="Path-32" fill="url(#linearGradient-32)"></path>
                        <g id="Path-32-Copy-8" transform="translate(16.386963, 9.325792)">
                            <mask id="mask-34" fill="white">
                                <use xlink:href="#path-33"></use>
                            </mask>
                            <use id="Mask" fill="url(#linearGradient-22)" xlink:href="#path-33"></use>
                            <path d="M70.8915481,91.663936 L6.15879241,59.1942126 C1.22216398,56.7180171 -0.772410975,50.7087359 1.70378455,45.7721075 C2.66997571,43.8458756 4.23256053,42.2832908 6.15879241,41.3170996 L70.8915481,8.84737617 C77.6372778,5.46374176 85.5816722,5.45012224 92.3389638,8.81060765 L157.672478,41.3017794 C162.617567,43.7610342 164.632735,49.7634412 162.17348,54.7085307 C161.203452,56.6590714 159.623019,58.2395046 157.672478,59.2095328 L92.3389638,91.7007046 C85.5816722,95.06119 77.6372778,95.0475705 70.8915481,91.663936 Z" fill="url(#linearGradient-25)" mask="url(#mask-34)"></path>
                        </g>
                    </g>
                    <g id="Group-Copy-2" transform="translate(110.974981, 473.542986)">
                        <path d="M0.816096771,131.321998 L0.816096771,102.771744 L50.5815573,102.771744 L87.1242833,84.2723741 C93.913116,80.8355992 101.929506,80.8217803 108.730147,84.2351294 L145.661869,102.771744 L196.046537,102.771744 L196.046537,132.198899 C196.523912,134.36278 196.288643,136.698439 195.217152,138.833242 C194.251252,140.757668 192.689993,142.318927 190.765567,143.284827 L108.730147,184.459699 C101.929506,187.873048 93.913116,187.859229 87.1242833,184.422454 L5.8324247,143.269308 C1.39287907,141.021835 -0.647771461,135.915146 0.816096771,131.321998 Z" id="Combined-Shape-Copy-6" fill="url(#linearGradient-19)"></path>
                        <path d="M0.816096771,110.598016 L0.816096771,82.0477618 L50.5815573,82.0477618 L87.1242833,63.5483922 C93.913116,60.1116173 101.929506,60.0977984 108.730147,63.5111475 L145.661869,82.0477618 L196.046537,82.0477618 L196.046537,111.474917 C196.523912,113.638798 196.288643,115.974457 195.217152,118.10926 C194.251252,120.033686 192.689993,121.594945 190.765567,122.560845 L108.730147,163.735717 C101.929506,167.149066 93.913116,167.135247 87.1242833,163.698472 L5.8324247,122.545326 C1.39287907,120.297853 -0.647771461,115.191164 0.816096771,110.598016 Z" id="Combined-Shape-Copy-5" fill="url(#linearGradient-25)"></path>
                        <path d="M0.816096771,106.45322 L0.816096771,77.9029654 L50.5815573,77.9029654 L87.1242833,59.4035958 C93.913116,55.9668209 101.929506,55.953002 108.730147,59.3663511 L145.661869,77.9029654 L196.046537,77.9029654 L196.046537,107.330121 C196.523912,109.494001 196.288643,111.829661 195.217152,113.964464 C194.251252,115.88889 192.689993,117.450149 190.765567,118.416048 L108.730147,159.59092 C101.929506,163.004269 93.913116,162.990451 87.1242833,159.553676 L5.8324247,118.40053 C1.39287907,116.153056 -0.647771461,111.046368 0.816096771,106.45322 Z" id="Combined-Shape-Copy-4" fill="url(#linearGradient-19)"></path>
                        <path d="M0.816096771,85.7292382 L0.816096771,57.1789835 L50.5815573,57.1789835 L87.1242833,38.6796139 C93.913116,35.242839 101.929506,35.2290201 108.730147,38.6423692 L145.661869,57.1789835 L196.046537,57.1789835 L196.046537,86.606139 C196.523912,88.7700195 196.288643,91.1056792 195.217152,93.2404822 C194.251252,95.1649081 192.689993,96.7261666 190.765567,97.6920664 L108.730147,138.866938 C101.929506,142.280287 93.913116,142.266469 87.1242833,138.829694 L5.8324247,97.6765477 C1.39287907,95.4290746 -0.647771461,90.322386 0.816096771,85.7292382 Z" id="Combined-Shape-Copy-2" fill="url(#linearGradient-25)"></path>
                        <path d="M0.816096771,81.5844418 L0.816096771,53.0341871 L50.5815573,53.0341871 L87.1242833,34.5348175 C93.913116,31.0980426 101.929506,31.0842238 108.730147,34.4975728 L145.661869,53.0341871 L196.046537,53.0341871 L196.046537,82.4613426 C196.523912,84.6252231 196.288643,86.9608828 195.217152,89.0956858 C194.251252,91.0201118 192.689993,92.5813702 190.765567,93.54727 L108.730147,134.722142 C101.929506,138.135491 93.913116,138.121672 87.1242833,134.684897 L5.8324247,93.5317514 C1.39287907,91.2842782 -0.647771461,86.1775896 0.816096771,81.5844418 Z" id="Combined-Shape" fill="url(#linearGradient-19)"></path>
                        <path d="M87.1242833,103.598924 L5.8324247,62.4457785 C0.904998735,59.9513211 -1.06731197,53.9346958 1.42714545,49.0072699 C2.38902528,47.1072207 3.93237558,45.5638704 5.8324247,44.6019906 L87.1242833,3.44884469 C93.913116,0.0120697522 101.929506,-0.00174909677 108.730147,3.41159998 L190.765567,44.586472 C195.701564,47.0639266 197.694606,53.0737163 195.217152,58.009713 C194.251252,59.9341389 192.689993,61.4953974 190.765567,62.4612971 L108.730147,103.636169 C101.929506,107.049518 93.913116,107.035699 87.1242833,103.598924 Z" id="Path-32" fill="url(#linearGradient-21)"></path>
                        <g id="Path-32-Copy-8" transform="translate(16.386963, 9.325792)">
                            <mask id="mask-36" fill="white">
                                <use xlink:href="#path-35"></use>
                            </mask>
                            <use id="Mask" fill="url(#linearGradient-22)" xlink:href="#path-35"></use>
                            <path d="M70.8915481,91.663936 L6.15879241,59.1942126 C1.22216398,56.7180171 -0.772410975,50.7087359 1.70378455,45.7721075 C2.66997571,43.8458756 4.23256053,42.2832908 6.15879241,41.3170996 L70.8915481,8.84737617 C77.6372778,5.46374176 85.5816722,5.45012224 92.3389638,8.81060765 L157.672478,41.3017794 C162.617567,43.7610342 164.632735,49.7634412 162.17348,54.7085307 C161.203452,56.6590714 159.623019,58.2395046 157.672478,59.2095328 L92.3389638,91.7007046 C85.5816722,95.06119 77.6372778,95.0475705 70.8915481,91.663936 Z" fill="url(#linearGradient-25)" mask="url(#mask-36)"></path>
                        </g>
                    </g>
                    <path d="" id="Path-34" stroke="#979797"></path>
                </g>
                <path d="M1044.38203,714.341357 L899.570388,641.519856 L901.435567,637.817585 L1046.82134,710.927797 L1045.34796,713.852365 L1146.12798,662.833544 C1152.91681,659.396769 1160.9332,659.38295 1167.73384,662.796299 L1362.75918,760.682591 C1367.69517,763.160045 1369.68822,769.169835 1367.21076,774.105832 C1366.24486,776.030258 1364.6836,777.591516 1362.75918,778.557416 L1167.73384,876.443708 C1160.9332,879.857057 1152.91681,879.843238 1146.12798,876.406463 L952.811231,778.541897 C947.883805,776.04744 945.911494,770.030815 948.405952,765.103389 C949.367831,763.20334 950.911182,761.659989 952.811231,760.698109 L1044.38203,714.341357 Z M504.766877,445.308928 L318.980272,352.545454 L320.331638,349.843898 L220.816483,399.792124 C214.015842,403.205473 205.999452,403.191654 199.21062,399.754879 L5.89386924,301.890314 C0.966443275,299.395856 -1.00586743,293.379231 1.48859,288.451805 C2.45046982,286.551756 3.99382012,285.008406 5.89386924,284.046526 L199.21062,186.18196 C205.999452,182.745185 214.015842,182.731366 220.816483,186.144715 L415.841816,284.031007 C420.777813,286.508462 422.770855,292.518251 420.2934,297.454248 C419.3275,299.378674 417.766242,300.939932 415.841816,301.905832 L321.587391,349.213615 L508.190652,442.384846 L507.392524,443.980408 L674.415634,359.470405 C681.202049,356.036628 689.214385,356.022821 696.012595,359.433187 L863.908413,443.65921 L862.765324,441.442935 L1043.06843,348.618269 L952.811231,302.926513 C947.883805,300.432055 945.911494,294.41543 948.405952,289.488004 C949.367831,287.587955 950.911182,286.044605 952.811231,285.082725 L1146.12798,187.218159 C1152.91681,183.781384 1160.9332,183.767565 1167.73384,187.180914 L1362.75918,285.067206 C1367.69517,287.544661 1369.68822,293.55445 1367.21076,298.490447 C1366.24486,300.414873 1364.6836,301.976132 1362.75918,302.942031 L1167.73384,400.828323 C1160.9332,404.241672 1152.91681,404.227853 1146.12798,400.791078 L1047.04643,350.632088 L1047.29134,351.106933 L865.736244,444.576153 L1058.05926,541.056239 C1062.99577,543.532671 1064.99006,549.542048 1062.51363,554.478558 C1061.54749,556.40445 1059.98515,557.966786 1058.05926,558.932922 L696.012595,740.555975 C689.214385,743.966341 681.202049,743.952533 674.415634,740.518757 L471.442036,637.8186 L472.26925,639.465098 L328.810272,711.408098 L326.949187,707.703771 L468.884825,636.524708 L315.504031,558.917415 C310.576086,556.423983 308.602522,550.407769 311.095954,545.479824 C312.058081,543.578304 313.602511,542.033873 315.504031,541.071746 L504.766877,445.308928 Z M199.21062,871.225468 L5.89386924,773.360902 C0.966443275,770.866444 -1.00586743,764.849819 1.48859,759.922393 C2.45046982,758.022344 3.99382012,756.478994 5.89386924,755.517114 L199.21062,657.652548 C205.999452,654.215773 214.015842,654.201954 220.816483,657.615304 L415.841816,755.501595 C420.777813,757.97905 422.770855,763.98884 420.2934,768.924836 C419.3275,770.849262 417.766242,772.410521 415.841816,773.37642 L220.816483,871.262712 C214.015842,874.676061 205.999452,874.662242 199.21062,871.225468 Z" id="Combined-Shape" stroke="url(#radialGradient-37)" stroke-width="4"></path>
                <path d="M850.134681,514.299448 C850.206104,514.983564 850.207323,515.67804 850.134681,516.371847 C850.206104,517.055962 850.207323,517.750438 850.134681,518.444245 C850.206104,519.128361 850.207323,519.822837 850.134681,520.516643 C850.326238,522.351433 850.01281,524.260745 849.123841,526.0318 C848.157966,527.956068 846.596824,529.517211 844.672555,530.483085 L695.112676,605.553715 C688.311774,608.967385 680.294949,608.953564 673.505856,605.516467 L525.266251,530.467565 C521.45848,528.539814 519.415516,524.508706 519.834932,520.502377 C519.763513,519.818201 519.762305,519.123719 519.834932,518.429979 C519.763513,517.745803 519.762305,517.051321 519.834932,516.357581 C519.763513,515.673405 519.762305,514.978922 519.834932,514.285183 C519.642242,512.439265 519.960644,510.518322 520.861272,508.739365 C521.823125,506.839474 523.36636,505.29624 525.266251,504.334387 L673.505856,429.285485 C680.294949,425.848388 688.311774,425.834568 695.112676,429.248237 L844.672555,504.318867 C848.497793,506.238921 850.55548,510.280415 850.134681,514.299448 Z" id="Combined-Shape" fill="url(#linearGradient-38)" style="mix-blend-mode: soft-light;"></path>
                <path d="M673.505856,597.226875 L525.266251,522.177973 C520.338881,519.683405 518.366705,513.666736 520.861272,508.739365 C521.823125,506.839474 523.36636,505.29624 525.266251,504.334387 L673.505856,429.285485 C680.294949,425.848388 688.311774,425.834568 695.112676,429.248237 L844.672555,504.318867 C849.608497,506.796431 851.601405,512.806265 849.123841,517.742207 C848.157966,519.666475 846.596824,521.227618 844.672555,522.193492 L695.112676,597.264122 C688.311774,600.677792 680.294949,600.663972 673.505856,597.226875 Z" id="Path-32" fill="url(#linearGradient-21)"></path>
                <g id="Group-4" transform="translate(584.952237, 338.837104)">
                    <g id="Path-3" transform="translate(0.000000, 52.846154)">
                        <mask id="mask-41" fill="white">
                            <use xlink:href="#path-40"></use>
                        </mask>
                        <use id="Mask" fill="url(#linearGradient-39)" xlink:href="#path-40"></use>
                        <polygon fill="url(#linearGradient-22)" mask="url(#mask-41)" points="0.319252093 5.47328535 100.603487 56.0189193 100.603487 172.421212 0.319252093 124.235058"></polygon>
                    </g>
                    <path d="M89.3369578,222.282481 L5.19793922,179.362726 C0.27820043,176.853142 -1.6756156,170.830485 0.833968976,165.910746 C1.79213954,164.032368 3.31956105,162.504947 5.19793922,161.546776 L89.3369578,118.627021 C96.161365,115.145855 104.237653,115.13187 111.074075,118.589381 L195.98131,161.531093 C200.909711,164.023624 202.884373,170.039478 200.391841,174.967879 C199.429498,176.870688 197.88412,178.416067 195.98131,179.37841 L111.074075,222.320121 C104.237653,225.777632 96.161365,225.763647 89.3369578,222.282481 Z" id="Path-32-Copy-7" fill="url(#linearGradient-42)"></path>
                    <polygon id="Path-3" fill="url(#linearGradient-43)" points="0.319252093 58.3194392 100.603487 108.865073 100.603487 225.267366 0.319252093 177.081211"></polygon>
                    <g id="Path-32-Copy-9">
                        <use fill="url(#linearGradient-22)" xlink:href="#path-45"></use>
                        <use fill="url(#linearGradient-44)" xlink:href="#path-45"></use>
                    </g>
                    <g id="Path-32-Copy-15" transform="translate(21.780136, 11.398190)">
                        <mask id="mask-47" fill="white">
                            <use xlink:href="#path-46"></use>
                        </mask>
                        <use id="Mask" fill="#FFFFFF" opacity="0.359884511" xlink:href="#path-46"></use>
                        <path d="M67.638314,90.5802581 L6.04979481,59.1636312 C1.13005603,56.6540466 -0.823760003,50.6313901 1.68582457,45.7116513 C2.64399513,43.8332731 4.17141665,42.3058516 6.04979481,41.347681 L67.638314,9.93105416 C74.4627212,6.44988824 82.5390092,6.43590327 89.3754314,9.89341396 L151.53791,41.3319976 C156.46631,43.8245291 158.440972,49.840383 155.948441,54.7687835 C154.986098,56.6715929 153.440719,58.2169715 151.53791,59.1793146 L89.3754314,90.6178983 C82.5390092,94.075409 74.4627212,94.061424 67.638314,90.5802581 Z" fill="#FFFFFF" opacity="0.359884511" mask="url(#mask-47)"></path>
                    </g>
                </g>
                <g id="Group-3" transform="translate(607.769522, 113.981900)">
                    <path d="M0.102616902,280.964066 L0.0561410508,280.964066 L0.0561410508,160.667513 L155.572403,160.61086 L155.572403,280.964066 L155.427541,280.964066 C155.325762,282.188144 154.995193,283.413896 154.415518,284.580909 C153.444967,286.534845 151.862042,288.117769 149.908107,289.088321 L88.1775638,319.750886 C81.4259167,323.104539 73.4908513,323.090945 66.7507342,319.714179 L5.59015665,289.073026 C2.35819965,287.453832 0.38592433,284.320417 0.102616902,280.964066 Z" id="Combined-Shape" fill="url(#linearGradient-48)"></path>
                    <polyline id="Path-40" fill="url(#linearGradient-49)" opacity="0.56861413" filter="url(#filter-50)" points="0 42.4841629 77.7862017 85.3838458 77.7862017 322.257919 0 280.269506 0 161.291586"></polyline>
                    <polyline id="Path-40-Copy" fill="url(#linearGradient-49)" opacity="0.56861413" filter="url(#filter-51)" transform="translate(116.679303, 182.889140) scale(-1, 1) translate(-116.679303, -182.889140) " points="77.7862017 43.520362 155.572403 86.4200449 155.572403 322.257919 77.7862017 280.269506"></polyline>
                    <path d="M66.806784,81.4168447 L5.67413986,50.9140517 C0.732302375,48.4482685 -1.27493623,42.4432054 1.19084696,37.5013679 C2.15941497,35.5601974 3.73296933,33.986643 5.67413986,33.018075 L66.806784,2.51528197 C73.527862,-0.838272527 81.43136,-0.851779009 88.1638607,2.47878433 L149.866159,33.0028677 C154.816395,35.4517461 156.844147,41.4499136 154.395268,46.4001499 C153.422967,48.3655892 151.831598,49.9569576 149.866159,50.929259 L88.1638607,81.4533424 C81.43136,84.7839057 73.527862,84.7703992 66.806784,81.4168447 Z" id="Mask" fill="url(#linearGradient-49)" opacity="0.518229167" filter="url(#filter-52)"></path>
                </g>
                <g id="Group-2" transform="translate(685.636556, 264.259311) scale(1, -1) rotate(-240.000000) translate(-685.636556, -264.259311) translate(638.964835, 212.449356)">
                    <polygon id="Triangle" fill="url(#linearGradient-53)" points="35.8229526 0.982111543 74.8247953 68.4733909 0.723537734 60.7263254"></polygon>
                    <polygon id="Triangle-Copy-3" fill="url(#linearGradient-54)" points="58.1236915 103.555222 19.4757471 36.6763509 93.2231063 43.8110081"></polygon>
                </g>
                <g id="Group-2" transform="translate(737.035591, 481.291452) scale(1, -1) rotate(-240.000000) translate(-737.035591, -481.291452) translate(702.809662, 445.024483)">
                    <polygon id="Triangle" fill="url(#linearGradient-55)" points="31.4046947 0.877939629 52.8383358 47.9450185 0.398755998 42.5423688"></polygon>
                    <polygon id="Triangle-Copy-3" fill="url(#linearGradient-56)" points="37.4378851 72.4103913 16.1987304 25.7703938 68.4438238 30.7459622"></polygon>
                </g>
                <g id="Group-2" transform="translate(634.357804, 481.291452) scale(-1, -1) rotate(-240.000000) translate(-634.357804, -481.291452) translate(600.131876, 445.024483)">
                    <polygon id="Triangle" fill="url(#linearGradient-55)" points="31.4046947 0.877939629 52.8383358 47.9450185 0.398755998 42.5423688"></polygon>
                    <polygon id="Triangle-Copy-3" fill="url(#linearGradient-56)" points="37.4378851 72.4103913 16.1987304 25.7703938 68.4438238 30.7459622"></polygon>
                </g>
                <g id="Group-6" transform="translate(1075.523882, 1.036199)">
                    <g id="Group-3">
                        <path d="M0.931167073,248.162888 L0.931167073,126.927984 L162.613174,126.869015 L162.613174,248.481519 C163.291901,250.809358 163.130904,253.388863 161.966053,255.731155 C160.996025,257.681696 159.415592,259.262129 157.465051,260.232157 L92.1315371,292.723329 C85.3742455,296.083814 77.4298511,296.070195 70.6841214,292.68656 L5.9513657,260.216837 C1.46309145,257.965534 -0.593267449,252.793766 0.931167073,248.162888 Z" id="Combined-Shape" fill="url(#linearGradient-57)"></path>
                        <polyline id="Path-40" fill="url(#linearGradient-58)" opacity="0.56861413" filter="url(#filter-59)" points="0.87280005 43.520362 81.9347991 88.0843895 81.9347991 295.41104 0.87280005 251.793636 0.87280005 45.3038979"></polyline>
                        <polyline id="Path-40-Copy" fill="url(#linearGradient-60)" opacity="0.56861413" filter="url(#filter-61)" transform="translate(122.301449, 169.465701) scale(-1, 1) translate(-122.301449, -169.465701) " points="81.7704498 43.520362 162.832449 88.0843895 162.832449 295.41104 81.7704498 251.793636 81.7704498 45.3038979"></polyline>
                        <path d="M70.6841214,85.4467415 L5.9513657,52.977018 C1.01473728,50.5008225 -0.979837681,44.4915414 1.49635784,39.5549129 C2.462549,37.628681 4.02513383,36.0660962 5.9513657,35.0999051 L70.6841214,2.6301816 C77.4298511,-0.753452806 85.3742455,-0.767072331 92.1315371,2.59341308 L157.465051,35.0845848 C162.410141,37.5438396 164.425308,43.5462466 161.966053,48.4913361 C160.996025,50.4418768 159.415592,52.02231 157.465051,52.9923382 L92.1315371,85.48351 C85.3742455,88.8439954 77.4298511,88.8303759 70.6841214,85.4467415 Z" id="Mask" fill="url(#linearGradient-49)" opacity="0.56861413" filter="url(#filter-62)"></path>
                    </g>
                </g>
                <g id="Group-6" transform="translate(1076.561031, 476.651584)">
                    <g id="Group-3">
                        <path d="M0.931167073,248.162888 L0.931167073,126.927984 L162.613174,126.869015 L162.613174,248.481519 C163.291901,250.809358 163.130904,253.388863 161.966053,255.731155 C160.996025,257.681696 159.415592,259.262129 157.465051,260.232157 L92.1315371,292.723329 C85.3742455,296.083814 77.4298511,296.070195 70.6841214,292.68656 L5.9513657,260.216837 C1.46309145,257.965534 -0.593267449,252.793766 0.931167073,248.162888 Z" id="Combined-Shape" fill="url(#linearGradient-57)"></path>
                        <polyline id="Path-40" fill="url(#linearGradient-58)" opacity="0.56861413" filter="url(#filter-63)" points="0.87280005 43.520362 81.9347991 88.0843895 81.9347991 295.41104 0.87280005 251.793636 0.87280005 45.3038979"></polyline>
                        <polyline id="Path-40-Copy" fill="url(#linearGradient-60)" opacity="0.56861413" filter="url(#filter-64)" transform="translate(122.301449, 169.465701) scale(-1, 1) translate(-122.301449, -169.465701) " points="81.7704498 43.520362 162.832449 88.0843895 162.832449 295.41104 81.7704498 251.793636 81.7704498 45.3038979"></polyline>
                        <path d="M70.6841214,85.4467415 L5.9513657,52.977018 C1.01473728,50.5008225 -0.979837681,44.4915414 1.49635784,39.5549129 C2.462549,37.628681 4.02513383,36.0660962 5.9513657,35.0999051 L70.6841214,2.6301816 C77.4298511,-0.753452806 85.3742455,-0.767072331 92.1315371,2.59341308 L157.465051,35.0845848 C162.410141,37.5438396 164.425308,43.5462466 161.966053,48.4913361 C160.996025,50.4418768 159.415592,52.02231 157.465051,52.9923382 L92.1315371,85.48351 C85.3742455,88.8439954 77.4298511,88.8303759 70.6841214,85.4467415 Z" id="Mask" fill="url(#linearGradient-49)" opacity="0.56861413" filter="url(#filter-65)"></path>
                    </g>
                    <g id="Group-5" transform="translate(42.523124, 108.800905)" fill-rule="nonzero">
                        <g id="robot">
                            <g id="Shape">
                                <use fill="black" fill-opacity="1" filter="url(#filter-68)" xlink:href="#path-67"></use>
                                <use fill="url(#linearGradient-66)" fill-rule="evenodd" xlink:href="#path-67"></use>
                            </g>
                            <path d="M39.3518962,0 C43.3034329,0 46.5067864,3.19041717 46.5067864,7.12599619 C46.5067864,9.76261477 45.0758083,12.0785635 42.9293413,13.2899829 L42.9293413,17.8149905 L46.5067864,17.8149905 C60.337165,17.8149905 71.5489021,28.9814505 71.5489021,42.7559771 L75.1263472,42.7559771 C77.1021156,42.7559771 78.7037923,44.3511857 78.7037923,46.3189752 L78.7037923,57.0079695 C78.7037923,58.975759 77.1021156,60.5709676 75.1263472,60.5709676 L71.5489021,60.5709676 L71.5489021,64.1339657 C71.5489021,68.0695447 68.3455486,71.2599619 64.3940119,71.2599619 L14.3097804,71.2599619 C10.3582437,71.2599619 7.15489021,68.0695447 7.15489021,64.1339657 L7.15489021,60.5709676 L3.57744511,60.5709676 C1.60167673,60.5709676 0,58.975759 0,57.0079695 L0,46.3189752 C-3.97176192e-16,44.3511857 1.60167673,42.7559771 3.57744511,42.7559771 L7.15489021,42.7559771 C7.15489021,28.9814505 18.3666273,17.8149905 32.1970059,17.8149905 L35.7744511,17.8149905 L35.7744511,13.2899829 C33.627984,12.0785635 32.1970059,9.76261477 32.1970059,7.12599619 C32.1970059,3.19041717 35.4003594,0 39.3518962,0 Z M23.2533932,39.192979 C18.3139722,39.192979 14.3097804,43.1810005 14.3097804,48.1004743 C14.3097804,53.019948 18.3139722,57.0079695 23.2533932,57.0079695 C28.1928141,57.0079695 32.1970059,53.019948 32.1970059,48.1004743 C32.1970059,43.1810005 28.1928141,39.192979 23.2533932,39.192979 Z M55.4503991,39.192979 C50.5109782,39.192979 46.5067864,43.1810005 46.5067864,48.1004743 C46.5067864,53.019948 50.5109782,57.0079695 55.4503991,57.0079695 C60.3898201,57.0079695 64.3940119,53.019948 64.3940119,48.1004743 C64.3940119,43.1810005 60.3898201,39.192979 55.4503991,39.192979 Z" id="Shape-Copy" fill="url(#linearGradient-69)"></path>
                        </g>
                    </g>
                </g>
                <g id="Group-6" transform="translate(129.643669, 473.542986)">
                    <g id="Group-3">
                        <path d="M0.931167073,248.162888 L0.931167073,126.927984 L162.613174,126.869015 L162.613174,248.481519 C163.291901,250.809358 163.130904,253.388863 161.966053,255.731155 C160.996025,257.681696 159.415592,259.262129 157.465051,260.232157 L92.1315371,292.723329 C85.3742455,296.083814 77.4298511,296.070195 70.6841214,292.68656 L5.9513657,260.216837 C1.46309145,257.965534 -0.593267449,252.793766 0.931167073,248.162888 Z" id="Combined-Shape" fill="url(#linearGradient-57)"></path>
                        <polyline id="Path-40" fill="url(#linearGradient-58)" opacity="0.56861413" filter="url(#filter-70)" points="0.87280005 43.520362 81.9347991 88.0843895 81.9347991 295.41104 0.87280005 251.793636 0.87280005 45.3038979"></polyline>
                        <polyline id="Path-40-Copy" fill="url(#linearGradient-60)" opacity="0.56861413" filter="url(#filter-71)" transform="translate(122.301449, 169.465701) scale(-1, 1) translate(-122.301449, -169.465701) " points="81.7704498 43.520362 162.832449 88.0843895 162.832449 295.41104 81.7704498 251.793636 81.7704498 45.3038979"></polyline>
                        <path d="M70.6841214,85.4467415 L5.9513657,52.977018 C1.01473728,50.5008225 -0.979837681,44.4915414 1.49635784,39.5549129 C2.462549,37.628681 4.02513383,36.0660962 5.9513657,35.0999051 L70.6841214,2.6301816 C77.4298511,-0.753452806 85.3742455,-0.767072331 92.1315371,2.59341308 L157.465051,35.0845848 C162.410141,37.5438396 164.425308,43.5462466 161.966053,48.4913361 C160.996025,50.4418768 159.415592,52.02231 157.465051,52.9923382 L92.1315371,85.48351 C85.3742455,88.8439954 77.4298511,88.8303759 70.6841214,85.4467415 Z" id="Mask" fill="url(#linearGradient-49)" opacity="0.56861413" filter="url(#filter-72)"></path>
                    </g>
                    <g id="Group-5" transform="translate(42.523124, 108.800905)"></g>
                </g>
                <g id="google-circles-extended" transform="translate(174.241092, 582.343891)" fill-rule="nonzero">
                    <g id="Shape">
                        <use fill="black" fill-opacity="1" filter="url(#filter-74)" xlink:href="#path-73"></use>
                        <use fill="url(#linearGradient-66)" fill-rule="evenodd" xlink:href="#path-73"></use>
                    </g>
                    <path d="M60.0629539,63.7584179 C55.8960864,63.7584179 52.5550846,60.3829723 52.5550846,56.2574276 C52.5550846,52.094378 55.8960864,48.7564372 60.0629539,48.7564372 C64.2094355,48.7564372 67.5708231,52.114745 67.5708231,56.2574276 C67.5708231,60.4001102 64.2094355,63.7584179 60.0629539,63.7584179 Z M60.0629539,41.2554469 C51.7699905,41.2554469 45.0472154,47.9720624 45.0472154,56.2574276 C45.0472154,64.5427927 51.7699905,71.2594083 60.0629539,71.2594083 C68.3559172,71.2594083 75.0786923,64.5427927 75.0786923,56.2574276 C75.0786923,47.9720624 68.3559172,41.2554469 60.0629539,41.2554469 Z M37.5393462,34.1295061 C35.647696,34.1295061 33.8335229,34.8802727 32.4959242,36.2166458 C31.1583255,37.553019 30.4068704,39.3655299 30.4068704,41.2554469 C30.4068704,45.1909954 33.6001886,48.3813877 37.5393462,48.3813877 C41.4785038,48.3813877 44.6718219,45.1909954 44.6718219,41.2554469 C44.6718219,39.3655299 43.9203668,37.553019 42.5827681,36.2166458 C41.2451695,34.8802727 39.4309963,34.1295061 37.5393462,34.1295061 Z M15.0157385,63.7584179 C10.848871,63.7584179 7.50786923,60.3829723 7.50786923,56.2574276 C7.50786923,52.094378 10.848871,48.7564372 15.0157385,48.7564372 C19.1622201,48.7564372 22.5236077,52.114745 22.5236077,56.2574276 C22.5236077,60.4001102 19.1622201,63.7584179 15.0157385,63.7584179 Z M15.0157385,41.2554469 C6.7227751,41.2554469 1.66708186e-15,47.9720624 0,56.2574276 C1.66708186e-15,64.5427927 6.7227751,71.2594083 15.0157385,71.2594083 C23.3087018,71.2594083 30.0314769,64.5427927 30.0314769,56.2574276 C30.0314769,47.9720624 23.3087018,41.2554469 15.0157385,41.2554469 Z M37.5393462,7.50099035 C41.6858278,7.50099035 45.0472154,10.8592981 45.0472154,15.0019807 C45.0472154,19.1446633 41.6858278,22.502971 37.5393462,22.502971 C33.3724787,22.502971 30.0314769,19.1275254 30.0314769,15.0019807 C30.0314769,10.838931 33.3724787,7.50099035 37.5393462,7.50099035 Z M37.5393462,30.0039614 C45.8323095,30.0039614 52.5550846,23.2873458 52.5550846,15.0019807 C52.5550846,6.71661554 45.8323095,0 37.5393462,0 C29.2463828,-8.32777219e-16 22.5236077,6.71661554 22.5236077,15.0019807 C22.5236077,23.2873458 29.2463828,30.0039614 37.5393462,30.0039614 Z" id="Shape-Copy-2" fill="url(#linearGradient-69)"></path>
                </g>
                <g id="Group-6" transform="translate(129.643669, 0.000000)">
                    <g id="Group-3">
                        <path d="M0.931167073,248.162888 L0.931167073,126.927984 L162.613174,126.869015 L162.613174,248.481519 C163.291901,250.809358 163.130904,253.388863 161.966053,255.731155 C160.996025,257.681696 159.415592,259.262129 157.465051,260.232157 L92.1315371,292.723329 C85.3742455,296.083814 77.4298511,296.070195 70.6841214,292.68656 L5.9513657,260.216837 C1.46309145,257.965534 -0.593267449,252.793766 0.931167073,248.162888 Z" id="Combined-Shape" fill="url(#linearGradient-57)"></path>
                        <polyline id="Path-40" fill="url(#linearGradient-58)" opacity="0.56861413" filter="url(#filter-75)" points="0.87280005 43.520362 81.9347991 88.0843895 81.9347991 295.41104 0.87280005 251.793636 0.87280005 45.3038979"></polyline>
                        <polyline id="Path-40-Copy" fill="url(#linearGradient-60)" opacity="0.56861413" filter="url(#filter-76)" transform="translate(122.301449, 169.465701) scale(-1, 1) translate(-122.301449, -169.465701) " points="81.7704498 43.520362 162.832449 88.0843895 162.832449 295.41104 81.7704498 251.793636 81.7704498 45.3038979"></polyline>
                        <path d="M70.6841214,85.4467415 L5.9513657,52.977018 C1.01473728,50.5008225 -0.979837681,44.4915414 1.49635784,39.5549129 C2.462549,37.628681 4.02513383,36.0660962 5.9513657,35.0999051 L70.6841214,2.6301816 C77.4298511,-0.753452806 85.3742455,-0.767072331 92.1315371,2.59341308 L157.465051,35.0845848 C162.410141,37.5438396 164.425308,43.5462466 161.966053,48.4913361 C160.996025,50.4418768 159.415592,52.02231 157.465051,52.9923382 L92.1315371,85.48351 C85.3742455,88.8439954 77.4298511,88.8303759 70.6841214,85.4467415 Z" id="Mask" fill="url(#linearGradient-49)" opacity="0.56861413" filter="url(#filter-77)"></path>
                    </g>
                </g>
                <g id="basket" transform="translate(176.315390, 99.475113)">
                    <g id="arrow-up-bold" transform="translate(34.552439, 16.579186) rotate(-180.000000) translate(-34.552439, -16.579186) translate(18.476624, 0.000000)"></g>
                    <g id="Group-7" transform="translate(0.000000, 5.180995)" fill-rule="nonzero">
                        <g id="Shape">
                            <use fill="black" fill-opacity="1" filter="url(#filter-79)" xlink:href="#path-78"></use>
                            <use fill="url(#linearGradient-66)" fill-rule="evenodd" xlink:href="#path-78"></use>
                        </g>
                        <g id="Shape" transform="translate(35.781653, 18.651584) rotate(-180.000000) translate(-35.781653, -18.651584) ">
                            <use fill="black" fill-opacity="1" filter="url(#filter-81)" xlink:href="#path-80"></use>
                            <use fill="url(#linearGradient-66)" fill-rule="evenodd" xlink:href="#path-80"></use>
                        </g>
                        <g id="Group-9" fill="url(#linearGradient-69)">
                            <path d="M8.68754015,72.128092 L0.320573437,41.9038914 L0,40.4981146 C-3.55908011e-16,38.733594 1.43525617,37.3031674 3.20573437,37.3031674 L17.8879978,37.3031674 L52.6381584,37.3031674 L67.3204218,37.3031674 C69.0909,37.3031674 70.5261562,38.733594 70.5261562,40.4981146 L70.3979268,41.4246493 L61.838616,72.128092 C60.7807237,74.2048077 58.6008243,75.6425339 56.1003515,75.6425339 L14.4258047,75.6425339 C11.9253319,75.6425339 9.74543249,74.2048077 8.68754015,72.128092 Z M35.2630781,50.0829563 C31.7221217,50.0829563 28.8516093,52.9438094 28.8516093,56.4728507 C28.8516093,60.0018919 31.7221217,62.8627451 35.2630781,62.8627451 C38.8040345,62.8627451 41.6745468,60.0018919 41.6745468,56.4728507 C41.6745468,52.9438094 38.8040345,50.0829563 35.2630781,50.0829563 Z" id="Shape-Copy-4"></path>
                            <polygon id="Shape-Copy-3" transform="translate(35.781653, 14.506787) rotate(-180.000000) translate(-35.781653, -14.506787) " points="41.1393758 29.0135747 30.4239297 29.0135747 30.4239297 14.3602541 21.7801365 14.3602541 35.7816528 0 49.7831691 14.3602541 41.1393758 14.3602541"></polygon>
                        </g>
                    </g>
                </g>
                <g id="account-multiple-copy" transform="translate(1119.084155, 123.307692)" fill-rule="nonzero">
                    <g id="Shape-Copy-5">
                        <use fill="black" fill-opacity="1" filter="url(#filter-83)" xlink:href="#path-82"></use>
                        <use fill="url(#linearGradient-66)" fill-rule="evenodd" xlink:href="#path-82"></use>
                    </g>
                </g>
                <g id="account-multiple" transform="translate(1119.084155, 120.199095)" fill="url(#linearGradient-69)" fill-rule="nonzero">
                    <path d="M53.7431939,28.4214609 C52.7041588,28.4214609 51.5218085,28.4214609 50.2678007,28.599095 C54.423941,31.5833484 57.3260735,35.5268261 57.3260735,40.85585 L57.3260735,49.7375566 L78.823351,49.7375566 L78.823351,40.85585 C78.823351,32.5780995 62.0913033,28.4214609 53.7431939,28.4214609 Z M25.0801571,28.4214609 C16.7320477,28.4214609 0,32.5780995 0,40.85585 L0,49.7375566 L50.1603143,49.7375566 L50.1603143,40.85585 C50.1603143,32.5780995 33.4282666,28.4214609 25.0801571,28.4214609 Z M25.0801571,21.3160957 C31.0164664,21.3160957 35.8287959,16.5443251 35.8287959,10.6580478 C35.8287959,4.77177055 31.0164664,0 25.0801571,0 C19.1438479,0 14.3315184,4.77177055 14.3315184,10.6580478 C14.3315184,16.5443251 19.1438479,21.3160957 25.0801571,21.3160957 Z M53.7431939,21.3160957 C59.6795032,21.3160957 64.4918327,16.5443251 64.4918327,10.6580478 C64.4918327,4.77177055 59.6795032,0 53.7431939,0 C47.8068846,0 42.9945551,4.77177055 42.9945551,10.6580478 C42.9945551,16.5443251 47.8068846,21.3160957 53.7431939,21.3160957 Z" id="Shape"></path>
                </g>
            </g>
        </g>
    </g>
</svg>