<?xml version="1.0" encoding="utf-8"?>
<!-- Generator: Adobe Illustrator 23.0.1, SVG Export Plug-In . SVG Version: 6.00 Build 0)  -->
<svg version="1.1" id="Layer_1" xmlns="http://www.w3.org/2000/svg" xmlns:xlink="http://www.w3.org/1999/xlink" x="0px" y="0px"
	 viewBox="0 0 32 32" style="enable-background:new 0 0 32 32;" xml:space="preserve">
<style type="text/css">
	.st0{fill:url(#Tw_1_);}
	.st1{fill:url(#Tw_2_);}
</style>
<g id="Layer_1">
	<g>
		<linearGradient id="Tw_1_" gradientUnits="userSpaceOnUse" x1="15.9616" y1="29.5506" x2="15.9616" y2="2.6724">
			<stop  offset="0" style="stop-color:#1ECED0"/>
			<stop  offset="0.5" style="stop-color:#8AA9F4"/>
			<stop  offset="1" style="stop-color:#6A44FB"/>
		</linearGradient>
		<path id="Tw_7_" class="st0" d="M31.1,6.3c-0.2,0-0.3,0.1-0.5,0.1c-1,0.2-1.1-0.1-0.4-0.8c0.3-0.3,0.6-0.7,0.8-1
			c0.5-0.8,0.1-1.2-0.8-0.8c-0.3,0.1-0.7,0.3-1,0.4c-0.9,0.3-2.3-0.2-3.1-0.7c-1.1-0.7-2.3-1-3.6-1c-1.9,0-3.5,0.7-4.8,2
			s-2,2.9-2,4.8c0,0.3,0,0.5,0,0.8c0,0.4-0.7,0.7-1.7,0.6c-2.1-0.3-4.2-0.9-6.1-1.9s-3.6-2.2-5-3.7C2.2,4.4,1.3,4.5,1,5.4
			C0.8,6,0.8,6.6,0.8,7.2c0,1.2,0.3,2.3,0.8,3.2c0.3,0.5,0.6,0.9,1,1.3c0.6,0.7,0.5,1.1-0.3,0.8c-0.9-0.2-1.5-0.6-1.5-0.6l0,0
			c0,1.6,0.5,3.1,1.6,4.3C3,17,3.8,17.6,4.6,18c0.9,0.4,1.3,0.7,0.8,0.7C5,19,4.7,19,4.4,19c-0.2,0-0.4,0-0.6,0
			c-0.4,0-0.4,0.7,0.1,1.5c0.4,0.7,1,1.2,1.6,1.7c0.7,0.5,1.4,0.9,2.2,1.1c1,0.3,1.1,0.8,0.3,1.3c-2.1,1.3-4.4,1.9-7,1.9
			c-0.3,0-0.6,0-0.8,0c-0.5,0-0.2,0.4,0.7,0.8c2.8,1.4,5.7,2.2,8.9,2.2c2.4,0,4.7-0.4,6.8-1.1c2.1-0.8,4-1.8,5.5-3.1
			c1.5-1.3,2.8-2.8,3.9-4.4c1.1-1.7,1.9-3.4,2.4-5.2c0.5-1.8,0.8-3.6,0.8-5.5c0-0.2,0-0.3,0-0.4c0-0.2,0.6-0.9,1.4-1.6
			c0.3-0.3,0.6-0.6,0.9-1C32.3,6.4,32,6,31.1,6.3z"/>
	</g>
	<g>
		
			<linearGradient id="Tw_2_" gradientUnits="userSpaceOnUse" x1="91.9616" y1="23.5506" x2="91.9616" y2="-3.3276" gradientTransform="matrix(1 0 0 -1 -76 26)">
			<stop  offset="0" style="stop-color:#1ECED0"/>
			<stop  offset="0.5" style="stop-color:#8AA9F4"/>
			<stop  offset="1" style="stop-color:#6A44FB"/>
		</linearGradient>
		<path id="Tw_6_" class="st1" d="M31.1,6.3c-0.2,0-0.3,0.1-0.5,0.1c-1,0.2-1.1-0.1-0.4-0.8c0.3-0.3,0.6-0.7,0.8-1
			c0.5-0.8,0.1-1.2-0.8-0.8c-0.3,0.1-0.7,0.3-1,0.4c-0.9,0.3-2.3-0.2-3.1-0.7c-1.1-0.7-2.3-1-3.6-1c-1.9,0-3.5,0.7-4.8,2
			s-2,2.9-2,4.8c0,0.3,0,0.5,0,0.8c0,0.4-0.7,0.7-1.7,0.6c-2.1-0.3-4.2-0.9-6.1-1.9s-3.6-2.2-5-3.7C2.2,4.4,1.3,4.5,1,5.4
			C0.8,6,0.8,6.6,0.8,7.2c0,1.2,0.3,2.3,0.8,3.2c0.3,0.5,0.6,0.9,1,1.3c0.6,0.7,0.5,1.1-0.3,0.8c-0.9-0.2-1.5-0.6-1.5-0.6l0,0
			c0,1.6,0.5,3.1,1.6,4.3C3,17,3.8,17.6,4.6,18c0.9,0.4,1.3,0.7,0.8,0.7C5,19,4.7,19,4.4,19c-0.2,0-0.4,0-0.6,0
			c-0.4,0-0.4,0.7,0.1,1.5c0.4,0.7,1,1.2,1.6,1.7c0.7,0.5,1.4,0.9,2.2,1.1c1,0.3,1.1,0.8,0.3,1.3c-2.1,1.3-4.4,1.9-7,1.9
			c-0.3,0-0.6,0-0.8,0c-0.5,0-0.2,0.4,0.7,0.8c2.8,1.4,5.7,2.2,8.9,2.2c2.4,0,4.7-0.4,6.8-1.1c2.1-0.8,4-1.8,5.5-3.1
			c1.5-1.3,2.8-2.8,3.9-4.4c1.1-1.7,1.9-3.4,2.4-5.2c0.5-1.8,0.8-3.6,0.8-5.5c0-0.2,0-0.3,0-0.4c0-0.2,0.6-0.9,1.4-1.6
			c0.3-0.3,0.6-0.6,0.9-1C32.3,6.4,32,6,31.1,6.3z"/>
	</g>
</g>
</svg>
