<?xml version="1.0" encoding="UTF-8"?>
<svg width="688px" height="689px" viewBox="0 0 688 689" version="1.1" xmlns="http://www.w3.org/2000/svg" xmlns:xlink="http://www.w3.org/1999/xlink">
    <!-- Generator: sketchtool 49.2 (51160) - http://www.bohemiancoding.com/sketch -->
    <title>766BF8B7-A70F-4E5C-81BC-10A26475776D@1,5x</title>
    <desc>Created with sketchtool.</desc>
    <defs>
        <path d="M1.3568109,43.0595501 C-0.940108974,53.3130508 -2.34015385,75.3475414 18.2824519,78.4862554 C38.9418526,81.6304906 104.520433,84.8124528 104.520433,84.8124528 C104.520433,84.8124528 112.033026,85.1188708 123.377804,84.8124528 C134.722583,84.5060348 239.511619,79.4064296 239.511619,79.4064296 C239.511619,79.4064296 241.121394,79.8665167 241.926282,76.914598 C242.258356,75.6953672 239.409513,75.6364761 230.427885,75.3806676 C230.427885,75.3806676 147.643103,70.4945428 120.120538,65.1823774 C113.165388,63.8398433 101.646753,60.6588012 101.339516,43.48191 C101.033199,26.3050189 106.552429,2.07407257 106.552429,2.07407257 L13.6444583,0.233724238 C13.6444583,0.233724238 4.125625,30.6970102 1.3568109,43.0595501" id="path-1"></path>
        <path d="M0.919871795,43.788328 C0.919871795,43.788328 -5.09884936,69.7114746 15.5228365,72.8501887 C36.1822372,75.9944238 103.614359,81.8218868 103.614359,81.8218868 C103.614359,81.8218868 111.611724,83.048479 122.956503,82.742061 C134.301282,82.435643 231.807692,77.8347721 231.807692,77.8347721 C231.807692,77.8347721 236.099814,78.1411901 236.407051,76.914598 C236.714288,75.6880058 232.420327,75.3806676 229.967949,75.3806676 C229.967949,75.3806676 147.183167,70.4945428 119.660603,65.1823774 C112.705452,63.8398433 101.186817,60.6588012 100.87958,43.48191 C100.573263,26.3050189 106.092494,2.07407257 106.092494,2.07407257 L13.1845224,0.233724238 L0.919871795,43.788328 Z" id="path-3"></path>
        <radialGradient cx="56.6431649%" cy="25.3673775%" fx="56.6431649%" fy="25.3673775%" r="199.62991%" gradientTransform="translate(0.566432,0.253674),scale(0.349345,1.000000),rotate(144.312133),scale(1.000000,1.465249),translate(-0.566432,-0.253674)" id="radialGradient-5">
            <stop stop-color="#1D2E6A" offset="0%"></stop>
            <stop stop-color="#16234D" offset="100%"></stop>
        </radialGradient>
        <path d="M3.98580449,11.8886502 C3.98580449,11.8886502 0,14.6491727 0,21.0903919 C0,27.531611 33.7289391,492.832401 33.7289391,492.832401 C33.7289391,492.832401 35.4150641,508.62811 49.9803141,509.241866 C64.5446442,509.855623 487.839288,508.62903 487.839288,508.62903 C487.839288,508.62903 500.257558,509.856543 502.403619,503.261655 C504.549679,496.666766 368.409574,185.34056 368.409574,185.34056 L20.3907981,0.386473149 L3.98580449,11.8886502 Z" id="path-6"></path>
        <path d="M12.3575577,0.2208418 C7.79315385,0.247526851 0.818685897,1.70876343 0.612634615,10.3556401 C0.306317308,23.2371582 35.2623654,488.538868 35.2623654,488.538868 C35.2623654,488.538868 35.2623654,506.635933 53.6598013,507.556107 C72.0563173,508.476282 478.946888,508.7827 478.946888,508.7827 C478.946888,508.7827 489.679032,510.929466 488.75916,498.967202 C487.839288,487.004938 452.88416,161.877039 452.88416,161.877039 C452.88416,161.877039 453.496795,148.380845 440.312272,144.087312 C427.12775,139.792859 16.2504551,0.540142235 16.2504551,0.540142235 C16.2504551,0.540142235 14.716109,0.232804064 12.6096026,0.2208418 L12.3575577,0.2208418 Z" id="path-8"></path>
        <radialGradient cx="56.6431649%" cy="25.3673775%" fx="56.6431649%" fy="25.3673775%" r="133.918711%" gradientTransform="translate(0.566432,0.253674),scale(1.000000,0.959688),rotate(115.022034),scale(1.000000,1.465249),translate(-0.566432,-0.253674)" id="radialGradient-10">
            <stop stop-color="#1D2E6A" offset="0%"></stop>
            <stop stop-color="#16234D" offset="100%"></stop>
        </radialGradient>
        <path d="M60.5866729,75.8562446 L87.8049525,430.238964 C88.2250783,435.709013 92.6115356,440.033256 98.0870274,440.375205 L490.508008,464.882227 C495.468906,465.192039 499.741661,461.421589 500.051473,456.460691 C500.082174,455.969091 500.072466,455.475801 500.022448,454.98579 L474.07003,200.740136 C473.586388,196.002089 470.34649,191.998488 465.813484,190.537372 L74.9290074,64.5443062 C69.1468253,62.6805462 62.9485645,65.8570549 61.0848045,71.6392371 C60.6464464,72.9992115 60.4772506,74.4315639 60.5866729,75.8562446 Z" id="path-11"></path>
        <filter x="-44.4%" y="-40.4%" width="188.7%" height="196.5%" filterUnits="objectBoundingBox" id="filter-12">
            <feOffset dx="0" dy="32" in="SourceAlpha" result="shadowOffsetOuter1"></feOffset>
            <feGaussianBlur stdDeviation="60" in="shadowOffsetOuter1" result="shadowBlurOuter1"></feGaussianBlur>
            <feColorMatrix values="0 0 0 0 0.152941176   0 0 0 0 0.184313725   0 0 0 0 0.290196078  0 0 0 0.16 0" type="matrix" in="shadowBlurOuter1"></feColorMatrix>
        </filter>
        <path d="M31.1507755,46.4106713 L58.3690551,400.793391 C58.7891808,406.26344 63.1756381,410.587683 68.65113,410.929632 L461.07211,435.436653 C466.033008,435.746466 470.305763,431.976016 470.615576,427.015117 C470.646277,426.523518 470.636569,426.030227 470.58655,425.540216 L444.634133,171.294563 C444.150491,166.556516 440.910592,162.552914 436.377587,161.091799 L45.49311,35.0987329 C39.7109278,33.2349729 33.512667,36.4114816 31.648907,42.1936638 C31.210549,43.5536382 31.0413532,44.9859906 31.1507755,46.4106713 Z" id="path-13"></path>
        <filter x="-44.4%" y="-40.4%" width="188.7%" height="196.5%" filterUnits="objectBoundingBox" id="filter-14">
            <feOffset dx="0" dy="32" in="SourceAlpha" result="shadowOffsetOuter1"></feOffset>
            <feGaussianBlur stdDeviation="60" in="shadowOffsetOuter1" result="shadowBlurOuter1"></feGaussianBlur>
            <feColorMatrix values="0 0 0 0 0.152941176   0 0 0 0 0.184313725   0 0 0 0 0.290196078  0 0 0 0.16 0" type="matrix" in="shadowBlurOuter1"></feColorMatrix>
        </filter>
        <path d="M1.71487802,16.965098 L28.9331576,371.347818 C29.3532834,376.817867 33.7397407,381.142109 39.2152325,381.484058 L431.636213,405.99108 C436.597111,406.300892 440.869866,402.530442 441.179678,397.569544 C441.210379,397.077945 441.200671,396.584654 441.150653,396.094643 L415.198235,141.84899 C414.714594,137.110943 411.474695,133.107341 406.941689,131.646226 L16.0572125,5.6531596 C10.2750304,3.78939958 4.0767696,6.96590834 2.21300959,12.7480905 C1.77465157,14.1080649 1.60545576,15.5404174 1.71487802,16.965098 Z" id="path-15"></path>
        <filter x="-44.4%" y="-40.4%" width="188.7%" height="196.5%" filterUnits="objectBoundingBox" id="filter-16">
            <feOffset dx="0" dy="32" in="SourceAlpha" result="shadowOffsetOuter1"></feOffset>
            <feGaussianBlur stdDeviation="60" in="shadowOffsetOuter1" result="shadowBlurOuter1"></feGaussianBlur>
            <feColorMatrix values="0 0 0 0 0.152941176   0 0 0 0 0.184313725   0 0 0 0 0.290196078  0 0 0 0.16 0" type="matrix" in="shadowBlurOuter1"></feColorMatrix>
        </filter>
    </defs>
    <g id="Page-1" stroke="none" stroke-width="1" fill="none" fill-rule="evenodd">
        <g id="Monitor" transform="translate(-220.000000, -131.000000)">
            <g transform="translate(313.000000, 186.000000)">
                <g transform="translate(321.495192, 339.544267) scale(-1, 1) translate(-321.495192, -339.544267) translate(68.990385, 45.088534)">
                    <g id="Group-4" transform="translate(143.500000, 503.114427)">
                        <mask id="mask-2" fill="white">
                            <use xlink:href="#path-1"></use>
                        </mask>
                        <g id="Clip-3"></g>
                        <path d="M1.3568109,43.0595501 C-0.940108974,53.3130508 -2.34015385,75.3475414 18.2824519,78.4862554 C38.9418526,81.6304906 104.520433,84.8124528 104.520433,84.8124528 C104.520433,84.8124528 112.033026,85.1188708 123.377804,84.8124528 C134.722583,84.5060348 239.511619,79.4064296 239.511619,79.4064296 C239.511619,79.4064296 241.121394,79.8665167 241.926282,76.914598 C242.258356,75.6953672 239.409513,75.6364761 230.427885,75.3806676 C230.427885,75.3806676 147.643103,70.4945428 120.120538,65.1823774 C113.165388,63.8398433 101.646753,60.6588012 101.339516,43.48191 C101.033199,26.3050189 106.552429,2.07407257 106.552429,2.07407257 L13.6444583,0.233724238 C13.6444583,0.233724238 4.125625,30.6970102 1.3568109,43.0595501" id="Fill-2" fill="#16234D" mask="url(#mask-2)"></path>
                    </g>
                    <g id="Group-7" transform="translate(149.019231, 503.114427)">
                        <mask id="mask-4" fill="white">
                            <use xlink:href="#path-3"></use>
                        </mask>
                        <g id="Clip-6"></g>
                        <path d="M0.919871795,43.788328 C0.919871795,43.788328 -5.09884936,69.7114746 15.5228365,72.8501887 C36.1822372,75.9944238 103.614359,81.8218868 103.614359,81.8218868 C103.614359,81.8218868 111.611724,83.048479 122.956503,82.742061 C134.301282,82.435643 231.807692,77.8347721 231.807692,77.8347721 C231.807692,77.8347721 236.099814,78.1411901 236.407051,76.914598 C236.714288,75.6880058 232.420327,75.3806676 229.967949,75.3806676 C229.967949,75.3806676 147.183167,70.4945428 119.660603,65.1823774 C112.705452,63.8398433 101.186817,60.6588012 100.87958,43.48191 C100.573263,26.3050189 106.092494,2.07407257 106.092494,2.07407257 L13.1845224,0.233724238 L0.919871795,43.788328 Z" id="Fill-5" fill="url(#radialGradient-5)" mask="url(#mask-4)"></path>
                    </g>
                    <g id="Group-10" transform="translate(0.000000, 2.539681)">
                        <mask id="mask-7" fill="white">
                            <use xlink:href="#path-6"></use>
                        </mask>
                        <g id="Clip-9"></g>
                        <path d="M3.98580449,11.8886502 C3.98580449,11.8886502 0,14.6491727 0,21.0903919 C0,27.531611 33.7289391,492.832401 33.7289391,492.832401 C33.7289391,492.832401 35.4150641,508.62811 49.9803141,509.241866 C64.5446442,509.855623 487.839288,508.62903 487.839288,508.62903 C487.839288,508.62903 500.257558,509.856543 502.403619,503.261655 C504.549679,496.666766 368.409574,185.34056 368.409574,185.34056 L20.3907981,0.386473149 L3.98580449,11.8886502 Z" id="Fill-8" fill="#16234D" mask="url(#mask-7)"></path>
                    </g>
                    <g id="Group-13" transform="translate(15.637821, 0.699332)">
                        <mask id="mask-9" fill="white">
                            <use xlink:href="#path-8"></use>
                        </mask>
                        <g id="Clip-12"></g>
                        <path d="M12.3575577,0.2208418 C7.79315385,0.247526851 0.818685897,1.70876343 0.612634615,10.3556401 C0.306317308,23.2371582 35.2623654,488.538868 35.2623654,488.538868 C35.2623654,488.538868 35.2623654,506.635933 53.6598013,507.556107 C72.0563173,508.476282 478.946888,508.7827 478.946888,508.7827 C478.946888,508.7827 489.679032,510.929466 488.75916,498.967202 C487.839288,487.004938 452.88416,161.877039 452.88416,161.877039 C452.88416,161.877039 453.496795,148.380845 440.312272,144.087312 C427.12775,139.792859 16.2504551,0.540142235 16.2504551,0.540142235 C16.2504551,0.540142235 14.716109,0.232804064 12.6096026,0.2208418 L12.3575577,0.2208418 Z" id="Fill-11" fill="url(#radialGradient-10)" mask="url(#mask-9)"></path>
                    </g>
                    <g id="Group-25" transform="translate(14.717949, 0.699332)"></g>
                    <path d="M42.8791408,48.2510196 L70.0974204,402.633739 C70.5175462,408.103788 74.9040035,412.428031 80.3794953,412.76998 L472.800476,437.277002 C477.761374,437.586814 482.034129,433.816364 482.343941,428.855466 C482.374642,428.363866 482.364934,427.870576 482.314916,427.380565 L456.362498,173.134911 C455.878856,168.396864 452.638958,164.393263 448.105952,162.932147 L57.2214754,36.9390812 C51.4392932,35.0753212 45.2410324,38.25183 43.3772724,44.0340121 C42.9389144,45.3939865 42.7697186,46.826339 42.8791408,48.2510196 Z" id="Fill-16" fill="#16234D"></path>
                </g>
                <g id="Screens">
                    <g id="Fill-16" opacity="0.6" transform="translate(280.215946, 262.530290) scale(-1, 1) translate(-280.215946, -262.530290) ">
                        <use fill="black" fill-opacity="1" filter="url(#filter-12)" xlink:href="#path-11"></use>
                        <use fill="#1E2D5D" fill-rule="evenodd" xlink:href="#path-11"></use>
                    </g>
                    <g id="Fill-16-Copy" opacity="0.8" transform="translate(250.780048, 233.084717) scale(-1, 1) translate(-250.780048, -233.084717) ">
                        <use fill="black" fill-opacity="1" filter="url(#filter-14)" xlink:href="#path-13"></use>
                        <use fill="#1E2D5D" fill-rule="evenodd" xlink:href="#path-13"></use>
                    </g>
                    <g id="Fill-16-Copy-2" transform="translate(221.344151, 203.639144) scale(-1, 1) translate(-221.344151, -203.639144) ">
                        <use fill="black" fill-opacity="1" filter="url(#filter-16)" xlink:href="#path-15"></use>
                        <use fill="#1E2D5D" fill-rule="evenodd" xlink:href="#path-15"></use>
                    </g>
                </g>
            </g>
        </g>
    </g>
</svg>