<svg width="800" height="733" xmlns="http://www.w3.org/2000/svg" xmlns:xlink="http://www.w3.org/1999/xlink"><defs><linearGradient x1="51.808%" y1="-61.406%" x2="50%" y2="97.935%" id="b"><stop stop-color="#4763FF" offset="0%"/><stop stop-color="#021D39" stop-opacity="0" offset="100%"/></linearGradient><path d="M145.877 46.696l83.58-42.888 46.539 28.448a8 8 0 0 1 2.848 10.66l-139.396 255.26L.892 42.89a8 8 0 0 1 2.84-10.63L56.155.015l77.098 46.26a13 13 0 0 0 12.624.42z" id="a"/><linearGradient x1="88.837%" y1="-38.082%" x2="98.449%" y2="95.331%" id="c"><stop stop-color="#4763FF" offset="0%"/><stop stop-color="#021D39" stop-opacity="0" offset="100%"/></linearGradient><path d="M150.487 43.759L209.78.007l66.216 40.476a8 8 0 0 1 2.848 10.66L139.448 306.404.892 51.117a8 8 0 0 1 2.84-10.63l47.25-29.062 87.06 33.983a13 13 0 0 0 12.445-1.65z" id="e"/><path d="M195.469 1.674l178.664 109.153a8 8 0 0 1 2.85 10.663L188.67 466.13 1.497 121.464a8 8 0 0 1 2.84-10.633L181.883 1.693a13 13 0 0 1 13.586-.019z" id="g"/><radialGradient cx="50%" cy="-38.373%" fx="50%" fy="-38.373%" r="292.941%" gradientTransform="matrix(0 .46766 -.23209 0 .41 -.618)" id="i"><stop stop-color="#25CADF" stop-opacity=".398" offset="0%"/><stop stop-color="#25CADF" stop-opacity="0" offset="100%"/></radialGradient><radialGradient cx="50%" cy="-32.356%" fx="50%" fy="-32.356%" r="283.019%" gradientTransform="matrix(0 .46766 -.23209 0 .425 -.557)" id="j"><stop stop-color="#25CADF" stop-opacity=".398" offset="0%"/><stop stop-color="#25CADF" stop-opacity="0" offset="100%"/></radialGradient><linearGradient x1="17.237%" y1="85.457%" x2="87.185%" y2="13.479%" id="k"><stop stop-color="#0084FF" stop-opacity="0" offset="0%"/><stop stop-color="#1595FF" offset="50.431%"/><stop stop-color="#1796FF" stop-opacity="0" offset="100%"/></linearGradient><radialGradient cx="96.971%" cy="69.105%" fx="96.971%" fy="69.105%" r="113.774%" gradientTransform="matrix(-.8523 -.3823 .5167 -1.35394 1.44 1.997)" id="l"><stop stop-color="#1796FF" offset="0%"/><stop stop-color="#651FFF" offset="100%"/></radialGradient><linearGradient x1="34.57%" y1="15.815%" x2="57.377%" y2="0%" id="n"><stop stop-color="#0084FF" offset="0%"/><stop stop-color="#1796FF" offset="100%"/></linearGradient><path d="M65.674 2l48.238 27.846a11 11 0 0 1 5.5 9.527v32.184a11 11 0 0 1-5.5 9.527L65.674 108.93a11 11 0 0 1-11 0L6.437 81.084a11 11 0 0 1-5.5-9.527V39.373a11 11 0 0 1 5.5-9.527L54.675 2a11 11 0 0 1 10.999 0z" id="m"/><linearGradient x1="50%" y1="-16.285%" x2="50%" y2="209.304%" id="p"><stop stop-color="#4763FF" offset="0%"/><stop stop-color="#021D39" offset="100%"/></linearGradient><path d="M59.951 79.925l51.956-29.781 5.33-5.886 1.535-8.651-.927-20.897-.609-16.987 1.536.848 77.718 42.872a8 8 0 0 1-.018 14.02L67.642 126.09a16 16 0 0 1-15.382 0L-76.57 55.463a8 8 0 0 1-.018-14.02L1.128-1.428 3.233-2.59l-.925 44.902c.719 2.191 1.41 3.723 2.075 4.596.664.872 1.96 1.95 3.886 3.235l51.682 29.78z" id="o"/><linearGradient x1="50%" y1="100%" x2="50%" y2="0%" id="q"><stop stop-color="#4911C4" offset="0%"/><stop stop-color="#333E61" stop-opacity="0" offset="100%"/></linearGradient><filter x="-17.7%" y="-15.8%" width="135.4%" height="131.6%" filterUnits="objectBoundingBox" id="r"><feGaussianBlur stdDeviation="7" in="SourceGraphic"/></filter><linearGradient x1="42.623%" y1="100%" x2="57.377%" y2="0%" id="t"><stop stop-color="#0084FF" offset="0%"/><stop stop-color="#1796FF" offset="100%"/></linearGradient><filter x="-76.7%" y="-25.2%" width="251.9%" height="252.1%" filterUnits="objectBoundingBox" id="u"><feOffset dy="12" in="SourceAlpha" result="shadowOffsetOuter1"/><feGaussianBlur stdDeviation="4" in="shadowOffsetOuter1" result="shadowBlurOuter1"/><feColorMatrix values="0 0 0 0 0 0 0 0 0 0 0 0 0 0 0 0 0 0 0.943812274 0" in="shadowBlurOuter1" result="shadowMatrixOuter1"/><feMerge><feMergeNode in="shadowMatrixOuter1"/><feMergeNode in="SourceGraphic"/></feMerge></filter><linearGradient x1="12.924%" y1="-10.772%" x2="50%" y2="75.031%" id="x"><stop stop-color="#0084FF" offset="0%"/><stop stop-color="#25CADF" offset="100%"/></linearGradient><path d="M45.96.854h-1.806v23.047c0 2.09-1.695 4.489-3.79 5.35L.72 45.564h45.24a3.79 3.79 0 0 0 3.79-3.79V4.639A3.79 3.79 0 0 0 45.96.854z" id="v"/><filter x="-91.8%" y="-51.4%" width="283.6%" height="301.3%" filterUnits="objectBoundingBox" id="w"><feMorphology radius="1" operator="dilate" in="SourceAlpha" result="shadowSpreadOuter1"/><feOffset dy="16" in="shadowSpreadOuter1" result="shadowOffsetOuter1"/><feGaussianBlur stdDeviation="8" in="shadowOffsetOuter1" result="shadowBlurOuter1"/><feColorMatrix values="0 0 0 0 0 0 0 0 0 0.647058824 0 0 0 0 1 0 0 0 0.1 0" in="shadowBlurOuter1" result="shadowMatrixOuter1"/><feOffset dy="6" in="SourceAlpha" result="shadowOffsetOuter2"/><feGaussianBlur stdDeviation="5" in="shadowOffsetOuter2" result="shadowBlurOuter2"/><feColorMatrix values="0 0 0 0 0.305882353 0 0 0 0 0.694117647 0 0 0 0 0.890196078 0 0 0 0.18 0" in="shadowBlurOuter2" result="shadowMatrixOuter2"/><feMerge><feMergeNode in="shadowMatrixOuter1"/><feMergeNode in="shadowMatrixOuter2"/></feMerge></filter><filter x="-66.3%" y="-23.5%" width="232.6%" height="245.4%" filterUnits="objectBoundingBox" id="y"><feGaussianBlur stdDeviation="1.5" in="SourceAlpha" result="shadowBlurInner1"/><feOffset dy="6" in="shadowBlurInner1" result="shadowOffsetInner1"/><feComposite in="shadowOffsetInner1" in2="SourceAlpha" operator="arithmetic" k2="-1" k3="1" result="shadowInnerInner1"/><feColorMatrix values="0 0 0 0 0 0 0 0 0 0 0 0 0 0 0 0 0 0 0.5 0" in="shadowInnerInner1"/></filter><path d="M47.206.309L3.79 18.174c-2.095.86-3.79 3.26-3.79 5.348v37.132c0 2.088 1.695 3.09 3.79 2.23l43.416-17.866c2.095-.86 3.79-3.257 3.79-5.35V2.538c0-2.086-1.695-3.09-3.79-2.23zm-5.804 29.32c-2.334.78-4.216-.488-4.216-2.815 0-2.334 1.885-4.846 4.216-5.623 2.33-.776 4.215.49 4.215 2.824.001 2.33-1.892 4.842-4.215 5.615z" id="A"/><filter x="-88.2%" y="-36.4%" width="276.5%" height="242.4%" filterUnits="objectBoundingBox" id="B"><feMorphology radius="1" operator="dilate" in="SourceAlpha" result="shadowSpreadOuter1"/><feOffset dy="16" in="shadowSpreadOuter1" result="shadowOffsetOuter1"/><feGaussianBlur stdDeviation="8" in="shadowOffsetOuter1" result="shadowBlurOuter1"/><feColorMatrix values="0 0 0 0 0 0 0 0 0 0.647058824 0 0 0 0 1 0 0 0 0.1 0" in="shadowBlurOuter1" result="shadowMatrixOuter1"/><feOffset dy="6" in="SourceAlpha" result="shadowOffsetOuter2"/><feGaussianBlur stdDeviation="5" in="shadowOffsetOuter2" result="shadowBlurOuter2"/><feColorMatrix values="0 0 0 0 0.305882353 0 0 0 0 0.694117647 0 0 0 0 0.890196078 0 0 0 0.18 0" in="shadowBlurOuter2" result="shadowMatrixOuter2"/><feMerge><feMergeNode in="shadowMatrixOuter1"/><feMergeNode in="shadowMatrixOuter2"/></feMerge></filter><filter x="-63.7%" y="-16.6%" width="227.5%" height="202.9%" filterUnits="objectBoundingBox" id="C"><feGaussianBlur stdDeviation="1.5" in="SourceAlpha" result="shadowBlurInner1"/><feOffset dy="6" in="shadowBlurInner1" result="shadowOffsetInner1"/><feComposite in="shadowOffsetInner1" in2="SourceAlpha" operator="arithmetic" k2="-1" k3="1" result="shadowInnerInner1"/><feColorMatrix values="0 0 0 0 0 0 0 0 0 0 0 0 0 0 0 0 0 0 0.5 0" in="shadowInnerInner1"/></filter><linearGradient x1="46.923%" y1="13.455%" x2="8.353%" y2="57.508%" id="D"><stop stop-color="#6CF4E1" offset="0%"/><stop stop-color="#359EF6" offset="100%"/></linearGradient><linearGradient x1="42.623%" y1="100%" x2="47.611%" y2="10.347%" id="G"><stop stop-color="#0084FF" offset="0%"/><stop stop-color="#17BAFF" offset="100%"/></linearGradient><path d="M64.844 2l48.238 27.846a11 11 0 0 1 5.5 9.527v55.692a11 11 0 0 1-5.5 9.526l-48.238 27.847a11 11 0 0 1-11 0L5.607 104.591a11 11 0 0 1-5.5-9.526V39.373a11 11 0 0 1 5.5-9.527L53.845 2a11 11 0 0 1 10.999 0z" id="F"/><radialGradient cx="96.971%" cy="69.105%" fx="96.971%" fy="69.105%" r="108.536%" gradientTransform="matrix(-.89345 -.40076 .65814 -1.16804 1.381 1.887)" id="I"><stop stop-color="#1796FF" offset="0%"/><stop stop-color="#651FFF" offset="100%"/></radialGradient><path d="M64.844 2l48.238 27.846a11 11 0 0 1 5.5 9.527v55.692a11 11 0 0 1-5.5 9.526l-48.238 27.847a11 11 0 0 1-11 0L5.607 104.591a11 11 0 0 1-5.5-9.526V39.373a11 11 0 0 1 5.5-9.527L53.845 2a11 11 0 0 1 10.999 0z" id="H"/><linearGradient x1="56.713%" y1="25.462%" x2="250.113%" y2="60.03%" id="K"><stop stop-color="#1799104" offset="0%"/><stop stop-color="#141935" offset="100%"/></linearGradient><path d="M63.577 2.092l54.283 30.823-53.477 33.217a11 11 0 0 1-11.406.122L.58 35.251 52.24 2.377a11 11 0 0 1 11.336-.285z" id="L"/><linearGradient x1="94.039%" y1="46.341%" x2="30.024%" y2="46.341%" id="M"><stop stop-color="#74D5FF" offset="0%"/><stop stop-color="#FFF" stop-opacity="0" offset="100%"/></linearGradient><path d="M63.139 1.479l53.3 26.615a5 5 0 0 1 .226 8.827L64.068 66.629a11 11 0 0 1-10.73.05L2.02 38.33a4 4 0 0 1-.079-6.958L52.69 1.815a11 11 0 0 1 10.45-.336z" id="N"/><radialGradient cx="19.159%" cy="15.894%" fx="19.159%" fy="15.894%" r="108.372%" gradientTransform="matrix(.67232 .43293 -1.08466 .57613 .235 -.016)" id="O"><stop stop-color="#25CADF" offset="0%"/><stop stop-color="#651FFF" stop-opacity=".8" offset="100%"/></radialGradient><linearGradient x1="216.414%" y1="4.351%" x2="147.851%" y2="121.641%" id="Q"><stop stop-color="#546EFF" offset="0%"/><stop stop-color="#00FFFA" offset="100%"/></linearGradient><linearGradient x1="-10.998%" y1="110.018%" x2="7.099%" y2="32.834%" id="R"><stop stop-color="#006DD3" offset="0%"/><stop stop-color="#1796FF" offset="100%"/></linearGradient><path id="P" d="M119.993 33.022v68.394l-59.998 34.197V67.219z"/><linearGradient x1="96.563%" y1="95.084%" x2="75.198%" y2="24.27%" id="T"><stop stop-color="#006DD3" offset="0%"/><stop stop-color="#1796FF" offset="100%"/></linearGradient><path id="S" d="M60.104 67.219v68.394L.105 101.416V33.022z"/><path d="M65.674 2l48.238 27.846a11 11 0 0 1 5.5 9.527v32.184a11 11 0 0 1-5.5 9.527L65.674 108.93a11 11 0 0 1-11 0L6.437 81.084a11 11 0 0 1-5.5-9.527V39.373a11 11 0 0 1 5.5-9.527L54.675 2a11 11 0 0 1 10.999 0z" id="U"/><path d="M59.951 79.925l51.956-29.781 5.33-5.886 1.535-8.651-.927-20.897-.609-16.987 1.536.848 77.718 42.872a8 8 0 0 1-.018 14.02L67.642 126.09a16 16 0 0 1-15.382 0L-76.57 55.463a8 8 0 0 1-.018-14.02L1.128-1.428 3.233-2.59l-.925 44.902c.719 2.191 1.41 3.723 2.075 4.596.664.872 1.96 1.95 3.886 3.235l51.682 29.78z" id="V"/><filter x="-17.7%" y="-15.8%" width="135.4%" height="131.6%" filterUnits="objectBoundingBox" id="W"><feGaussianBlur stdDeviation="7" in="SourceGraphic"/></filter><path d="M24.492 19.591a2.84 2.84 0 1 1 0 5.68 2.84 2.84 0 0 1 0-5.68zM2.4 2.4C6.46-1.66 15.263.156 24.492 6.204c9.23-6.048 18.032-7.865 22.093-3.805 4.06 4.06 2.243 12.862-3.805 22.09 6.048 9.228 7.865 18.03 3.805 22.09-4.061 4.06-12.864 2.243-22.093-3.805C15.263 48.822 6.46 50.64 2.4 46.58-1.661 42.52.156 33.718 6.205 24.49.156 15.261-1.661 6.459 2.4 2.399zm32.145 12.039a82.18 82.18 0 0 1 4.799 5.338c3.918-6.048 5.338-11.244 3.208-13.345-2.1-2.13-7.298-.71-13.346 3.208a82.184 82.184 0 0 1 5.339 4.799zM14.44 34.54a82.18 82.18 0 0 1-4.8-5.338C5.723 35.25 4.303 40.446 6.433 42.547c2.101 2.13 7.298.71 13.346-3.208a82.183 82.183 0 0 1-5.338-4.799zM6.432 6.431c-2.13 2.101-.71 7.297 3.209 13.345a82.18 82.18 0 0 1 4.799-5.338 82.183 82.183 0 0 1 5.338-4.799C13.73 5.721 8.533 4.302 6.432 6.431zm12.04 24.077a79.806 79.806 0 0 0 6.02 5.423 79.806 79.806 0 0 0 6.02-5.423 79.803 79.803 0 0 0 5.424-6.019 79.803 79.803 0 0 0-5.424-6.02 79.806 79.806 0 0 0-6.02-5.422 79.806 79.806 0 0 0-6.02 5.423 79.803 79.803 0 0 0-5.424 6.019 79.803 79.803 0 0 0 5.424 6.02zm24.08 12.039c2.13-2.101.71-7.297-3.208-13.345a82.18 82.18 0 0 1-4.8 5.338 82.184 82.184 0 0 1-5.338 4.799c6.048 3.918 11.245 5.338 13.346 3.208z" id="Z"/><filter x="-92.7%" y="-47.4%" width="285.4%" height="285.4%" filterUnits="objectBoundingBox" id="Y"><feMorphology radius="1" operator="dilate" in="SourceAlpha" result="shadowSpreadOuter1"/><feOffset dy="16" in="shadowSpreadOuter1" result="shadowOffsetOuter1"/><feGaussianBlur stdDeviation="8" in="shadowOffsetOuter1" result="shadowBlurOuter1"/><feColorMatrix values="0 0 0 0 0 0 0 0 0 0.647058824 0 0 0 0 1 0 0 0 0.1 0" in="shadowBlurOuter1" result="shadowMatrixOuter1"/><feOffset dy="6" in="SourceAlpha" result="shadowOffsetOuter2"/><feGaussianBlur stdDeviation="5" in="shadowOffsetOuter2" result="shadowBlurOuter2"/><feColorMatrix values="0 0 0 0 0.305882353 0 0 0 0 0.694117647 0 0 0 0 0.890196078 0 0 0 0.18 0" in="shadowBlurOuter2" result="shadowMatrixOuter2"/><feMerge><feMergeNode in="shadowMatrixOuter1"/><feMergeNode in="shadowMatrixOuter2"/></feMerge></filter><linearGradient x1="50%" y1="185.249%" x2="50%" y2="75.031%" id="ac"><stop stop-color="#0084FF" offset="0%"/><stop stop-color="#25CADF" offset="100%"/></linearGradient><path d="M29.388 25.977a3.407 3.407 0 1 1 0 6.814 3.407 3.407 0 0 1 0-6.814zM2.879 2.88C7.752-1.993 18.314.187 29.388 7.444 40.462.187 51.024-1.993 55.897 2.879c4.872 4.872 2.691 15.433-4.566 26.505 7.257 11.072 9.438 21.634 4.566 26.506-4.873 4.871-15.435 2.691-26.51-4.566C18.315 58.581 7.753 60.761 2.88 55.89-1.993 51.018.187 40.456 7.445 29.384.187 18.312-1.993 7.751 2.879 2.88zm38.57 14.445a98.607 98.607 0 0 1 5.76 6.405c4.701-7.257 6.405-13.491 3.85-16.012-2.522-2.556-8.757-.852-16.015 3.85a98.611 98.611 0 0 1 6.406 5.757zm-24.123 24.12a98.607 98.607 0 0 1-5.758-6.404c-4.702 7.256-6.406 13.49-3.85 16.012 2.52 2.555 8.756.852 16.014-3.85a98.611 98.611 0 0 1-6.406-5.758zM7.718 7.717c-2.556 2.52-.852 8.755 3.85 16.012a98.607 98.607 0 0 1 5.758-6.405 98.611 98.611 0 0 1 6.406-5.758c-7.258-4.701-13.493-6.405-16.014-3.85zm14.446 28.89a95.759 95.759 0 0 0 7.224 6.507 95.759 95.759 0 0 0 7.223-6.507 95.755 95.755 0 0 0 6.508-7.223 95.755 95.755 0 0 0-6.508-7.222 95.759 95.759 0 0 0-7.223-6.507 95.759 95.759 0 0 0-7.224 6.507 95.755 95.755 0 0 0-6.507 7.222 95.755 95.755 0 0 0 6.507 7.223zm28.894 14.445c2.556-2.521.852-8.756-3.85-16.012a98.607 98.607 0 0 1-5.758 6.404 98.611 98.611 0 0 1-6.406 5.758c7.258 4.702 13.493 6.405 16.014 3.85z" id="aa"/><filter x="-77.3%" y="-39.5%" width="254.5%" height="254.5%" filterUnits="objectBoundingBox" id="ab"><feMorphology radius="1" operator="dilate" in="SourceAlpha" result="shadowSpreadOuter1"/><feOffset dy="16" in="shadowSpreadOuter1" result="shadowOffsetOuter1"/><feGaussianBlur stdDeviation="8" in="shadowOffsetOuter1" result="shadowBlurOuter1"/><feColorMatrix values="0 0 0 0 0 0 0 0 0 0.647058824 0 0 0 0 1 0 0 0 0.1 0" in="shadowBlurOuter1" result="shadowMatrixOuter1"/><feOffset dy="6" in="SourceAlpha" result="shadowOffsetOuter2"/><feGaussianBlur stdDeviation="5" in="shadowOffsetOuter2" result="shadowBlurOuter2"/><feColorMatrix values="0 0 0 0 0.305882353 0 0 0 0 0.694117647 0 0 0 0 0.890196078 0 0 0 0.18 0" in="shadowBlurOuter2" result="shadowMatrixOuter2"/><feMerge><feMergeNode in="shadowMatrixOuter1"/><feMergeNode in="shadowMatrixOuter2"/></feMerge></filter><linearGradient x1="42.143%" y1="50%" x2="42.143%" y2="89.996%" id="ae"><stop stop-color="#6CF4E1" offset="0%"/><stop stop-color="#359EF6" offset="100%"/></linearGradient><path id="af" d="M29.558 28.642L-6.947 8.829l29.352-23.401L57.331-4.97l6.254 15.453z"/><path d="M65.674 2l48.238 27.846a11 11 0 0 1 5.5 9.527v55.692a11 11 0 0 1-5.5 9.526l-48.238 27.847a11 11 0 0 1-11 0L6.437 104.591a11 11 0 0 1-5.5-9.526V39.373a11 11 0 0 1 5.5-9.527L54.675 2a11 11 0 0 1 10.999 0z" id="ag"/><path d="M65.674 2l48.238 27.846a11 11 0 0 1 5.5 9.527v55.692a11 11 0 0 1-5.5 9.526l-48.238 27.847a11 11 0 0 1-11 0L6.437 104.591a11 11 0 0 1-5.5-9.526V39.373a11 11 0 0 1 5.5-9.527L54.675 2a11 11 0 0 1 10.999 0z" id="ah"/><path d="M63.577 2.092l54.283 30.823-53.477 33.217a11 11 0 0 1-11.406.122L.58 35.251 52.24 2.377a11 11 0 0 1 11.336-.285z" id="aj"/><path d="M63.139 1.479l53.3 26.615a5 5 0 0 1 .226 8.827L64.068 66.629a11 11 0 0 1-10.73.05L2.02 38.33a4 4 0 0 1-.079-6.958L52.69 1.815a11 11 0 0 1 10.45-.336z" id="ak"/><path id="al" d="M120.824 33.022v68.394l-60 34.197V67.219z"/><path id="am" d="M60.934 67.219v68.394L.936 101.416V33.022z"/><path d="M190.009 1.448L369.87 108.045a8 8 0 0 1-.02 13.775L191.5 226.866a16 16 0 0 1-16.24 0L-3.091 121.82a8 8 0 0 1-.018-13.775L176.753 1.448a13 13 0 0 1 13.256 0z" id="an"/><filter x="-10.9%" y="-9.5%" width="121.8%" height="118.9%" filterUnits="objectBoundingBox" id="ao"><feGaussianBlur stdDeviation="7" in="SourceGraphic"/></filter><linearGradient x1="33.564%" y1="-8.51%" x2="109.706%" y2="214.647%" id="as"><stop stop-color="#CFF2FF" offset="0%"/><stop stop-color="#8CCDFF" offset="100%"/></linearGradient><path d="M.102 15.161C-.838 7.72 4.852.974 12.814.095c7.96-.879 15.175 4.442 16.115 11.884.94 7.442-4.752 14.188-12.712 15.066-7.96.88-15.176-4.442-16.115-11.884" id="ar"/><filter x="-44.8%" y="-40.5%" width="189.6%" height="195.8%" filterUnits="objectBoundingBox" id="aq"><feOffset dy="2" in="SourceAlpha" result="shadowOffsetOuter1"/><feGaussianBlur stdDeviation="4" in="shadowOffsetOuter1" result="shadowBlurOuter1"/><feColorMatrix values="0 0 0 0 0.152941176 0 0 0 0 0.184313725 0 0 0 0 0.290196078 0 0 0 0.12 0" in="shadowBlurOuter1"/></filter><path d="M102.988 1.439l83.392 49.096a13 13 0 0 1 6.405 11.203v98.636a13 13 0 0 1-6.405 11.203l-83.392 49.097a13 13 0 0 1-13.191 0L6.405 171.577A13 13 0 0 1 0 160.374V61.738a13 13 0 0 1 6.405-11.203L89.797 1.44a13 13 0 0 1 13.19 0z" id="at"/><radialGradient cx="0%" cy="50%" fx="0%" fy="50%" r="132.512%" gradientTransform="matrix(.75465 .37732 -.42186 .27903 .21 .36)" id="au"><stop stop-color="#0084FF" offset="0%"/><stop stop-color="#25CADF" offset="100%"/></radialGradient><radialGradient cx="0%" cy="50%" fx="0%" fy="50%" r="132.167%" gradientTransform="matrix(.75662 .37831 -.4204 .28147 .21 .36)" id="av"><stop stop-color="#0084FF" offset="0%"/><stop stop-color="#25CADF" offset="100%"/></radialGradient><radialGradient cx="0%" cy="50%" fx="0%" fy="50%" r="181.296%" gradientTransform="matrix(.55158 .2758 -.10175 .61802 .05 .191)" id="ay"><stop stop-color="#0084FF" offset="0%"/><stop stop-color="#25CADF" offset="100%"/></radialGradient><path d="M171.202 270.983l-78.336-45.314 83.46-48.189 83.463 48.191-80.66 45.36a8 8 0 0 1-7.927-.048z" id="ax"/><filter x="-10.8%" y="-18.8%" width="121.6%" height="137.6%" filterUnits="objectBoundingBox" id="aw"><feOffset in="SourceAlpha" result="shadowOffsetOuter1"/><feGaussianBlur stdDeviation="6" in="shadowOffsetOuter1" result="shadowBlurOuter1"/><feColorMatrix values="0 0 0 0 0.396078431 0 0 0 0 0.121568627 0 0 0 0 1 0 0 0 0.5 0" in="shadowBlurOuter1"/></filter><radialGradient cx="0%" cy="50%" fx="0%" fy="50%" r="184.799%" gradientTransform="matrix(.54113 .27056 -.09778 .61897 .049 .19)" id="az"><stop stop-color="#0084FF" offset="0%"/><stop stop-color="#25CADF" offset="100%"/></radialGradient><path d="M171.525 257.829l-55.737-32.24 60.538-34.955 60.54 34.956-57.414 32.287a8 8 0 0 1-7.927-.048z" id="aA"/><filter x="-5%" y="-8.8%" width="109.9%" height="117.9%" filterUnits="objectBoundingBox" id="aB"><feGaussianBlur stdDeviation="6" in="SourceAlpha" result="shadowBlurInner1"/><feOffset in="shadowBlurInner1" result="shadowOffsetInner1"/><feComposite in="shadowOffsetInner1" in2="SourceAlpha" operator="arithmetic" k2="-1" k3="1" result="shadowInnerInner1"/><feColorMatrix values="0 0 0 0 0.396078431 0 0 0 0 0.121568627 0 0 0 0 1 0 0 0 1 0" in="shadowInnerInner1"/></filter><radialGradient cx="0%" cy="50%" fx="0%" fy="50%" r="186.787%" gradientTransform="matrix(.53537 .26768 -.09563 .6195 .048 .19)" id="aC"><stop stop-color="#0084FF" offset="0%"/><stop stop-color="#25CADF" offset="100%"/></radialGradient><path d="M171.827 245.266l-34.585-20.006 39.085-22.567 39.086 22.568-35.659 20.053a8 8 0 0 1-7.927-.048z" id="aD"/><filter x="-14.7%" y="-26.5%" width="129.4%" height="153.4%" filterUnits="objectBoundingBox" id="aE"><feGaussianBlur stdDeviation="11.5" in="SourceAlpha" result="shadowBlurInner1"/><feOffset in="shadowBlurInner1" result="shadowOffsetInner1"/><feComposite in="shadowOffsetInner1" in2="SourceAlpha" operator="arithmetic" k2="-1" k3="1" result="shadowInnerInner1"/><feColorMatrix values="0 0 0 0 0.396078431 0 0 0 0 0.121568627 0 0 0 0 1 0 0 0 0.603600543 0" in="shadowInnerInner1"/></filter><linearGradient x1="50%" y1="-.195%" x2="50%" y2="106.662%" id="aF"><stop stop-color="#0070FF" stop-opacity="0" offset="0%"/><stop stop-color="#0084FF" offset="100%"/></linearGradient><path d="M.09 1.966V.064h.633v1.902c0 .177-.14.32-.317.32a.318.318 0 0 1-.315-.32z" id="aG"/><path d="M10.519 36.909v-10.15l-.002-.033s-.016-.579-.337-1.107a2.506 2.506 0 0 0-.787-.844l-.029-.02-7.838-4.542-.035-.021s-.174-.095-.383-.286a3.271 3.271 0 0 1-.628-.788 3.257 3.257 0 0 1-.366-.943C.054 17.9.058 17.7.058 17.7l-.002-.042V7.037l.002-.043s-.042-.421.252-.835c.32-.458.913-.384.878-.382.025-.04.636.17.613.198l.038.023 19.034 11.028.031.017c.002.023.364.15.358.126 0 0 .22.03.323-.132.125-.151.123-.456.123-.456l.002-.035V.305h.633V16.59s.04.423-.257.837c-.325.454-.917.374-.882.374-.023.037-.633-.178-.61-.206l-.038-.017L1.522 6.547l-.029-.015c-.002-.023-.365-.15-.357-.122 0 0-.219-.031-.322.132C.69 6.695.691 7 .691 7v10.693s.017.579.336 1.107c.296.541.787.844.787.844l.03.02 7.837 4.542.035.02s.667.423 1.012 1.075c.182.316.313.664.367.941.06.276.056.476.056.476l.002.04V36.91h-.634z" id="aI"/><path d="M.437 2.973V1.07a.316.316 0 1 1 .633 0v1.902H.437z" id="aK"/><path d="M1.18 2.832a.318.318 0 1 1-.635 0V.93h.635v1.902z" id="aM"/><path d="M.545 39.714V29.93l.002-.045s-.038-.37.228-.74c.294-.413.828-.343.795-.343.022-.033.561.153.54.178l.039.02 10.149 5.881.035.022s.584.372.883.937c.339.544.37 1.237.37 1.237l.002.042v2.959s.011.481.28.926a2.1 2.1 0 0 0 .656.712l.029.017 3.009 1.744.03.017c.005.02.299.128.29.105 0 0 .167.025.24-.09.097-.11.101-.36.101-.36l.002-.032V.643h.633v42.475l-.002.047s.036.373-.238.742c-.306.403-.834.324-.8.324-.024.035-.556-.161-.537-.183l-.036-.02-3.01-1.742-.036-.026s-.58-.372-.88-.939c-.339-.544-.364-1.237-.364-1.237l-.002-.04v-2.959s-.015-.481-.284-.926a2.098 2.098 0 0 0-.66-.708l-.028-.018-10.15-5.881-.029-.016c-.003-.021-.295-.122-.288-.1 0 0-.164-.024-.236.094-.096.113-.098.367-.098.367v9.817H.545z" id="aO"/><path d="M.82 2.545V.643a.317.317 0 1 1 .632 0v1.902H.82z" id="aQ"/><path d="M.855.527v1.9a.317.317 0 1 1-.633 0v-1.9h.633z" id="aS"/><path d="M18.386 50.956V27.495l-.002-.035s-.017-.568-.333-1.087c-.29-.532-.773-.827-.773-.827l-.031-.02L1.826 16.59l-.037-.021s-.17-.096-.375-.284a3.263 3.263 0 0 1-.619-.778c-.383-.62-.412-1.398-.412-1.398l-.002-.04V1.834l.002-.044s-.04-.418.254-.823c.323-.45.907-.373.872-.373.023-.037.624.175.603.202l.037.02L21.465 12.01l.029.015c.004.024.358.146.35.12 0 0 .215.03.311-.127.124-.15.122-.45.122-.45V2.011h.634v9.567s.041.417-.251.825c-.32.454-.905.376-.87.376-.023.04-.627-.17-.604-.198l-.038-.02L1.832 1.367l-.03-.018c-.001-.023-.359-.146-.351-.122 0 0-.215-.03-.312.126-.123.15-.123.448-.123.448v12.301s.013.567.328 1.087c.289.532.77.831.77.831l.03.018 15.42 8.939.035.019s.66.415 1 1.058c.18.312.31.654.363.928.06.272.054.468.054.468l.002.044v23.461h-.632z" id="aU"/><path d="M.246 1.242a.318.318 0 0 1 .634 0v1.904H.246V1.243z" id="aW"/><path d="M2.17 1.029a.931.931 0 0 0-.478.122c-.355.208-.553.668-.553 1.305 0 1.452 1.02 3.228 2.275 3.954.549.316 1.05.382 1.404.17.356-.207.555-.67.555-1.304 0-1.456-1.021-3.23-2.275-3.956m1.246 6.017c-.389 0-.814-.126-1.248-.378C1.644 6.12.506 4.14.506 2.456c0-.87.308-1.532.871-1.858C1.938.274 2.661.332 3.414.77c1.452.84 2.591 2.82 2.591 4.505 0 .872-.31 1.53-.872 1.856" id="aY"/><path d="M2.779.902a.931.931 0 0 0-.478.122c-.357.206-.555.668-.555 1.302 0 1.456 1.021 3.23 2.275 3.956.55.319 1.048.38 1.404.17.357-.206.555-.668.555-1.303 0-1.454-1.021-3.228-2.277-3.956M4.951 7.21c-.389 0-.814-.126-1.248-.378-1.452-.84-2.59-2.819-2.59-4.506 0-.87.31-1.53.871-1.855C2.547.145 3.27.209 4.021.64c1.454.843 2.591 2.823 2.591 4.508 0 .87-.307 1.53-.87 1.856" id="ba"/><path d="M1.984 1.237a.928.928 0 0 0-.476.12c-.357.209-.555.672-.555 1.307 0 1.452 1.022 3.226 2.277 3.954.547.319 1.044.383 1.402.171.357-.206.555-.67.555-1.306 0-1.454-1.021-3.226-2.275-3.954m1.246 6.02c-.389 0-.812-.127-1.246-.38C1.458 6.328.321 4.35.321 2.665c0-.871.308-1.531.87-1.857C1.752.482 2.475.543 3.23.979c1.452.843 2.59 2.82 2.59 4.504 0 .873-.31 1.533-.871 1.857" id="bc"/><path d="M.238 1.966V.064h.633v1.902c0 .177-.142.32-.316.32a.318.318 0 0 1-.317-.32z" id="be"/><path d="M11.842 36.909v-10.15l.002-.041s-.006-.2.054-.476c.056-.277.185-.625.367-.941.346-.652 1.012-1.076 1.012-1.076l.036-.019 7.837-4.542.03-.02s.492-.303.786-.844a2.505 2.505 0 0 0 .336-1.107l.002-.034V7.037L22.302 7s.004-.305-.122-.458c-.102-.163-.32-.132-.32-.132.007-.028-.357.099-.358.122l-.031.015L2.437 17.58l-.037.017c.022.028-.586.243-.61.206.034 0-.556.08-.88-.374-.3-.414-.258-.837-.258-.837l-.002-.045V.305h.632v16.241l.002.035s-.002.305.126.456c.103.161.323.132.323.132-.008.024.356-.103.358-.126l.03-.017L21.156 5.998l.04-.023c-.024-.027.587-.239.61-.198-.035-.002.56-.076.88.382.294.414.252.835.252.835V17.7s.003.2-.057.474c-.054.28-.185.625-.365.943a3.275 3.275 0 0 1-.63.788c-.21.19-.382.286-.382.286l-.036.021-7.836 4.542-.031.02s-.492.303-.786.844c-.32.528-.338 1.107-.338 1.107v10.184h-.634z" id="bg"/><path d="M.65 2.973V1.07a.316.316 0 1 1 .632 0v1.902H.65z" id="bi"/><path d="M1.592 2.832a.317.317 0 1 1-.633 0V.93h.633v1.902z" id="bk"/><path d="M18.364 39.714v-9.817s-.001-.254-.1-.367c-.07-.118-.236-.095-.236-.095.01-.021-.284.08-.288.101l-.03.016-10.146 5.881-.03.018s-.41.252-.659.708c-.27.445-.284.926-.284.926l-.002.035v2.964s-.027.693-.366 1.237c-.297.567-.878.94-.878.94l-.038.025-3.01 1.743-.034.02c.019.02-.513.217-.536.182.033 0-.497.08-.8-.324-.277-.37-.24-.742-.24-.742l-.002-.047V.643h.634V43.15s.006.25.1.36c.074.115.242.09.242.09-.01.023.286-.086.288-.105l.033-.017 3.01-1.744.027-.017s.408-.254.657-.712c.269-.445.28-.926.28-.926V37.12l.002-.042s.03-.693.368-1.237c.302-.565.884-.937.884-.937l.036-.022 10.15-5.881.038-.02c-.023-.025.517-.211.54-.178-.033 0 .5-.07.795.343.267.37.228.74.228.74v9.828h-.633z" id="bm"/><path d="M.685 2.545V.643a.316.316 0 1 1 .632 0v1.902H.685z" id="bo"/><path d="M.741.527v1.9a.318.318 0 0 1-.632.036V.527H.74z" id="bq"/><path d="M3.976 50.956V27.45s-.003-.196.057-.468c.054-.274.183-.616.361-.928.342-.643 1-1.058 1-1.058l.037-.02 15.42-8.938.028-.018s.481-.299.771-.83c.314-.52.33-1.088.33-1.088V1.835l-.003-.033s.002-.299-.122-.448c-.098-.155-.313-.126-.313-.126.008-.024-.348.099-.35.122l-.03.018L1.844 12.56l-.038.021c.023.028-.579.237-.604.198.037 0-.551.078-.87-.376-.292-.408-.25-.825-.25-.825l-.001-.043V2.012h.634v9.523l.002.033s-.002.301.12.45c.098.158.311.129.311.129-.008.025.348-.097.35-.12l.031-.016L20.846.816l.037-.02c-.022-.026.578-.238.603-.201-.035 0 .55-.078.87.373.296.405.256.823.256.823v12.318s-.03.779-.414 1.398a3.26 3.26 0 0 1-.617.778 2.192 2.192 0 0 1-.377.284l-.037.02-15.421 8.938-.031.02s-.483.294-.772.826a2.468 2.468 0 0 0-.334 1.087v23.496h-.633z" id="bs"/><path d="M.082 1.242a.318.318 0 0 1 .634 0v1.904H.082V1.243z" id="bu"/><path d="M4.593 1.029c-.277 0-.592.099-.926.291-1.255.726-2.275 2.502-2.275 3.956 0 .635.198 1.097.554 1.304.361.212.856.146 1.404-.17 1.255-.726 2.274-2.502 2.274-3.954 0-.637-.197-1.097-.553-1.305M2.42 7.337a1.58 1.58 0 0 1-.79-.205c-.563-.326-.873-.984-.873-1.856 0-1.685 1.14-3.665 2.592-4.505C4.1.334 4.825.276 5.386.598c.563.326.872.988.872 1.858 0 1.684-1.139 3.664-2.593 4.503" id="bw"/><path d="M3.984.902c-.276 0-.592.097-.926.29C1.805 1.922.784 3.696.784 5.15c0 .635.199 1.097.555 1.302.357.21.856.148 1.404-.169 1.255-.726 2.274-2.5 2.274-3.956 0-.634-.197-1.096-.553-1.302M1.812 7.21a1.57 1.57 0 0 1-.789-.205C.461 6.678.151 6.02.151 5.149c0-1.687 1.14-3.665 2.592-4.507.752-.433 1.475-.5 2.036-.171.563.326.872.986.872 1.855 0 1.687-1.139 3.665-2.593 4.506" id="by"/><path d="M4.02 1.237c-.278 0-.593.1-.928.292C1.84 2.257.818 4.029.818 5.483c0 .636.197 1.1.555 1.306.36.212.857.148 1.402-.17C4.03 5.89 5.051 4.115 5.051 2.663c0-.635-.197-1.098-.555-1.306m-2.65 6.19c-.285 0-.552-.07-.79-.208-.56-.324-.87-.984-.87-1.857 0-1.683 1.137-3.661 2.59-4.504.75-.434 1.476-.494 2.037-.171.562.326.87.986.87 1.857 0 1.685-1.137 3.663-2.592 4.506" id="bA"/><linearGradient x1="0%" y1="100%" x2="79.009%" y2="5.481%" id="bC"><stop stop-color="#4763FF" offset="0%"/><stop stop-color="#021D39" offset="100%"/></linearGradient><linearGradient x1="100%" y1="100%" x2="35.905%" y2="29.891%" id="bD"><stop stop-color="#09F6F6" offset="0%"/><stop stop-color="#1E90EB" offset="100%"/></linearGradient><radialGradient cx="0%" cy="50%" fx="0%" fy="50%" r="132.269%" gradientTransform="matrix(.75603 .37802 -.42083 .28074 .21 .36)" id="bE"><stop stop-color="#0084FF" offset="0%"/><stop stop-color="#25CADF" offset="100%"/></radialGradient><filter x="-19%" y="-5.7%" width="137.1%" height="124.3%" filterUnits="objectBoundingBox" id="bF"><feOffset dy="2" in="SourceAlpha" result="shadowOffsetOuter1"/><feGaussianBlur stdDeviation="2" in="shadowOffsetOuter1" result="shadowBlurOuter1"/><feColorMatrix values="0 0 0 0 0.109803922 0 0 0 0 0.133333333 0 0 0 0 0.215686275 0 0 0 0.5 0" in="shadowBlurOuter1" result="shadowMatrixOuter1"/><feMerge><feMergeNode in="shadowMatrixOuter1"/><feMergeNode in="SourceGraphic"/></feMerge></filter><path d="M38.64 13.007c-1.267-.044-9.027-.142-19.221 3.417-11.158 3.898-16.495 8.283-16.495 8.283S-1.444 40.458.497 57.51c1.941 17.05 9.704 27.118 20.054 35.4 9.901 7.922 17.43 11.384 18.065 11.67v.022l.025-.01.024.01v-.022c.636-.286 8.164-3.748 18.065-11.67 10.35-8.282 18.113-18.35 20.054-35.4 1.94-17.052-2.427-32.803-2.427-32.803s-5.336-4.385-16.496-8.283c-8.922-3.116-15.981-3.429-18.452-3.429-.352 0-.61.007-.768.012" id="bH"/><filter x="-16.8%" y="-12%" width="133.6%" height="128.4%" filterUnits="objectBoundingBox" id="bG"><feOffset dy="2" in="SourceAlpha" result="shadowOffsetOuter1"/><feGaussianBlur stdDeviation="4" in="shadowOffsetOuter1" result="shadowBlurOuter1"/><feColorMatrix values="0 0 0 0 0.152941176 0 0 0 0 0.184313725 0 0 0 0 0.290196078 0 0 0 0.12 0" in="shadowBlurOuter1"/></filter><path d="M38.64 5.86c-1.267-.045-9.027-.143-19.221 3.417C8.261 13.175 2.924 17.56 2.924 17.56S-1.444 33.311.497 50.362c1.941 17.05 9.704 27.119 20.054 35.402 9.901 7.92 17.43 11.382 18.065 11.67v.021l.025-.01a.92.92 0 0 0 .024.01v-.022c.636-.287 8.164-3.748 18.065-11.67 10.35-8.282 18.113-18.35 20.054-35.4 1.94-17.052-2.427-32.804-2.427-32.804s-5.336-4.384-16.496-8.282C48.94 6.161 41.88 5.848 39.41 5.848c-.352 0-.61.006-.768.011" id="bJ"/><filter x="-16.8%" y="-12%" width="133.6%" height="128.4%" filterUnits="objectBoundingBox" id="bI"><feOffset dy="2" in="SourceAlpha" result="shadowOffsetOuter1"/><feGaussianBlur stdDeviation="4" in="shadowOffsetOuter1" result="shadowBlurOuter1"/><feColorMatrix values="0 0 0 0 0.152941176 0 0 0 0 0.184313725 0 0 0 0 0.290196078 0 0 0 0.12 0" in="shadowBlurOuter1"/></filter><path d="M39.924.082C38.656.038 30.896-.06 20.703 3.499 9.544 7.397 4.207 11.782 4.207 11.782S-.16 27.533 1.781 44.585c1.94 17.05 9.704 27.118 20.054 35.4 9.901 7.922 17.43 11.384 18.065 11.67v.022l.024-.01a.92.92 0 0 0 .024.01v-.022c.636-.286 8.165-3.748 18.065-11.67 10.352-8.282 18.114-18.35 20.055-35.4 1.94-17.052-2.427-32.803-2.427-32.803s-5.336-4.385-16.496-8.283C50.222.383 43.164.07 40.693.07c-.352 0-.611.007-.769.012" id="bK"/><path d="M38.749.082C37.48.038 29.72-.06 19.527 3.499 8.37 7.397 3.032 11.782 3.032 11.782S-1.335 27.533.605 44.585c1.941 17.05 9.704 27.118 20.055 35.4 9.9 7.922 17.429 11.384 18.065 11.67v.022l.024-.01.024.01v-.022c.636-.286 8.164-3.748 18.065-11.67 10.351-8.282 18.113-18.35 20.054-35.4 1.94-17.052-2.426-32.803-2.426-32.803S69.129 7.397 57.97 3.499C49.047.383 41.988.07 39.517.07c-.352 0-.61.007-.768.012" id="bN"/><filter x="-16.8%" y="-12%" width="133.6%" height="128.4%" filterUnits="objectBoundingBox" id="bM"><feOffset dy="2" in="SourceAlpha" result="shadowOffsetOuter1"/><feGaussianBlur stdDeviation="4" in="shadowOffsetOuter1" result="shadowBlurOuter1"/><feColorMatrix values="0 0 0 0 0.152941176 0 0 0 0 0.184313725 0 0 0 0 0.290196078 0 0 0 0.12 0" in="shadowBlurOuter1"/></filter><path d="M33.155.107l-.2.006-.2-.006c-.116-.005-.307-.01-.565-.01-1.795 0-8.293.223-16.544 3.088C8.883 5.532 4.48 8.059 2.375 9.419 1.363 13.903-.814 25.563.595 37.868c1.508 13.161 6.861 22.521 17.9 31.298 6.31 5.019 11.579 8.118 14.46 9.659 2.881-1.54 8.15-4.64 14.46-9.659 11.039-8.776 16.393-18.136 17.9-31.298 1.401-12.239-.775-23.954-1.784-28.45-2.118-1.37-6.516-3.891-13.266-6.233C42.014.32 35.514.097 33.72.097c-.259 0-.449.005-.565.01" id="bO"/><path d="M33.155.107l-.2.006-.2-.006c-.116-.005-.307-.01-.565-.01-1.795 0-8.293.223-16.544 3.088C8.883 5.532 4.48 8.059 2.375 9.419 1.363 13.903-.814 25.563.595 37.868c1.508 13.161 6.861 22.521 17.9 31.298 6.31 5.019 11.579 8.118 14.46 9.659 2.881-1.54 8.15-4.64 14.46-9.659 11.039-8.776 16.393-18.136 17.9-31.298 1.401-12.239-.775-23.954-1.784-28.45-2.118-1.37-6.516-3.891-13.266-6.233C42.014.32 35.514.097 33.72.097c-.259 0-.449.005-.565.01" id="bQ"/><linearGradient x1="124.352%" y1="41.321%" x2="-45.082%" y2="92.342%" id="bR"><stop stop-color="#DBE6FF" offset="0%"/><stop stop-color="#FFF" offset="100%"/></linearGradient><linearGradient x1="-16.293%" y1="-50.439%" x2="71.966%" y2="83.753%" id="bU"><stop stop-color="#4763FF" offset="0%"/><stop stop-color="#4763FF" stop-opacity="0" offset="100%"/></linearGradient><path d="M.135 38.084c-1.25-10.04 6.322-19.14 16.913-20.326 10.59-1.185 20.19 5.993 21.441 16.033 1.25 10.04-6.322 19.14-16.913 20.325-10.591 1.186-20.19-5.992-21.44-16.032" id="bT"/><filter x="-33.7%" y="-30%" width="167.3%" height="171%" filterUnits="objectBoundingBox" id="bS"><feOffset dy="2" in="SourceAlpha" result="shadowOffsetOuter1"/><feGaussianBlur stdDeviation="4" in="shadowOffsetOuter1" result="shadowBlurOuter1"/><feColorMatrix values="0 0 0 0 0.152941176 0 0 0 0 0.184313725 0 0 0 0 0.290196078 0 0 0 0.12 0" in="shadowBlurOuter1"/></filter><path d="M143.9 154.501c-.625-5.284 3.161-10.073 8.457-10.697 5.295-.624 10.095 3.154 10.72 8.438.625 5.284-3.16 10.074-8.456 10.698-5.296.624-10.096-3.154-10.72-8.439" id="bW"/><filter x="-67.3%" y="-57.1%" width="234.6%" height="234.9%" filterUnits="objectBoundingBox" id="bV"><feOffset dy="2" in="SourceAlpha" result="shadowOffsetOuter1"/><feGaussianBlur stdDeviation="4" in="shadowOffsetOuter1" result="shadowBlurOuter1"/><feColorMatrix values="0 0 0 0 0.152941176 0 0 0 0 0.184313725 0 0 0 0 0.290196078 0 0 0 0.12 0" in="shadowBlurOuter1"/></filter><path d="M98.784 7.634a5.783 5.783 0 0 1 5.074-6.418c3.177-.374 6.057 1.892 6.432 5.063a5.783 5.783 0 0 1-5.074 6.418 5.79 5.79 0 0 1-6.432-5.063" id="bY"/><filter x="-112.2%" y="-95.1%" width="324.4%" height="324.9%" filterUnits="objectBoundingBox" id="bX"><feOffset dy="2" in="SourceAlpha" result="shadowOffsetOuter1"/><feGaussianBlur stdDeviation="4" in="shadowOffsetOuter1" result="shadowBlurOuter1"/><feColorMatrix values="0 0 0 0 0.152941176 0 0 0 0 0.184313725 0 0 0 0 0.290196078 0 0 0 0.12 0" in="shadowBlurOuter1"/></filter><path d="M62.776 30.944c-.5-4.227 2.529-8.059 6.765-8.558 4.237-.5 8.077 2.523 8.577 6.75.5 4.228-2.529 8.06-6.765 8.558-4.237.5-8.077-2.523-8.577-6.75" id="ca"/><filter x="-84.1%" y="-71.4%" width="268.3%" height="268.7%" filterUnits="objectBoundingBox" id="bZ"><feOffset dy="2" in="SourceAlpha" result="shadowOffsetOuter1"/><feGaussianBlur stdDeviation="4" in="shadowOffsetOuter1" result="shadowBlurOuter1"/><feColorMatrix values="0 0 0 0 0.152941176 0 0 0 0 0.184313725 0 0 0 0 0.290196078 0 0 0 0.12 0" in="shadowBlurOuter1"/></filter><path d="M155.454 147.192a4.82 4.82 0 0 1 4.228-5.349 4.825 4.825 0 0 1 5.36 4.22 4.82 4.82 0 0 1-4.228 5.348 4.825 4.825 0 0 1-5.36-4.22" id="cc"/><filter x="-134.6%" y="-114.2%" width="369.3%" height="369.8%" filterUnits="objectBoundingBox" id="cb"><feOffset dy="2" in="SourceAlpha" result="shadowOffsetOuter1"/><feGaussianBlur stdDeviation="4" in="shadowOffsetOuter1" result="shadowBlurOuter1"/><feColorMatrix values="0 0 0 0 0.152941176 0 0 0 0 0.184313725 0 0 0 0 0.290196078 0 0 0 0.12 0" in="shadowBlurOuter1"/></filter><path d="M76.26 42.905a2.892 2.892 0 0 1 2.538-3.21 2.895 2.895 0 0 1 3.216 2.532 2.892 2.892 0 0 1-2.537 3.21 2.895 2.895 0 0 1-3.216-2.532" id="ce"/><filter x="-224.4%" y="-190.3%" width="548.8%" height="549.7%" filterUnits="objectBoundingBox" id="cd"><feOffset dy="2" in="SourceAlpha" result="shadowOffsetOuter1"/><feGaussianBlur stdDeviation="4" in="shadowOffsetOuter1" result="shadowBlurOuter1"/><feColorMatrix values="0 0 0 0 0.152941176 0 0 0 0 0.184313725 0 0 0 0 0.290196078 0 0 0 0.12 0" in="shadowBlurOuter1"/></filter><path d="M41.204 70.808c-.563-4.756 2.845-9.067 7.61-9.628 4.767-.562 9.087 2.838 9.65 7.594.562 4.756-2.846 9.067-7.612 9.628-4.766.561-9.086-2.839-9.648-7.594" id="cg"/><filter x="-74.8%" y="-63.4%" width="249.6%" height="249.9%" filterUnits="objectBoundingBox" id="cf"><feOffset dy="2" in="SourceAlpha" result="shadowOffsetOuter1"/><feGaussianBlur stdDeviation="4" in="shadowOffsetOuter1" result="shadowBlurOuter1"/><feColorMatrix values="0 0 0 0 0.152941176 0 0 0 0 0.184313725 0 0 0 0 0.290196078 0 0 0 0.12 0" in="shadowBlurOuter1"/></filter><path d="M191.67 9.688c-.563-4.755 2.845-9.066 7.61-9.627 4.767-.562 9.087 2.838 9.65 7.594.562 4.756-2.845 9.066-7.612 9.628-4.766.561-9.085-2.839-9.648-7.595" id="ci"/><filter x="-74.8%" y="-63.4%" width="249.6%" height="249.9%" filterUnits="objectBoundingBox" id="ch"><feOffset dy="2" in="SourceAlpha" result="shadowOffsetOuter1"/><feGaussianBlur stdDeviation="4" in="shadowOffsetOuter1" result="shadowBlurOuter1"/><feColorMatrix values="0 0 0 0 0.152941176 0 0 0 0 0.184313725 0 0 0 0 0.290196078 0 0 0 0.12 0" in="shadowBlurOuter1"/></filter><path d="M74.357 182.105c-.438-3.7 2.212-7.052 5.92-7.489 3.706-.436 7.066 2.208 7.504 5.907.437 3.7-2.213 7.052-5.92 7.488-3.707.437-7.067-2.207-7.504-5.906" id="ck"/><filter x="-96.2%" y="-81.5%" width="292.3%" height="292.7%" filterUnits="objectBoundingBox" id="cj"><feOffset dy="2" in="SourceAlpha" result="shadowOffsetOuter1"/><feGaussianBlur stdDeviation="4" in="shadowOffsetOuter1" result="shadowBlurOuter1"/><feColorMatrix values="0 0 0 0 0.152941176 0 0 0 0 0.184313725 0 0 0 0 0.290196078 0 0 0 0.12 0" in="shadowBlurOuter1"/></filter><path d="M149.365 62.382c-.688-5.812 3.477-11.08 9.302-11.767 5.825-.686 11.105 3.47 11.793 9.282.687 5.813-3.477 11.081-9.303 11.767-5.825.687-11.105-3.47-11.792-9.282" id="cm"/><filter x="-61.2%" y="-51.9%" width="222.4%" height="222.7%" filterUnits="objectBoundingBox" id="cl"><feOffset dy="2" in="SourceAlpha" result="shadowOffsetOuter1"/><feGaussianBlur stdDeviation="4" in="shadowOffsetOuter1" result="shadowBlurOuter1"/><feColorMatrix values="0 0 0 0 0.152941176 0 0 0 0 0.184313725 0 0 0 0 0.290196078 0 0 0 0.12 0" in="shadowBlurOuter1"/></filter><path d="M167.028 37.124a2.892 2.892 0 0 1 2.537-3.21 2.895 2.895 0 0 1 3.216 2.532 2.892 2.892 0 0 1-2.537 3.21 2.895 2.895 0 0 1-3.216-2.532" id="co"/><filter x="-224.4%" y="-190.3%" width="548.8%" height="549.7%" filterUnits="objectBoundingBox" id="cn"><feOffset dy="2" in="SourceAlpha" result="shadowOffsetOuter1"/><feGaussianBlur stdDeviation="4" in="shadowOffsetOuter1" result="shadowBlurOuter1"/><feColorMatrix values="0 0 0 0 0.152941176 0 0 0 0 0.184313725 0 0 0 0 0.290196078 0 0 0 0.12 0" in="shadowBlurOuter1"/></filter><linearGradient x1="100%" y1="100%" x2="35.905%" y2="29.891%" id="cp"><stop stop-color="#16FFFF" offset="0%"/><stop stop-color="#28A0FF" offset="100%"/></linearGradient><linearGradient x1="11.459%" y1="100%" x2="100%" y2="-24.405%" id="cq"><stop stop-color="#4763FF" offset="0%"/><stop stop-color="#021D39" offset="100%"/></linearGradient></defs><g fill="none" fill-rule="evenodd"><g transform="translate(519.227 230.495)"><mask id="d" fill="#fff"><use xlink:href="#a"/></mask><use fill="url(#b)" xlink:href="#a"/><path fill="url(#c)" opacity=".4" mask="url(#d)" d="M-2.894 34.764H143.39v277.801H-2.894z"/></g><g transform="translate(2 230.495)"><mask id="f" fill="#fff"><use xlink:href="#e"/></mask><use fill="url(#b)" xlink:href="#e"/><path fill="url(#c)" opacity=".4" mask="url(#f)" d="M-5.245 42.991h146.284v277.801H-5.245z"/></g><g transform="translate(211.242 266.931)"><mask id="h" fill="#fff"><use xlink:href="#g"/></mask><use fill="url(#b)" xlink:href="#g"/><path fill="url(#c)" opacity=".4" mask="url(#h)" d="M-8.229 112.835l197.487 115.86-1.175 256.731H-8.23z"/></g><path d="M408.304 268.379l179.862 106.597a8 8 0 0 1-.02 13.776l-178.35 105.045a16 16 0 0 1-16.24 0L215.204 388.752a8 8 0 0 1-.018-13.776L395.048 268.38a13 13 0 0 1 13.256 0zm257.556 9.439l90.44-38.52 39.34 23.345a8 8 0 0 1-.02 13.77l-128.358 75.701a16 16 0 0 1-16.286-.018L523.28 276.405a8 8 0 0 1-.02-13.753l57.074-34.041 73.297 48.114a13 13 0 0 0 12.228 1.093zm-515.734-.919l78.907-35.332 49.38 29.304a8 8 0 0 1-.02 13.77l-128.399 75.725a16 16 0 0 1-16.226.017L4.762 284.673a8 8 0 0 1 .001-13.8l78.328-45.953 52.824 49.592a13 13 0 0 0 14.211 2.387z" fill="#203D8A"/><path fill="url(#i)" transform="rotate(-180 101.18 129.938)" d="M2.42 33.498L60.213 0l57.946 33.498 1.418 220.378H.849z"/><path fill="url(#j)" transform="rotate(-180 617.232 131.113)" d="M518.471 34.673l57.794-33.498 57.945 33.498 1.418 220.378H516.901z"/><path d="M114.607 36.436L42.32 76.488m59.357-49.455l-72.29 40.052m58.183-50.63L15.282 56.507M.15 26.31l88.014 50.178M28.806 27.033l113.718 62.635M14.694.052l100.507 56.455" transform="translate(485.137 239.898)" stroke="url(#k)" stroke-width="2"/><path d="M142.82 27.033l-98.295 58.01M153.33.045L57.6 57.682m58.183-50.63L.496 73.282m43.591-46.249l72.29 40.052M57.018 17.63l72.289 40.052M71.124 7.052l72.289 40.052" transform="translate(152.466 249.3)" stroke="url(#k)" stroke-width="2"/><g transform="translate(81.935 181.13)"><g opacity=".24"><use fill-opacity=".2" fill="url(#l)" style="mix-blend-mode:overlay" xlink:href="#m"/><path stroke="url(#n)" stroke-width="2" d="M65.174 2.865a10 10 0 0 0-10 0L6.937 30.712a10 10 0 0 0-5 8.661v32.184a10 10 0 0 0 5 8.66l48.239 27.848a10 10 0 0 0 9.999 0l48.238-27.847a10 10 0 0 0 5-8.66V39.372a10 10 0 0 0-5-8.66L65.174 2.864z"/></g><mask id="s" fill="#fff"><use xlink:href="#o"/></mask><use fill="url(#p)" xlink:href="#o"/><path d="M65.674 7.876l48.238 27.847a11 11 0 0 1 5.5 9.527v55.691a11 11 0 0 1-5.5 9.527l-48.238 27.847a11 11 0 0 1-11 0L6.437 110.468a11 11 0 0 1-5.5-9.527V45.25a11 11 0 0 1 5.5-9.527L54.675 7.876a11 11 0 0 1 10.999 0z" fill="url(#q)" opacity=".432" filter="url(#r)" mask="url(#s)"/></g><g transform="translate(82.765 127.063)"><g transform="translate(57.358 1.175)" stroke="url(#t)" stroke-width="2"><path d="M4.095 1.11v64.121" opacity=".24"/><path d="M1.744 1.11v64.121" opacity=".131"/></g><g filter="url(#u)" transform="translate(33.26 35.261)"><g transform="translate(8.816 17.63)"><mask id="z" fill="#fff"><use xlink:href="#v"/></mask><g fill-rule="nonzero"><use fill="#000" filter="url(#w)" xlink:href="#v"/><use fill="url(#x)" fill-rule="evenodd" xlink:href="#v"/><use fill="#000" filter="url(#y)" xlink:href="#v"/></g><path fill="#FFF" mask="url(#z)" d="M55.516-6.358v49.646L15.933 59.174l1.985-45.478z"/><path fill="#FFF" mask="url(#z)" d="M55.516-6.358v49.646L15.933 59.174l1.985-45.478z"/></g><mask id="E" fill="#fff"><use xlink:href="#A"/></mask><g fill-rule="nonzero"><use fill="#000" filter="url(#B)" xlink:href="#A"/><use fill="url(#x)" fill-rule="evenodd" xlink:href="#A"/><use fill="#000" filter="url(#C)" xlink:href="#A"/></g><path d="M53.554-2.85L-3.834 20.312 22.932 32.91l13.228-3.793L66.682 9.164 53.554-2.85z" fill="url(#D)" mask="url(#E)"/><path fill="#FFF" mask="url(#E)" d="M55.632 15.974v34.949L28.276 62.106l1.372-32.015z"/><path fill="#FFF" mask="url(#E)" d="M55.632 15.974v34.949L28.276 62.106l1.372-32.015z"/></g><use fill-opacity=".2" fill="url(#x)" style="mix-blend-mode:overlay" xlink:href="#F"/><path stroke="url(#G)" stroke-width="2" d="M64.344 2.865a10 10 0 0 0-10 0L6.107 30.712a10 10 0 0 0-5 8.661v55.692a10 10 0 0 0 5 8.66l48.239 27.847a10 10 0 0 0 9.999 0l48.238-27.847a10 10 0 0 0 5-8.66V39.373a10 10 0 0 0-5-8.66L64.344 2.864z"/><mask id="J" fill="#fff"><use xlink:href="#H"/></mask><use fill-opacity=".2" fill="url(#I)" style="mix-blend-mode:overlay" xlink:href="#H"/><path stroke="url(#t)" stroke-width="2" d="M64.344 2.865a10 10 0 0 0-10 0L6.107 30.712a10 10 0 0 0-5 8.661v55.692a10 10 0 0 0 5 8.66l48.239 27.847a10 10 0 0 0 9.999 0l48.238-27.847a10 10 0 0 0 5-8.66V39.373a10 10 0 0 0-5-8.66L64.344 2.864z"/><g mask="url(#J)"><g transform="translate(1.52)" fill-opacity=".7"><use fill="url(#K)" style="mix-blend-mode:overlay" xlink:href="#L"/><use fill="url(#M)" style="mix-blend-mode:overlay" xlink:href="#N"/></g></g><g opacity=".829" mask="url(#J)"><use fill-opacity=".7" fill="url(#O)" style="mix-blend-mode:overlay" xlink:href="#P"/><use fill="url(#Q)" xlink:href="#P"/><path stroke="url(#R)" stroke-width="2" d="M118.993 34.743L60.995 67.8v66.092l57.998-33.057V34.743z"/></g><g mask="url(#J)"><use fill-opacity=".7" fill="url(#O)" style="mix-blend-mode:overlay" xlink:href="#S"/><path stroke="url(#T)" stroke-width="2" d="M59.104 67.8L1.105 34.743v66.092l58 33.057V67.8z"/></g></g><g transform="matrix(-1 0 0 1 716.714 181.13)"><g opacity=".24"><use fill-opacity=".2" fill="url(#l)" style="mix-blend-mode:overlay" xlink:href="#U"/><path stroke="url(#n)" stroke-width="2" d="M65.174 2.865a10 10 0 0 0-10 0L6.937 30.712a10 10 0 0 0-5 8.661v32.184a10 10 0 0 0 5 8.66l48.239 27.848a10 10 0 0 0 9.999 0l48.238-27.847a10 10 0 0 0 5-8.66V39.372a10 10 0 0 0-5-8.66L65.174 2.864z"/></g><mask id="X" fill="#fff"><use xlink:href="#V"/></mask><use fill="url(#p)" xlink:href="#V"/><path d="M65.674 7.876l48.238 27.847a11 11 0 0 1 5.5 9.527v55.691a11 11 0 0 1-5.5 9.527l-48.238 27.847a11 11 0 0 1-11 0L6.437 110.468a11 11 0 0 1-5.5-9.527V45.25a11 11 0 0 1 5.5-9.527L54.675 7.876a11 11 0 0 1 10.999 0z" fill="url(#q)" opacity=".432" filter="url(#W)" mask="url(#X)"/></g><g transform="matrix(-1 0 0 1 716.714 127.063)"><g transform="translate(36.05 43.684)" opacity=".44" fill-rule="nonzero"><use fill="#000" filter="url(#Y)" xlink:href="#Z"/><use fill="url(#x)" fill-rule="evenodd" xlink:href="#Z"/></g><g transform="translate(31.151 38.787)"><mask id="ad" fill="#fff"><use xlink:href="#aa"/></mask><g fill-rule="nonzero"><use fill="#000" filter="url(#ab)" xlink:href="#aa"/><use fill="url(#ac)" fill-rule="evenodd" xlink:href="#aa"/></g><g mask="url(#ad)"><use fill="url(#ae)" xlink:href="#af"/><use fill="#FFF" style="mix-blend-mode:overlay" xlink:href="#af"/></g><path fill="#FFF" mask="url(#ad)" d="M28.293 70.149V30.291L57.56 13.95l35.037 16.34 6.254 15.453z"/></g><path d="M31.132 1.11v64.121" stroke="url(#t)" stroke-width="2" opacity=".24" transform="translate(31.151 1.175)"/><path d="M28.78 1.11v64.121" stroke="url(#t)" stroke-width="2" opacity=".131" transform="translate(31.151 1.175)"/><use fill-opacity=".2" fill="url(#x)" style="mix-blend-mode:overlay" xlink:href="#ag"/><path stroke="url(#G)" stroke-width="2" d="M65.174 2.865a10 10 0 0 0-10 0L6.937 30.712a10 10 0 0 0-5 8.661v55.692a10 10 0 0 0 5 8.66l48.239 27.847a10 10 0 0 0 9.999 0l48.238-27.847a10 10 0 0 0 5-8.66V39.373a10 10 0 0 0-5-8.66L65.174 2.864z"/><mask id="ai" fill="#fff"><use xlink:href="#ah"/></mask><use fill-opacity=".2" fill="url(#I)" style="mix-blend-mode:overlay" xlink:href="#ah"/><path stroke="url(#t)" stroke-width="2" d="M65.174 2.865a10 10 0 0 0-10 0L6.937 30.712a10 10 0 0 0-5 8.661v55.692a10 10 0 0 0 5 8.66l48.239 27.847a10 10 0 0 0 9.999 0l48.238-27.847a10 10 0 0 0 5-8.66V39.373a10 10 0 0 0-5-8.66L65.174 2.864z"/><g mask="url(#ai)"><g transform="translate(2.351)" fill-opacity=".7"><use fill="url(#K)" style="mix-blend-mode:overlay" xlink:href="#aj"/><use fill="url(#M)" style="mix-blend-mode:overlay" xlink:href="#ak"/></g></g><g opacity=".829" mask="url(#ai)"><use fill-opacity=".7" fill="url(#O)" style="mix-blend-mode:overlay" xlink:href="#al"/><use fill="url(#Q)" xlink:href="#al"/><path stroke="url(#R)" stroke-width="2" d="M119.824 34.743l-58 33.057v66.092l58-33.057V34.743z"/></g><g mask="url(#ai)"><use fill-opacity=".7" fill="url(#O)" style="mix-blend-mode:overlay" xlink:href="#am"/><path stroke="url(#T)" stroke-width="2" d="M59.934 67.8L1.936 34.743v66.092l57.998 33.057V67.8z"/></g></g><g transform="translate(215.944 230.495)"><mask id="ap" fill="#fff"><use xlink:href="#an"/></mask><use fill="url(#p)" xlink:href="#an"/><path d="M189.976 53.155l83.392 49.096a13 13 0 0 1 6.405 11.203v98.637a13 13 0 0 1-6.405 11.202l-83.392 49.097a13 13 0 0 1-13.191 0l-83.392-49.097a13 13 0 0 1-6.405-11.202v-98.637a13 13 0 0 1 6.405-11.203l83.392-49.096a13 13 0 0 1 13.191 0z" fill="url(#q)" opacity=".432" filter="url(#ao)" mask="url(#ap)"/></g><g transform="translate(343.365 168.078)" opacity=".3"><use fill="#000" filter="url(#aq)" xlink:href="#ar"/><use fill="url(#as)" style="mix-blend-mode:overlay" xlink:href="#ar"/></g><use fill="url(#p)" xlink:href="#at" transform="translate(302.932 176.428)"/><path d="M162.093 376.162l-68.624-39.779a13 13 0 0 1-6.48-11.247v-79.595a4 4 0 0 1 6.005-3.46l69.123 40.066a12 12 0 0 1 5.982 10.382V372.7a4 4 0 0 1-6.006 3.461z" fill="url(#au)" transform="translate(224.173 6)"/><path d="M258.482 336.874l-70.28 40.49a4 4 0 0 1-5.997-3.466v-80.954a12 12 0 0 1 6.01-10.398l70.28-40.492a4 4 0 0 1 5.996 3.466v80.956a12 12 0 0 1-6.01 10.398z" fill="url(#av)" transform="translate(224.173 6)"/><g transform="translate(224.173 6)"><use fill="#000" filter="url(#aw)" xlink:href="#ax"/><use fill="url(#ay)" xlink:href="#ax"/></g><g opacity=".7" transform="translate(224.173 6)"><use fill="url(#az)" xlink:href="#aA"/><use fill="#000" filter="url(#aB)" xlink:href="#aA"/></g><g transform="translate(224.173 6)"><use fill="url(#aC)" xlink:href="#aD"/><use fill="#000" filter="url(#aE)" xlink:href="#aD"/></g><path d="M61.125 324.84V23.101h232.751v301.737L181.454 390.6a14 14 0 0 1-14.44-.182L61.124 324.84z" fill="url(#aF)" opacity=".242" transform="translate(224.173 6)"/><path d="M91.101 224.775V23.102h168.096v201.673l-79.587 43.083a14 14 0 0 1-13.626-.165L91.1 224.775z" fill="url(#aF)" opacity=".399" transform="translate(224.173 6)"/><path d="M443.731 254.295l-40.43 22.736a7.996 7.996 0 0 1-4.107 1.025l.13-.485 51.067-28.837a4645.225 4645.225 0 0 1-6.66 5.561z" fill="#46CCF3" style="mix-blend-mode:overlay"/><g transform="translate(353.707 344.826)"><mask id="aH" fill="#fff"><use xlink:href="#aG"/></mask><path mask="url(#aH)" d="M.09 3.24h.635V.064H.091v1.904z"/></g><g transform="translate(343.279 309.886)"><mask id="aJ" fill="#fff"><use xlink:href="#aI"/></mask><path d="M10.519 36.909h.634v-10.15l-.002-.041s.004-.2-.056-.476a3.257 3.257 0 0 0-.367-.941c-.345-.652-1.012-1.076-1.012-1.076l-.035-.019-7.838-4.542-.029-.02s-.49-.303-.787-.844c-.319-.528-.336-1.107-.336-1.107V7s-.002-.305.123-.458c.103-.163.322-.132.322-.132-.008-.028.355.099.357.122l.03.015L20.555 17.58l.039.017c-.024.028.586.243.609.206-.035 0 .557.08.882-.374.297-.414.257-.837.257-.837V.305h-.633v16.241l-.002.035s.002.305-.123.456c-.103.161-.323.132-.323.132.006.024-.356-.103-.358-.126l-.031-.017L1.839 5.998l-.038-.023c.023-.027-.588-.239-.613-.198.035-.002-.557-.076-.878.382-.294.414-.252.835-.252.835l-.002.043v10.622l.002.042s-.004.2.056.474c.055.28.184.625.366.943.184.317.416.602.628.788.21.19.383.286.383.286l.035.021 7.838 4.542.03.02s.49.303.786.844c.321.528.337 1.107.337 1.107l.002.033v10.15z" mask="url(#aJ)"/></g><g transform="translate(364.552 309.12)"><mask id="aL" fill="#fff"><use xlink:href="#aK"/></mask><path mask="url(#aL)" d="M.437 2.975h.633V-.2H.437v1.27z"/></g><g transform="translate(361.443 348.708)"><mask id="aN" fill="#fff"><use xlink:href="#aM"/></mask><path mask="url(#aN)" d="M.545 4.104h.635V.93H.545v1.902z"/></g><g transform="translate(361.443 311.827)"><mask id="aP" fill="#fff"><use xlink:href="#aO"/></mask><path d="M.545 39.714h.635v-9.817s.002-.254.098-.367c.072-.118.236-.095.236-.095-.007-.021.285.08.288.101l.03.016 10.149 5.881.029.018s.41.252.66.708c.268.445.283.926.283.926v2.959l.002.04s.025.693.364 1.237c.3.567.88.94.88.94l.037.025 3.009 1.743.036.02c-.019.02.513.217.536.182-.033 0 .495.08.8-.324.275-.37.239-.742.239-.742l.002-.047V.643h-.633v42.475l-.002.032s-.004.25-.1.36c-.074.115-.24.09-.24.09.008.023-.286-.086-.29-.105l-.031-.017-3.01-1.744-.028-.017s-.408-.254-.656-.712a2.092 2.092 0 0 1-.28-.926V37.12l-.002-.042s-.031-.693-.37-1.237c-.3-.565-.883-.937-.883-.937l-.035-.022-10.15-5.881-.038-.02c.021-.025-.518-.211-.54-.178.033 0-.5-.07-.795.343-.266.37-.228.74-.228.74l-.002.044v9.784z" mask="url(#aP)"/></g><g transform="translate(378.848 311.827)"><mask id="aR" fill="#fff"><use xlink:href="#aQ"/></mask><path mask="url(#aR)" d="M.82 2.547h.632V-.63H.82V.643z"/></g><g transform="translate(336.302 334.355)"><mask id="aT" fill="#fff"><use xlink:href="#aS"/></mask><path mask="url(#aT)" d="M.222 3.7h.633V.526H.222v1.902z"/></g><g transform="translate(318.138 285.826)"><mask id="aV" fill="#fff"><use xlink:href="#aU"/></mask><path d="M18.386 50.956h.632V27.495l-.002-.044s.006-.196-.054-.468a3.225 3.225 0 0 0-.363-.928c-.34-.643-1-1.058-1-1.058l-.035-.02-15.42-8.938-.03-.018s-.481-.299-.77-.83c-.315-.52-.328-1.088-.328-1.088V1.802s0-.299.123-.448c.097-.155.312-.126.312-.126-.008-.024.35.099.352.122l.029.018L21.148 12.56l.038.021c-.023.028.58.237.604.198-.035 0 .55.078.87-.376.292-.408.251-.825.251-.825V2.012h-.634v9.556s.002.301-.122.45c-.096.158-.311.129-.311.129.008.025-.346-.097-.35-.12l-.03-.016L2.15.816l-.037-.02c.02-.026-.581-.237-.603-.2.035 0-.55-.078-.872.373-.294.405-.254.823-.254.823l-.002.044v12.233l.002.041s.03.779.412 1.398c.18.31.41.594.619.778.205.188.375.284.375.284l.037.02 15.42 8.938.032.02s.483.294.773.826c.316.519.333 1.087.333 1.087l.002.035v23.461z" mask="url(#aV)"/></g><g transform="translate(340.17 286.592)"><mask id="aX" fill="#fff"><use xlink:href="#aW"/></mask><path mask="url(#aX)" d="M.246 3.147H.88V-.027H.246v1.273z"/></g><g transform="translate(337.477 278.828)"><mask id="aZ" fill="#fff"><use xlink:href="#aY"/></mask><path d="M2.17 1.029a.931.931 0 0 0-.478.122c-.355.208-.553.668-.553 1.305 0 1.452 1.02 3.228 2.275 3.954.549.316 1.05.382 1.404.17.356-.207.555-.67.555-1.304 0-1.456-1.021-3.23-2.275-3.956-.336-.192-.651-.291-.928-.291m2.174 6.308c-.389 0-.814-.126-1.248-.378C1.644 6.12.506 4.14.506 2.456c0-.87.308-1.532.871-1.858C1.938.274 2.661.332 3.414.77c1.452.84 2.591 2.82 2.591 4.505 0 .872-.31 1.53-.872 1.856a1.57 1.57 0 0 1-.79.205" mask="url(#aZ)"/></g><g transform="translate(361.443 301.355)"><mask id="bb" fill="#fff"><use xlink:href="#ba"/></mask><path d="M2.779.902a.931.931 0 0 0-.478.122c-.357.206-.555.668-.555 1.302 0 1.456 1.021 3.23 2.275 3.956.55.319 1.048.38 1.404.17.357-.206.555-.668.555-1.303 0-1.454-1.021-3.228-2.277-3.956C3.371.999 3.056.902 2.78.902M4.951 7.21c-.389 0-.814-.126-1.248-.378-1.452-.84-2.59-2.819-2.59-4.506 0-.87.31-1.53.871-1.855C2.547.145 3.27.209 4.021.64c1.454.843 2.591 2.823 2.591 4.508 0 .87-.307 1.53-.87 1.856a1.576 1.576 0 0 1-.791.205" mask="url(#bb)"/></g><g transform="translate(376.914 303.297)"><mask id="bd" fill="#fff"><use xlink:href="#bc"/></mask><path d="M1.984 1.237a.928.928 0 0 0-.476.12c-.357.209-.555.672-.555 1.307 0 1.452 1.022 3.226 2.277 3.954.547.319 1.044.383 1.402.171.357-.206.555-.67.555-1.306 0-1.454-1.021-3.226-2.275-3.954-.334-.193-.65-.292-.928-.292m2.174 6.311c-.389 0-.812-.126-1.246-.378C1.458 6.327.321 4.35.321 2.664c0-.871.308-1.531.87-1.857C1.752.482 2.475.543 3.23.979c1.452.843 2.59 2.82 2.59 4.504 0 .873-.31 1.533-.871 1.857a1.558 1.558 0 0 1-.791.208" mask="url(#bd)"/></g><g transform="translate(445.776 344.826)"><mask id="bf" fill="#fff"><use xlink:href="#be"/></mask><path mask="url(#bf)" d="M.238 3.24h.634V.064H.238v1.904z"/></g><g transform="translate(434.173 309.886)"><mask id="bh" fill="#fff"><use xlink:href="#bg"/></mask><path d="M11.842 36.909h.634V26.726s.017-.579.338-1.107c.294-.541.786-.844.786-.844l.03-.02 7.837-4.542.036-.021s.173-.095.381-.286c.213-.186.447-.471.63-.788.18-.318.312-.664.366-.943.06-.274.057-.474.057-.474V6.994s.042-.421-.252-.835c-.32-.458-.915-.384-.88-.382-.023-.04-.634.17-.61.198l-.04.023L2.122 17.026l-.031.017c-.002.023-.366.15-.358.126 0 0-.22.03-.323-.132-.128-.151-.126-.456-.126-.456l-.002-.035V.305H.65v16.241l.002.045s-.043.423.257.837c.325.454.915.374.88.374.025.037.633-.178.611-.206l.037-.017L21.471 6.547l.03-.015c.002-.023.366-.15.358-.122 0 0 .219-.031.321.132.126.153.122.458.122.458l.002.037v10.622l-.002.034s-.015.579-.336 1.107a2.495 2.495 0 0 1-.785.844l-.031.02-7.837 4.542-.036.02s-.666.423-1.012 1.075a3.313 3.313 0 0 0-.367.941c-.06.276-.054.476-.054.476l-.002.04V36.91z" mask="url(#bh)"/></g><g transform="translate(434.173 309.12)"><mask id="bj" fill="#fff"><use xlink:href="#bi"/></mask><path mask="url(#bj)" d="M.65 2.975h.632V-.2H.65v1.27z"/></g><g transform="translate(436.865 348.708)"><mask id="bl" fill="#fff"><use xlink:href="#bk"/></mask><path mask="url(#bl)" d="M.96 4.104h.632V.93H.959v1.902z"/></g><g transform="translate(419.46 311.827)"><mask id="bn" fill="#fff"><use xlink:href="#bm"/></mask><path d="M18.364 39.714h.633v-9.828s.039-.37-.228-.74c-.294-.413-.828-.343-.795-.343-.023-.033-.563.153-.54.178l-.038.02-10.15 5.881-.036.022s-.582.372-.884.937c-.339.544-.368 1.237-.368 1.237l-.002.042v2.959s-.011.481-.28.926c-.25.458-.657.712-.657.712l-.028.017-3.009 1.744-.033.017c-.002.02-.297.128-.288.105 0 0-.168.025-.242-.09-.094-.11-.1-.36-.1-.36V.643H.685v42.475l.002.047s-.037.373.24.742c.303.403.833.324.8.324.023.035.555-.161.536-.183l.034-.02 3.01-1.742.038-.026s.58-.372.878-.939c.339-.544.366-1.237.366-1.237V37.12l.002-.035s.013-.481.284-.926c.25-.456.66-.708.66-.708l.029-.018 10.147-5.881.029-.016c.004-.021.298-.122.288-.1 0 0 .166-.024.236.094.099.113.1.367.1.367v9.817z" mask="url(#bn)"/></g><g transform="translate(419.46 311.827)"><mask id="bp" fill="#fff"><use xlink:href="#bo"/></mask><path mask="url(#bp)" d="M.685 2.547h.634V-.63H.685V.643z"/></g><g transform="translate(463.182 334.355)"><mask id="br" fill="#fff"><use xlink:href="#bq"/></mask><path mask="url(#br)" d="M.109 3.7H.74V.526H.109v1.902z"/></g><g transform="translate(459.314 285.826)"><mask id="bt" fill="#fff"><use xlink:href="#bs"/></mask><path d="M3.976 50.956h.633V27.46s.017-.568.334-1.087c.289-.532.772-.827.772-.827l.031-.02 15.421-8.936.037-.021s.172-.096.377-.284a3.26 3.26 0 0 0 .617-.778c.385-.62.414-1.398.414-1.398V1.791s.04-.418-.256-.823c-.32-.45-.905-.373-.87-.373-.025-.037-.625.175-.603.202l-.037.02L1.53 12.01l-.03.015c-.003.024-.359.146-.351.12 0 0-.213.03-.311-.127-.122-.15-.12-.45-.12-.45l-.002-.034V2.012H.082v9.523l.001.043s-.042.417.25.825c.319.454.907.376.87.376.025.04.627-.17.604-.198l.038-.02L21.161 1.367l.031-.018c.002-.023.358-.146.35-.122 0 0 .215-.03.313.126.124.15.122.448.122.448l.002.033v12.268s-.015.567-.329 1.087c-.29.532-.771.831-.771.831l-.027.018-15.422 8.94-.037.019s-.658.415-1 1.058a3.273 3.273 0 0 0-.361.928c-.06.272-.057.468-.057.468v23.505z" mask="url(#bt)"/></g><g transform="translate(459.314 286.592)"><mask id="bv" fill="#fff"><use xlink:href="#bu"/></mask><path mask="url(#bv)" d="M.082 3.147h.634V-.027H.082v1.273z"/></g><g transform="translate(456.204 278.828)"><mask id="bx" fill="#fff"><use xlink:href="#bw"/></mask><path d="M4.593 1.029c-.277 0-.592.099-.926.291-1.255.726-2.275 2.502-2.275 3.956 0 .635.198 1.097.554 1.304.361.212.856.146 1.404-.17 1.255-.726 2.274-2.502 2.274-3.954 0-.637-.197-1.097-.553-1.305a.931.931 0 0 0-.478-.122M2.421 7.337a1.58 1.58 0 0 1-.79-.205c-.563-.326-.873-.984-.873-1.856 0-1.685 1.14-3.665 2.592-4.505C4.1.334 4.825.276 5.386.598c.563.326.872.988.872 1.858 0 1.684-1.139 3.664-2.593 4.503-.431.252-.857.378-1.244.378" mask="url(#bx)"/></g><g transform="translate(432.239 301.355)"><mask id="bz" fill="#fff"><use xlink:href="#by"/></mask><path d="M3.984.902c-.276 0-.592.097-.926.29C1.805 1.922.784 3.696.784 5.15c0 .635.199 1.097.555 1.302.357.21.856.148 1.404-.169 1.255-.726 2.274-2.5 2.274-3.956 0-.634-.197-1.096-.553-1.302a.938.938 0 0 0-.48-.122M1.812 7.21a1.57 1.57 0 0 1-.789-.205C.461 6.678.151 6.02.151 5.149c0-1.687 1.14-3.665 2.592-4.507.752-.433 1.475-.5 2.036-.171.563.326.872.986.872 1.855 0 1.687-1.139 3.665-2.593 4.506-.431.252-.857.378-1.246.378" mask="url(#bz)"/></g><g transform="translate(417.526 303.297)"><mask id="bB" fill="#fff"><use xlink:href="#bA"/></mask><path d="M4.02 1.237c-.278 0-.593.1-.928.292C1.84 2.257.818 4.029.818 5.483c0 .636.197 1.1.555 1.306.36.212.857.148 1.402-.17C4.03 5.89 5.051 4.115 5.051 2.663c0-.635-.197-1.098-.555-1.306a.928.928 0 0 0-.475-.12m-2.174 6.31c-.286 0-.553-.07-.791-.208-.56-.324-.87-.984-.87-1.857 0-1.683 1.137-3.661 2.59-4.504.75-.434 1.476-.494 2.037-.171.562.326.87.986.87 1.857 0 1.685-1.137 3.663-2.592 4.506-.433.252-.856.378-1.245.378" mask="url(#bB)"/></g><path d="M317.088 231.94l82.764-48.2v-72.292l-82.764 49.916z"/><path d="M98.743 158.657v70.54l-5.877-3.418v-70.492l.652.373-.652-.374 83.43-49.503 5.909 3.389-83.43 49.502-.032-.017z" fill="url(#bC)" opacity=".412" transform="translate(224.173 6)"/><path d="M.037 119.749L81.73 71.492V.472L.037 49.333z" transform="translate(322.916 115.31)" fill="url(#bD)"/><path d="M286.702 353.33l-84.391 48.709a4 4 0 0 1-6-3.465v-97.41a12 12 0 0 1 6.002-10.393l84.391-48.709a4 4 0 0 1 6 3.465v97.41a12 12 0 0 1-6.002 10.393zm-223.1 0l84.391 48.709a4 4 0 0 0 6-3.465v-97.41a12 12 0 0 0-6.002-10.393L63.6 242.062a4 4 0 0 0-6 3.465v97.41a12 12 0 0 0 6.002 10.393z" fill="url(#bE)" opacity=".641" transform="translate(224.173 6)"/><g filter="url(#bF)" transform="translate(360.532 76.522)"><g opacity=".1"><use fill="#000" filter="url(#bG)" xlink:href="#bH"/><use fill="url(#t)" xlink:href="#bH"/></g><g opacity=".318"><use fill="#000" filter="url(#bI)" xlink:href="#bJ"/><use fill="url(#t)" xlink:href="#bJ"/></g><mask id="bL" fill="#fff"><use xlink:href="#bK"/></mask><g opacity=".645" mask="url(#bL)"><use fill="#000" filter="url(#bM)" xlink:href="#bN"/><use fill="url(#t)" xlink:href="#bN"/></g><g transform="translate(6.994 5.812)"><mask id="bP" fill="#fff"><use xlink:href="#bO"/></mask><g mask="url(#bP)"><use fill="url(#t)" xlink:href="#bQ"/><path stroke-opacity=".12" stroke="#03A9F4" stroke-width="2" d="M3.26 10.04C1.42 18.372.489 28.14 1.59 37.753c1.476 12.893 6.692 22.015 17.527 30.63 5.032 4.002 9.744 7.076 13.838 9.305 4.092-2.228 8.805-5.303 13.838-9.305 10.834-8.616 16.05-17.738 17.527-30.63 1.095-9.56.162-19.345-1.676-27.716-3.15-1.992-7.382-4.06-12.708-5.909-6.39-2.218-12.053-3.032-16.216-3.032-.221 0-.404.004-.523.009h-.01l-.264.006-.21-.006a13.397 13.397 0 0 0-.523-.009c-4.164 0-9.825.814-16.216 3.032C10.643 5.98 6.41 8.05 3.261 10.04z"/></g><path d="M13.388-2.285C2.413 1.643-2.837 6.062-2.837 6.062s-4.295 15.875-2.386 33.06C-3.314 56.306 4.32 66.452 14.502 74.8c9.739 7.983 17.143 11.472 17.77 11.761v.022l.023-.01.023.01v-.022l.031-.014V-5.73l-.054.002c-.156-.005-.41-.012-.756-.012-2.43 0-9.373.315-18.15 3.456" fill="url(#bR)" opacity=".128" mask="url(#bP)"/></g></g><g transform="translate(294.704 6)"><use fill="#000" filter="url(#bS)" xlink:href="#bT"/><use fill="url(#bU)" xlink:href="#bT"/></g><g transform="translate(294.704 6)"><use fill="#000" filter="url(#bV)" xlink:href="#bW"/><use fill="url(#bU)" xlink:href="#bW"/></g><g transform="translate(294.704 6)"><use fill="#000" filter="url(#bX)" xlink:href="#bY"/><use fill="url(#bU)" xlink:href="#bY"/></g><g transform="translate(294.704 6)"><use fill="#000" filter="url(#bZ)" xlink:href="#ca"/><use fill="url(#bU)" xlink:href="#ca"/></g><g transform="translate(294.704 6)"><use fill="#000" filter="url(#cb)" xlink:href="#cc"/><use fill="url(#bU)" xlink:href="#cc"/></g><g transform="translate(294.704 6)"><use fill="#000" filter="url(#cd)" xlink:href="#ce"/><use fill="url(#bU)" xlink:href="#ce"/></g><g transform="translate(294.704 6)"><use fill="#000" filter="url(#cf)" xlink:href="#cg"/><use fill="url(#bU)" xlink:href="#cg"/></g><g transform="translate(294.704 6)"><use fill="#000" filter="url(#ch)" xlink:href="#ci"/><use fill="url(#bU)" xlink:href="#ci"/></g><g transform="translate(294.704 6)"><use fill="#000" filter="url(#cj)" xlink:href="#ck"/><use fill="url(#bU)" xlink:href="#ck"/></g><g transform="translate(294.704 6)"><use fill="#000" filter="url(#cl)" xlink:href="#cm"/><use fill="url(#bU)" xlink:href="#cm"/></g><g transform="translate(294.704 6)"><use fill="#000" filter="url(#cn)" xlink:href="#co"/><use fill="url(#bU)" xlink:href="#co"/></g><path d="M117.845 216.922V23.102h114.609v193.82l-50.2 38.305a14 14 0 0 1-17.291-.24l-47.118-38.065z" fill="url(#aF)" opacity=".399" transform="translate(224.173 6)"/><path d="M175.152 272.21c.51 0 1.981 0 3.784-.758 7.326-3.989 34.277-19.126 80.85-45.412v-73.242l-82.694 49.689a4 4 0 0 0-1.94 3.429v66.294z" fill="url(#cp)" transform="translate(224.173 6)"/><path d="M169.275 269.873c1.614 1.064 3.244 1.873 5.877 1.967v-66.327a4 4 0 0 1 1.94-3.429l82.713-49.676-3.417-1.869a4 4 0 0 0-3.961.07l-81.052 48.127a4 4 0 0 0-1.958 3.43l-.142 67.707z" fill="url(#cq)" opacity=".604" transform="translate(224.173 6)"/><path d="M179.789 102.22l1.536.886a.5.5 0 0 1 .25.433v1.773a.5.5 0 0 1-.25.433l-1.536.887a.5.5 0 0 1-.5 0l-1.536-.887a.5.5 0 0 1-.25-.433v-1.773a.5.5 0 0 1 .25-.433l1.536-.887a.5.5 0 0 1 .5 0zm-77.965-18.716l1.155.667a.5.5 0 0 1 .25.433v1.334a.5.5 0 0 1-.25.433l-1.155.667a.5.5 0 0 1-.5 0l-1.155-.667a.5.5 0 0 1-.25-.433v-1.334a.5.5 0 0 1 .25-.433l1.155-.667a.5.5 0 0 1 .5 0zm9.993-11.754l.57.33a.5.5 0 0 1 .25.432v.657a.5.5 0 0 1-.25.433l-.57.328a.5.5 0 0 1-.5 0l-.568-.328a.5.5 0 0 1-.25-.433v-.657a.5.5 0 0 1 .25-.433l.568-.328a.5.5 0 0 1 .5 0z" fill="url(#x)" transform="translate(2 6)"/><g transform="translate(600.338 74.171)"><path d="M99.054.098l1.536.887a.5.5 0 0 1 .25.433v1.774a.5.5 0 0 1-.25.433l-1.536.886a.5.5 0 0 1-.5 0l-1.536-.886a.5.5 0 0 1-.25-.433V1.418a.5.5 0 0 1 .25-.433l1.536-.887a.5.5 0 0 1 .5 0z" fill="url(#x)"/><ellipse fill="url(#x)" cx="92.012" cy="32.398" rx="1.176" ry="1.175"/><ellipse fill="url(#x)" cx="2.103" cy="31.912" rx="1.176" ry="1.175"/><ellipse fill="url(#x)" cx="107.172" cy="42.623" rx="1.176" ry="1.175"/><ellipse fill="url(#x)" cx="26.615" cy="29.157" rx="1.176" ry="1.175"/><ellipse stroke="url(#x)" cx="21.786" cy="7.632" rx="1.763" ry="1.763"/></g></g></svg>