<svg version="1.1" id="Layer_1" xmlns="http://www.w3.org/2000/svg" x="0" y="0" viewBox="0 0 32 32" xml:space="preserve"><style/><linearGradient id="SVGID_1_" gradientUnits="userSpaceOnUse" x1="16" y1="-.026" x2="16" y2="32.012"><stop offset=".001" stop-color="#1eced0"/><stop offset=".5" stop-color="#8aa9f4"/><stop offset="1" stop-color="#6a44fb"/></linearGradient><path d="M16 21.2c-1.5 0-2.7 1.2-2.7 2.7 0 1.5 1.2 2.7 2.7 2.7s2.7-1.2 2.7-2.7c0-1.5-1.2-2.7-2.7-2.7zM4.7 30.5L1.1 17.7l-.1-.6c0-.7.6-1.4 1.4-1.4h27.2c.8 0 1.4.6 1.4 1.4l-.1.4-3.6 13c-.4.9-1.4 1.5-2.4 1.5H7.1c-1 0-2-.6-2.4-1.5z" fill="url(#SVGID_1_)"/><linearGradient id="SVGID_2_" gradientUnits="userSpaceOnUse" x1="16" y1=".045" x2="16" y2="32.035"><stop offset=".001" stop-color="#1eced0"/><stop offset=".5" stop-color="#8aa9f4"/><stop offset="1" stop-color="#6a44fb"/></linearGradient><path fill="url(#SVGID_2_)" d="M13.7 0h4.6v6.5H22l-6 6.4-6-6.4h3.7z"/></svg>