<svg version="1.1" id="Layer_1" xmlns="http://www.w3.org/2000/svg" x="0" y="0" viewBox="0 0 32 32" xml:space="preserve"><style/><linearGradient id="SVGID_1_" gradientUnits="userSpaceOnUse" x1="16" y1="0" x2="16" y2="32"><stop offset="0" stop-color="#1eced0"/><stop offset=".5" stop-color="#8aa9f4"/><stop offset="1" stop-color="#6a44fb"/></linearGradient><path d="M21.8 20.4H11.6v-2.9h10.2m4.4-3H11.6v-2.9h14.5m.1-2.9H11.6V5.8h14.5m3-5.8H8.7C7.1 0 5.8 1.3 5.8 2.9v20.4c0 1.6 1.3 2.9 2.9 2.9h20.4c1.6 0 2.9-1.3 2.9-2.9V2.9C32 1.3 30.7 0 29.1 0M2.9 5.8v23.3h23.3V32H2.9C1.3 32 0 30.7 0 29.1V5.8h2.9z" fill="url(#SVGID_1_)"/></svg>