<svg width="688" height="689" xmlns="http://www.w3.org/2000/svg" xmlns:xlink="http://www.w3.org/1999/xlink"><defs><path d="M1.357 43.06C-.94 53.313-2.34 75.348 18.282 78.486c20.66 3.144 86.238 6.326 86.238 6.326s7.513.307 18.858 0c11.345-.306 116.134-5.406 116.134-5.406s1.61.46 2.414-2.491c.332-1.22-2.516-1.279-11.498-1.534 0 0-82.785-4.886-110.307-10.199-6.956-1.342-18.474-4.523-18.781-21.7-.307-17.177 5.212-41.408 5.212-41.408L13.644.234S4.126 30.697 1.357 43.06" id="a"/><path d="M.92 43.788S-5.1 69.711 15.523 72.85c20.66 3.144 88.091 8.972 88.091 8.972s7.998 1.226 19.343.92c11.344-.306 108.85-4.907 108.85-4.907s4.293.306 4.6-.92c.307-1.227-3.987-1.534-6.44-1.534 0 0-82.784-4.886-110.306-10.199-6.956-1.342-18.474-4.523-18.781-21.7-.307-17.177 5.212-41.408 5.212-41.408L13.185.234.92 43.788z" id="c"/><radialGradient cx="56.643%" cy="25.367%" fx="56.643%" fy="25.367%" r="199.63%" gradientTransform="matrix(-.28374 .58337 -.29861 -1.19009 .803 .225)" id="d"><stop stop-color="#1D2E6A" offset="0%"/><stop stop-color="#16234D" offset="100%"/></radialGradient><path d="M3.986 11.889S0 14.649 0 21.09c0 6.442 33.729 471.742 33.729 471.742s1.686 15.796 16.251 16.41c14.565.614 437.86-.613 437.86-.613s12.418 1.228 14.564-5.367C504.55 496.667 368.41 185.34 368.41 185.34L20.39.386 3.987 11.89z" id="f"/><path d="M12.358.22C7.793.249.818 1.71.613 10.357.306 23.238 35.263 488.54 35.263 488.54s0 18.097 18.397 19.017c18.396.92 425.287 1.227 425.287 1.227s10.732 2.146 9.812-9.816c-.92-11.962-35.875-337.09-35.875-337.09s.613-13.496-12.572-17.79C427.128 139.793 16.25.54 16.25.54S14.716.233 12.61.22h-.252z" id="h"/><radialGradient cx="56.643%" cy="25.367%" fx="56.643%" fy="25.367%" r="133.919%" gradientTransform="matrix(-.42297 .86962 -1.32773 -.59477 1.143 -.088)" id="i"><stop stop-color="#1D2E6A" offset="0%"/><stop stop-color="#16234D" offset="100%"/></radialGradient><path d="M60.587 75.856L87.805 430.24a11 11 0 0 0 10.282 10.136l392.421 24.507a9 9 0 0 0 9.514-9.896L474.07 200.74a12 12 0 0 0-8.257-10.203L74.93 64.544c-5.782-1.863-11.98 1.313-13.844 7.095a11 11 0 0 0-.498 4.217z" id="l"/><filter x="-44.4%" y="-40.4%" width="188.7%" height="196.5%" filterUnits="objectBoundingBox" id="k"><feOffset dy="32" in="SourceAlpha" result="shadowOffsetOuter1"/><feGaussianBlur stdDeviation="60" in="shadowOffsetOuter1" result="shadowBlurOuter1"/><feColorMatrix values="0 0 0 0 0.152941176 0 0 0 0 0.184313725 0 0 0 0 0.290196078 0 0 0 0.16 0" in="shadowBlurOuter1"/></filter><path d="M31.15 46.41l27.22 354.383a11 11 0 0 0 10.28 10.137l392.421 24.507a9 9 0 0 0 9.515-9.897l-25.953-254.245a12 12 0 0 0-8.256-10.203L45.493 35.099c-5.782-1.864-11.98 1.312-13.844 7.095a11 11 0 0 0-.498 4.217z" id="n"/><filter x="-44.4%" y="-40.4%" width="188.7%" height="196.5%" filterUnits="objectBoundingBox" id="m"><feOffset dy="32" in="SourceAlpha" result="shadowOffsetOuter1"/><feGaussianBlur stdDeviation="60" in="shadowOffsetOuter1" result="shadowBlurOuter1"/><feColorMatrix values="0 0 0 0 0.152941176 0 0 0 0 0.184313725 0 0 0 0 0.290196078 0 0 0 0.16 0" in="shadowBlurOuter1"/></filter><path d="M1.715 16.965l27.218 354.383a11 11 0 0 0 10.282 10.136l392.421 24.507a9 9 0 0 0 9.515-9.896l-25.953-254.246a12 12 0 0 0-8.256-10.203L16.057 5.653C10.275 3.79 4.077 6.966 2.213 12.748a11 11 0 0 0-.498 4.217z" id="p"/><filter x="-44.4%" y="-40.4%" width="188.7%" height="196.5%" filterUnits="objectBoundingBox" id="o"><feOffset dy="32" in="SourceAlpha" result="shadowOffsetOuter1"/><feGaussianBlur stdDeviation="60" in="shadowOffsetOuter1" result="shadowBlurOuter1"/><feColorMatrix values="0 0 0 0 0.152941176 0 0 0 0 0.184313725 0 0 0 0 0.290196078 0 0 0 0.16 0" in="shadowBlurOuter1"/></filter></defs><g fill="none" fill-rule="evenodd"><g transform="matrix(-1 0 0 1 523.5 603.203)"><mask id="b" fill="#fff"><use xlink:href="#a"/></mask><path d="M1.357 43.06C-.94 53.313-2.34 75.348 18.282 78.486c20.66 3.144 86.238 6.326 86.238 6.326s7.513.307 18.858 0c11.345-.306 116.134-5.406 116.134-5.406s1.61.46 2.414-2.491c.332-1.22-2.516-1.279-11.498-1.534 0 0-82.785-4.886-110.307-10.199-6.956-1.342-18.474-4.523-18.781-21.7-.307-17.177 5.212-41.408 5.212-41.408L13.644.234S4.126 30.697 1.357 43.06" fill="#16234D" mask="url(#b)"/></g><g transform="matrix(-1 0 0 1 517.98 603.203)"><mask id="e" fill="#fff"><use xlink:href="#c"/></mask><path d="M.92 43.788S-5.1 69.711 15.523 72.85c20.66 3.144 88.091 8.972 88.091 8.972s7.998 1.226 19.343.92c11.344-.306 108.85-4.907 108.85-4.907s4.293.306 4.6-.92c.307-1.227-3.987-1.534-6.44-1.534 0 0-82.784-4.886-110.306-10.199-6.956-1.342-18.474-4.523-18.781-21.7-.307-17.177 5.212-41.408 5.212-41.408L13.185.234.92 43.788z" fill="url(#d)" mask="url(#e)"/></g><g transform="matrix(-1 0 0 1 667 102.628)"><mask id="g" fill="#fff"><use xlink:href="#f"/></mask><path d="M3.986 11.889S0 14.649 0 21.09c0 6.442 33.729 471.742 33.729 471.742s1.686 15.796 16.251 16.41c14.565.614 437.86-.613 437.86-.613s12.418 1.228 14.564-5.367C504.55 496.667 368.41 185.34 368.41 185.34L20.39.386 3.987 11.89z" fill="#16234D" mask="url(#g)"/></g><g transform="matrix(-1 0 0 1 651.362 100.788)"><mask id="j" fill="#fff"><use xlink:href="#h"/></mask><path d="M12.358.22C7.793.249.818 1.71.613 10.357.306 23.238 35.263 488.54 35.263 488.54s0 18.097 18.397 19.017c18.396.92 425.287 1.227 425.287 1.227s10.732 2.146 9.812-9.816c-.92-11.962-35.875-337.09-35.875-337.09s.613-13.496-12.572-17.79C427.128 139.793 16.25.54 16.25.54S14.716.233 12.61.22h-.252z" fill="url(#i)" mask="url(#j)"/></g><path d="M624.12 148.34l-27.217 354.382a11 11 0 0 1-10.282 10.137L194.2 537.366a9 9 0 0 1-9.515-9.897l25.953-254.246a12 12 0 0 1 8.256-10.202l390.885-125.993c5.782-1.864 11.98 1.312 13.844 7.095a11 11 0 0 1 .498 4.217z" fill="#16234D"/><g opacity=".6" transform="matrix(-1 0 0 1 653.432 55)"><use fill="#000" filter="url(#k)" xlink:href="#l"/><use fill="#1E2D5D" xlink:href="#l"/></g><g opacity=".8" transform="matrix(-1 0 0 1 594.56 55)"><use fill="#000" filter="url(#m)" xlink:href="#n"/><use fill="#1E2D5D" xlink:href="#n"/></g><g transform="matrix(-1 0 0 1 535.688 55)"><use fill="#000" filter="url(#o)" xlink:href="#p"/><use fill="#1E2D5D" xlink:href="#p"/></g></g></svg>