<svg xmlns="http://www.w3.org/2000/svg" viewBox="0 0 32 32"><linearGradient id="a" gradientUnits="userSpaceOnUse" x1="16" y1="28" x2="16" y2="4" gradientTransform="matrix(1 0 0 -1 0 32)"><stop offset="0" stop-color="#1eced0"/><stop offset=".5" stop-color="#8aa9f4"/><stop offset="1" stop-color="#6a44fb"/></linearGradient><path d="M27.8 6.9S25.5 4.4 20.3 4v.8s2.9-.2 6.4 3.5C24 6.2 20.2 5 15.9 5s-8 1.2-10.7 3.2c3.5-3.6 6.4-3.5 6.4-3.5V4c-5.2.4-7.5 2.9-7.5 2.9-3.9 5.3-4.1 17-4.1 17C3.7 28.6 8.4 28 8.4 28l1.7-2.6c-2.2-.6-3.8-2.1-4.7-3.2 2.7 2 6.5 3.2 10.6 3.2s7.9-1.2 10.6-3.2c-1 1.1-2.6 2.6-4.7 3.2l1.7 2.6s4.7.6 8.4-4.1c0 0-.2-11.7-4.2-17zM11 20.6c-1.5 0-2.7-1.3-2.7-3s1.2-3 2.7-3 2.7 1.3 2.7 3-1.2 3-2.7 3zm10 0c-1.5 0-2.7-1.3-2.7-3s1.2-3 2.7-3 2.7 1.3 2.7 3-1.2 3-2.7 3z" fill="url(#a)"/></svg>