<svg width="1374" height="923" xmlns="http://www.w3.org/2000/svg" xmlns:xlink="http://www.w3.org/1999/xlink"><defs><linearGradient x1="50%" y1="-16.285%" x2="50%" y2="209.304%" id="d"><stop stop-color="#0A1129" offset="0%"/><stop stop-color="#021D39" offset="100%"/></linearGradient><radialGradient cx="49.086%" cy="15.081%" fx="49.086%" fy="15.081%" r="65.361%" gradientTransform="matrix(0 1 -1.07357 0 .653 -.34)" id="e"><stop stop-color="#0084FF" offset="0%"/><stop stop-color="#25CADF" stop-opacity="0" offset="100%"/></radialGradient><path d="M200.174 382.336l-81.292-41.153a10 10 0 1 1 0-17.844l81.292-41.153a24 24 0 0 1 21.605-.037l82.036 41.175c4.936 2.477 6.929 8.487 4.451 13.423a10 10 0 0 1-4.451 4.452l-82.036 41.175a24 24 0 0 1-21.605-.038z" id="c"/><filter x="-29.3%" y="-52.4%" width="158.6%" height="208.6%" filterUnits="objectBoundingBox" id="a"><feGaussianBlur stdDeviation="12.695" in="SourceGraphic"/></filter><filter x="-34.7%" y="-62.4%" width="169.3%" height="228.6%" filterUnits="objectBoundingBox" id="b"><feOffset dy="2" in="SourceAlpha" result="shadowOffsetOuter1"/><feGaussianBlur stdDeviation="9.5" in="shadowOffsetOuter1" result="shadowBlurOuter1"/><feColorMatrix values="0 0 0 0 0 0 0 0 0 0 0 0 0 0 0 0 0 0 0.5 0" in="shadowBlurOuter1"/></filter><path d="M1146.054 380.264l-81.292-41.153c-4.928-2.495-6.9-8.511-4.405-13.439a10 10 0 0 1 4.405-4.405l81.292-41.153a24 24 0 0 1 21.606-.037l82.035 41.175c4.936 2.477 6.93 8.487 4.452 13.423a10 10 0 0 1-4.452 4.451l-82.035 41.175a24 24 0 0 1-21.606-.037z" id="h"/><filter x="-29.3%" y="-52.4%" width="158.6%" height="208.6%" filterUnits="objectBoundingBox" id="f"><feGaussianBlur stdDeviation="12.695" in="SourceGraphic"/></filter><filter x="-34.7%" y="-62.4%" width="169.3%" height="228.6%" filterUnits="objectBoundingBox" id="g"><feOffset dy="2" in="SourceAlpha" result="shadowOffsetOuter1"/><feGaussianBlur stdDeviation="9.5" in="shadowOffsetOuter1" result="shadowBlurOuter1"/><feColorMatrix values="0 0 0 0 0 0 0 0 0 0 0 0 0 0 0 0 0 0 0.5 0" in="shadowBlurOuter1"/></filter><path d="M1147.09 856.916l-81.29-41.153a10 10 0 1 1 0-17.844l81.29-41.153a24 24 0 0 1 21.607-.038l82.035 41.175c4.936 2.478 6.93 8.487 4.452 13.423a10 10 0 0 1-4.452 4.452l-82.035 41.175a24 24 0 0 1-21.606-.037z" id="k"/><filter x="-29.3%" y="-52.4%" width="158.6%" height="208.6%" filterUnits="objectBoundingBox" id="i"><feGaussianBlur stdDeviation="12.695" in="SourceGraphic"/></filter><filter x="-34.7%" y="-62.4%" width="169.3%" height="228.6%" filterUnits="objectBoundingBox" id="j"><feOffset dy="2" in="SourceAlpha" result="shadowOffsetOuter1"/><feGaussianBlur stdDeviation="9.5" in="shadowOffsetOuter1" result="shadowBlurOuter1"/><feColorMatrix values="0 0 0 0 0 0 0 0 0 0 0 0 0 0 0 0 0 0 0.5 0" in="shadowBlurOuter1"/></filter><path d="M200.174 851.735l-81.292-41.153a10 10 0 1 1 0-17.844l81.292-41.153a24 24 0 0 1 21.605-.038l82.036 41.175c4.936 2.478 6.929 8.487 4.451 13.423a10 10 0 0 1-4.451 4.452l-82.036 41.175a24 24 0 0 1-21.605-.037z" id="n"/><filter x="-29.3%" y="-52.4%" width="158.6%" height="208.6%" filterUnits="objectBoundingBox" id="l"><feGaussianBlur stdDeviation="12.695" in="SourceGraphic"/></filter><filter x="-34.7%" y="-62.4%" width="169.3%" height="228.6%" filterUnits="objectBoundingBox" id="m"><feOffset dy="2" in="SourceAlpha" result="shadowOffsetOuter1"/><feGaussianBlur stdDeviation="9.5" in="shadowOffsetOuter1" result="shadowBlurOuter1"/><feColorMatrix values="0 0 0 0 0 0 0 0 0 0 0 0 0 0 0 0 0 0 0.5 0" in="shadowBlurOuter1"/></filter><radialGradient cx="49.086%" cy="15.081%" fx="49.086%" fy="15.081%" r="65.361%" gradientTransform="matrix(0 1 -1.029 0 .646 -.34)" id="r"><stop stop-color="#0084FF" offset="0%"/><stop stop-color="#25CADF" stop-opacity="0" offset="100%"/></radialGradient><path d="M673.078 752.574L418.572 623.725c-4.928-2.494-6.9-8.51-4.405-13.438a10 10 0 0 1 4.405-4.405l254.506-128.848a24 24 0 0 1 21.607-.037l256.741 128.87c4.936 2.477 6.93 8.487 4.452 13.423a10 10 0 0 1-4.452 4.451l-256.741 128.87a24 24 0 0 1-21.607-.037z" id="q"/><filter x="-10.5%" y="-19.6%" width="121%" height="140.7%" filterUnits="objectBoundingBox" id="o"><feGaussianBlur stdDeviation="12.695" in="SourceGraphic"/></filter><filter x="-12.4%" y="-23.4%" width="124.9%" height="148.2%" filterUnits="objectBoundingBox" id="p"><feOffset dy="2" in="SourceAlpha" result="shadowOffsetOuter1"/><feGaussianBlur stdDeviation="9.5" in="shadowOffsetOuter1" result="shadowBlurOuter1"/><feColorMatrix values="0 0 0 0 0 0 0 0 0 0 0 0 0 0 0 0 0 0 0.5 0" in="shadowBlurOuter1"/></filter><linearGradient x1="27.32%" y1="-69.858%" x2="50%" y2="144.025%" id="s"><stop stop-color="#4763FF" offset="0%"/><stop stop-color="#021D39" offset="100%"/></linearGradient><linearGradient x1="12.924%" y1="-10.772%" x2="50%" y2="93.097%" id="t"><stop stop-color="#0084FF" offset="0%"/><stop stop-color="#25CADF" offset="100%"/></linearGradient><linearGradient x1="50%" y1="-16.285%" x2="50%" y2="209.304%" id="u"><stop stop-color="#4763FF" offset="0%"/><stop stop-color="#021D39" offset="100%"/></linearGradient><linearGradient x1="50%" y1="23.721%" x2="56.157%" y2="108.631%" id="w"><stop stop-color="#007CEF" offset="0%"/><stop stop-color="#25CADF" offset="100%"/></linearGradient><path d="M230.335 248.374L5.683 134.64c-4.928-2.495-6.9-8.512-4.405-13.44a10 10 0 0 1 4.405-4.404L230.335 3.062a24 24 0 0 1 21.607-.038L478.573 116.78c4.936 2.478 6.93 8.488 4.451 13.424a10 10 0 0 1-4.45 4.451L251.941 248.411a24 24 0 0 1-21.607-.037z" id="v"/><linearGradient x1="12.924%" y1="-10.772%" x2="50%" y2="75.031%" id="x"><stop stop-color="#0084FF" offset="0%"/><stop stop-color="#25CADF" offset="100%"/></linearGradient><linearGradient x1="-19.282%" y1="63.217%" x2="125.314%" y2="77.052%" id="z"><stop stop-color="#4763FF" offset="0%"/><stop stop-color="#021D39" offset="100%"/></linearGradient><path d="M69.75 85.322L6.034 52.954a10 10 0 1 1 0-17.83L69.75 2.753a24 24 0 0 1 21.667-.037l64.306 32.39a10 10 0 1 1 0 17.862L91.416 85.36a24 24 0 0 1-21.667-.037z" id="A"/><path d="M70.892 85.447L6.159 52.977c-4.937-2.476-6.931-8.485-4.455-13.422A10 10 0 0 1 6.159 35.1L70.892 2.63a24 24 0 0 1 21.447-.037l65.333 32.492c4.946 2.459 6.96 8.461 4.501 13.406a10 10 0 0 1-4.5 4.501L92.338 85.484a24 24 0 0 1-21.447-.037z" id="C"/><linearGradient x1="143.214%" y1="100%" x2="-42.926%" y2="0%" id="E"><stop stop-color="#4763FF" offset="0%"/><stop stop-color="#021D39" offset="100%"/></linearGradient><linearGradient x1="63.64%" y1="78.912%" x2="-3.6%" y2="-42.621%" id="F"><stop stop-color="#4763FF" offset="0%"/><stop stop-color="#021D39" offset="100%"/></linearGradient><path d="M70.892 85.447L6.159 52.977c-4.937-2.476-6.931-8.485-4.455-13.422A10 10 0 0 1 6.159 35.1L70.892 2.63a24 24 0 0 1 21.447-.037l65.333 32.492c4.946 2.459 6.96 8.461 4.501 13.406a10 10 0 0 1-4.5 4.501L92.338 85.484a24 24 0 0 1-21.447-.037z" id="G"/><path d="M70.892 85.447L6.159 52.977c-4.937-2.476-6.931-8.485-4.455-13.422A10 10 0 0 1 6.159 35.1L70.892 2.63a24 24 0 0 1 21.447-.037l65.333 32.492c4.946 2.459 6.96 8.461 4.501 13.406a10 10 0 0 1-4.5 4.501L92.338 85.484a24 24 0 0 1-21.447-.037z" id="I"/><radialGradient cx="51.012%" cy="50%" fx="51.012%" fy="50%" r="70.54%" gradientTransform="matrix(.03454 .99769 -.9513 .12736 .968 -.073)" id="K"><stop stop-color="#1796FF" stop-opacity="0" offset="0%"/><stop stop-color="#0084FF" offset="100%"/></radialGradient><linearGradient x1="60.045%" y1="6.152%" x2="80.601%" y2="100%" id="L"><stop offset="0%"/><stop stop-color="#FFF" offset="100%"/></linearGradient><linearGradient x1="50%" y1="23.721%" x2="59.995%" y2="172.425%" id="N"><stop stop-color="#007CEF" offset="0%"/><stop stop-color="#25CADF" offset="100%"/></linearGradient><path id="M" d="M.207 0v118.127l200.805.02V.277z"/><linearGradient x1="50%" y1="87.788%" x2="83.736%" y2="173.106%" id="P"><stop stop-color="#007CEF" offset="0%"/><stop stop-color="#25CADF" offset="100%"/></linearGradient><linearGradient x1="100%" y1="30.695%" x2="55.566%" y2="89.046%" id="Q"><stop stop-color="#007CEF" offset="0%"/><stop stop-color="#25CADF" stop-opacity="0" offset="100%"/></linearGradient><linearGradient x1="50%" y1="-10.271%" x2="50%" y2="100%" id="S"><stop stop-color="#FFF" stop-opacity=".184" offset="0%"/><stop stop-color="#FFF" stop-opacity="0" offset="100%"/></linearGradient><path d="M89.337 106.228l-84.14-42.92C.279 60.798-1.675 54.776.835 49.856a10 10 0 0 1 4.364-4.364l84.139-42.92a24 24 0 0 1 21.737-.037l84.907 42.942c4.929 2.492 6.903 8.508 4.41 13.437a10 10 0 0 1-4.41 4.41l-84.907 42.942a24 24 0 0 1-21.737-.038z" id="R"/><path d="M67.638 83.327L6.05 51.91C1.13 49.4-.824 43.378 1.686 38.458a10 10 0 0 1 4.364-4.364L67.638 2.678a24 24 0 0 1 21.737-.038l62.163 31.439c4.928 2.492 6.903 8.508 4.41 13.436a10 10 0 0 1-4.41 4.41l-62.163 31.44a24 24 0 0 1-21.737-.038z" id="T"/><linearGradient x1="47.412%" y1="24.177%" x2="50%" y2="273.774%" id="V"><stop stop-color="#FFF" stop-opacity="0" offset="0%"/><stop stop-color="#25CADF" offset="100%"/></linearGradient><linearGradient x1="50%" y1="-8.531%" x2="50%" y2="273.774%" id="W"><stop stop-color="#FFF" stop-opacity="0" offset="0%"/><stop stop-color="#25CADF" offset="100%"/></linearGradient><filter x="-10.4%" y="-2.9%" width="120.8%" height="105.8%" filterUnits="objectBoundingBox" id="X"><feGaussianBlur stdDeviation="2.695" in="SourceGraphic"/></filter><filter x="-10.4%" y="-2.9%" width="120.8%" height="105.8%" filterUnits="objectBoundingBox" id="Y"><feGaussianBlur stdDeviation="2.695" in="SourceGraphic"/></filter><filter x="-5.2%" y="-9.7%" width="110.5%" height="119.3%" filterUnits="objectBoundingBox" id="Z"><feGaussianBlur stdDeviation="2.695" in="SourceGraphic"/></filter><linearGradient x1="65.697%" y1="44.479%" x2="0%" y2="86.701%" id="aa"><stop stop-color="#00D2CE" stop-opacity="0" offset="0%"/><stop stop-color="#651FFF" offset="100%"/></linearGradient><linearGradient x1="100%" y1="8.649%" x2="31.757%" y2="50%" id="ab"><stop stop-color="#00D2CE" offset="0%"/><stop stop-color="#651FFF" stop-opacity="0" offset="100%"/></linearGradient><linearGradient x1="65.697%" y1="44.479%" x2="0%" y2="86.701%" id="ac"><stop stop-color="#FFF" stop-opacity="0" offset="0%"/><stop stop-color="#FFF" offset="100%"/></linearGradient><linearGradient x1="100%" y1="8.649%" x2="31.757%" y2="50%" id="ad"><stop stop-color="#FFF" offset="0%"/><stop stop-color="#FFF" stop-opacity="0" offset="100%"/></linearGradient><linearGradient x1="50%" y1="3.232%" x2="50%" y2="104.386%" id="ae"><stop stop-color="#0084FF" stop-opacity="0" offset="0%"/><stop stop-color="#25CADF" offset="100%"/></linearGradient><linearGradient x1="50%" y1="-8.531%" x2="50%" y2="273.774%" id="af"><stop stop-color="#FFF" stop-opacity="0" offset="0%"/><stop stop-color="#FFF" offset="100%"/></linearGradient><filter x="-10%" y="-3.2%" width="120%" height="106.4%" filterUnits="objectBoundingBox" id="ag"><feGaussianBlur stdDeviation="2.695" in="SourceGraphic"/></filter><linearGradient x1="50%" y1="-8.531%" x2="50%" y2="265.742%" id="ah"><stop stop-color="#FFF" stop-opacity="0" offset="0%"/><stop stop-color="#FFF" offset="100%"/></linearGradient><filter x="-10%" y="-3.2%" width="120%" height="106.4%" filterUnits="objectBoundingBox" id="ai"><feGaussianBlur stdDeviation="2.695" in="SourceGraphic"/></filter><filter x="-5%" y="-9.2%" width="110%" height="118.4%" filterUnits="objectBoundingBox" id="aj"><feGaussianBlur stdDeviation="2.695" in="SourceGraphic"/></filter><filter x="-10%" y="-3.2%" width="120%" height="106.4%" filterUnits="objectBoundingBox" id="ak"><feGaussianBlur stdDeviation="2.695" in="SourceGraphic"/></filter><filter x="-10%" y="-3.2%" width="120%" height="106.4%" filterUnits="objectBoundingBox" id="al"><feGaussianBlur stdDeviation="2.695" in="SourceGraphic"/></filter><filter x="-5%" y="-9.2%" width="110%" height="118.4%" filterUnits="objectBoundingBox" id="am"><feGaussianBlur stdDeviation="2.695" in="SourceGraphic"/></filter><linearGradient x1="44.984%" y1="100%" x2="50%" y2="123.047%" id="ap"><stop stop-color="#0084FF" offset="0%"/><stop stop-color="#1796FF" offset="100%"/></linearGradient><path d="M39.352 4.437c3.951 0 7.155 3.19 7.155 7.126a7.064 7.064 0 0 1-3.578 6.164v4.525h3.578c13.83 0 25.042 11.166 25.042 24.94h3.577a3.57 3.57 0 0 1 3.578 3.564v10.689a3.57 3.57 0 0 1-3.578 3.563H71.55v3.563c0 3.935-3.203 7.126-7.155 7.126H14.31c-3.952 0-7.155-3.19-7.155-7.126v-3.563H3.577A3.57 3.57 0 0 1 0 61.445v-10.69a3.57 3.57 0 0 1 3.577-3.562h3.578c0-13.775 11.212-24.941 25.042-24.941h3.577v-4.525a7.064 7.064 0 0 1-3.577-6.164c0-3.936 3.203-7.126 7.155-7.126zM23.253 43.63c-4.939 0-8.943 3.988-8.943 8.907 0 4.92 4.004 8.908 8.943 8.908 4.94 0 8.944-3.988 8.944-8.908s-4.004-8.907-8.944-8.907zm32.197 0c-4.939 0-8.943 3.988-8.943 8.907 0 4.92 4.004 8.908 8.943 8.908 4.94 0 8.944-3.988 8.944-8.908S60.39 43.63 55.45 43.63z" id="ao"/><filter x="-24.1%" y="-23.9%" width="148.3%" height="153.3%" filterUnits="objectBoundingBox" id="an"><feOffset dy="2" in="SourceAlpha" result="shadowOffsetOuter1"/><feGaussianBlur stdDeviation="6" in="shadowOffsetOuter1" result="shadowBlurOuter1"/><feColorMatrix values="0 0 0 0 0.396078431 0 0 0 0 0.121568627 0 0 0 0 1 0 0 0 0.5 0" in="shadowBlurOuter1"/></filter><linearGradient x1="50%" y1="100%" x2="50%" y2="0%" id="aq"><stop stop-color="#04C0FF" offset="0%"/><stop stop-color="#1796FF" offset="100%"/></linearGradient><filter x="-10%" y="-3.2%" width="120%" height="106.4%" filterUnits="objectBoundingBox" id="ar"><feGaussianBlur stdDeviation="2.695" in="SourceGraphic"/></filter><filter x="-10%" y="-3.2%" width="120%" height="106.4%" filterUnits="objectBoundingBox" id="as"><feGaussianBlur stdDeviation="2.695" in="SourceGraphic"/></filter><filter x="-5%" y="-9.2%" width="110%" height="118.4%" filterUnits="objectBoundingBox" id="at"><feGaussianBlur stdDeviation="2.695" in="SourceGraphic"/></filter><path d="M60.063 67.903a7.502 7.502 0 0 1-7.508-7.5 7.478 7.478 0 0 1 7.508-7.502c4.146 0 7.508 3.359 7.508 7.501 0 4.143-3.362 7.501-7.508 7.501zm0-22.503c-8.293 0-15.016 6.717-15.016 15.002 0 8.286 6.723 15.002 15.016 15.002s15.016-6.716 15.016-15.002c0-8.285-6.723-15.002-15.016-15.002zm-22.524-7.126a7.138 7.138 0 0 0-5.043 2.087 7.123 7.123 0 0 0-2.09 5.04 7.13 7.13 0 0 0 7.133 7.125 7.13 7.13 0 0 0 7.133-7.126c0-1.89-.752-3.702-2.09-5.039a7.136 7.136 0 0 0-5.043-2.087zm-22.523 29.63a7.502 7.502 0 0 1-7.508-7.502 7.478 7.478 0 0 1 7.508-7.5c4.146 0 7.508 3.358 7.508 7.5 0 4.143-3.362 7.501-7.508 7.501zm0-22.504C6.723 45.4 0 52.117 0 60.402c0 8.286 6.723 15.002 15.016 15.002S30.03 68.688 30.03 60.402c0-8.285-6.722-15.002-15.015-15.002zm22.523-33.754c4.147 0 7.508 3.358 7.508 7.5a7.505 7.505 0 0 1-7.508 7.502 7.502 7.502 0 0 1-7.508-7.501 7.478 7.478 0 0 1 7.508-7.501zm0 22.503c8.293 0 15.016-6.717 15.016-15.002 0-8.286-6.723-15.002-15.016-15.002S22.524 10.86 22.524 19.147c0 8.285 6.722 15.002 15.015 15.002z" id="av"/><filter x="-25.3%" y="-23.9%" width="150.6%" height="153.3%" filterUnits="objectBoundingBox" id="au"><feOffset dy="2" in="SourceAlpha" result="shadowOffsetOuter1"/><feGaussianBlur stdDeviation="6" in="shadowOffsetOuter1" result="shadowBlurOuter1"/><feColorMatrix values="0 0 0 0 0.396078431 0 0 0 0 0.121568627 0 0 0 0 1 0 0 0 0.5 0" in="shadowBlurOuter1"/></filter><filter x="-10%" y="-3.2%" width="120%" height="106.4%" filterUnits="objectBoundingBox" id="aw"><feGaussianBlur stdDeviation="2.695" in="SourceGraphic"/></filter><filter x="-10%" y="-3.2%" width="120%" height="106.4%" filterUnits="objectBoundingBox" id="ax"><feGaussianBlur stdDeviation="2.695" in="SourceGraphic"/></filter><filter x="-5%" y="-9.2%" width="110%" height="118.4%" filterUnits="objectBoundingBox" id="ay"><feGaussianBlur stdDeviation="2.695" in="SourceGraphic"/></filter><path d="M8.688 76.273L.32 41.903 0 40.499a3.2 3.2 0 0 1 3.206-3.195H67.32a3.2 3.2 0 0 1 3.206 3.195l-.128.927-8.56 34.848a6.45 6.45 0 0 1-5.738 3.514H14.426a6.45 6.45 0 0 1-5.738-3.514zm26.575-24.118c-3.54 0-6.411 2.861-6.411 6.39 0 3.53 2.87 6.39 6.411 6.39 3.541 0 6.412-2.86 6.412-6.39 0-3.529-2.871-6.39-6.412-6.39z" id="aA"/><filter x="-26.9%" y="-40%" width="153.9%" height="189.4%" filterUnits="objectBoundingBox" id="az"><feOffset dy="2" in="SourceAlpha" result="shadowOffsetOuter1"/><feGaussianBlur stdDeviation="6" in="shadowOffsetOuter1" result="shadowBlurOuter1"/><feColorMatrix values="0 0 0 0 0.396078431 0 0 0 0 0.121568627 0 0 0 0 1 0 0 0 0.5 0" in="shadowBlurOuter1"/></filter><path id="aC" d="M41.14 33.158H30.423V22.65H21.78v-4.145l14.002-14.36 14.001 14.36v4.145H41.14z"/><filter x="-67.8%" y="-58.6%" width="235.7%" height="231%" filterUnits="objectBoundingBox" id="aB"><feOffset dy="2" in="SourceAlpha" result="shadowOffsetOuter1"/><feGaussianBlur stdDeviation="6" in="shadowOffsetOuter1" result="shadowBlurOuter1"/><feColorMatrix values="0 0 0 0 0.396078431 0 0 0 0 0.121568627 0 0 0 0 1 0 0 0 0.5 0" in="shadowBlurOuter1"/></filter><path d="M50.268 25.493v4.142c4.156 2.985 3.947 6.928 3.947 12.257v8.882h24.608v-8.882c0-8.278-16.19-13.69-24.539-13.69l-4.016-2.71zM25.08 29.458C16.732 29.458 0 33.614 0 41.892v8.882h50.16v-8.882c0-8.278-16.732-12.434-25.08-12.434zm0-8.142c5.936 0 10.749-4.772 10.749-10.658C35.829 4.772 31.016 0 25.08 0c-5.936 0-10.748 4.772-10.748 10.658 0 5.886 4.812 10.658 10.748 10.658zm28.663 0c5.937 0 10.749-4.772 10.749-10.658C64.492 4.772 59.68 0 53.743 0c-5.936 0-10.748 4.772-10.748 10.658 0 5.886 4.812 10.658 10.748 10.658z" id="aE"/><filter x="-24.1%" y="-33.5%" width="148.2%" height="174.8%" filterUnits="objectBoundingBox" id="aD"><feOffset dy="2" in="SourceAlpha" result="shadowOffsetOuter1"/><feGaussianBlur stdDeviation="6" in="shadowOffsetOuter1" result="shadowBlurOuter1"/><feColorMatrix values="0 0 0 0 0.396078431 0 0 0 0 0.121568627 0 0 0 0 1 0 0 0 0.5 0" in="shadowBlurOuter1"/></filter></defs><g fill="none" fill-rule="evenodd"><g opacity=".482" filter="url(#a)" transform="translate(2 4)"><use fill="#000" filter="url(#b)" xlink:href="#c"/><use fill="url(#d)" xlink:href="#c"/><use fill="url(#e)" xlink:href="#c"/></g><g opacity=".482" filter="url(#f)" transform="translate(2 4)"><use fill="#000" filter="url(#g)" xlink:href="#h"/><use fill="url(#d)" xlink:href="#h"/><use fill="url(#e)" xlink:href="#h"/></g><g opacity=".482" filter="url(#i)" transform="translate(2 4)"><use fill="#000" filter="url(#j)" xlink:href="#k"/><use fill="url(#d)" xlink:href="#k"/><use fill="url(#e)" xlink:href="#k"/></g><g opacity=".482" filter="url(#l)" transform="translate(2 4)"><use fill="#000" filter="url(#m)" xlink:href="#n"/><use fill="url(#d)" xlink:href="#n"/><use fill="url(#e)" xlink:href="#n"/></g><g opacity=".482" filter="url(#o)" transform="translate(2 4)"><use fill="#000" filter="url(#p)" xlink:href="#q"/><use fill="url(#d)" xlink:href="#q"/><use fill="url(#r)" xlink:href="#q"/></g><path d="M676.153 809.648L317.241 628.047a10 10 0 1 1 0-17.846L676.153 428.6a24 24 0 0 1 21.597-.038l362.047 181.623c4.936 2.477 6.93 8.486 4.454 13.423a10 10 0 0 1-4.454 4.454L697.75 809.685a24 24 0 0 1-21.597-.037zm-473.905-368.59L8.93 343.193c-4.927-2.494-6.9-8.51-4.405-13.438a10 10 0 0 1 4.405-4.405l193.317-97.865a24 24 0 0 1 21.606-.037l195.025 97.886a10 10 0 1 1 0 17.875l-195.025 97.886a24 24 0 0 1-21.606-.037zm0 471.471L8.93 814.664c-4.927-2.494-6.9-8.511-4.405-13.438a10 10 0 0 1 4.405-4.406l193.317-97.864a24 24 0 0 1 21.606-.038l195.025 97.887a10 10 0 1 1 0 17.875l-195.025 97.886a24 24 0 0 1-21.606-.037zm946.917 5.181l-193.317-97.865c-4.927-2.494-6.9-8.511-4.405-13.438a10 10 0 0 1 4.405-4.406l193.317-97.864a24 24 0 0 1 21.606-.038l195.025 97.887c4.936 2.477 6.93 8.487 4.452 13.423a10 10 0 0 1-4.452 4.452l-195.025 97.886a24 24 0 0 1-21.606-.037zm0-475.616L955.848 344.23c-4.927-2.495-6.9-8.511-4.405-13.439a10 10 0 0 1 4.405-4.405l193.317-97.865a24 24 0 0 1 21.606-.037l195.025 97.886c4.936 2.478 6.93 8.488 4.452 13.424a10 10 0 0 1-4.452 4.451l-195.025 97.886a24 24 0 0 1-21.606-.037z" stroke="#0A1129" stroke-width="4" opacity=".598"/><path d="M411.436 353.18a9.948 9.948 0 0 1 .312-4.46v-28.534h49.545l210.013-106.323a24 24 0 0 1 21.606-.037l211.896 106.36h49.905v28.464a9.995 9.995 0 0 1 .335 4.543 9.955 9.955 0 0 1-.943 6.035 10 10 0 0 1-4.451 4.45l-256.742 128.87a24 24 0 0 1-21.606-.037L416.799 363.663c-3.971-2.01-6.023-6.31-5.363-10.482z" fill="url(#s)" transform="translate(4.074 224.71)"/><path d="M411.436 337.638a9.948 9.948 0 0 1 .312-4.461v-28.534h49.545L671.306 198.32a24 24 0 0 1 21.606-.037l211.896 106.36h49.905v28.464a9.995 9.995 0 0 1 .335 4.543 9.955 9.955 0 0 1-.943 6.035 10 10 0 0 1-4.451 4.45l-256.742 128.87a24 24 0 0 1-21.606-.037L416.799 348.12c-3.971-2.01-6.023-6.31-5.363-10.482z" fill="url(#t)" transform="translate(4.074 224.71)"/><path d="M411.436 333.493a9.948 9.948 0 0 1 .312-4.461v-28.534h49.545l210.013-106.323a24 24 0 0 1 21.606-.037l211.896 106.36h49.905v28.465a9.995 9.995 0 0 1 .335 4.543 9.955 9.955 0 0 1-.943 6.034 10 10 0 0 1-4.451 4.451l-256.742 128.87a24 24 0 0 1-21.606-.037L416.799 343.976c-3.971-2.011-6.023-6.31-5.363-10.483z" fill="url(#s)" transform="translate(4.074 224.71)"/><path d="M671.003 438.605L416.497 309.757c-4.927-2.494-6.9-8.511-4.405-13.438a10 10 0 0 1 4.405-4.405l254.506-128.849a24 24 0 0 1 21.607-.037l256.742 128.87c4.936 2.478 6.929 8.487 4.451 13.423a10 10 0 0 1-4.451 4.452L692.61 438.643a24 24 0 0 1-21.607-.038z" fill="url(#u)" transform="translate(4.074 224.71)"/><g transform="translate(444.863 399.828)"><mask id="y" fill="#fff"><use xlink:href="#v"/></mask><use fill="url(#w)" xlink:href="#v"/><path d="M230.335 257.7L5.683 143.965c-4.928-2.494-6.9-8.51-4.405-13.438a10 10 0 0 1 4.405-4.405L230.335 12.387a24 24 0 0 1 21.607-.037l226.631 113.756c4.936 2.478 6.93 8.488 4.451 13.424a10 10 0 0 1-4.45 4.45L251.941 257.738a24 24 0 0 1-21.607-.037z" fill="url(#x)" mask="url(#y)"/></g><path d="M.816 131.322v-28.55h49.766l36.542-18.5a24 24 0 0 1 21.606-.037l36.932 18.537h50.385v29.427a9.958 9.958 0 0 1-.83 6.634 10 10 0 0 1-4.451 4.452L108.73 184.46a24 24 0 0 1-21.606-.038L5.832 143.27c-4.44-2.247-6.48-7.354-5.016-11.947z" fill="url(#z)" transform="translate(1060.93 202.95)"/><path d="M.816 110.598v-28.55h49.766l36.542-18.5a24 24 0 0 1 21.606-.037l36.932 18.537h50.385v29.427a9.958 9.958 0 0 1-.83 6.634 10 10 0 0 1-4.451 4.452l-82.036 41.175a24 24 0 0 1-21.606-.038L5.832 122.545c-4.44-2.247-6.48-7.354-5.016-11.947z" fill="url(#x)" transform="translate(1060.93 202.95)"/><path d="M.816 106.453v-28.55h49.766l36.542-18.5a24 24 0 0 1 21.606-.037l36.932 18.537h50.385v29.427a9.958 9.958 0 0 1-.83 6.634 10 10 0 0 1-4.451 4.452l-82.036 41.175a24 24 0 0 1-21.606-.037L5.832 118.4c-4.44-2.248-6.48-7.355-5.016-11.948z" fill="url(#z)" transform="translate(1060.93 202.95)"/><path d="M.816 85.73V57.178h49.766l36.542-18.5a24 24 0 0 1 21.606-.037l36.932 18.537h50.385v29.427a9.958 9.958 0 0 1-.83 6.634 10 10 0 0 1-4.451 4.452l-82.036 41.175a24 24 0 0 1-21.606-.037L5.832 97.677c-4.44-2.248-6.48-7.355-5.016-11.948z" fill="url(#x)" transform="translate(1060.93 202.95)"/><path d="M.816 81.584v-28.55h49.766l36.542-18.5a24 24 0 0 1 21.606-.036l36.932 18.536h50.385v29.427a9.958 9.958 0 0 1-.83 6.635 10 10 0 0 1-4.451 4.451l-82.036 41.175a24 24 0 0 1-21.606-.037L5.832 93.532c-4.44-2.248-6.48-7.354-5.016-11.948z" fill="url(#z)" transform="translate(1060.93 202.95)"/><path d="M87.124 103.599L5.832 62.446c-4.927-2.495-6.9-8.511-4.405-13.439a10 10 0 0 1 4.405-4.405L87.124 3.449a24 24 0 0 1 21.606-.037l82.036 41.174c4.936 2.478 6.929 8.488 4.451 13.424a10 10 0 0 1-4.451 4.451l-82.036 41.175a24 24 0 0 1-21.606-.037z" fill="url(#u)" transform="translate(1060.93 202.95)"/><g transform="translate(1078.042 212.276)"><mask id="B" fill="#fff"><use xlink:href="#A"/></mask><use fill="url(#w)" xlink:href="#A"/><path d="M69.75 91.54L6.034 59.17c-4.922-2.5-6.886-8.519-4.384-13.444a10 10 0 0 1 4.386-4.386L69.75 8.972a24 24 0 0 1 21.667-.038l64.306 32.39a10 10 0 1 1 0 17.862l-64.306 32.39a24 24 0 0 1-21.667-.037z" fill="url(#x)" mask="url(#B)"/></g><path d="M.816 131.322v-28.55h49.766l36.542-18.5a24 24 0 0 1 21.606-.037l36.932 18.537h50.385v29.427a9.958 9.958 0 0 1-.83 6.634 10 10 0 0 1-4.451 4.452L108.73 184.46a24 24 0 0 1-21.606-.038L5.832 143.27c-4.44-2.247-6.48-7.354-5.016-11.947z" fill="url(#s)" transform="translate(1061.967 679.602)"/><path d="M.816 110.598v-28.55h49.766l36.542-18.5a24 24 0 0 1 21.606-.037l36.932 18.537h50.385v29.427a9.958 9.958 0 0 1-.83 6.634 10 10 0 0 1-4.451 4.452l-82.036 41.175a24 24 0 0 1-21.606-.038L5.832 122.545c-4.44-2.247-6.48-7.354-5.016-11.947z" fill="url(#x)" transform="translate(1061.967 679.602)"/><path d="M.816 106.453v-28.55h49.766l36.542-18.5a24 24 0 0 1 21.606-.037l36.932 18.537h50.385v29.427a9.958 9.958 0 0 1-.83 6.634 10 10 0 0 1-4.451 4.452l-82.036 41.175a24 24 0 0 1-21.606-.037L5.832 118.4c-4.44-2.248-6.48-7.355-5.016-11.948z" fill="url(#s)" transform="translate(1061.967 679.602)"/><path d="M.816 85.73V57.178h49.766l36.542-18.5a24 24 0 0 1 21.606-.037l36.932 18.537h50.385v29.427a9.958 9.958 0 0 1-.83 6.634 10 10 0 0 1-4.451 4.452l-82.036 41.175a24 24 0 0 1-21.606-.037L5.832 97.677c-4.44-2.248-6.48-7.355-5.016-11.948z" fill="url(#x)" transform="translate(1061.967 679.602)"/><path d="M.816 81.584v-28.55h49.766l36.542-18.5a24 24 0 0 1 21.606-.036l36.932 18.536h50.385v29.427a9.958 9.958 0 0 1-.83 6.635 10 10 0 0 1-4.451 4.451l-82.036 41.175a24 24 0 0 1-21.606-.037L5.832 93.532c-4.44-2.248-6.48-7.354-5.016-11.948z" fill="url(#s)" transform="translate(1061.967 679.602)"/><path d="M87.124 103.599L5.832 62.446c-4.927-2.495-6.9-8.511-4.405-13.439a10 10 0 0 1 4.405-4.405L87.124 3.449a24 24 0 0 1 21.606-.037l82.036 41.174c4.936 2.478 6.929 8.488 4.451 13.424a10 10 0 0 1-4.451 4.451l-82.036 41.175a24 24 0 0 1-21.606-.037z" fill="url(#u)" transform="translate(1061.967 679.602)"/><g transform="translate(1078.561 688.41)"><mask id="D" fill="#fff"><use xlink:href="#C"/></mask><use fill="url(#w)" xlink:href="#C"/><path d="M70.892 91.664L6.159 59.194C1.222 56.718-.772 50.71 1.704 45.772a10 10 0 0 1 4.455-4.455l64.733-32.47a24 24 0 0 1 21.447-.036l65.333 32.49c4.946 2.46 6.96 8.462 4.501 13.408a10 10 0 0 1-4.5 4.5L92.338 91.702a24 24 0 0 1-21.447-.037z" fill="url(#x)" mask="url(#D)"/></g><path d="M.816 131.322v-28.55h49.766l36.542-18.5a24 24 0 0 1 21.606-.037l36.932 18.537h50.385v29.427a9.958 9.958 0 0 1-.83 6.634 10 10 0 0 1-4.451 4.452L108.73 184.46a24 24 0 0 1-21.606-.038L5.832 143.27c-4.44-2.247-6.48-7.354-5.016-11.947z" fill="url(#E)" transform="translate(115.05 201.914)"/><path d="M.816 110.598v-28.55h49.766l36.542-18.5a24 24 0 0 1 21.606-.037l36.932 18.537h50.385v29.427a9.958 9.958 0 0 1-.83 6.634 10 10 0 0 1-4.451 4.452l-82.036 41.175a24 24 0 0 1-21.606-.038L5.832 122.545c-4.44-2.247-6.48-7.354-5.016-11.947z" fill="url(#x)" transform="translate(115.05 201.914)"/><path d="M.816 106.453v-28.55h49.766l36.542-18.5a24 24 0 0 1 21.606-.037l36.932 18.537h50.385v29.427a9.958 9.958 0 0 1-.83 6.634 10 10 0 0 1-4.451 4.452l-82.036 41.175a24 24 0 0 1-21.606-.037L5.832 118.4c-4.44-2.248-6.48-7.355-5.016-11.948z" fill="url(#E)" transform="translate(115.05 201.914)"/><path d="M.816 85.73V57.178h49.766l36.542-18.5a24 24 0 0 1 21.606-.037l36.932 18.537h50.385v29.427a9.958 9.958 0 0 1-.83 6.634 10 10 0 0 1-4.451 4.452l-82.036 41.175a24 24 0 0 1-21.606-.037L5.832 97.677c-4.44-2.248-6.48-7.355-5.016-11.948z" fill="url(#x)" transform="translate(115.05 201.914)"/><path d="M.816 81.584v-28.55h49.766l36.542-18.5a24 24 0 0 1 21.606-.036l36.932 18.536h50.385v29.427a9.958 9.958 0 0 1-.83 6.635 10 10 0 0 1-4.451 4.451l-82.036 41.175a24 24 0 0 1-21.606-.037L5.832 93.532c-4.44-2.248-6.48-7.354-5.016-11.948z" fill="url(#E)" transform="translate(115.05 201.914)"/><path d="M87.124 103.599L5.832 62.446c-4.927-2.495-6.9-8.511-4.405-13.439a10 10 0 0 1 4.405-4.405L87.124 3.449a24 24 0 0 1 21.606-.037l82.036 41.174c4.936 2.478 6.929 8.488 4.451 13.424a10 10 0 0 1-4.451 4.451l-82.036 41.175a24 24 0 0 1-21.606-.037z" fill="url(#F)" transform="translate(115.05 201.914)"/><g transform="translate(131.436 211.24)"><mask id="H" fill="#fff"><use xlink:href="#G"/></mask><use fill="url(#w)" xlink:href="#G"/><path d="M70.892 91.664L6.159 59.194C1.222 56.718-.772 50.71 1.704 45.772a10 10 0 0 1 4.455-4.455l64.733-32.47a24 24 0 0 1 21.447-.036l65.333 32.49c4.946 2.46 6.96 8.462 4.501 13.408a10 10 0 0 1-4.5 4.5L92.338 91.702a24 24 0 0 1-21.447-.037z" fill="url(#x)" mask="url(#H)"/></g><path d="M.816 131.322v-28.55h49.766l36.542-18.5a24 24 0 0 1 21.606-.037l36.932 18.537h50.385v29.427a9.958 9.958 0 0 1-.83 6.634 10 10 0 0 1-4.451 4.452L108.73 184.46a24 24 0 0 1-21.606-.038L5.832 143.27c-4.44-2.247-6.48-7.354-5.016-11.947z" fill="url(#s)" transform="translate(115.05 675.457)"/><path d="M.816 110.598v-28.55h49.766l36.542-18.5a24 24 0 0 1 21.606-.037l36.932 18.537h50.385v29.427a9.958 9.958 0 0 1-.83 6.634 10 10 0 0 1-4.451 4.452l-82.036 41.175a24 24 0 0 1-21.606-.038L5.832 122.545c-4.44-2.247-6.48-7.354-5.016-11.947z" fill="url(#x)" transform="translate(115.05 675.457)"/><path d="M.816 106.453v-28.55h49.766l36.542-18.5a24 24 0 0 1 21.606-.037l36.932 18.537h50.385v29.427a9.958 9.958 0 0 1-.83 6.634 10 10 0 0 1-4.451 4.452l-82.036 41.175a24 24 0 0 1-21.606-.037L5.832 118.4c-4.44-2.248-6.48-7.355-5.016-11.948z" fill="url(#s)" transform="translate(115.05 675.457)"/><path d="M.816 85.73V57.178h49.766l36.542-18.5a24 24 0 0 1 21.606-.037l36.932 18.537h50.385v29.427a9.958 9.958 0 0 1-.83 6.634 10 10 0 0 1-4.451 4.452l-82.036 41.175a24 24 0 0 1-21.606-.037L5.832 97.677c-4.44-2.248-6.48-7.355-5.016-11.948z" fill="url(#x)" transform="translate(115.05 675.457)"/><path d="M.816 81.584v-28.55h49.766l36.542-18.5a24 24 0 0 1 21.606-.036l36.932 18.536h50.385v29.427a9.958 9.958 0 0 1-.83 6.635 10 10 0 0 1-4.451 4.451l-82.036 41.175a24 24 0 0 1-21.606-.037L5.832 93.532c-4.44-2.248-6.48-7.354-5.016-11.948z" fill="url(#s)" transform="translate(115.05 675.457)"/><path d="M87.124 103.599L5.832 62.446c-4.927-2.495-6.9-8.511-4.405-13.439a10 10 0 0 1 4.405-4.405L87.124 3.449a24 24 0 0 1 21.606-.037l82.036 41.174c4.936 2.478 6.929 8.488 4.451 13.424a10 10 0 0 1-4.451 4.451l-82.036 41.175a24 24 0 0 1-21.606-.037z" fill="url(#u)" transform="translate(115.05 675.457)"/><g transform="translate(131.436 684.783)"><mask id="J" fill="#fff"><use xlink:href="#I"/></mask><use fill="url(#w)" xlink:href="#I"/><path d="M70.892 91.664L6.159 59.194C1.222 56.718-.772 50.71 1.704 45.772a10 10 0 0 1 4.455-4.455l64.733-32.47a24 24 0 0 1 21.447-.036l65.333 32.49c4.946 2.46 6.96 8.462 4.501 13.408a10 10 0 0 1-4.5 4.5L92.338 91.702a24 24 0 0 1-21.447-.037z" fill="url(#x)" mask="url(#J)"/></g><path d="M1044.382 714.341L899.57 641.52l1.866-3.702 145.385 73.11-1.473 2.924 100.78-51.018a24 24 0 0 1 21.606-.038l195.025 97.887c4.936 2.477 6.93 8.487 4.452 13.423a10 10 0 0 1-4.452 4.451l-195.025 97.887a24 24 0 0 1-21.606-.038l-193.317-97.864c-4.927-2.495-6.9-8.511-4.405-13.439a10 10 0 0 1 4.405-4.405l91.571-46.357zM504.767 445.31L318.98 352.545l1.352-2.701-99.516 49.948a24 24 0 0 1-21.605-.037L5.894 301.89c-4.928-2.494-6.9-8.51-4.405-13.438a10 10 0 0 1 4.405-4.405l193.317-97.865a24 24 0 0 1 21.605-.037l195.026 97.886c4.936 2.477 6.929 8.487 4.451 13.423a10 10 0 0 1-4.451 4.452l-94.255 47.308 186.604 93.17-.798 1.596 167.023-84.51a24 24 0 0 1 21.597-.037l167.895 84.226-1.143-2.216 180.303-92.825-90.257-45.691c-4.927-2.495-6.9-8.512-4.405-13.439a10 10 0 0 1 4.405-4.405l193.317-97.865a24 24 0 0 1 21.606-.037l195.025 97.886c4.936 2.478 6.93 8.487 4.452 13.423a10 10 0 0 1-4.452 4.452l-195.025 97.886a24 24 0 0 1-21.606-.037l-99.082-50.159.245.475-181.555 93.47 192.323 96.48a10 10 0 1 1 0 17.877L696.013 740.555a24 24 0 0 1-21.597-.037l-202.974-102.7.827 1.646-143.459 71.943-1.86-3.704 141.935-71.18-153.381-77.607a10 10 0 1 1 0-17.846l189.263-95.762zM199.21 871.225L5.894 773.361c-4.928-2.495-6.9-8.511-4.405-13.439a10 10 0 0 1 4.405-4.405l193.317-97.864a24 24 0 0 1 21.605-.038l195.026 97.887c4.936 2.477 6.929 8.487 4.451 13.423a10 10 0 0 1-4.451 4.451l-195.026 97.887a24 24 0 0 1-21.605-.038z" stroke="url(#K)" stroke-width="4" transform="translate(2 4)"/><path d="M850.135 514.3a9.964 9.964 0 0 1 0 2.072 9.964 9.964 0 0 1 0 2.072 9.964 9.964 0 0 1 0 2.073 9.953 9.953 0 0 1-1.011 5.515 10 10 0 0 1-4.451 4.451l-149.56 75.07a24 24 0 0 1-21.607-.037l-148.24-75.048a10.004 10.004 0 0 1-5.431-9.966 9.965 9.965 0 0 1 0-2.072 9.965 9.965 0 0 1 0-2.072 9.965 9.965 0 0 1 0-2.073 9.953 9.953 0 0 1 1.026-5.546 10 10 0 0 1 4.405-4.405l148.24-75.049a24 24 0 0 1 21.607-.037l149.56 75.07a10.004 10.004 0 0 1 5.462 9.981z" fill="url(#L)" style="mix-blend-mode:soft-light" transform="translate(2 4)"/><path d="M673.506 597.227l-148.24-75.049c-4.927-2.495-6.9-8.511-4.405-13.439a10 10 0 0 1 4.405-4.405l148.24-75.049a24 24 0 0 1 21.607-.037l149.56 75.07c4.935 2.478 6.928 8.488 4.45 13.424a10 10 0 0 1-4.45 4.451l-149.56 75.071a24 24 0 0 1-21.607-.037z" fill="url(#u)" transform="translate(2 4)"/><g transform="translate(586.952 395.683)"><mask id="O" fill="#fff"><use xlink:href="#M"/></mask><use fill="url(#N)" xlink:href="#M"/><path fill="url(#w)" mask="url(#O)" d="M.32 5.473L100.602 56.02v116.4L.32 124.235z"/></g><path d="M89.337 222.282l-84.14-42.92c-4.919-2.509-6.873-8.532-4.363-13.451a10 10 0 0 1 4.364-4.364l84.139-42.92a24 24 0 0 1 21.737-.038l84.907 42.942c4.929 2.493 6.903 8.508 4.41 13.437a10 10 0 0 1-4.41 4.41l-84.907 42.942a24 24 0 0 1-21.737-.038z" fill="url(#P)" transform="translate(586.952 342.837)"/><path fill="url(#Q)" d="M.32 58.32l100.283 50.545v116.402L.32 177.081z" transform="translate(586.952 342.837)"/><g transform="translate(586.952 342.837)"><use fill="url(#w)" xlink:href="#R"/><use fill="url(#S)" xlink:href="#R"/></g><g transform="translate(608.732 354.235)"><mask id="U" fill="#fff"><use xlink:href="#T"/></mask><use fill="#FFF" opacity=".36" xlink:href="#T"/><path d="M67.638 90.58L6.05 59.164c-4.92-2.51-6.874-8.533-4.364-13.452a10 10 0 0 1 4.364-4.364L67.638 9.93a24 24 0 0 1 21.737-.038l62.163 31.439c4.928 2.493 6.903 8.508 4.41 13.437a10 10 0 0 1-4.41 4.41l-62.163 31.44a24 24 0 0 1-21.737-.038z" fill="#FFF" opacity=".36" mask="url(#U)"/></g><path d="M.103 280.964H.056V160.668l155.516-.057v120.353h-.144a9.973 9.973 0 0 1-1.012 3.617 10 10 0 0 1-4.508 4.507l-61.73 30.663a24 24 0 0 1-21.427-.037L5.59 289.073a9.994 9.994 0 0 1-5.488-8.109z" fill="url(#V)" transform="translate(609.77 117.982)"/><path fill="url(#W)" opacity=".569" filter="url(#X)" d="M0 42.484l77.786 42.9v236.874L0 280.27V161.292" transform="translate(609.77 117.982)"/><path fill="url(#W)" opacity=".569" filter="url(#Y)" transform="matrix(-1 0 0 1 843.128 117.982)" d="M77.786 43.52l77.786 42.9v235.838L77.786 280.27"/><path d="M66.807 81.417L5.674 50.914c-4.942-2.466-6.949-8.47-4.483-13.413a10 10 0 0 1 4.483-4.483L66.807 2.515a24 24 0 0 1 21.357-.036l61.702 30.524a10 10 0 1 1 0 17.926L88.164 81.453a24 24 0 0 1-21.357-.036z" fill="url(#W)" opacity=".518" filter="url(#Z)" transform="translate(609.77 117.982)"/><path fill="url(#aa)" d="M35.823.982l39.002 67.491L.724 60.726z" transform="scale(-1 1) rotate(-60 -133.032 795.964)"/><path fill="url(#ab)" d="M58.124 103.555L19.476 36.676l73.747 7.135z" transform="scale(-1 1) rotate(-60 -133.032 795.964)"/><path fill="url(#ac)" d="M31.405.878l21.433 47.067-52.44-5.403z" transform="scale(-1 1) rotate(-60 36.462 930.443)"/><path fill="url(#ad)" d="M37.438 72.41l-21.24-46.64 52.246 4.976z" transform="scale(-1 1) rotate(-60 36.462 930.443)"/><path fill="url(#ac)" d="M31.405.878l21.433 47.067-52.44-5.403z" transform="rotate(-60 724.158 -260.682)"/><path fill="url(#ad)" d="M37.438 72.41l-21.24-46.64 52.246 4.976z" transform="rotate(-60 724.158 -260.682)"/><path d="M.931 248.163V126.928l161.682-.059v121.613a9.964 9.964 0 0 1-.647 7.25 10 10 0 0 1-4.5 4.5l-65.334 32.491a24 24 0 0 1-21.448-.036l-64.733-32.47c-4.488-2.251-6.544-7.423-5.02-12.054z" fill="url(#ae)" transform="translate(1077.524 5.036)"/><path fill="url(#af)" opacity=".569" filter="url(#ag)" d="M.873 43.52l81.062 44.564v207.327L.873 251.794V45.304" transform="translate(1077.524 5.036)"/><path fill="url(#ah)" opacity=".569" filter="url(#ai)" transform="matrix(-1 0 0 1 1322.127 5.036)" d="M81.77 43.52l81.062 44.564v207.327L81.77 251.794V45.304"/><path d="M70.684 85.447L5.951 52.977a10 10 0 1 1 0-17.877L70.684 2.63a24 24 0 0 1 21.448-.037l65.333 32.492a10 10 0 1 1 0 17.908l-65.333 32.49a24 24 0 0 1-21.448-.036z" fill="url(#W)" opacity=".569" filter="url(#aj)" transform="translate(1077.524 5.036)"/><path d="M.931 248.163V126.928l161.682-.059v121.613a9.964 9.964 0 0 1-.647 7.25 10 10 0 0 1-4.5 4.5l-65.334 32.491a24 24 0 0 1-21.448-.036l-64.733-32.47c-4.488-2.251-6.544-7.423-5.02-12.054z" fill="url(#ae)" transform="translate(1078.561 480.652)"/><path fill="url(#af)" opacity=".569" filter="url(#ak)" d="M.873 43.52l81.062 44.564v207.327L.873 251.794V45.304" transform="translate(1078.561 480.652)"/><path fill="url(#ah)" opacity=".569" filter="url(#al)" transform="matrix(-1 0 0 1 1323.164 480.652)" d="M81.77 43.52l81.062 44.564v207.327L81.77 251.794V45.304"/><path d="M70.684 85.447L5.951 52.977a10 10 0 1 1 0-17.877L70.684 2.63a24 24 0 0 1 21.448-.037l65.333 32.492a10 10 0 1 1 0 17.908l-65.333 32.49a24 24 0 0 1-21.448-.036z" fill="url(#W)" opacity=".569" filter="url(#am)" transform="translate(1078.561 480.652)"/><g fill-rule="nonzero"><g transform="translate(1121.084 589.452)"><use fill="#000" filter="url(#an)" xlink:href="#ao"/><use fill="url(#ap)" fill-rule="evenodd" xlink:href="#ao"/></g><path d="M39.352 0c3.951 0 7.155 3.19 7.155 7.126a7.064 7.064 0 0 1-3.578 6.164v4.525h3.578c13.83 0 25.042 11.166 25.042 24.941h3.577a3.57 3.57 0 0 1 3.578 3.563v10.689a3.57 3.57 0 0 1-3.578 3.563H71.55v3.563c0 3.936-3.203 7.126-7.155 7.126H14.31c-3.952 0-7.155-3.19-7.155-7.126v-3.563H3.577A3.57 3.57 0 0 1 0 57.008V46.319a3.57 3.57 0 0 1 3.577-3.563h3.578c0-13.775 11.212-24.941 25.042-24.941h3.577V13.29a7.064 7.064 0 0 1-3.577-6.164C32.197 3.19 35.4 0 39.352 0zM23.253 39.193c-4.939 0-8.943 3.988-8.943 8.907 0 4.92 4.004 8.908 8.943 8.908 4.94 0 8.944-3.988 8.944-8.908 0-4.919-4.004-8.907-8.944-8.907zm32.197 0c-4.939 0-8.943 3.988-8.943 8.907 0 4.92 4.004 8.908 8.943 8.908 4.94 0 8.944-3.988 8.944-8.908 0-4.919-4.004-8.907-8.944-8.907z" fill="url(#aq)" transform="translate(1121.084 589.452)"/></g><path d="M.931 248.163V126.928l161.682-.059v121.613a9.964 9.964 0 0 1-.647 7.25 10 10 0 0 1-4.5 4.5l-65.334 32.491a24 24 0 0 1-21.448-.036l-64.733-32.47c-4.488-2.251-6.544-7.423-5.02-12.054z" fill="url(#ae)" transform="translate(131.644 477.543)"/><path fill="url(#af)" opacity=".569" filter="url(#ar)" d="M.873 43.52l81.062 44.564v207.327L.873 251.794V45.304" transform="translate(131.644 477.543)"/><path fill="url(#ah)" opacity=".569" filter="url(#as)" transform="matrix(-1 0 0 1 376.247 477.543)" d="M81.77 43.52l81.062 44.564v207.327L81.77 251.794V45.304"/><path d="M70.684 85.447L5.951 52.977a10 10 0 1 1 0-17.877L70.684 2.63a24 24 0 0 1 21.448-.037l65.333 32.492a10 10 0 1 1 0 17.908l-65.333 32.49a24 24 0 0 1-21.448-.036z" fill="url(#W)" opacity=".569" filter="url(#at)" transform="translate(131.644 477.543)"/><g fill-rule="nonzero"><g transform="translate(176.241 586.344)"><use fill="#000" filter="url(#au)" xlink:href="#av"/><use fill="url(#ap)" fill-rule="evenodd" xlink:href="#av"/></g><path d="M60.063 63.758a7.502 7.502 0 0 1-7.508-7.5 7.478 7.478 0 0 1 7.508-7.502c4.146 0 7.508 3.359 7.508 7.501 0 4.143-3.362 7.501-7.508 7.501zm0-22.503c-8.293 0-15.016 6.717-15.016 15.002 0 8.286 6.723 15.002 15.016 15.002s15.016-6.716 15.016-15.002c0-8.285-6.723-15.002-15.016-15.002zM37.539 34.13c-1.891 0-3.705.75-5.043 2.087a7.123 7.123 0 0 0-2.09 5.038 7.13 7.13 0 0 0 7.133 7.126 7.13 7.13 0 0 0 7.133-7.126 7.12 7.12 0 0 0-2.09-5.038 7.136 7.136 0 0 0-5.043-2.087zM15.016 63.758a7.502 7.502 0 0 1-7.508-7.5 7.478 7.478 0 0 1 7.508-7.502c4.146 0 7.508 3.359 7.508 7.501 0 4.143-3.362 7.501-7.508 7.501zm0-22.503C6.723 41.255 0 47.972 0 56.257 0 64.543 6.723 71.26 15.016 71.26S30.03 64.543 30.03 56.257c0-8.285-6.722-15.002-15.015-15.002zM37.539 7.501a7.504 7.504 0 0 1 7.508 7.501 7.504 7.504 0 0 1-7.508 7.501 7.502 7.502 0 0 1-7.508-7.501 7.478 7.478 0 0 1 7.508-7.501zm0 22.503c8.293 0 15.016-6.717 15.016-15.002S45.832 0 37.54 0 22.524 6.717 22.524 15.002s6.722 15.002 15.015 15.002z" fill="url(#aq)" transform="translate(176.241 586.344)"/></g><path d="M.931 248.163V126.928l161.682-.059v121.613a9.964 9.964 0 0 1-.647 7.25 10 10 0 0 1-4.5 4.5l-65.334 32.491a24 24 0 0 1-21.448-.036l-64.733-32.47c-4.488-2.251-6.544-7.423-5.02-12.054z" fill="url(#ae)" transform="translate(131.644 4)"/><path fill="url(#af)" opacity=".569" filter="url(#aw)" d="M.873 43.52l81.062 44.564v207.327L.873 251.794V45.304" transform="translate(131.644 4)"/><path fill="url(#ah)" opacity=".569" filter="url(#ax)" transform="matrix(-1 0 0 1 376.247 4)" d="M81.77 43.52l81.062 44.564v207.327L81.77 251.794V45.304"/><path d="M70.684 85.447L5.951 52.977a10 10 0 1 1 0-17.877L70.684 2.63a24 24 0 0 1 21.448-.037l65.333 32.492a10 10 0 1 1 0 17.908l-65.333 32.49a24 24 0 0 1-21.448-.036z" fill="url(#W)" opacity=".569" filter="url(#ay)" transform="translate(131.644 4)"/><g fill-rule="nonzero"><g transform="translate(178.315 108.656)"><use fill="#000" filter="url(#az)" xlink:href="#aA"/><use fill="url(#ap)" fill-rule="evenodd" xlink:href="#aA"/></g><g transform="rotate(-180 124.94 72.98)"><use fill="#000" filter="url(#aB)" xlink:href="#aC"/><use fill="url(#ap)" fill-rule="evenodd" xlink:href="#aC"/></g><path d="M8.688 72.128L.32 41.904 0 40.498a3.2 3.2 0 0 1 3.206-3.195H67.32a3.2 3.2 0 0 1 3.206 3.195l-.128.927-8.56 30.703a6.45 6.45 0 0 1-5.738 3.515H14.426a6.45 6.45 0 0 1-5.738-3.515zm26.575-22.045c-3.54 0-6.411 2.86-6.411 6.39 0 3.529 2.87 6.39 6.411 6.39 3.541 0 6.412-2.861 6.412-6.39 0-3.53-2.871-6.39-6.412-6.39zM30.424 0h10.715v14.653h8.644l-14.001 14.36-14.002-14.36h8.644z" fill="url(#aq)" transform="translate(178.315 108.656)"/></g><g transform="translate(1121.084 127.308)" fill-rule="nonzero"><use fill="#000" filter="url(#aD)" xlink:href="#aE"/><use fill="url(#ap)" fill-rule="evenodd" xlink:href="#aE"/></g><path d="M53.743 28.421c-1.039 0-2.221 0-3.475.178 4.156 2.984 7.058 6.928 7.058 12.257v8.882h21.497v-8.882c0-8.278-16.732-12.435-25.08-12.435zm-28.663 0C16.732 28.421 0 32.578 0 40.856v8.882h50.16v-8.882c0-8.278-16.732-12.435-25.08-12.435zm0-7.105c5.936 0 10.749-4.772 10.749-10.658C35.829 4.772 31.016 0 25.08 0c-5.936 0-10.748 4.772-10.748 10.658 0 5.886 4.812 10.658 10.748 10.658zm28.663 0c5.937 0 10.749-4.772 10.749-10.658C64.492 4.772 59.68 0 53.743 0c-5.936 0-10.748 4.772-10.748 10.658 0 5.886 4.812 10.658 10.748 10.658z" transform="translate(1121.084 124.2)" fill="url(#aq)" fill-rule="nonzero"/></g></svg>