<svg version="1.1" id="Layer_1" xmlns="http://www.w3.org/2000/svg" x="0" y="0" viewBox="0 0 32 32" xml:space="preserve"><style/><linearGradient id="SVGID_1_" gradientUnits="userSpaceOnUse" x1="16" y1="-.005" x2="16" y2="31.988"><stop offset=".007" stop-color="#1eced0"/><stop offset=".5" stop-color="#8aa9f4"/><stop offset="1" stop-color="#6a44fb"/></linearGradient><path d="M16 20c-8.8 0-16 3.6-16 8v4h32v-4c0-4.4-7.2-8-16-8z" fill="url(#SVGID_1_)"/><linearGradient id="SVGID_2_" gradientUnits="userSpaceOnUse" x1="16" y1="0" x2="16" y2="31.993"><stop offset=".007" stop-color="#1eced0"/><stop offset=".5" stop-color="#8aa9f4"/><stop offset="1" stop-color="#6a44fb"/></linearGradient><path d="M23.7 7.8c0-4.7-4.1-6.1-4.1-6.1v4.1h-1.8v-5c0-.5-.3-.8-.9-.8h-1.8c-.5 0-.9.3-.9.8v4.9h-1.8V1.6S8.3 3 8.3 7.7c0 0-1.3.2-1.3 2h18c-.1-1.7-1.3-1.9-1.3-1.9z" fill="url(#SVGID_2_)"/><linearGradient id="SVGID_3_" gradientUnits="userSpaceOnUse" x1="16" y1="-.005" x2="16" y2="31.988"><stop offset=".007" stop-color="#1eced0"/><stop offset=".5" stop-color="#8aa9f4"/><stop offset="1" stop-color="#6a44fb"/></linearGradient><path d="M16 18c4 0 7.2-2.9 7.2-6.5H8.8C8.8 15.1 12 18 16 18z" fill="url(#SVGID_3_)"/></svg>