<svg version="1.1" id="Layer_1" xmlns="http://www.w3.org/2000/svg" x="0" y="0" viewBox="0 0 32 32" xml:space="preserve"><style/><linearGradient id="SVGID_1_" gradientUnits="userSpaceOnUse" x1="16" y1="0" x2="16" y2="32"><stop offset="0" stop-color="#1eced0"/><stop offset=".5" stop-color="#8aa9f4"/><stop offset="1" stop-color="#6a44fb"/></linearGradient><path d="M16 0C8.3 0 2 3.2 2 7.1s6.3 7.1 14 7.1S30 11 30 7.1 23.7 0 16 0M2 10.7V16c0 3.9 6.3 7.1 14 7.1s14-3.2 14-7.1v-5.3c0 3.9-6.3 7.1-14 7.1S2 14.6 2 10.7m0 8.9v5.3C2 28.8 8.3 32 16 32s14-3.2 14-7.1v-5.3c0 3.9-6.3 7.1-14 7.1S2 23.5 2 19.6z" fill="url(#SVGID_1_)"/></svg>