<svg version="1.1" id="Layer_1" xmlns="http://www.w3.org/2000/svg" x="0" y="0" viewBox="0 0 32 32" xml:space="preserve"><style/><linearGradient id="SVGID_1_" gradientUnits="userSpaceOnUse" x1="15.811" y1="5.506" x2="16.019" y2="26.539"><stop offset=".001" stop-color="#1eced0"/><stop offset=".5" stop-color="#8aa9f4"/><stop offset="1" stop-color="#6a44fb"/></linearGradient><path d="M21.8 17.5c-.4 0-.9 0-1.4.1 1.7 1.3 2.9 2.9 2.9 5.2v3.8H32v-3.8c0-3.5-6.8-5.3-10.2-5.3m-11.6 0C6.8 17.5 0 19.3 0 22.8v3.8h20.4v-3.8c0-3.5-6.8-5.3-10.2-5.3m0-3c2.4 0 4.4-2 4.4-4.5s-2-4.5-4.4-4.5-4.4 2-4.4 4.5 2 4.5 4.4 4.5m11.6 0c2.4 0 4.4-2 4.4-4.5s-2-4.5-4.4-4.5-4.4 2-4.4 4.5 2 4.5 4.4 4.5z" fill="url(#SVGID_1_)"/></svg>