<svg version="1.1" id="Layer_1" xmlns="http://www.w3.org/2000/svg" x="0" y="0" viewBox="0 0 32 32" xml:space="preserve"><style/><linearGradient id="SVGID_1_" gradientUnits="userSpaceOnUse" x1="16" y1="1.5" x2="16" y2="30.5"><stop offset=".001" stop-color="#1eced0"/><stop offset=".5" stop-color="#8aa9f4"/><stop offset="1" stop-color="#6a44fb"/></linearGradient><path d="M16 1.5c1.6 0 2.9 1.3 2.9 2.9 0 1.1-.6 2-1.5 2.5v1.8h1.5c5.6 0 10.2 4.5 10.2 10.1h1.5c.8 0 1.5.6 1.5 1.5v4.4c0 .8-.7 1.4-1.5 1.4h-1.5v1.5c0 1.6-1.3 2.9-2.9 2.9H5.8c-1.6 0-2.9-1.3-2.9-2.9v-1.5H1.5c-.8 0-1.5-.6-1.5-1.4v-4.4c0-.8.7-1.5 1.5-1.5H3C3 13.2 7.6 8.7 13.2 8.7h1.5V6.9c-.9-.5-1.5-1.4-1.5-2.5-.1-1.6 1.2-2.9 2.8-2.9m-6.5 16c-2 0-3.6 1.6-3.6 3.6s1.6 3.6 3.6 3.6 3.6-1.6 3.6-3.6-1.6-3.6-3.6-3.6m13 0c-2 0-3.6 1.6-3.6 3.6s1.6 3.6 3.6 3.6 3.6-1.6 3.6-3.6-1.5-3.6-3.6-3.6z" fill="url(#SVGID_1_)"/></svg>