<svg xmlns="http://www.w3.org/2000/svg" viewBox="0 0 500 25"><linearGradient id="a" gradientUnits="userSpaceOnUse" x1="451" y1="11" x2="481" y2="11" gradientTransform="rotate(180 467 11)"><stop offset="0" stop-color="#0084ff"/><stop offset=".66" stop-color="#0c8eff" stop-opacity="0"/><stop offset="1" stop-color="#1796ff" stop-opacity="0"/></linearGradient><path fill="url(#a)" d="M453 10h30v2h-30z"/><linearGradient id="b" gradientUnits="userSpaceOnUse" x1="452" y1="9" x2="934" y2="9" gradientTransform="rotate(180 467 11)"><stop offset="0" stop-color="#0b90ff"/><stop offset="1" stop-color="#1796ff" stop-opacity="0"/></linearGradient><path fill="url(#b)" d="M0 12h482v2H0z"/><linearGradient id="c" gradientUnits="userSpaceOnUse" x1="451" y1="7" x2="811" y2="7" gradientTransform="rotate(180 467 11)"><stop offset="0" stop-color="#088dff"/><stop offset="1" stop-color="#1796ff" stop-opacity="0"/></linearGradient><path fill="url(#c)" d="M123 14h360v2H123z"/><linearGradient id="d" gradientUnits="userSpaceOnUse" x1="451" y1="11" x2="811" y2="11" gradientTransform="rotate(180 467 11)"><stop offset="0" stop-color="#088dff"/><stop offset="1" stop-color="#1796ff" stop-opacity="0"/></linearGradient><path fill="url(#d)" d="M123 10h360v2H123z"/><linearGradient id="e" gradientUnits="userSpaceOnUse" x1="451" y1="7" x2="481" y2="7" gradientTransform="rotate(180 467 11)"><stop offset="0" stop-color="#0084ff"/><stop offset=".66" stop-color="#0c8eff" stop-opacity="0"/><stop offset="1" stop-color="#1796ff" stop-opacity="0"/></linearGradient><path fill="url(#e)" d="M453 14h30v2h-30z"/><g opacity=".12"><linearGradient id="f" gradientUnits="userSpaceOnUse" x1="492" y1="12.5" x2="448" y2="12.5"><stop offset="0" stop-color="#0084ff"/><stop offset=".66" stop-color="#0c8eff" stop-opacity="0"/><stop offset="1" stop-color="#0c8eff" stop-opacity="0"/></linearGradient><path d="M479.5 1.5c6.1 0 11 4.9 11 11s-4.9 11-11 11h-19c-6.1 0-11-4.9-11-11s4.9-11 11-11h19m0-1.5h-19C453.6 0 448 5.6 448 12.5S453.6 25 460.5 25h19c6.9 0 12.5-5.6 12.5-12.5S486.4 0 479.5 0z" fill="url(#f)"/></g><g opacity=".2"><linearGradient id="g" gradientUnits="userSpaceOnUse" x1="494" y1="12.5" x2="450" y2="12.5"><stop offset="0" stop-color="#0084ff"/><stop offset=".66" stop-color="#0c8eff" stop-opacity="0"/><stop offset="1" stop-color="#0c8eff" stop-opacity="0"/></linearGradient><path d="M481.5 1.5c6.1 0 11 4.9 11 11s-4.9 11-11 11h-19c-6.1 0-11-4.9-11-11s4.9-11 11-11h19m0-1.5h-19C455.6 0 450 5.6 450 12.5S455.6 25 462.5 25h19c6.9 0 12.5-5.6 12.5-12.5S488.4 0 481.5 0z" fill="url(#g)"/></g><g opacity=".4"><linearGradient id="h" gradientUnits="userSpaceOnUse" x1="496" y1="12.5" x2="452" y2="12.5"><stop offset="0" stop-color="#0084ff"/><stop offset=".66" stop-color="#0c8eff" stop-opacity="0"/><stop offset="1" stop-color="#0c8eff" stop-opacity="0"/></linearGradient><path d="M483.5 1.5c6.1 0 11 4.9 11 11s-4.9 11-11 11h-19c-6.1 0-11-4.9-11-11s4.9-11 11-11h19m0-1.5h-19C457.6 0 452 5.6 452 12.5S457.6 25 464.5 25h19c6.9 0 12.5-5.6 12.5-12.5S490.4 0 483.5 0z" fill="url(#h)"/></g><g opacity=".6"><linearGradient id="i" gradientUnits="userSpaceOnUse" x1="498" y1="12.5" x2="454" y2="12.5"><stop offset="0" stop-color="#0084ff"/><stop offset=".66" stop-color="#0c8eff" stop-opacity="0"/><stop offset="1" stop-color="#0c8eff" stop-opacity="0"/></linearGradient><path d="M485.5 1.5c6.1 0 11 4.9 11 11s-4.9 11-11 11h-19c-6.1 0-11-4.9-11-11s4.9-11 11-11h19m0-1.5h-19C459.6 0 454 5.6 454 12.5S459.6 25 466.5 25h19c6.9 0 12.5-5.6 12.5-12.5S492.4 0 485.5 0z" fill="url(#i)"/></g><linearGradient id="j" gradientUnits="userSpaceOnUse" x1="500" y1="12.5" x2="456" y2="12.5"><stop offset="0" stop-color="#0084ff"/><stop offset=".66" stop-color="#0c8eff" stop-opacity="0"/><stop offset="1" stop-color="#0c8eff" stop-opacity="0"/></linearGradient><path d="M487.5 1.5c6.1 0 11 4.9 11 11s-4.9 11-11 11h-19c-6.1 0-11-4.9-11-11s4.9-11 11-11h19m0-1.5h-19C461.6 0 456 5.6 456 12.5S461.6 25 468.5 25h19c6.9 0 12.5-5.6 12.5-12.5S494.4 0 487.5 0z" fill="url(#j)"/><linearGradient id="k" gradientUnits="userSpaceOnUse" x1="486" y1="19" x2="486" y2="7"><stop offset="0" stop-color="#0084ff"/><stop offset="1" stop-color="#1796ff"/></linearGradient><circle cx="486" cy="13" r="6" fill="url(#k)"/><g opacity=".3"><linearGradient id="l" gradientUnits="userSpaceOnUse" x1="486" y1="19" x2="486" y2="7"><stop offset="0" stop-opacity=".6"/><stop offset="1" stop-color="#fff" stop-opacity=".7"/></linearGradient><path d="M486 9c2.2 0 4 1.8 4 4s-1.8 4-4 4-4-1.8-4-4 1.8-4 4-4m0-2c-3.3 0-6 2.7-6 6s2.7 6 6 6 6-2.7 6-6-2.7-6-6-6z" fill="url(#l)"/></g></svg>