<svg version="1.1" id="Layer_1" xmlns="http://www.w3.org/2000/svg" x="0" y="0" viewBox="0 0 32 32" xml:space="preserve"><style/><linearGradient id="SVGID_1_" gradientUnits="userSpaceOnUse" x1="16" y1="1" x2="16" y2="31"><stop offset=".001" stop-color="#1eced0"/><stop offset=".5" stop-color="#8aa9f4"/><stop offset="1" stop-color="#6a44fb"/></linearGradient><path d="M25.6 27.8c-1.8 0-3.2-1.4-3.2-3.2 0-1.8 1.4-3.2 3.2-3.2 1.8 0 3.2 1.4 3.2 3.2 0 1.8-1.4 3.2-3.2 3.2m0-9.4c-3.5 0-6.4 2.8-6.4 6.3s2.9 6.3 6.4 6.3 6.4-2.8 6.4-6.3-2.9-6.3-6.4-6.3m-9.6-3c-1.7 0-3 1.3-3 3s1.4 3 3 3 3-1.3 3-3-1.3-3-3-3M6.4 27.8c-1.8 0-3.2-1.4-3.2-3.2 0-1.8 1.4-3.2 3.2-3.2 1.8 0 3.2 1.4 3.2 3.2 0 1.8-1.4 3.2-3.2 3.2m0-9.4c-3.5 0-6.4 2.8-6.4 6.3S2.9 31 6.4 31s6.4-2.8 6.4-6.3-2.9-6.3-6.4-6.3M16 4.2c1.8 0 3.2 1.4 3.2 3.2s-1.4 3.2-3.2 3.2c-1.8 0-3.2-1.4-3.2-3.2 0-1.8 1.4-3.2 3.2-3.2m0 9.4c3.5 0 6.4-2.8 6.4-6.3S19.5 1 16 1 9.6 3.8 9.6 7.3s2.9 6.3 6.4 6.3z" fill="url(#SVGID_1_)"/></svg>