<svg version="1.1" id="Layer_1" xmlns="http://www.w3.org/2000/svg" x="0" y="0" viewBox="0 0 32 32" xml:space="preserve"><style/><linearGradient id="SVGID_1_" gradientUnits="userSpaceOnUse" x1="16" y1="1.808" x2="16" y2="30.064"><stop offset=".007" stop-color="#1eced0"/><stop offset=".5" stop-color="#8aa9f4"/><stop offset=".998" stop-color="#6a44fb"/></linearGradient><path d="M29.4 9.2c.3-.7 1.1-3.4-.3-7.1 0 0-2.1-.7-6.9 2.8-2-.6-4.1-.7-6.3-.7-2.1 0-4.3.1-6.3.7C5 1.3 2.9 2.1 2.9 2.1c-1.4 3.7-.6 6.4-.3 7.1C1 11.1 0 13.4 0 16.4 0 27.5 6.7 30 16 30s16-2.5 16-13.6c0-3-1-5.3-2.6-7.2M16 27.9c-6.6 0-12-.3-12-7.2 0-1.6.8-3.2 2-4.4 2.1-2.1 5.8-1 9.9-1 4.1 0 7.8-1.1 9.9 1 1.3 1.3 2.1 2.8 2.1 4.4.1 6.8-5.3 7.2-11.9 7.2m-5-10.8c-1.3 0-2.4 1.7-2.4 3.8 0 2.1 1.1 3.9 2.4 3.9 1.3 0 2.4-1.7 2.4-3.9 0-2.1-1.1-3.8-2.4-3.8m10 0c-1.3 0-2.4 1.7-2.4 3.8 0 2.1 1.1 3.9 2.4 3.9 1.3 0 2.4-1.7 2.4-3.9 0-2.1-1-3.8-2.4-3.8z" fill="url(#SVGID_1_)"/></svg>