<svg xmlns="http://www.w3.org/2000/svg" viewBox="0 0 150 150"><path d="M17 49.5v51c0 4.9 2.6 9.5 6.9 11.9l44.2 25.5c4.3 2.5 9.5 2.5 13.8 0l44.2-25.5c4.3-2.5 6.9-7 6.9-11.9v-51c0-4.9-2.6-9.5-6.9-11.9L81.9 12.1c-4.3-2.5-9.5-2.5-13.8 0L23.9 37.6c-4.2 2.4-6.9 7-6.9 11.9z" fill="#141934"/><linearGradient id="a" gradientUnits="userSpaceOnUse" x1="75" y1="6.025" x2="75" y2="148.075" gradientTransform="matrix(1 0 0 -1 0 152)"><stop offset="0" stop-color="#66f"/><stop offset=".599" stop-color="#66f"/><stop offset="1" stop-color="#1c2a5f" stop-opacity="0"/></linearGradient><path d="M75 146c-2.6 0-5.1-.7-7.4-2l-48.7-28.1c-4.6-2.6-7.4-7.5-7.4-12.8V46.8c0-5.3 2.8-10.2 7.4-12.8L67.6 5.9c4.6-2.6 10.2-2.6 14.8 0L131.1 34c4.6 2.6 7.4 7.5 7.4 12.8v56.3c0 5.3-2.8 10.2-7.4 12.8L82.4 144c-2.3 1.4-4.8 2-7.4 2zM75 6c-2.2 0-4.4.6-6.4 1.7L19.9 35.8c-3.9 2.3-6.4 6.5-6.4 11.1v56.3c0 4.6 2.4 8.8 6.4 11.1l48.7 28.1c3.9 2.3 8.8 2.3 12.8 0l48.7-28.1c3.9-2.3 6.4-6.5 6.4-11.1V46.9c0-4.6-2.4-8.8-6.4-11.1L81.4 7.7C79.4 6.5 77.2 6 75 6z" fill="url(#a)"/><linearGradient id="b" gradientUnits="userSpaceOnUse" x1="75" y1="5.925" x2="75" y2="139.125" gradientTransform="matrix(1 0 0 -1 0 152)"><stop offset="0" stop-color="#66f"/><stop offset=".5" stop-color="#66f" stop-opacity=".5"/><stop offset="1" stop-color="#1c2a5f" stop-opacity="0"/></linearGradient><path d="M75 14.9c7.8 0 15.1 3 20.6 8.5l51.5 51.5-66.8 66.8c-1.4 1.4-3.3 2.2-5.3 2.2s-3.9-.8-5.3-2.2L2.8 75l51.5-51.5c5.6-5.5 12.9-8.6 20.7-8.6m0-2c-8 0-16 3-22 9.1L0 75l68.3 68.3c1.9 1.9 4.3 2.8 6.7 2.8s4.9-.9 6.7-2.8L150 75 97 22c-6-6-14-9.1-22-9.1z" fill="url(#b)"/><linearGradient id="c" gradientUnits="userSpaceOnUse" x1="75" y1="95.025" x2="75" y2="59.025" gradientTransform="matrix(1 0 0 -1 0 152)"><stop offset="0" stop-color="#1ab5e9"/><stop offset="1" stop-color="#0186fe"/></linearGradient><path d="M79.5 67.5h8.2l-8.2-8.2v8.2M69 57h12l9 9v18c0 1.7-1.3 3-3 3H69c-1.7 0-3-1.4-3-3V60c0-1.7 1.3-3 3-3m-6 6v27h24v3H63c-1.7 0-3-1.3-3-3V63h3z" fill="url(#c)"/></svg>