<svg xmlns="http://www.w3.org/2000/svg" viewBox="0 0 150 150"><path d="M17 49.5v51c0 4.9 2.6 9.5 6.9 11.9L68.1 138c4.3 2.5 9.5 2.5 13.8 0l44.2-25.5c4.3-2.5 6.9-7 6.9-11.9v-51c0-4.9-2.6-9.5-6.9-11.9L81.9 12.1c-4.3-2.5-9.5-2.5-13.8 0L23.9 37.6c-4.2 2.4-6.9 7-6.9 11.9z" fill="#141934"/><linearGradient id="a" gradientUnits="userSpaceOnUse" x1="75" y1="4" x2="75" y2="145.95" gradientTransform="matrix(1 0 0 -1 0 150)"><stop offset="0" stop-color="#26cbe0"/><stop offset=".6" stop-color="#25cadf"/><stop offset="1" stop-color="#1c2a5f" stop-opacity="0"/></linearGradient><path d="M75 146c-2.6 0-5.1-.7-7.4-2l-48.7-28.1c-4.6-2.6-7.4-7.5-7.4-12.8V46.9c0-5.3 2.8-10.2 7.4-12.8L67.6 6c4.6-2.6 10.2-2.6 14.8 0l48.7 28.1c4.6 2.6 7.4 7.5 7.4 12.8v56.3c0 5.3-2.8 10.2-7.4 12.8l-48.7 28.1c-2.3 1.3-4.8 1.9-7.4 1.9zM75 6c-2.2 0-4.4.6-6.4 1.7L19.9 35.8c-3.9 2.3-6.4 6.5-6.4 11.1v56.3c0 4.6 2.4 8.8 6.4 11.1l48.7 28.1c3.9 2.3 8.8 2.3 12.8 0l48.7-28.1c3.9-2.3 6.4-6.5 6.4-11.1V46.9c0-4.6-2.4-8.8-6.4-11.1L81.4 7.7C79.4 6.6 77.2 6 75 6z" fill="url(#a)"/><linearGradient id="b" gradientUnits="userSpaceOnUse" x1="75" y1="3.9" x2="75" y2="137.1" gradientTransform="matrix(1 0 0 -1 0 150)"><stop offset="0" stop-color="#26cbe0"/><stop offset=".5" stop-color="#25cadf" stop-opacity=".5"/><stop offset="1" stop-color="#1c2a5f" stop-opacity="0"/></linearGradient><path d="M75 14.9c7.8 0 15.1 3 20.6 8.5L147.2 75l-66.8 66.8c-1.4 1.4-3.3 2.2-5.3 2.2s-3.9-.8-5.3-2.2L2.8 75l51.5-51.5c5.6-5.5 12.9-8.6 20.7-8.6m0-2c-8 0-16 3-22 9.1L0 75l68.3 68.3c1.9 1.9 4.3 2.8 6.7 2.8s4.9-.9 6.7-2.8L150 75 97 22c-6-6-14-9.1-22-9.1z" fill="url(#b)"/><linearGradient id="c" gradientUnits="userSpaceOnUse" x1="75" y1="88" x2="75" y2="63" gradientTransform="matrix(1 0 0 -1 0 150)"><stop offset="0" stop-color="#1ab5e9"/><stop offset="1" stop-color="#0186fe"/></linearGradient><path d="M75 62c-3.2 0-5.8 2.6-5.8 5.8 0 3.2 2.6 5.8 5.8 5.8s5.8-2.6 5.8-5.8S78.2 62 75 62m-11.5 4.2c-2.7 0-4.8 2.2-4.8 4.8 0 2.7 2.2 4.8 4.8 4.8 1.7 0 3.2-.9 4-2.2-1.3-1.6-2.1-3.6-2.1-5.8 0-.4 0-.8.1-1.2-.7-.3-1.3-.4-2-.4m23 0c-.7 0-1.4.2-2 .4.1.4.1.8.1 1.2 0 2.2-.8 4.2-2.1 5.8.8 1.3 2.3 2.2 4 2.2 2.7 0 4.8-2.2 4.8-4.8 0-2.7-2.1-4.8-4.8-4.8M75 77.4c-3.8 0-11.5 1.9-11.5 5.8V87h23.1v-3.8c-.1-3.9-7.8-5.8-11.6-5.8m-14.1 1.9c-3.2.6-7.1 2.1-7.1 4.5V87h5.8v-3.8c0-1.5.6-2.9 1.3-3.9m28.2 0c.7 1.1 1.3 2.4 1.3 3.9V87h5.8v-3.2c0-2.5-3.9-4-7.1-4.5z" fill="url(#c)"/></svg>