<svg xmlns="http://www.w3.org/2000/svg" xmlns:xlink="http://www.w3.org/1999/xlink" viewBox="0 0 120 120"><defs><style>.a{fill:url(#a);}.b{fill:#232e64;}</style><linearGradient id="a" x1="60" y1="0.12703" x2="60" y2="119.39841" gradientUnits="userSpaceOnUse"><stop offset="0" stop-color="#26cbd3"/><stop offset="0.99193" stop-color="#664ce9"/></linearGradient></defs><title>icons_5</title><path class="a" d="M60,0C45.3681,8.71375,29.28357,14.257,11,15V60c0,23,23,48,49,60,26-12,49-37,49-60V15C90.71643,14.257,74.6319,8.71375,60,0Zm43,60c0,9.35828-4.7334,20.10022-13.32825,30.247a95.19519,95.19519,0,0,1-29.514,23.01867L60,113.18042l-.15778.0852A95.19519,95.19519,0,0,1,30.32825,90.247C21.7334,80.10022,17,69.35828,17,60V20.60913A107.39094,107.39094,0,0,0,60,6.9198a107.39094,107.39094,0,0,0,43,13.68933Z"/><path class="a" d="M60,40a34.10792,34.10792,0,0,1-16.33334,5V60c0,7.66666,7.66668,14,16.33334,18,8.66666-4,16.33334-10.33334,16.33334-18V45A34.10792,34.10792,0,0,1,60,40Z"/><path class="b" d="M60,14.69391v6.89447a82.48051,82.48051,0,0,0,31,9.99469V60c0,6.71912-3.45056,14.493-9.716,21.88977A70.32723,70.32723,0,0,1,60.083,98.59143L60,98.5484v6.75769C79.63263,96.24493,97,77.36731,97,60V26.02039A77.26509,77.26509,0,0,1,60,14.69391Z"/></svg>