<?xml version="1.0" encoding="utf-8"?>
<!-- Generator: Adobe Illustrator 23.0.1, SVG Export Plug-In . SVG Version: 6.00 Build 0)  -->
<svg version="1.1" id="Layer_1" xmlns="http://www.w3.org/2000/svg" xmlns:xlink="http://www.w3.org/1999/xlink" x="0px" y="0px"
	 viewBox="0 0 500 25" style="enable-background:new 0 0 500 25;" xml:space="preserve">
<style type="text/css">
	.st0{fill:url(#SVGID_1_);}
	.st1{fill:url(#SVGID_2_);}
	.st2{fill:url(#SVGID_3_);}
	.st3{fill:url(#SVGID_4_);}
	.st4{fill:url(#SVGID_5_);}
	.st5{opacity:0.12;}
	.st6{fill:url(#SVGID_6_);}
	.st7{opacity:0.2;}
	.st8{fill:url(#SVGID_7_);}
	.st9{opacity:0.4;}
	.st10{fill:url(#SVGID_8_);}
	.st11{opacity:0.6;}
	.st12{fill:url(#SVGID_9_);}
	.st13{fill:url(#SVGID_10_);}
	.st14{fill:url(#SVGID_11_);}
	.st15{opacity:0.3;}
	.st16{fill:url(#SVGID_12_);}
</style>
<g>
	
		<linearGradient id="SVGID_1_" gradientUnits="userSpaceOnUse" x1="451" y1="11" x2="481" y2="11" gradientTransform="matrix(-1 0 0 -1 934 22)">
		<stop  offset="0" style="stop-color:#0084FF"/>
		<stop  offset="0.66" style="stop-color:#0C8EFF;stop-opacity:0"/>
		<stop  offset="1" style="stop-color:#1796FF;stop-opacity:0"/>
	</linearGradient>
	<rect x="453" y="10" class="st0" width="30" height="2"/>
</g>
<g>
	
		<linearGradient id="SVGID_2_" gradientUnits="userSpaceOnUse" x1="452" y1="9" x2="934" y2="9" gradientTransform="matrix(-1 0 0 -1 934 22)">
		<stop  offset="0" style="stop-color:#0B90FF"/>
		<stop  offset="1" style="stop-color:#1796FF;stop-opacity:0"/>
	</linearGradient>
	<rect x="0" y="12" class="st1" width="482" height="2"/>
</g>
<g>
	
		<linearGradient id="SVGID_3_" gradientUnits="userSpaceOnUse" x1="451" y1="7" x2="811" y2="7" gradientTransform="matrix(-1 0 0 -1 934 22)">
		<stop  offset="0" style="stop-color:#088DFF"/>
		<stop  offset="1" style="stop-color:#1796FF;stop-opacity:0"/>
	</linearGradient>
	<rect x="123" y="14" class="st2" width="360" height="2"/>
</g>
<g>
	
		<linearGradient id="SVGID_4_" gradientUnits="userSpaceOnUse" x1="451" y1="11" x2="811" y2="11" gradientTransform="matrix(-1 0 0 -1 934 22)">
		<stop  offset="0" style="stop-color:#088DFF"/>
		<stop  offset="1" style="stop-color:#1796FF;stop-opacity:0"/>
	</linearGradient>
	<rect x="123" y="10" class="st3" width="360" height="2"/>
</g>
<g>
	
		<linearGradient id="SVGID_5_" gradientUnits="userSpaceOnUse" x1="451" y1="7" x2="481" y2="7" gradientTransform="matrix(-1 0 0 -1 934 22)">
		<stop  offset="0" style="stop-color:#0084FF"/>
		<stop  offset="0.66" style="stop-color:#0C8EFF;stop-opacity:0"/>
		<stop  offset="1" style="stop-color:#1796FF;stop-opacity:0"/>
	</linearGradient>
	<rect x="453" y="14" class="st4" width="30" height="2"/>
</g>
<g>
	<g class="st5">
		<linearGradient id="SVGID_6_" gradientUnits="userSpaceOnUse" x1="492" y1="12.5" x2="448" y2="12.5">
			<stop  offset="0" style="stop-color:#0084FF"/>
			<stop  offset="0.66" style="stop-color:#0C8EFF;stop-opacity:0"/>
			<stop  offset="1" style="stop-color:#0C8EFF;stop-opacity:0"/>
		</linearGradient>
		<path class="st6" d="M479.5,1.5c6.1,0,11,4.9,11,11c0,6.1-4.9,11-11,11h-19c-6.1,0-11-4.9-11-11c0-6.1,4.9-11,11-11H479.5
			 M479.5,0h-19C453.6,0,448,5.6,448,12.5v0c0,6.9,5.6,12.5,12.5,12.5h19c6.9,0,12.5-5.6,12.5-12.5v0C492,5.6,486.4,0,479.5,0
			L479.5,0z"/>
	</g>
</g>
<g>
	<g class="st7">
		<linearGradient id="SVGID_7_" gradientUnits="userSpaceOnUse" x1="494" y1="12.5" x2="450" y2="12.5">
			<stop  offset="0" style="stop-color:#0084FF"/>
			<stop  offset="0.66" style="stop-color:#0C8EFF;stop-opacity:0"/>
			<stop  offset="1" style="stop-color:#0C8EFF;stop-opacity:0"/>
		</linearGradient>
		<path class="st8" d="M481.5,1.5c6.1,0,11,4.9,11,11c0,6.1-4.9,11-11,11h-19c-6.1,0-11-4.9-11-11c0-6.1,4.9-11,11-11H481.5
			 M481.5,0h-19C455.6,0,450,5.6,450,12.5v0c0,6.9,5.6,12.5,12.5,12.5h19c6.9,0,12.5-5.6,12.5-12.5v0C494,5.6,488.4,0,481.5,0
			L481.5,0z"/>
	</g>
</g>
<g>
	<g class="st9">
		<linearGradient id="SVGID_8_" gradientUnits="userSpaceOnUse" x1="496" y1="12.5" x2="452" y2="12.5">
			<stop  offset="0" style="stop-color:#0084FF"/>
			<stop  offset="0.66" style="stop-color:#0C8EFF;stop-opacity:0"/>
			<stop  offset="1" style="stop-color:#0C8EFF;stop-opacity:0"/>
		</linearGradient>
		<path class="st10" d="M483.5,1.5c6.1,0,11,4.9,11,11c0,6.1-4.9,11-11,11h-19c-6.1,0-11-4.9-11-11c0-6.1,4.9-11,11-11H483.5
			 M483.5,0h-19C457.6,0,452,5.6,452,12.5v0c0,6.9,5.6,12.5,12.5,12.5h19c6.9,0,12.5-5.6,12.5-12.5v0C496,5.6,490.4,0,483.5,0
			L483.5,0z"/>
	</g>
</g>
<g>
	<g class="st11">
		<linearGradient id="SVGID_9_" gradientUnits="userSpaceOnUse" x1="498" y1="12.5" x2="454" y2="12.5">
			<stop  offset="0" style="stop-color:#0084FF"/>
			<stop  offset="0.66" style="stop-color:#0C8EFF;stop-opacity:0"/>
			<stop  offset="1" style="stop-color:#0C8EFF;stop-opacity:0"/>
		</linearGradient>
		<path class="st12" d="M485.5,1.5c6.1,0,11,4.9,11,11c0,6.1-4.9,11-11,11h-19c-6.1,0-11-4.9-11-11c0-6.1,4.9-11,11-11H485.5
			 M485.5,0h-19C459.6,0,454,5.6,454,12.5v0c0,6.9,5.6,12.5,12.5,12.5h19c6.9,0,12.5-5.6,12.5-12.5v0C498,5.6,492.4,0,485.5,0
			L485.5,0z"/>
	</g>
</g>
<g>
	<g>
		<linearGradient id="SVGID_10_" gradientUnits="userSpaceOnUse" x1="500" y1="12.5" x2="456" y2="12.5">
			<stop  offset="0" style="stop-color:#0084FF"/>
			<stop  offset="0.66" style="stop-color:#0C8EFF;stop-opacity:0"/>
			<stop  offset="1" style="stop-color:#0C8EFF;stop-opacity:0"/>
		</linearGradient>
		<path class="st13" d="M487.5,1.5c6.1,0,11,4.9,11,11c0,6.1-4.9,11-11,11h-19c-6.1,0-11-4.9-11-11c0-6.1,4.9-11,11-11H487.5
			 M487.5,0h-19C461.6,0,456,5.6,456,12.5v0c0,6.9,5.6,12.5,12.5,12.5h19c6.9,0,12.5-5.6,12.5-12.5v0C500,5.6,494.4,0,487.5,0
			L487.5,0z"/>
	</g>
</g>
<g>
	<linearGradient id="SVGID_11_" gradientUnits="userSpaceOnUse" x1="486" y1="19" x2="486" y2="7">
		<stop  offset="0" style="stop-color:#0084FF"/>
		<stop  offset="1" style="stop-color:#1796FF"/>
	</linearGradient>
	<circle class="st14" cx="486" cy="13" r="6"/>
	<g class="st15">
		<linearGradient id="SVGID_12_" gradientUnits="userSpaceOnUse" x1="486" y1="19" x2="486" y2="7">
			<stop  offset="0" style="stop-color:#000000;stop-opacity:0.6"/>
			<stop  offset="1" style="stop-color:#FFFFFF;stop-opacity:0.7"/>
		</linearGradient>
		<path class="st16" d="M486,9c2.2,0,4,1.8,4,4s-1.8,4-4,4s-4-1.8-4-4S483.8,9,486,9 M486,7c-3.3,0-6,2.7-6,6s2.7,6,6,6s6-2.7,6-6
			S489.3,7,486,7L486,7z"/>
	</g>
</g>
</svg>
