<svg xmlns="http://www.w3.org/2000/svg" xmlns:xlink="http://www.w3.org/1999/xlink" viewBox="0 0 120 120"><defs><style>.a{fill:url(#a);}.b{fill:url(#b);}.c{fill:url(#c);}.d{fill:#232e64;}</style><linearGradient id="a" x1="60" y1="0.90318" x2="60" y2="96.67731" gradientUnits="userSpaceOnUse"><stop offset="0" stop-color="#26cbd3"/><stop offset="0.99193" stop-color="#664ce9"/></linearGradient><linearGradient id="b" x1="100" y1="0.90318" x2="100" y2="96.67731" xlink:href="#a"/><linearGradient id="c" x1="20" y1="0.90318" x2="20" y2="96.67731" xlink:href="#a"/></defs><title>icons_1</title><path class="a" d="M60,1A15,15,0,1,0,75,16,15,15,0,0,0,60,1Zm0,24a9,9,0,1,1,9-9A9,9,0,0,1,60,25Z"/><path class="b" d="M100,68.00385a15,15,0,1,0,15,15A15,15,0,0,0,100,68.00385Zm0,24a9,9,0,1,1,9-9A9,9,0,0,1,100,92.00385Z"/><path class="c" d="M20,68.00385a15,15,0,1,0,15,15A15,15,0,0,0,20,68.00385Zm0,24a9,9,0,1,1,9-9A9,9,0,0,1,20,92.00385Z"/><circle class="a" cx="60" cy="60" r="15"/><circle class="a" cx="60" cy="60" r="15"/><path class="d" d="M100,23a15,15,0,1,0,15,15A15,15,0,0,0,100,23Zm0,24a9,9,0,1,1,9-9A9,9,0,0,1,100,47Z"/><path class="d" d="M20,23A15,15,0,1,0,35,38,15,15,0,0,0,20,23Zm0,24a9,9,0,1,1,9-9A9,9,0,0,1,20,47Z"/><path class="d" d="M60,89a15,15,0,1,0,15,15A15,15,0,0,0,60,89Zm0,24a9,9,0,1,1,9-9A9,9,0,0,1,60,113Z"/><path class="d" d="M37.86969,31.59558l7.152-3.93365a18.93867,18.93867,0,0,1-2.89142-5.25745l-7.152,3.93359A18.93816,18.93816,0,0,1,37.86969,31.59558Z"/><path class="d" d="M74.97827,27.66193l7.152,3.93365a18.93816,18.93816,0,0,1,2.89142-5.25751l-7.152-3.93359A18.93867,18.93867,0,0,1,74.97827,27.66193Z"/><path class="d" d="M44.63452,92.85583l-6.70563-3.60925A18.92592,18.92592,0,0,1,35.08136,94.528l6.8269,3.67432A18.9082,18.9082,0,0,1,44.63452,92.85583Z"/><path class="d" d="M100,57a19.04227,19.04227,0,0,1-3-.25946v7.52277a17.47344,17.47344,0,0,1,6,0V56.74054A19.04227,19.04227,0,0,1,100,57Z"/><path class="d" d="M100,57a19.04227,19.04227,0,0,1-3-.25946v7.52277a17.47344,17.47344,0,0,1,6,0V56.74054A19.04227,19.04227,0,0,1,100,57Z"/><path class="d" d="M74.837,71.85083l7.51794,4.13489a18.97735,18.97735,0,0,1,3.068-5.16034l-7.63452-4.199A18.9522,18.9522,0,0,1,74.837,71.85083Z"/><path class="d" d="M42.21155,66.6264l-7.63452,4.199a18.97735,18.97735,0,0,1,3.068,5.16034L45.163,71.85083A18.9522,18.9522,0,0,1,42.21155,66.6264Z"/><path class="d" d="M60,34.51374a19.04108,19.04108,0,0,1-3-.25947v7.503a17.47344,17.47344,0,0,1,6,0v-7.503A19.04108,19.04108,0,0,1,60,34.51374Z"/></svg>