<?xml version="1.0" encoding="utf-8"?>
<!-- Generator: Adobe Illustrator 23.0.1, SVG Export Plug-In . SVG Version: 6.00 Build 0)  -->
<svg version="1.1" id="Layer_1" xmlns="http://www.w3.org/2000/svg" xmlns:xlink="http://www.w3.org/1999/xlink" x="0px" y="0px"
	 viewBox="0 0 80 80" style="enable-background:new 0 0 80 80;" xml:space="preserve">
<style type="text/css">
	.st0{fill:#1F2751;}
</style>
<g id="gpu">
</g>
<g id="macos">
	<path class="st0" d="M51.5,14c2.9-3.2,4.5-7.6,4.2-12C51.8,2.3,47,4.5,44.1,7.7c-2.6,2.8-4.8,7.3-4.2,11.7
		C44.1,19.7,48.9,17.2,51.5,14L51.5,14z"/>
	<path class="st0" d="M61.4,42.5c0-9.5,8-14.2,8.3-14.6c-4.5-6.6-11.8-7.3-14.4-7.6c-6.1-0.6-11.8,3.5-15.1,3.5
		c-3.2,0-8-3.5-12.8-3.2c-6.7,0-12.8,3.5-16.3,9.5C4.4,41.6,9.6,59,16.3,68.5c3.2,4.7,7.4,9.8,12.5,9.5s6.7-3.2,12.8-3.2
		S49.3,78,54.4,78c5.4,0,8.6-4.7,12.2-9.2C70.4,63.4,72,58.4,72,58C72,57.7,61.4,53.9,61.4,42.5L61.4,42.5z"/>
</g>
<g id="linux">
</g>
<g id="windows">
</g>
</svg>
