<svg xmlns="http://www.w3.org/2000/svg" xmlns:xlink="http://www.w3.org/1999/xlink" viewBox="0 0 120 120"><defs><style>.a{fill:url(#a);}.b{fill:url(#b);}.c{fill:#232e64;}</style><linearGradient id="a" x1="49.70682" y1="20.06515" x2="49.70682" y2="112.75022" gradientUnits="userSpaceOnUse"><stop offset="0" stop-color="#26cbd3"/><stop offset="0.99193" stop-color="#664ce9"/></linearGradient><linearGradient id="b" x1="49.35341" y1="20.06515" x2="49.35341" y2="112.75022" xlink:href="#a"/></defs><title>icons_4</title><path class="a" d="M49.70682,20.2a22,22,0,1,0,22,22A22,22,0,0,0,49.70682,20.2Zm0,38a16,16,0,1,1,16-16A16,16,0,0,1,49.70682,58.2Z"/><path class="b" d="M48.70682,75.2c31.01663,0,42.56653,13.30178,44,16.56324v17.4283L6,109.06946V92.26088c.70419-1.39016,3.4104-5.28936,9.41916-9.03447C26.06277,76.5925,39.39594,75.2,48.70682,75.2m0-6C11.70682,69.2,0,88.70125,0,91.45064V115.061l98.70682.139v-24c0-4-13-22-50-22Z"/><path class="c" d="M93,25.12642a21.99882,21.99882,0,0,0-41.61188-9.96491,26.91615,26.91615,0,0,1,6.30536,1.0835,15.99679,15.99679,0,1,1,19.2143,23.74121c.05548.70691.09222,1.41907.09222,2.1402a27.18057,27.18057,0,0,1-.33771,4.26074A22.00669,22.00669,0,0,0,93,25.12642Z"/><path class="c" d="M75.02893,52.25386a26.95022,26.95022,0,0,1-3.2995,5.89575c29.708.48651,40.86426,13.34039,42.27057,16.54V92.11793l-9-.01269V98.1053l15,.02112v-24C120,70.31392,108.173,53.79524,75.02893,52.25386Z"/></svg>