<?xml version="1.0" encoding="utf-8"?>
<!-- Generator: Adobe Illustrator 23.0.1, SVG Export Plug-In . SVG Version: 6.00 Build 0)  -->
<svg version="1.1" id="Layer_1" xmlns="http://www.w3.org/2000/svg" xmlns:xlink="http://www.w3.org/1999/xlink" x="0px" y="0px"
	 viewBox="0 0 32 32" style="enable-background:new 0 0 32 32;" xml:space="preserve">
<style type="text/css">
	.st0{fill:url(#SVGID_1_);}
	.st1{fill:url(#SVGID_2_);}
	.st2{fill:url(#SVGID_3_);}
	.st3{fill:url(#SVGID_4_);}
	.st4{fill:url(#SVGID_5_);}
</style>
<linearGradient id="SVGID_1_" gradientUnits="userSpaceOnUse" x1="16" y1="1.5" x2="16" y2="30.5">
	<stop  offset="1.044321e-03" style="stop-color:#1ECED0"/>
	<stop  offset="0.5" style="stop-color:#8AA9F4"/>
	<stop  offset="1" style="stop-color:#6A44FB"/>
</linearGradient>
<path class="st0" d="M16,1.5c1.6,0,2.9,1.3,2.9,2.9c0,1.1-0.6,2-1.5,2.5v1.8h1.5c5.6,0,10.2,4.5,10.2,10.1l0,0h1.5
	c0.8,0,1.5,0.6,1.5,1.5v4.4c0,0.8-0.7,1.4-1.5,1.4h-1.5v1.5c0,1.6-1.3,2.9-2.9,2.9H5.8c-1.6,0-2.9-1.3-2.9-2.9v-1.5H1.5
	c-0.8,0-1.5-0.6-1.5-1.4v-4.4c0-0.8,0.7-1.5,1.5-1.5h1.5c0-5.6,4.6-10.1,10.2-10.1h1.5V6.9c-0.9-0.5-1.5-1.4-1.5-2.5
	C13.1,2.8,14.4,1.5,16,1.5 M9.5,17.5c-2,0-3.6,1.6-3.6,3.6s1.6,3.6,3.6,3.6s3.6-1.6,3.6-3.6S11.5,17.5,9.5,17.5 M22.5,17.5
	c-2,0-3.6,1.6-3.6,3.6s1.6,3.6,3.6,3.6c2,0,3.6-1.6,3.6-3.6S24.6,17.5,22.5,17.5z"/>
</svg>
