<?xml version="1.0" encoding="utf-8"?>
<!-- Generator: Adobe Illustrator 23.0.1, SVG Export Plug-In . SVG Version: 6.00 Build 0)  -->
<svg version="1.1" id="Layer_1" xmlns="http://www.w3.org/2000/svg" xmlns:xlink="http://www.w3.org/1999/xlink" x="0px" y="0px"
	 viewBox="0 0 32 32" style="enable-background:new 0 0 32 32;" xml:space="preserve">
<style type="text/css">
	.st0{fill:url(#SVGID_1_);}
	.st1{fill:url(#SVGID_2_);}
	.st2{fill:url(#SVGID_3_);}
	.st3{fill:url(#SVGID_4_);}
	.st4{fill:url(#SVGID_5_);}
</style>
<linearGradient id="SVGID_1_" gradientUnits="userSpaceOnUse" x1="15.8111" y1="5.506" x2="16.019" y2="26.5392">
	<stop  offset="1.044321e-03" style="stop-color:#1ECED0"/>
	<stop  offset="0.5" style="stop-color:#8AA9F4"/>
	<stop  offset="1" style="stop-color:#6A44FB"/>
</linearGradient>
<path class="st0" d="M21.8,17.5c-0.4,0-0.9,0-1.4,0.1c1.7,1.3,2.9,2.9,2.9,5.2v3.8H32v-3.8C32,19.3,25.2,17.5,21.8,17.5 M10.2,17.5
	C6.8,17.5,0,19.3,0,22.8v3.8h20.4v-3.8C20.4,19.3,13.6,17.5,10.2,17.5 M10.2,14.5c2.4,0,4.4-2,4.4-4.5s-2-4.5-4.4-4.5
	s-4.4,2-4.4,4.5S7.8,14.5,10.2,14.5 M21.8,14.5c2.4,0,4.4-2,4.4-4.5s-2-4.5-4.4-4.5s-4.4,2-4.4,4.5S19.4,14.5,21.8,14.5z"/>
</svg>
