<?xml version="1.0" encoding="utf-8"?>
<!-- Generator: Adobe Illustrator 23.0.1, SVG Export Plug-In . SVG Version: 6.00 Build 0)  -->
<svg version="1.1" id="Layer_1" xmlns="http://www.w3.org/2000/svg" xmlns:xlink="http://www.w3.org/1999/xlink" x="0px" y="0px"
	 viewBox="0 0 32 32" style="enable-background:new 0 0 32 32;" xml:space="preserve">
<style type="text/css">
	.st0{fill:url(#SVGID_1_);}
	.st1{fill:url(#SVGID_2_);}
	.st2{fill:url(#SVGID_3_);}
	.st3{fill:url(#SVGID_4_);}
	.st4{fill:url(#SVGID_5_);}
	.st5{fill:url(#SVGID_6_);}
	.st6{fill:url(#SVGID_7_);}
	.st7{fill:url(#SVGID_8_);}
	.st8{fill:url(#SVGID_9_);}
</style>
<linearGradient id="SVGID_1_" gradientUnits="userSpaceOnUse" x1="16" y1="0" x2="16" y2="32">
	<stop  offset="0" style="stop-color:#1ECED0"/>
	<stop  offset="0.5" style="stop-color:#8AA9F4"/>
	<stop  offset="1" style="stop-color:#6A44FB"/>
</linearGradient>
<path class="st0" d="M16,0C8.3,0,2,3.2,2,7.1s6.3,7.1,14,7.1S30,11,30,7.1S23.7,0,16,0 M2,10.7V16c0,3.9,6.3,7.1,14,7.1
	s14-3.2,14-7.1v-5.3c0,3.9-6.3,7.1-14,7.1S2,14.6,2,10.7 M2,19.6v5.3C2,28.8,8.3,32,16,32s14-3.2,14-7.1v-5.3c0,3.9-6.3,7.1-14,7.1
	S2,23.5,2,19.6z"/>
</svg>
