<?xml version="1.0" encoding="utf-8"?>
<!-- Generator: Adobe Illustrator 23.0.1, SVG Export Plug-In . SVG Version: 6.00 Build 0)  -->
<svg version="1.1" id="Layer_1" xmlns="http://www.w3.org/2000/svg" xmlns:xlink="http://www.w3.org/1999/xlink" x="0px" y="0px"
	 viewBox="0 0 32 32" style="enable-background:new 0 0 32 32;" xml:space="preserve">
<style type="text/css">
	.st0{fill:url(#SVGID_1_);}
	.st1{fill:url(#SVGID_2_);}
	.st2{fill:url(#SVGID_3_);}
	.st3{fill:url(#SVGID_4_);}
	.st4{fill:url(#SVGID_5_);}
</style>
<linearGradient id="SVGID_1_" gradientUnits="userSpaceOnUse" x1="16" y1="1" x2="16" y2="31">
	<stop  offset="1.044321e-03" style="stop-color:#1ECED0"/>
	<stop  offset="0.5" style="stop-color:#8AA9F4"/>
	<stop  offset="1" style="stop-color:#6A44FB"/>
</linearGradient>
<path class="st0" d="M25.6,27.8c-1.8,0-3.2-1.4-3.2-3.2c0-1.8,1.4-3.2,3.2-3.2c1.8,0,3.2,1.4,3.2,3.2C28.8,26.4,27.4,27.8,25.6,27.8
	 M25.6,18.4c-3.5,0-6.4,2.8-6.4,6.3s2.9,6.3,6.4,6.3s6.4-2.8,6.4-6.3S29.1,18.4,25.6,18.4 M16,15.4c-1.7,0-3,1.3-3,3s1.4,3,3,3
	s3-1.3,3-3S17.7,15.4,16,15.4 M6.4,27.8c-1.8,0-3.2-1.4-3.2-3.2c0-1.8,1.4-3.2,3.2-3.2c1.8,0,3.2,1.4,3.2,3.2
	C9.6,26.4,8.2,27.8,6.4,27.8 M6.4,18.4c-3.5,0-6.4,2.8-6.4,6.3S2.9,31,6.4,31s6.4-2.8,6.4-6.3S9.9,18.4,6.4,18.4 M16,4.2
	c1.8,0,3.2,1.4,3.2,3.2s-1.4,3.2-3.2,3.2c-1.8,0-3.2-1.4-3.2-3.2C12.8,5.6,14.2,4.2,16,4.2 M16,13.6c3.5,0,6.4-2.8,6.4-6.3
	S19.5,1,16,1S9.6,3.8,9.6,7.3S12.5,13.6,16,13.6z"/>
</svg>
