<?xml version="1.0" encoding="utf-8"?>
<!-- Generator: Adobe Illustrator 23.0.1, SVG Export Plug-In . SVG Version: 6.00 Build 0)  -->
<svg version="1.1" id="Layer_1" xmlns="http://www.w3.org/2000/svg" xmlns:xlink="http://www.w3.org/1999/xlink" x="0px" y="0px"
	 viewBox="0 0 1920 600" style="enable-background:new 0 0 1920 600;" xml:space="preserve">
<style type="text/css">
	.st0{fill:url(#SVGID_1_);}
	.st1{fill:url(#SVGID_2_);}
	.st2{fill:url(#SVGID_3_);}
	.st3{fill:url(#SVGID_4_);}
	.st4{fill:url(#SVGID_5_);}
	.st5{fill:url(#SVGID_6_);}
	.st6{fill:url(#SVGID_7_);}
	.st7{fill:url(#SVGID_8_);}
	.st8{fill:url(#SVGID_9_);}
	.st9{fill:url(#SVGID_10_);}
	.st10{fill:url(#SVGID_11_);}
	.st11{fill:url(#SVGID_12_);}
	.st12{fill:url(#SVGID_13_);}
	.st13{fill:url(#SVGID_14_);}
	.st14{fill:url(#SVGID_15_);}
	.st15{fill:url(#SVGID_16_);}
	.st16{fill:url(#SVGID_17_);}
	.st17{fill:url(#SVGID_18_);}
	.st18{fill:url(#SVGID_19_);}
	.st19{fill:url(#SVGID_20_);}
	.st20{fill:url(#SVGID_21_);}
	.st21{fill:url(#SVGID_22_);}
	.st22{fill:url(#SVGID_23_);}
	.st23{fill:url(#SVGID_24_);}
	.st24{fill:url(#SVGID_25_);}
	.st25{fill:url(#SVGID_26_);}
	.st26{fill:url(#SVGID_27_);}
	.st27{fill:url(#SVGID_28_);}
	.st28{fill:url(#SVGID_29_);}
	.st29{fill:url(#SVGID_30_);}
	.st30{fill:url(#SVGID_31_);}
	.st31{fill:url(#SVGID_32_);}
	.st32{fill:url(#SVGID_33_);}
	.st33{fill:url(#SVGID_34_);}
	.st34{fill:url(#SVGID_35_);}
	.st35{fill:url(#SVGID_36_);}
	.st36{fill:url(#SVGID_37_);}
	.st37{fill:url(#SVGID_38_);}
	.st38{fill:url(#SVGID_39_);}
	.st39{fill:url(#SVGID_40_);}
	.st40{fill:url(#SVGID_41_);}
	.st41{fill:url(#SVGID_42_);}
	.st42{fill:url(#SVGID_43_);}
	.st43{fill:url(#SVGID_44_);}
	.st44{fill:url(#SVGID_45_);}
	.st45{fill:url(#SVGID_46_);}
	.st46{fill:url(#SVGID_47_);}
	.st47{fill:url(#SVGID_48_);}
	.st48{fill:url(#SVGID_49_);}
	.st49{fill:url(#SVGID_50_);}
	.st50{fill:url(#SVGID_51_);}
	.st51{fill:url(#SVGID_52_);}
	.st52{fill:url(#SVGID_53_);}
	.st53{fill:url(#SVGID_54_);}
	.st54{fill:url(#SVGID_55_);}
</style>
<radialGradient id="SVGID_1_" cx="961.1509" cy="290.1902" r="702.2781" gradientTransform="matrix(1 0 0 0.6267 0 -50.7514)" gradientUnits="userSpaceOnUse">
	<stop  offset="0" style="stop-color:#263867"/>
	<stop  offset="1" style="stop-color:#141935"/>
</radialGradient>
<polygon class="st0" points="-10.5,260 152.3,256.2 152.1,256.3 533.9,2.4 534.2,2.2 534.7,2.3 1132.8,207.8 1132,207.8 
	1379.8,110.5 1380.1,110.4 1380.5,110.6 1649,244.6 1648.6,244.6 1932.8,173.8 1648.9,245 1648.7,245.1 1648.5,245 1379.7,111.1 
	1380.4,111.1 1132.8,208.5 1132.4,208.6 1132.1,208.5 534.1,2.9 534.8,2.9 152.4,256.5 152.4,256.5 152.3,256.5 "/>
<radialGradient id="SVGID_2_" cx="961.1922" cy="305.2749" r="701.9189" gradientTransform="matrix(1 0 0 0.6267 0 -50.7514)" gradientUnits="userSpaceOnUse">
	<stop  offset="0" style="stop-color:#263867"/>
	<stop  offset="1" style="stop-color:#141935"/>
</radialGradient>
<path class="st1" d="M-10.3,268.5l158.7-6.3l-0.1,0L526.6,12.9l0.3-0.2l0.4,0.1L680.6,59l76.6,23.1l19.2,5.8l18.6,6.4l37.1,12.9
	l296.6,103.1l-0.7,0l249.2-85.6l0.3-0.1l0.3,0.2l32.7,16.1l4.1,2l4.3,1.9l8.6,3.7l17.1,7.5l68.6,29.9l68.6,29.9
	c5.8,2.4,11.2,5.2,16.7,7.8l16.5,8l32.9,16l-0.4,0l285.3-61.5l-285,62l-0.2,0l-0.2-0.1l-32.9-16l-16.5-8c-5.5-2.6-10.9-5.4-16.7-7.8
	l-68.6-29.9l-68.6-29.9l-17.2-7.5l-8.6-3.7l-4.3-1.9l-4.1-2l-32.8-16.1l0.6,0l-249,85.8l-0.4,0.1l-0.4-0.1L831.3,108l-37.1-12.9
	l-18.5-6.4l-19.1-5.8L680,59.8L526.8,13.4l0.7-0.1l-378.9,249l-0.1,0l-0.1,0L-10.3,268.5z"/>
<radialGradient id="SVGID_3_" cx="961.2333" cy="320.3596" r="701.5615" gradientTransform="matrix(1 0 0 0.6267 0 -50.7514)" gradientUnits="userSpaceOnUse">
	<stop  offset="0" style="stop-color:#263867"/>
	<stop  offset="1" style="stop-color:#141935"/>
</radialGradient>
<polygon class="st2" points="-10.1,276.9 144.6,268.1 144.5,268.1 519.4,23.4 519.6,23.2 520,23.3 771.4,88.8 771.5,88.8 
	771.5,88.8 1124.4,212.9 1123.8,212.9 1374.3,138.9 1374.7,138.8 1374.9,138.9 1412.3,157.2 1412.2,157.1 1584.9,221.7 1585,221.7 
	1585,221.7 1646.5,250.8 1646.1,250.7 1932.5,198.5 1646.3,251.2 1646.1,251.2 1646,251.2 1584.4,222.1 1584.5,222.1 1411.7,157.7 
	1411.6,157.7 1411.6,157.7 1374.2,139.5 1374.8,139.5 1124.4,213.6 1124,213.7 1123.7,213.6 770.7,89.6 770.8,89.6 519.6,23.9 
	520.2,23.9 144.8,268.3 144.8,268.3 144.7,268.3 "/>
<radialGradient id="SVGID_4_" cx="961.2744" cy="335.4447" r="701.206" gradientTransform="matrix(1 0 0 0.6267 0 -50.7514)" gradientUnits="userSpaceOnUse">
	<stop  offset="0" style="stop-color:#263867"/>
	<stop  offset="1" style="stop-color:#141935"/>
</radialGradient>
<polygon class="st3" points="-9.9,285.3 140.8,274 140.7,274 512.1,33.9 512.3,33.7 512.7,33.8 766,89.6 766.1,89.6 766.1,89.6 
	1120.3,215.5 1119.6,215.4 1371.6,153.1 1371.9,153 1372.2,153.1 1410,171.4 1409.9,171.3 1582.6,225.1 1582.7,225.1 1582.7,225.1 
	1645.2,253.9 1644.8,253.8 1932.4,210.8 1645,254.3 1644.8,254.3 1644.7,254.2 1582.2,225.5 1582.2,225.5 1409.4,171.9 
	1409.3,171.9 1409.3,171.8 1371.5,153.7 1372,153.7 1120.2,216.2 1119.8,216.3 1119.5,216.2 765.4,90.3 765.5,90.4 512.3,34.4 
	513,34.3 141,274.2 140.9,274.2 140.9,274.2 "/>
<radialGradient id="SVGID_5_" cx="961.3155" cy="350.5297" r="700.8521" gradientTransform="matrix(1 0 0 0.6267 0 -50.7514)" gradientUnits="userSpaceOnUse">
	<stop  offset="0" style="stop-color:#263867"/>
	<stop  offset="1" style="stop-color:#141935"/>
</radialGradient>
<polygon class="st4" points="-9.6,293.7 137,279.9 136.9,280 504.8,44.3 505,44.2 505.4,44.2 760.6,90.3 760.6,90.3 760.7,90.4 
	1116.1,218 1115.5,218 1368.9,167.3 1369.2,167.2 1369.4,167.3 1407.6,185.5 1407.5,185.5 1580.3,228.4 1580.4,228.5 1580.4,228.5 
	1643.9,256.9 1643.6,256.9 1932.3,223.1 1643.7,257.4 1643.5,257.4 1643.4,257.3 1579.9,228.9 1580,228.9 1407.1,186.1 1407,186.1 
	1406.9,186 1368.7,167.9 1369.2,167.9 1115.9,218.8 1115.6,218.8 1115.4,218.7 760,91.1 760.1,91.1 505.1,44.9 505.7,44.8 
	137.2,280.1 137.1,280.2 137.1,280.2 "/>
<radialGradient id="SVGID_6_" cx="961.3567" cy="365.6148" r="700.5" gradientTransform="matrix(1 0 0 0.6267 0 -50.7514)" gradientUnits="userSpaceOnUse">
	<stop  offset="0" style="stop-color:#263867"/>
	<stop  offset="1" style="stop-color:#141935"/>
</radialGradient>
<polygon class="st5" points="-9.4,302.1 133.2,285.8 133.1,285.9 497.5,54.8 497.7,54.7 498.1,54.7 755.1,91.1 755.2,91.1 
	755.3,91.1 1111.9,220.6 1111.4,220.5 1366.2,181.5 1366.4,181.4 1366.7,181.5 1405.3,199.7 1405.1,199.7 1578,231.8 1578.1,231.8 
	1578.2,231.9 1642.6,260 1642.3,260 1932.1,235.4 1642.4,260.5 1642.2,260.5 1642.1,260.4 1577.6,232.3 1577.8,232.3 1404.8,200.3 
	1404.7,200.3 1404.6,200.2 1366,182 1366.5,182.1 1111.7,221.3 1111.4,221.4 1111.2,221.3 754.6,91.8 754.8,91.9 497.8,55.4 
	498.4,55.3 133.4,286 133.3,286.1 133.3,286.1 "/>
<radialGradient id="SVGID_7_" cx="961.3978" cy="380.6999" r="700.1499" gradientTransform="matrix(1 0 0 0.6267 0 -50.7514)" gradientUnits="userSpaceOnUse">
	<stop  offset="0" style="stop-color:#263867"/>
	<stop  offset="1" style="stop-color:#141935"/>
</radialGradient>
<polygon class="st6" points="-9.2,310.5 129.4,291.8 129.3,291.8 490.2,65.3 490.4,65.2 490.8,65.2 749.7,91.8 749.8,91.8 750,91.9 
	1107.7,223.1 1107.2,223.1 1363.5,195.7 1363.7,195.6 1363.9,195.7 1402.9,213.9 1402.7,213.8 1575.7,235.2 1575.8,235.2 
	1575.9,235.3 1641.3,263.1 1641,263.1 1932,247.7 1641.1,263.5 1640.9,263.6 1640.8,263.5 1575.4,235.7 1575.5,235.7 1402.5,214.5 
	1402.4,214.5 1402.3,214.4 1363.2,196.2 1363.7,196.3 1107.5,223.9 1107.2,223.9 1107,223.8 749.2,92.6 749.4,92.7 490.6,65.9 
	491.1,65.8 129.6,292 129.5,292 129.5,292 "/>
<radialGradient id="SVGID_8_" cx="961.4389" cy="395.7849" r="699.8015" gradientTransform="matrix(1 0 0 0.6267 0 -50.7514)" gradientUnits="userSpaceOnUse">
	<stop  offset="0" style="stop-color:#263867"/>
	<stop  offset="1" style="stop-color:#141935"/>
</radialGradient>
<polygon class="st7" points="-9,318.9 125.6,297.7 125.5,297.7 482.9,75.8 483.2,75.7 483.4,75.7 744.3,92.6 744.4,92.6 744.6,92.6 
	1103.6,225.7 1103.1,225.6 1360.7,209.9 1361,209.8 1361.2,209.9 1400.6,228.1 1400.3,228 1573.4,238.6 1573.5,238.6 1573.6,238.7 
	1640,266.2 1639.8,266.1 1931.9,260 1639.8,266.6 1639.6,266.6 1639.5,266.6 1573.1,239.1 1573.3,239.1 1400.2,228.7 1400,228.6 
	1399.9,228.6 1360.5,210.4 1360.9,210.5 1103.3,226.4 1103,226.5 1102.8,226.4 743.8,93.3 744.1,93.4 483.3,76.4 483.8,76.3 
	125.8,297.9 125.7,297.9 125.7,297.9 "/>
<radialGradient id="SVGID_9_" cx="961.48" cy="410.8698" r="699.455" gradientTransform="matrix(1 0 0 0.6267 0 -50.7514)" gradientUnits="userSpaceOnUse">
	<stop  offset="0" style="stop-color:#263867"/>
	<stop  offset="1" style="stop-color:#141935"/>
</radialGradient>
<polygon class="st8" points="-8.8,327.3 121.7,303.6 121.7,303.6 475.7,86.3 475.9,86.2 476.1,86.2 738.8,93.3 739,93.3 739.2,93.4 
	1099.4,228.3 1099,228.2 1358,224 1358.2,224 1358.4,224.1 1398.2,242.3 1397.9,242.2 1571.1,242 1571.2,242 1571.3,242.1 
	1638.7,269.3 1638.5,269.2 1931.8,272.3 1638.5,269.7 1638.4,269.7 1638.3,269.7 1570.8,242.5 1571.1,242.5 1397.9,242.8 
	1397.7,242.8 1397.6,242.8 1357.7,224.6 1358.1,224.7 1099,229 1098.8,229 1098.6,228.9 738.4,94.1 738.8,94.2 476.1,86.9 
	476.5,86.8 121.9,303.8 121.9,303.8 121.9,303.8 "/>
<radialGradient id="SVGID_10_" cx="961.5212" cy="423.8878" r="699.3938" gradientTransform="matrix(1 0 0 0.6267 0 -50.7514)" gradientUnits="userSpaceOnUse">
	<stop  offset="0" style="stop-color:#263867"/>
	<stop  offset="1" style="stop-color:#141935"/>
</radialGradient>
<polygon class="st9" points="-8.6,335.7 117.9,309.5 117.9,309.6 468.4,96.8 468.6,96.7 468.8,96.7 733.4,94.1 733.6,94.1 
	733.8,94.1 1095.2,230.8 1094.9,230.7 1355.3,238.2 1355.5,238.2 1355.6,238.3 1395.9,256.5 1395.5,256.4 1568.8,245.4 
	1568.9,245.4 1569.1,245.5 1637.4,272.4 1637.2,272.3 1931.6,284.6 1637.2,272.8 1637.1,272.8 1637,272.8 1568.6,245.9 
	1568.9,245.9 1395.6,257 1395.4,257 1395.2,257 1355,238.8 1355.3,238.9 1094.8,231.6 1094.6,231.6 1094.5,231.5 733,94.9 
	733.4,94.9 468.8,97.4 469.2,97.2 118.1,309.7 118.1,309.7 118.1,309.7 "/>
<radialGradient id="SVGID_11_" cx="961.5623" cy="431.1966" r="700.1324" gradientTransform="matrix(1 0 0 0.6267 0 -50.7514)" gradientUnits="userSpaceOnUse">
	<stop  offset="0" style="stop-color:#263867"/>
	<stop  offset="1" style="stop-color:#141935"/>
</radialGradient>
<polygon class="st10" points="-8.4,344.2 114.1,315.4 114,315.5 461.1,107.3 461.3,107.2 461.5,107.2 728,94.8 728.2,94.8 
	728.4,94.9 1091,233.4 1090.8,233.3 1352.6,252.4 1352.8,252.5 1352.9,252.5 1393.6,270.6 1393.1,270.6 1566.5,248.8 1566.6,248.8 
	1566.8,248.8 1636.1,275.4 1636,275.4 1931.5,296.9 1635.9,275.9 1635.8,275.9 1635.7,275.8 1566.3,249.3 1566.7,249.3 
	1393.3,271.2 1393.1,271.2 1392.9,271.2 1352.2,253 1352.5,253.1 1090.6,234.1 1090.4,234.1 1090.3,234.1 727.6,95.6 728.1,95.7 
	461.6,107.8 461.9,107.7 114.3,315.6 114.3,315.6 114.3,315.7 "/>
<radialGradient id="SVGID_12_" cx="961.6035" cy="438.5056" r="700.8969" gradientTransform="matrix(1 0 0 0.6267 0 -50.7514)" gradientUnits="userSpaceOnUse">
	<stop  offset="0" style="stop-color:#263867"/>
	<stop  offset="1" style="stop-color:#141935"/>
</radialGradient>
<polygon class="st11" points="-8.2,352.6 110.3,321.4 110.2,321.4 453.8,117.7 454,117.7 454.2,117.6 722.5,95.6 722.8,95.6 
	723,95.7 1086.9,235.9 1086.6,235.9 1349.9,266.6 1350,266.7 1350.1,266.7 1391.2,284.8 1390.7,284.8 1564.2,252.2 1564.4,252.2 
	1564.5,252.2 1634.8,278.5 1634.7,278.5 1931.4,309.2 1634.5,279 1634.5,279 1634.4,278.9 1564,252.7 1564.4,252.7 1391,285.4 
	1390.8,285.4 1390.6,285.3 1349.4,267.2 1349.7,267.3 1086.4,236.7 1086.2,236.7 1086.1,236.6 722.2,96.4 722.7,96.4 454.3,118.3 
	454.6,118.2 110.5,321.5 110.5,321.6 110.4,321.6 "/>
<radialGradient id="SVGID_13_" cx="961.6447" cy="445.8148" r="701.6873" gradientTransform="matrix(1 0 0 0.6267 0 -50.7514)" gradientUnits="userSpaceOnUse">
	<stop  offset="0" style="stop-color:#263867"/>
	<stop  offset="1" style="stop-color:#141935"/>
</radialGradient>
<polygon class="st12" points="-8,361 106.5,327.3 106.4,327.3 446.6,128.2 446.7,128.2 446.8,128.1 717.1,96.4 717.4,96.3 
	717.6,96.4 1082.7,238.5 1082.5,238.4 1347.2,280.8 1347.3,280.9 1347.4,280.9 1388.9,299 1388.3,299 1561.8,255.6 1562.1,255.6 
	1562.3,255.6 1633.5,281.6 1633.4,281.6 1931.3,321.5 1633.2,282.1 1633.2,282 1633.1,282 1561.8,256.1 1562.2,256.1 1388.8,299.6 
	1388.5,299.6 1388.2,299.5 1346.7,281.4 1346.9,281.5 1082.1,239.2 1082,239.2 1081.9,239.2 716.9,97.1 717.4,97.2 447.1,128.8 
	447.4,128.7 106.7,327.5 106.7,327.5 106.6,327.5 "/>
<radialGradient id="SVGID_14_" cx="961.6857" cy="453.1242" r="702.5033" gradientTransform="matrix(1 0 0 0.6267 0 -50.7514)" gradientUnits="userSpaceOnUse">
	<stop  offset="0" style="stop-color:#263867"/>
	<stop  offset="1" style="stop-color:#141935"/>
</radialGradient>
<polygon class="st13" points="-7.8,369.4 102.7,333.2 102.6,333.2 439.3,138.7 439.4,138.7 439.5,138.6 711.7,97.1 712,97.1 
	712.2,97.2 1078.5,241 1078.4,241 1344.5,295 1344.6,295.1 1344.6,295.1 1386.5,313.2 1385.9,313.2 1559.5,259 1559.8,259 1560,259 
	1632.3,284.7 1632.2,284.7 1931.1,333.9 1631.9,285.1 1631.9,285.1 1631.8,285.1 1559.5,259.5 1560,259.5 1386.5,313.7 
	1386.2,313.8 1385.9,313.7 1343.9,295.6 1344.1,295.7 1077.9,241.8 1077.8,241.8 1077.7,241.7 711.5,97.9 712,97.9 439.8,139.3 
	440.1,139.2 102.9,333.4 102.9,333.4 102.8,333.4 "/>
<radialGradient id="SVGID_15_" cx="961.7268" cy="460.4339" r="703.3448" gradientTransform="matrix(1 0 0 0.6267 0 -50.7514)" gradientUnits="userSpaceOnUse">
	<stop  offset="0" style="stop-color:#263867"/>
	<stop  offset="1" style="stop-color:#141935"/>
</radialGradient>
<polygon class="st14" points="-7.6,377.8 98.9,339.1 98.8,339.2 432,149.2 432.1,149.1 432.2,149.1 706.3,97.9 706.6,97.8 
	706.8,97.9 1074.4,243.6 1074.2,243.5 1341.7,309.2 1341.8,309.3 1341.9,309.3 1384.2,327.4 1383.6,327.4 1557.2,262.4 
	1557.5,262.3 1557.7,262.4 1631,287.8 1630.9,287.7 1931,346.2 1630.6,288.2 1630.6,288.2 1630.5,288.2 1557.3,262.9 1557.7,262.9 
	1384.2,327.9 1383.8,328 1383.5,327.9 1341.2,309.8 1341.3,309.9 1073.7,244.3 1073.6,244.3 1073.6,244.3 706.1,98.6 706.7,98.7 
	432.6,149.7 432.8,149.7 99.1,339.3 99.1,339.3 99,339.3 "/>
<radialGradient id="SVGID_16_" cx="961.7681" cy="467.7435" r="704.2119" gradientTransform="matrix(1 0 0 0.6267 0 -50.7514)" gradientUnits="userSpaceOnUse">
	<stop  offset="0" style="stop-color:#263867"/>
	<stop  offset="1" style="stop-color:#141935"/>
</radialGradient>
<polygon class="st15" points="-7.3,386.2 95,345.1 95,345.1 424.7,159.7 424.8,159.6 424.9,159.6 700.8,98.7 701.2,98.6 701.5,98.7 
	1070.2,246.1 1070.1,246.1 1339,323.4 1339.1,323.5 1339.1,323.5 1381.8,341.6 1381.2,341.6 1554.9,265.8 1555.2,265.7 
	1555.5,265.8 1629.7,290.9 1629.6,290.8 1930.9,358.5 1629.3,291.3 1629.3,291.3 1629.3,291.3 1555,266.3 1555.5,266.3 
	1381.8,342.1 1381.5,342.2 1381.2,342.1 1338.4,324 1338.5,324.1 1069.5,246.9 1069.4,246.9 1069.4,246.9 700.7,99.4 701.3,99.4 
	425.3,160.2 425.5,160.1 95.3,345.2 95.2,345.2 95.2,345.2 "/>
<radialGradient id="SVGID_17_" cx="961.809" cy="475.0536" r="705.1044" gradientTransform="matrix(1 0 0 0.6267 0 -50.7514)" gradientUnits="userSpaceOnUse">
	<stop  offset="0" style="stop-color:#263867"/>
	<stop  offset="1" style="stop-color:#141935"/>
</radialGradient>
<polygon class="st16" points="-7.1,394.6 91.2,351 91.2,351 417.5,170.2 417.5,170.1 417.6,170.1 695.4,99.4 695.8,99.3 696.1,99.5 
	1066,248.7 1066,248.7 1336.3,337.6 1336.3,337.7 1336.4,337.7 1379.5,355.7 1378.8,355.8 1552.7,269.2 1552.9,269.1 1553.2,269.2 
	1628.4,293.9 1628.3,293.9 1930.8,370.8 1628,294.4 1628,294.4 1628,294.4 1552.7,269.7 1553.3,269.7 1379.5,356.3 1379.2,356.4 
	1378.8,356.3 1335.7,338.2 1335.7,338.3 1065.3,249.4 1065.2,249.4 1065.2,249.4 695.3,100.1 696,100.2 418,170.7 418.2,170.6 
	91.4,351.1 91.4,351.1 91.4,351.1 "/>
<radialGradient id="SVGID_18_" cx="961.8502" cy="482.3636" r="706.0222" gradientTransform="matrix(1 0 0 0.6267 0 -50.7514)" gradientUnits="userSpaceOnUse">
	<stop  offset="0" style="stop-color:#263867"/>
	<stop  offset="1" style="stop-color:#141935"/>
</radialGradient>
<path class="st17" d="M-6.9,403l54.1-26.5l27.1-13.2l13.5-6.6l12.9-7l103.1-56.4l206.4-112.6l0.1,0l0.1,0L690,100.2l0.4-0.1l0.3,0.1
	l339.6,138.1l21.2,8.6l10.6,4.3l10.9,4l43.7,16.2l87.4,32.3l87.4,32.3c14.5,5.4,29.2,10.7,43.6,16.2l42.2,17.5l-0.7,0l173.9-97.3
	l0.2-0.1l0.3,0.1l46.5,14.9l23.3,7.4l5.8,1.9c2,0.6,4,1.1,6,1.7l11.9,3.4l95.4,27.1l190.8,54.1l-191.1-53.8l-95.5-26.9l-11.9-3.4
	c-2-0.6-4-1.1-6-1.7l-5.8-1.9L1597,288l-46.5-14.9l0.5,0l-173.8,97.4l-0.3,0.2l-0.4-0.2l-42.2-17.5c-14.5-5.5-29.1-10.8-43.7-16.2
	l-87.4-32.3l-87.4-32.3l-43.7-16.1l-10.9-4l-10.6-4.3l-21.2-8.6L689.9,100.9l0.7,0l-279.8,80.3l0.1-0.1L204.3,293.6l-103.4,56.2
	l-12.9,7l-13.5,6.6l-27.1,13.2L-6.9,403z"/>
<radialGradient id="SVGID_19_" cx="961.8915" cy="489.6738" r="706.9652" gradientTransform="matrix(1 0 0 0.6267 0 -50.7514)" gradientUnits="userSpaceOnUse">
	<stop  offset="0" style="stop-color:#263867"/>
	<stop  offset="1" style="stop-color:#141935"/>
</radialGradient>
<polygon class="st18" points="-6.7,411.4 402.9,191.1 402.9,191.1 403,191.1 684.6,101 685,100.8 685.3,101 1374.8,384.1 
	1374.1,384.2 1548.1,276.1 1548.3,275.9 1548.6,276 1930.5,395.4 1548.2,276.5 1548.8,276.4 1374.9,384.6 1374.6,384.8 
	1374.2,384.7 684.5,101.6 685.2,101.6 403.5,191.6 403.6,191.6 "/>
<radialGradient id="SVGID_20_" cx="961.747" cy="500.429" r="706.0805" gradientTransform="matrix(1 0 0 0.6267 0 -50.7514)" gradientUnits="userSpaceOnUse">
	<stop  offset="0" style="stop-color:#263867"/>
	<stop  offset="1" style="stop-color:#141935"/>
</radialGradient>
<polygon class="st19" points="-7,414.6 396.2,202.2 396.2,202.1 396.3,202.1 681.3,111.3 681.6,111.1 682,111.3 1345.8,388.1 
	1345.1,388.1 1549.2,283.2 1549.4,283.1 1549.7,283.2 1930.5,400.8 1549.3,283.6 1549.8,283.6 1345.9,388.7 1345.5,388.8 
	1345.1,388.7 681.2,111.9 681.9,111.9 396.8,202.7 396.9,202.6 "/>
<radialGradient id="SVGID_21_" cx="961.6025" cy="511.1842" r="705.2175" gradientTransform="matrix(1 0 0 0.6267 0 -50.7514)" gradientUnits="userSpaceOnUse">
	<stop  offset="0" style="stop-color:#263867"/>
	<stop  offset="1" style="stop-color:#141935"/>
</radialGradient>
<polygon class="st20" points="-7.3,417.8 389.5,213.2 389.6,213.2 389.6,213.2 677.9,121.6 678.3,121.4 678.6,121.6 1316.8,392.1 
	1316.1,392.1 1550.3,290.3 1550.5,290.2 1550.8,290.3 1930.5,406.2 1550.4,290.8 1550.9,290.8 1316.8,392.7 1316.5,392.8 
	1316.1,392.7 677.9,122.2 678.6,122.2 390.1,213.7 390.2,213.6 "/>
<radialGradient id="SVGID_22_" cx="961.4579" cy="521.9396" r="704.3763" gradientTransform="matrix(1 0 0 0.6267 0 -50.7514)" gradientUnits="userSpaceOnUse">
	<stop  offset="0" style="stop-color:#263867"/>
	<stop  offset="1" style="stop-color:#141935"/>
</radialGradient>
<polygon class="st21" points="-7.6,421 382.8,224.2 382.9,224.2 382.9,224.2 674.6,131.8 675,131.7 675.3,131.9 1287.8,396.1 
	1287.1,396.1 1551.4,297.5 1551.6,297.4 1551.9,297.5 1930.5,411.6 1551.4,297.9 1551.9,297.9 1287.8,396.7 1287.4,396.8 
	1287.1,396.7 674.5,132.5 675.2,132.5 383.4,224.7 383.5,224.7 "/>
<radialGradient id="SVGID_23_" cx="961.3136" cy="532.6951" r="703.5569" gradientTransform="matrix(1 0 0 0.6267 0 -50.7514)" gradientUnits="userSpaceOnUse">
	<stop  offset="0" style="stop-color:#263867"/>
	<stop  offset="1" style="stop-color:#141935"/>
</radialGradient>
<polygon class="st22" points="-7.9,424.2 376.1,235.2 376.2,235.2 376.2,235.2 671.3,142.1 671.6,142 672,142.2 1258.8,400.1 
	1258.2,400.1 1552.5,304.6 1552.7,304.5 1552.9,304.6 1930.5,417 1552.5,305.1 1553,305.1 1258.8,400.7 1258.4,400.8 1258.1,400.7 
	671.2,142.8 671.9,142.8 376.7,235.7 376.8,235.7 "/>
<radialGradient id="SVGID_24_" cx="961.1691" cy="543.4507" r="702.7596" gradientTransform="matrix(1 0 0 0.6267 0 -50.7514)" gradientUnits="userSpaceOnUse">
	<stop  offset="0" style="stop-color:#263867"/>
	<stop  offset="1" style="stop-color:#141935"/>
</radialGradient>
<polygon class="st23" points="-8.2,427.4 369.4,246.2 369.5,246.2 369.5,246.2 667.9,152.4 668.3,152.3 668.7,152.5 1229.8,404.1 
	1229.2,404.1 1553.6,311.8 1553.8,311.7 1554,311.8 1930.5,422.4 1553.6,312.2 1554,312.2 1229.7,404.7 1229.4,404.8 1229.1,404.7 
	667.9,153.1 668.6,153.1 370,246.7 370,246.7 "/>
<radialGradient id="SVGID_25_" cx="961.0247" cy="554.2062" r="701.9842" gradientTransform="matrix(1 0 0 0.6267 0 -50.7514)" gradientUnits="userSpaceOnUse">
	<stop  offset="0" style="stop-color:#263867"/>
	<stop  offset="1" style="stop-color:#141935"/>
</radialGradient>
<polygon class="st24" points="-8.4,430.5 362.7,257.3 362.8,257.3 362.8,257.2 664.6,162.7 665,162.6 665.3,162.8 1200.8,408.1 
	1200.2,408 1554.7,318.9 1554.9,318.8 1555.1,318.9 1930.5,427.8 1554.7,319.4 1555.1,319.4 1200.7,408.7 1200.3,408.8 1200,408.7 
	664.5,163.4 665.2,163.4 363.3,257.7 363.3,257.7 "/>
<radialGradient id="SVGID_26_" cx="960.8801" cy="564.9617" r="701.2311" gradientTransform="matrix(1 0 0 0.6267 0 -50.7514)" gradientUnits="userSpaceOnUse">
	<stop  offset="0" style="stop-color:#263867"/>
	<stop  offset="1" style="stop-color:#141935"/>
</radialGradient>
<polygon class="st25" points="-8.7,433.7 356,268.3 356.1,268.3 356.1,268.3 661.3,173 661.7,172.9 662,173.1 1171.8,412.1 
	1171.2,412 1555.8,326 1556,326 1556.2,326 1930.5,433.2 1555.8,326.5 1556.1,326.6 1171.7,412.8 1171.3,412.8 1171,412.7 
	661.2,173.7 661.9,173.7 356.6,268.8 356.6,268.7 "/>
<radialGradient id="SVGID_27_" cx="960.7358" cy="577.0785" r="700.6973" gradientTransform="matrix(1 0 0 0.6267 0 -50.7514)" gradientUnits="userSpaceOnUse">
	<stop  offset="0" style="stop-color:#263867"/>
	<stop  offset="1" style="stop-color:#141935"/>
</radialGradient>
<polygon class="st26" points="-9,436.9 349.3,279.3 349.4,279.3 349.4,279.3 658,183.3 658.3,183.2 658.7,183.4 1142.8,416.1 
	1142.2,416 1556.9,333.2 1557.1,333.1 1557.3,333.2 1930.5,438.6 1556.9,333.7 1557.2,333.7 1142.6,416.8 1142.3,416.8 1142,416.7 
	657.9,184 658.6,184 349.8,279.8 349.9,279.8 "/>
<radialGradient id="SVGID_28_" cx="960.5912" cy="589.6032" r="700.2347" gradientTransform="matrix(1 0 0 0.6267 0 -50.7514)" gradientUnits="userSpaceOnUse">
	<stop  offset="0" style="stop-color:#263867"/>
	<stop  offset="1" style="stop-color:#141935"/>
</radialGradient>
<polygon class="st27" points="-9.3,440.1 342.6,290.3 342.7,290.3 342.7,290.3 654.6,193.6 655,193.5 655.3,193.7 1113.9,420.1 
	1113.2,420 1558,340.3 1558.2,340.3 1558.3,340.3 1930.5,444 1557.9,340.8 1558.3,340.9 1113.6,420.8 1113.3,420.9 1113,420.7 
	654.5,194.3 655.2,194.3 343.1,290.8 343.2,290.8 "/>
<radialGradient id="SVGID_29_" cx="960.4467" cy="602.128" r="699.7827" gradientTransform="matrix(1 0 0 0.6267 0 -50.7514)" gradientUnits="userSpaceOnUse">
	<stop  offset="0" style="stop-color:#263867"/>
	<stop  offset="1" style="stop-color:#141935"/>
</radialGradient>
<polygon class="st28" points="-9.6,443.3 335.9,301.3 336,301.3 336,301.3 651.3,203.9 651.7,203.8 652,204 1084.9,424.1 
	1084.2,424 1559.1,347.5 1559.3,347.5 1559.4,347.5 1930.5,449.4 1559,348 1559.3,348 1084.6,424.8 1084.2,424.9 1083.9,424.7 
	651.2,204.6 651.9,204.6 336.4,301.8 336.5,301.8 "/>
<radialGradient id="SVGID_30_" cx="960.3023" cy="614.6526" r="699.3413" gradientTransform="matrix(1 0 0 0.6267 0 -50.7514)" gradientUnits="userSpaceOnUse">
	<stop  offset="0" style="stop-color:#263867"/>
	<stop  offset="1" style="stop-color:#141935"/>
</radialGradient>
<polygon class="st29" points="-9.9,446.5 329.3,312.4 329.3,312.4 329.3,312.3 648,214.2 648.4,214.1 648.7,214.3 1055.9,428.1 
	1055.2,428 1560.2,354.6 1560.3,354.6 1560.5,354.6 1930.5,454.8 1560.1,355.1 1560.4,355.2 1055.6,428.8 1055.2,428.9 
	1054.9,428.7 647.8,214.8 648.6,214.9 329.7,312.8 329.8,312.8 "/>
<radialGradient id="SVGID_31_" cx="960.1577" cy="627.1771" r="698.9106" gradientTransform="matrix(1 0 0 0.6267 0 -50.7514)" gradientUnits="userSpaceOnUse">
	<stop  offset="0" style="stop-color:#263867"/>
	<stop  offset="1" style="stop-color:#141935"/>
</radialGradient>
<polygon class="st30" points="-10.2,449.6 322.6,323.4 322.6,323.4 322.6,323.4 644.6,224.5 645,224.4 645.4,224.6 1026.9,432.1 
	1026.2,432 1561.3,361.8 1561.4,361.8 1561.6,361.8 1930.5,460.2 1561.2,362.3 1561.5,362.3 1026.5,432.8 1026.2,432.9 
	1025.9,432.7 644.5,225.1 645.2,225.2 323,323.8 323.1,323.8 "/>
<radialGradient id="SVGID_32_" cx="960.0134" cy="639.7014" r="698.4905" gradientTransform="matrix(1 0 0 0.6267 0 -50.7514)" gradientUnits="userSpaceOnUse">
	<stop  offset="0" style="stop-color:#263867"/>
	<stop  offset="1" style="stop-color:#141935"/>
</radialGradient>
<polygon class="st31" points="-10.5,452.8 315.9,334.4 315.9,334.4 315.9,334.4 641.3,234.8 641.7,234.7 642,234.9 997.9,436.1 
	997.2,436 1562.4,368.9 1562.5,368.9 1562.6,368.9 1930.5,465.6 1562.3,369.4 1562.5,369.5 997.5,436.8 997.1,436.9 996.9,436.7 
	641.2,235.4 641.9,235.5 316.3,334.9 316.3,334.9 "/>
<radialGradient id="SVGID_33_" cx="959.8688" cy="652.2255" r="698.0814" gradientTransform="matrix(1 0 0 0.6267 0 -50.7514)" gradientUnits="userSpaceOnUse">
	<stop  offset="0" style="stop-color:#263867"/>
	<stop  offset="1" style="stop-color:#141935"/>
</radialGradient>
<polygon class="st32" points="-10.8,456 308.9,345.5 638,245.1 638.4,245 638.7,245.2 968.9,440.1 968.2,440 1563.4,376.1 
	1563.6,376.1 1563.7,376.1 1930.5,471 1563.3,376.6 1563.6,376.6 968.5,440.8 968.1,440.9 967.8,440.7 637.8,245.7 638.6,245.8 
	309.3,346 "/>
<radialGradient id="SVGID_34_" cx="959.7244" cy="664.7494" r="697.6827" gradientTransform="matrix(1 0 0 0.6267 0 -50.7514)" gradientUnits="userSpaceOnUse">
	<stop  offset="0" style="stop-color:#263867"/>
	<stop  offset="1" style="stop-color:#141935"/>
</radialGradient>
<path class="st33" d="M-11,459.2l160-52.5l80-26.2l40-13.1l20-6.5c6.7-2.2,13.3-4.4,20.1-6.4l325.5-99l0.4-0.1l0.3,0.2l304.5,188.6
	l-0.7-0.1l625.3-60.7l0.1,0l0.1,0l365.7,93.2l-366.1-92.7l0.3,0l-625.2,61.1l-0.4,0l-0.3-0.2L634.5,256l0.7,0.1l-325.7,98.8
	c-6.8,2-13.4,4.3-20.1,6.4l-20,6.5l-40.1,13.1L149.2,407L-11,459.2z"/>
<radialGradient id="SVGID_35_" cx="959.5799" cy="677.2728" r="697.295" gradientTransform="matrix(1 0 0 0.6267 0 -50.7514)" gradientUnits="userSpaceOnUse">
	<stop  offset="0" style="stop-color:#263867"/>
	<stop  offset="1" style="stop-color:#141935"/>
</radialGradient>
<path class="st34" d="M-11.3,462.4L149,412.8c53.5-16.5,106.8-33.1,160.4-49.5l322-97.6l0.4-0.1l0.3,0.2l278.9,182.3l-0.7-0.1
	l655.4-57.6l0.1,0l0.1,0l364.6,91.4l-365-90.9l0.2,0l-655.3,58l-0.4,0l-0.3-0.2L631.2,266.3l0.7,0.1l-322.1,97.4L-11.3,462.4z"/>
<radialGradient id="SVGID_36_" cx="959.4354" cy="689.7961" r="696.9179" gradientTransform="matrix(1 0 0 0.6267 0 -50.7514)" gradientUnits="userSpaceOnUse">
	<stop  offset="0" style="stop-color:#263867"/>
	<stop  offset="1" style="stop-color:#141935"/>
</radialGradient>
<polygon class="st35" points="-11.6,465.6 149,419 229.3,395.8 269.5,384.1 289.6,378.3 309.5,372.3 628,276 628.4,275.9 
	628.8,276.1 882,452.1 881.2,451.9 1566.7,397.5 1566.8,397.5 1566.9,397.5 1930.5,487.2 1566.6,398 1566.8,398.1 881.4,452.9 
	881,452.9 880.7,452.7 627.8,276.6 628.6,276.7 309.9,372.8 290,378.8 269.9,384.6 229.7,396.2 149.2,419.3 "/>
<radialGradient id="SVGID_37_" cx="959.2908" cy="702.3187" r="696.5518" gradientTransform="matrix(1 0 0 0.6267 0 -50.7514)" gradientUnits="userSpaceOnUse">
	<stop  offset="0" style="stop-color:#263867"/>
	<stop  offset="1" style="stop-color:#141935"/>
</radialGradient>
<polygon class="st36" points="-11.9,468.7 149.1,425.4 229.6,403.7 269.8,392.9 279.9,390.2 282.4,389.5 284.9,388.8 289.8,387.3 
	309.5,381.3 624.7,286.3 625.1,286.2 625.4,286.4 853,456.1 852.2,455.9 1567.8,404.7 1567.9,404.7 1568,404.7 1930.5,492.6 
	1567.7,405.2 1567.9,405.2 852.4,456.9 852,456.9 851.7,456.7 624.5,286.9 625.2,287 309.9,381.8 290.2,387.7 285.3,389.2 
	282.8,390 280.3,390.6 270.2,393.3 229.9,404.1 149.3,425.7 "/>
<radialGradient id="SVGID_38_" cx="959.3308" cy="716.1047" r="695.8644" gradientTransform="matrix(1 0 0 0.6267 0 -50.7514)" gradientUnits="userSpaceOnUse">
	<stop  offset="0" style="stop-color:#263867"/>
	<stop  offset="1" style="stop-color:#141935"/>
</radialGradient>
<path class="st37" d="M-11.8,477l156.4-42.5l78.2-21.2l39.1-10.6l9.8-2.7l2.4-0.7l2.4-0.7l4.8-1.4l19.1-5.8l306.4-92.8l0.4-0.1
	l0.3,0.2l119.1,79.9l59.6,39.9c10,6.6,19.7,13.4,29.5,20.1l29.3,20.2l-0.7-0.2l555.2-32.4l138.5-9.6l17.3-1.2
	c2.9-0.2,5.7-0.4,8.8-0.5c1.6,0.1,2.9,0.4,4.3,0.7c1.4,0.2,2.8,0.5,4.2,0.8c11,2.2,21.9,4.6,32.8,6.9c21.8,4.8,43.5,9.6,65.2,14.5
	c43.4,9.8,86.7,19.7,130,29.7c43.3,10,86.6,20,129.7,30.2c-43.2-10.1-86.6-20-129.9-29.9c-43.3-9.9-86.7-19.8-130.2-29.5
	c-21.7-4.9-43.5-9.7-65.3-14.5c-10.9-2.4-21.8-4.7-32.8-6.9c-2.7-0.5-5.6-1.1-8.3-1.4c-2.8,0.1-5.7,0.3-8.6,0.5l-17.3,1.2
	l-138.5,9.7l-555.2,32.7l-0.4,0l-0.3-0.2l-29.3-20.2c-9.8-6.7-19.4-13.5-29.4-20.1l-59.5-40l-119-80l0.7,0.1l-306.5,92.6l-19.2,5.8
	l-4.8,1.4l-2.4,0.7l-2.4,0.7l-9.8,2.6l-39.2,10.6l-78.3,21.1L-11.8,477z"/>
<radialGradient id="SVGID_39_" cx="959.3706" cy="729.8906" r="695.1995" gradientTransform="matrix(1 0 0 0.6267 0 -50.7514)" gradientUnits="userSpaceOnUse">
	<stop  offset="0" style="stop-color:#263867"/>
	<stop  offset="1" style="stop-color:#141935"/>
</radialGradient>
<path class="st38" d="M-11.8,485.2l151.8-41.6l75.9-20.8l38-10.4l9.5-2.6l2.4-0.7l2.3-0.7l4.6-1.4l18.6-5.7L589,310.7l0.4-0.1
	l0.3,0.2l124.5,74.9l62.2,37.4c10.5,6.2,20.4,12.7,30.5,19.1l30.2,19.3l-0.6-0.1l558.1-25.3c46.3-3.1,92.7-6.3,139-9.3l17.4-1.1
	c2.9-0.2,5.8-0.3,8.7-0.4c1.6,0,3,0.2,4.4,0.4c1.4,0.2,2.9,0.4,4.3,0.6c11.3,1.8,22.4,3.9,33.5,6c22.2,4.3,44.2,8.8,66.2,13.4
	c44,9.2,87.8,18.6,131.5,28.1l65.6,14.4l32.7,7.3c10.9,2.5,21.8,4.8,32.6,7.4c-10.8-2.6-21.8-4.9-32.7-7.4l-32.8-7.2l-65.6-14.3
	c-43.8-9.4-87.7-18.8-131.7-27.9c-22-4.6-44-9.1-66.2-13.4c-11.1-2.1-22.2-4.3-33.4-6c-1.4-0.2-2.8-0.4-4.2-0.6
	c-1.4-0.2-2.9-0.4-4.2-0.4c-2.9,0.1-5.8,0.3-8.7,0.4l-17.4,1.1c-46.4,3-92.7,6.2-139,9.4l-558.1,25.6l-0.4,0l-0.3-0.2l-30.1-19.3
	c-10.1-6.4-19.9-12.9-30.4-19.1l-62.2-37.5l-124.3-75l0.7,0.1l-297.7,90.4l-18.6,5.7l-4.7,1.4l-2.3,0.7l-2.4,0.6l-9.5,2.6l-38,10.4
	l-76,20.7L-11.8,485.2z"/>
<radialGradient id="SVGID_40_" cx="959.4105" cy="743.6766" r="694.5571" gradientTransform="matrix(1 0 0 0.6267 0 -50.7514)" gradientUnits="userSpaceOnUse">
	<stop  offset="0" style="stop-color:#263867"/>
	<stop  offset="1" style="stop-color:#141935"/>
</radialGradient>
<path class="st39" d="M-11.7,493.4l147.3-40.8l73.6-20.4l36.8-10.2l9.2-2.5c1.5-0.4,3.1-0.9,4.6-1.3l4.5-1.4l18-5.5l288.8-88.4
	l0.4-0.1l0.3,0.2l129.8,69.8l64.9,34.9c11,5.7,21.1,12,31.5,18.1l31,18.3l-0.6-0.1l561-18.2c46.5-3.1,93-6.2,139.6-9
	c5.8-0.3,11.6-0.7,17.5-1c2.9-0.2,5.8-0.3,8.8-0.4c3,0,5.9,0.3,8.8,0.6c11.5,1.4,22.8,3.3,34,5.2c22.5,3.9,44.8,8,67.1,12.3
	c44.5,8.5,88.8,17.5,133,26.5c22.1,4.5,44.2,9.1,66.3,13.7l33.1,7l16.5,3.5c5.5,1.2,11,2.3,16.4,3.7c-5.4-1.3-10.9-2.4-16.4-3.6
	l-16.5-3.5l-33.1-6.9c-22.1-4.6-44.2-9.1-66.3-13.6c-44.3-9-88.6-17.8-133.2-26.3c-22.3-4.2-44.6-8.4-67.1-12.2
	c-11.2-1.9-22.5-3.8-34-5.1c-2.9-0.3-5.8-0.6-8.6-0.6c-2.9,0.1-5.8,0.2-8.7,0.4c-5.8,0.3-11.6,0.6-17.5,1
	c-46.6,2.8-93.1,6-139.6,9.1l-561,18.4l-0.3,0l-0.2-0.1l-31-18.4c-10.4-6.1-20.4-12.4-31.4-18.1l-64.9-35L571,323.5l0.7,0.1
	l-288.9,88.2l-18.1,5.5l-4.5,1.4c-1.5,0.5-3,0.9-4.6,1.3l-9.2,2.5l-36.9,10.1l-73.7,20.3L-11.7,493.4z"/>
<radialGradient id="SVGID_41_" cx="959.4503" cy="757.4628" r="693.9373" gradientTransform="matrix(1 0 0 0.6267 0 -50.7514)" gradientUnits="userSpaceOnUse">
	<stop  offset="0" style="stop-color:#263867"/>
	<stop  offset="1" style="stop-color:#141935"/>
</radialGradient>
<path class="st40" d="M-11.6,501.6l142.7-39.9l71.3-19.9c23.7-6.7,47.8-13.1,70.9-20.5l280-86.2l0.3-0.1l0.3,0.1l135.2,64.7
	l67.6,32.4l8.4,4c0.7,0.3,1.4,0.7,2.1,1l2,1.1l4,2.2l16,8.7l31.9,17.5l-0.5-0.1l564.2-11l0,0c46.7-3,93.4-6.1,140.2-8.7
	c5.8-0.3,11.7-0.6,17.6-0.9c2.9-0.2,5.9-0.2,8.8-0.3c3-0.1,5.9,0.2,8.9,0.4c11.7,1,23.1,2.7,34.5,4.3c22.8,3.4,45.4,7.2,67.9,11.1
	c45,7.9,89.8,16.3,134.5,24.8c22.3,4.3,44.6,8.6,66.9,13l33.4,6.6l16.7,3.4l8.3,1.7c2.7,0.6,5.6,1.1,8.2,1.9
	c-2.6-0.7-5.5-1.2-8.2-1.8l-8.3-1.7l-16.7-3.4l-33.4-6.6c-22.3-4.4-44.6-8.6-67-12.9c-44.7-8.5-89.5-16.7-134.6-24.6
	c-22.5-3.9-45.1-7.7-67.9-11.1c-11.4-1.7-22.8-3.3-34.4-4.3c-2.9-0.2-5.8-0.4-8.7-0.4c-2.9,0.1-5.8,0.2-8.8,0.3
	c-5.8,0.3-11.7,0.6-17.5,0.9c-46.7,2.7-93.4,5.7-140.1,8.8l0,0l0,0l-564.2,11.3l-0.3,0l-0.2-0.1L788.2,450l-15.9-8.7l-4-2.2l-2-1.1
	c-0.7-0.4-1.4-0.7-2.1-1l-8.4-4.1l-67.5-32.4l-135-64.8l0.6,0l-280.1,86l-17.5,5.4c-2.9,0.9-5.8,1.8-8.8,2.6l-8.9,2.5l-35.7,9.9
	l-71.4,19.8L-11.6,501.6z"/>
<radialGradient id="SVGID_42_" cx="959.49" cy="771.249" r="693.3403" gradientTransform="matrix(1 0 0 0.6267 0 -50.7514)" gradientUnits="userSpaceOnUse">
	<stop  offset="0" style="stop-color:#263867"/>
	<stop  offset="1" style="stop-color:#141935"/>
</radialGradient>
<path class="st41" d="M-11.5,509.8l138.1-39l69.1-19.5c23-6.5,46.2-12.8,68.6-20l271.2-84l0.3-0.1l0.3,0.1l221,93.8l0,0l0,0l56,28.3
	l-0.5-0.1l567-3.9l-0.1,0c46.9-3,93.9-5.9,140.9-8.4c5.9-0.3,11.8-0.6,17.7-0.8c2.9-0.1,5.9-0.2,8.8-0.3c3-0.1,6,0,8.9,0.2
	c11.8,0.7,23.4,2.1,34.9,3.6c23.1,3,45.9,6.4,68.8,10c45.6,7.2,90.9,15,136.1,23c22.6,4,45.1,8.1,67.7,12.3l33.7,6.3l16.8,3.2
	l8.4,1.7l4.2,0.9c1.4,0.3,2.8,0.5,4.1,1c-1.3-0.4-2.7-0.7-4.1-1l-4.2-0.8l-8.4-1.6l-16.8-3.2l-33.8-6.3
	c-22.5-4.1-45.1-8.2-67.7-12.2c-45.2-7.9-90.6-15.7-136.2-22.8c-22.8-3.6-45.7-7-68.7-9.9c-11.5-1.4-23.1-2.8-34.8-3.5
	c-2.9-0.2-5.9-0.3-8.8-0.2c-2.9,0.1-5.9,0.2-8.8,0.3c-5.9,0.2-11.8,0.5-17.6,0.8c-47,2.5-93.9,5.5-140.8,8.5l0,0l0,0l-567,4.1
	l-0.3,0l-0.2-0.1l-56-28.4l0,0l-220.9-93.9l0.6,0l-271.3,83.8l-17,5.2c-5.6,1.8-11.4,3.4-17.2,5l-34.6,9.7L126.8,471L-11.5,509.8z"
	/>
<radialGradient id="SVGID_43_" cx="959.5298" cy="785.0351" r="692.7659" gradientTransform="matrix(1 0 0 0.6267 0 -50.7514)" gradientUnits="userSpaceOnUse">
	<stop  offset="0" style="stop-color:#263867"/>
	<stop  offset="1" style="stop-color:#141935"/>
</radialGradient>
<path class="st42" d="M-11.4,518l133.5-38.2l66.8-19.1c22.2-6.4,44.7-12.5,66.4-19.5l262.4-81.8l0.3-0.1l0.3,0.1l229,85.5l0,0l0,0
	l58,27.1l-0.5-0.1l569.7,3.3l-0.1,0c47.2-2.9,94.4-5.7,141.7-8.1c5.9-0.3,11.8-0.5,17.7-0.8c3-0.1,5.9-0.2,8.9-0.3
	c3-0.1,6,0,8.9,0.1c11.9,0.5,23.6,1.6,35.3,2.9c23.3,2.5,46.5,5.6,69.6,8.8c46.1,6.5,92,13.7,137.7,21.2
	c22.8,3.8,45.7,7.6,68.4,11.5c11.4,2,22.8,3.9,34.1,6l17,3.1l8.5,1.6l4.2,0.8c1.4,0.3,2.9,0.5,4.1,1c-1.3-0.4-2.7-0.7-4.1-1
	l-4.2-0.8l-8.5-1.6l-17-3c-11.4-2-22.7-4-34.1-5.9c-22.8-3.9-45.6-7.7-68.5-11.4c-45.7-7.4-91.6-14.5-137.8-21
	c-23.1-3.2-46.2-6.3-69.5-8.8c-11.7-1.2-23.4-2.4-35.2-2.8c-5.9-0.3-11.8,0-17.7,0.2c-5.9,0.2-11.8,0.5-17.7,0.8
	c-47.3,2.4-94.4,5.2-141.6,8.1l0,0l0,0l-569.7-3.1l-0.3,0l-0.2-0.1l-57.9-27.1l0.1,0L517.6,360l0.6,0l-262.5,81.6l-16.4,5.1
	c-5.4,1.7-11,3.3-16.6,4.9l-33.4,9.5l-66.9,19L-11.4,518z"/>
<radialGradient id="SVGID_44_" cx="959.5697" cy="798.8211" r="692.2143" gradientTransform="matrix(1 0 0 0.6267 0 -50.7514)" gradientUnits="userSpaceOnUse">
	<stop  offset="0" style="stop-color:#263867"/>
	<stop  offset="1" style="stop-color:#141935"/>
</radialGradient>
<path class="st43" d="M-11.4,526.2l129-37.3l64.5-18.6c21.5-6.2,43.1-12.3,64.1-19.1l253.6-79.6l0.3-0.1l0.3,0.1l237,77.3l0,0l0,0
	l59.9,25.8l-0.4-0.1l572.4,10.4l-0.1,0c47.5-2.8,94.9-5.6,142.5-7.7c5.9-0.3,11.9-0.5,17.9-0.7c5.9-0.2,11.9-0.4,17.9-0.3
	c12,0.3,23.8,1.2,35.6,2.2c23.6,2.1,47,4.8,70.4,7.7c46.7,5.8,93,12.4,139.3,19.3c23.1,3.5,46.2,7,69.2,10.7
	c11.5,1.8,23,3.7,34.5,5.6l17.2,2.9l8.6,1.5l4.3,0.8l2.1,0.4c0.7,0.2,1.5,0.3,2,0.5c-0.6-0.3-1.3-0.4-2-0.5l-2.1-0.4l-4.3-0.8
	l-8.6-1.5l-17.2-2.9c-11.5-1.9-23-3.7-34.5-5.5c-23-3.6-46.1-7.1-69.2-10.6c-46.3-6.8-92.7-13.3-139.3-19.1
	c-23.3-2.9-46.7-5.6-70.3-7.6c-11.8-1-23.6-1.9-35.5-2.2c-5.9-0.2-11.9,0.1-17.8,0.3c-5.9,0.2-11.9,0.5-17.8,0.7
	c-47.5,2.2-95,5-142.4,7.8l0,0l0,0l-572.4-10.2l-0.2,0l-0.2-0.1l-59.8-25.9l0.1,0l-236.9-77.4l0.5,0l-253.7,79.4
	c-21,6.8-42.7,12.8-64.2,19l-64.6,18.5L-11.4,526.2z"/>
<radialGradient id="SVGID_45_" cx="959.6095" cy="813.5129" r="691.764" gradientTransform="matrix(1 0 0 0.6267 0 -50.7514)" gradientUnits="userSpaceOnUse">
	<stop  offset="0" style="stop-color:#263867"/>
	<stop  offset="1" style="stop-color:#141935"/>
</radialGradient>
<path class="st44" d="M-11.3,534.4L113.1,498l62.2-18.2c20.7-6.1,41.6-12,61.8-18.6l244.8-77.3l0.2-0.1l0.3,0.1l245,69l0,0l0,0
	l61.8,24.6l-0.4-0.1l575.2,17.6l-0.1,0c47.7-2.7,95.5-5.4,143.4-7.4c6-0.3,12-0.5,18-0.7c6-0.2,12-0.4,18-0.3
	c12,0.2,24,0.9,35.9,1.7c23.8,1.7,47.5,4.1,71.1,6.6c47.2,5.1,94.1,11.1,140.8,17.4c23.4,3.2,46.7,6.4,70,9.8
	c11.6,1.7,23.3,3.4,34.9,5.2c5.8,0.9,11.6,1.8,17.4,2.7l8.7,1.4l4.3,0.8l2.1,0.4c0.7,0.2,1.5,0.3,2,0.5c-0.5-0.3-1.3-0.4-2-0.5
	l-2.1-0.4l-4.3-0.8l-8.7-1.4c-5.8-0.9-11.6-1.8-17.4-2.7c-11.6-1.8-23.2-3.5-34.9-5.1c-23.3-3.4-46.6-6.6-70-9.7
	c-46.8-6.2-93.7-12.1-140.9-17.2c-23.6-2.5-47.3-4.8-71.1-6.5c-11.9-0.8-23.8-1.5-35.8-1.7c-6-0.1-12,0.1-17.9,0.3
	c-6,0.2-12,0.4-17.9,0.7c-47.8,2-95.6,4.7-143.3,7.5l0,0l0,0l-575.2-17.4l-0.2,0l-0.2-0.1l-61.8-24.6l0.1,0l-244.9-69.2l0.5,0
	l-244.9,77.2c-20.3,6.6-41.2,12.4-61.9,18.5l-62.3,18.1L-11.3,534.4z"/>
<radialGradient id="SVGID_46_" cx="959.6494" cy="829.7938" r="691.4634" gradientTransform="matrix(1 0 0 0.6267 0 -50.7514)" gradientUnits="userSpaceOnUse">
	<stop  offset="0" style="stop-color:#263867"/>
	<stop  offset="1" style="stop-color:#141935"/>
</radialGradient>
<path class="st45" d="M-11.2,542.7l119.8-35.6l59.9-17.8c19.9-6,40-11.7,59.6-18.1l236-75.1l0.2-0.1l0.2,0.1l253,60.8l0.1,0l0.1,0
	l63.7,23.3l-0.3-0.1l577.9,24.8l-0.1,0c24-1.3,48.1-2.6,72.1-3.8c24-1.2,48.1-2.3,72.2-3.2c6-0.2,12-0.4,18.1-0.6
	c6-0.1,12.1-0.4,18.1-0.3c12.1,0.1,24.1,0.6,36.2,1.2c24,1.4,47.9,3.3,71.8,5.5c47.7,4.4,95.1,9.8,142.4,15.5
	c23.6,2.9,47.2,5.8,70.8,9c11.8,1.6,23.5,3.1,35.3,4.8c5.9,0.8,11.7,1.7,17.6,2.5c2.9,0.4,5.8,0.9,8.8,1.4l4.4,0.7l2.2,0.4l1.1,0.2
	c0.3,0.1,0.8,0.1,1,0.3c-0.2-0.2-0.6-0.2-1-0.3l-1.1-0.2l-2.2-0.4l-4.4-0.7c-2.9-0.5-5.8-0.9-8.8-1.3c-5.9-0.9-11.7-1.7-17.6-2.5
	c-11.7-1.6-23.5-3.2-35.3-4.7c-23.6-3.1-47.2-6-70.8-8.8c-47.3-5.6-94.7-10.8-142.4-15.2c-23.8-2.2-47.7-4.1-71.7-5.5
	c-12-0.7-24-1.2-36.1-1.2c-6,0-12,0.2-18.1,0.3c-6,0.2-12,0.4-18.1,0.6c-24.1,0.9-48.1,2.1-72.2,3.3c-24,1.2-48.1,2.5-72.1,3.8l0,0
	l0,0l-577.9-24.6l-0.2,0l-0.2-0.1l-63.7-23.3l0.1,0l-252.9-60.9l0.5,0l-236.2,75c-19.6,6.4-39.7,12.1-59.7,18l-60,17.7L-11.2,542.7z
	"/>
<radialGradient id="SVGID_47_" cx="959.6891" cy="846.0747" r="691.17" gradientTransform="matrix(1 0 0 0.6267 0 -50.7514)" gradientUnits="userSpaceOnUse">
	<stop  offset="0" style="stop-color:#263867"/>
	<stop  offset="1" style="stop-color:#141935"/>
</radialGradient>
<path class="st46" d="M-11.1,550.9l115.2-34.7l57.6-17.3c19.2-5.8,38.5-11.4,57.3-17.7l227.2-72.9l0.2-0.1l0.2,0l261,52.5l0.1,0
	l0.1,0l65.6,22l-0.3-0.1l580.6,31.9l-0.1,0c24.2-1.3,48.4-2.5,72.6-3.6c24.2-1.1,48.4-2.2,72.7-3c12.1-0.4,24.2-0.9,36.4-0.9
	c12.2,0,24.3,0.3,36.4,0.9c24.2,1,48.4,2.7,72.5,4.5c48.2,3.7,96.1,8.4,143.9,13.4c23.9,2.5,47.8,5.2,71.6,8
	c11.9,1.4,23.8,2.8,35.7,4.4c5.9,0.8,11.9,1.5,17.8,2.3c3,0.4,5.9,0.8,8.9,1.3c1.5,0.2,2.9,0.4,4.4,0.7c0.7,0.1,1.5,0.2,2.2,0.4
	c0.4,0.1,0.7,0.1,1.1,0.2c0.3,0.1,0.8,0.1,0.9,0.3c-0.2-0.2-0.6-0.2-0.9-0.3c-0.4-0.1-0.7-0.1-1.1-0.2c-0.7-0.1-1.5-0.3-2.2-0.4
	c-1.5-0.2-2.9-0.5-4.4-0.7c-2.9-0.4-5.9-0.8-8.9-1.2c-5.9-0.8-11.8-1.6-17.8-2.3c-11.9-1.5-23.8-2.9-35.7-4.3
	c-23.8-2.8-47.7-5.4-71.6-7.9c-47.8-5-95.8-9.5-143.9-13.2c-24.1-1.8-48.2-3.4-72.4-4.5c-12.1-0.5-24.2-0.9-36.4-0.8
	c-12.1,0.1-24.2,0.5-36.4,0.9c-24.2,0.9-48.4,1.9-72.6,3.1c-24.2,1.1-48.4,2.4-72.6,3.7l-0.1,0l-0.1,0L773,483.6l-0.2,0l-0.1,0
	l-65.6-22.1l0.1,0l-260.9-52.7l0.4,0l-227.4,72.8c-18.8,6.2-38.2,11.8-57.4,17.6l-57.7,17.2L-11.1,550.9z"/>
<radialGradient id="SVGID_48_" cx="959.7289" cy="862.3555" r="690.8839" gradientTransform="matrix(1 0 0 0.6267 0 -50.7514)" gradientUnits="userSpaceOnUse">
	<stop  offset="0" style="stop-color:#263867"/>
	<stop  offset="1" style="stop-color:#141935"/>
</radialGradient>
<path class="st47" d="M-11,559.1l110.6-33.8l55.3-16.9c18.4-5.7,37-11.2,55.1-17.2l218.4-70.7l0.2-0.1l0.2,0l269,44.3l0.1,0l0.1,0
	l67.6,20.8l-0.3,0l583.3,39.1l-0.1,0c48.7-2.4,97.5-4.7,146.3-6.3c12.2-0.4,24.4-0.8,36.6-0.9c12.2-0.1,24.5,0.2,36.7,0.5
	c24.4,0.7,48.8,2,73.1,3.5c48.6,3,97.1,7,145.4,11.4c24.2,2.2,48.3,4.5,72.3,7c12,1.2,24.1,2.5,36.1,3.9c6,0.7,12,1.4,18,2.1
	c3,0.4,6,0.8,9,1.2c1.5,0.2,3,0.4,4.5,0.6c0.7,0.1,1.5,0.2,2.2,0.4c0.4,0.1,0.7,0.1,1.1,0.2c0.3,0.1,0.8,0.1,0.9,0.3
	c-0.2-0.2-0.6-0.2-0.9-0.3c-0.4-0.1-0.7-0.1-1.1-0.2c-0.7-0.1-1.5-0.2-2.2-0.4c-1.5-0.2-3-0.4-4.5-0.6c-3-0.4-6-0.8-9-1.1
	c-6-0.7-12-1.4-18-2.1c-12-1.3-24-2.6-36.1-3.8c-24.1-2.4-48.2-4.7-72.4-6.9c-48.3-4.3-96.8-8.2-145.4-11.2
	c-48.6-2.9-97.5-5.4-146.3-3.1c-48.8,1.7-97.5,3.9-146.2,6.4l-0.1,0l-0.1,0L765,486.3l-0.1,0l-0.1,0l-67.5-20.8l0.1,0L428.5,421
	l0.4,0l-218.6,70.6c-18.1,6-36.7,11.5-55.1,17.1l-55.4,16.8L-11,559.1z"/>
<radialGradient id="SVGID_49_" cx="959.7689" cy="878.6358" r="690.6048" gradientTransform="matrix(1 0 0 0.6267 0 -50.7514)" gradientUnits="userSpaceOnUse">
	<stop  offset="0" style="stop-color:#263867"/>
	<stop  offset="1" style="stop-color:#141935"/>
</radialGradient>
<path class="st48" d="M-11,567.3l106-33l53-16.5c17.7-5.5,35.4-10.9,52.8-16.7l209.6-68.5l0.2-0.1l0.2,0l277,36l0.1,0l0.1,0
	l69.5,19.5l-0.2,0l586.1,46.2l-0.1,0c49.1-2.3,98.2-4.4,147.3-5.9c49.2-2.1,98.5-0.3,147.5,2c49.1,2.4,98,5.7,146.8,9.4
	c24.4,1.9,48.8,3.9,73.1,6c12.2,1.1,24.3,2.2,36.5,3.4c6.1,0.6,12.1,1.2,18.2,1.9c3,0.3,6,0.7,9.1,1.1c1.5,0.2,3,0.4,4.5,0.6
	c0.7,0.1,1.5,0.2,2.2,0.3c0.4,0.1,0.7,0.1,1.1,0.2c0.3,0.1,0.8,0.1,0.9,0.3c-0.1-0.2-0.6-0.3-0.9-0.3c-0.4-0.1-0.7-0.1-1.1-0.2
	c-0.7-0.1-1.5-0.2-2.2-0.3c-1.5-0.2-3-0.4-4.5-0.6c-3-0.4-6-0.7-9.1-1c-6.1-0.7-12.1-1.3-18.2-1.9c-12.1-1.2-24.3-2.3-36.5-3.3
	c-24.3-2.1-48.7-4.1-73.1-5.9c-48.8-3.6-97.8-6.8-146.8-9.1c-49-2.3-98.3-4-147.4-1.9c-49.1,1.6-98.2,3.7-147.3,6l-0.1,0l-0.1,0
	l-586.1-46.1l-0.1,0l-0.1,0l-69.4-19.6l0.1,0l-276.9-36.2l0.4,0l-209.8,68.4c-17.4,5.8-35.2,11.1-52.9,16.6l-53.1,16.4L-11,567.3z"
	/>
<radialGradient id="SVGID_50_" cx="959.8087" cy="894.9163" r="690.333" gradientTransform="matrix(1 0 0 0.6267 0 -50.7514)" gradientUnits="userSpaceOnUse">
	<stop  offset="0" style="stop-color:#263867"/>
	<stop  offset="1" style="stop-color:#141935"/>
</radialGradient>
<path class="st49" d="M-10.9,575.5l101.4-32.1l50.7-16c16.9-5.4,33.9-10.6,50.5-16.2l200.9-66.3l0.2-0.1l0.2,0l285,27.8l0.1,0l0.1,0
	l71.4,18.3l-0.2,0l588.8,53.4l-0.1,0c49.4-2.2,98.9-4.1,148.4-5.5c12.4-0.3,24.8-0.7,37.2-0.9c12.4-0.2,24.8-0.1,37.2,0
	c24.8,0.3,49.6,0.9,74.3,1.8c49.5,1.7,98.9,4.3,148.2,7.3c24.7,1.5,49.3,3.2,73.9,5c12.3,0.9,24.6,1.9,36.9,2.9
	c6.1,0.5,12.3,1.1,18.4,1.6c3.1,0.3,6.1,0.6,9.2,0.9c1.5,0.2,3,0.3,4.6,0.5c0.8,0.1,1.5,0.2,2.3,0.3c0.4,0.1,0.7,0.1,1.1,0.2
	c0.2,0,0.4,0.1,0.5,0.1c0.2,0.1,0.4,0.1,0.4,0.2c0-0.1-0.2-0.2-0.4-0.2c-0.2,0-0.4-0.1-0.5-0.1c-0.4-0.1-0.7-0.1-1.1-0.2
	c-0.7-0.1-1.5-0.2-2.3-0.3c-1.5-0.2-3-0.4-4.6-0.5c-3-0.3-6.1-0.6-9.2-0.9c-6.1-0.6-12.3-1.1-18.4-1.6c-12.3-1-24.6-1.9-36.9-2.8
	c-24.6-1.8-49.2-3.4-73.9-4.8c-49.3-2.9-98.7-5.4-148.2-7.1c-49.5-1.7-99.1-2.7-148.6-0.8c-49.5,1.5-99,3.4-148.4,5.6l-0.1,0l-0.1,0
	l-588.8-53.2l-0.1,0l-0.1,0l-71.4-18.3l0.2,0l-284.9-27.9l0.3,0l-201,66.2c-16.7,5.6-33.7,10.8-50.6,16.1l-50.8,15.9L-10.9,575.5z"
	/>
<radialGradient id="SVGID_51_" cx="959.8486" cy="911.1965" r="690.0687" gradientTransform="matrix(1 0 0 0.6267 0 -50.7514)" gradientUnits="userSpaceOnUse">
	<stop  offset="0" style="stop-color:#263867"/>
	<stop  offset="1" style="stop-color:#141935"/>
</radialGradient>
<path class="st50" d="M-10.8,583.7l96.9-31.2l48.4-15.6c16.1-5.2,32.3-10.3,48.3-15.8L374.8,457l0.1,0l0.2,0l293,19.5l0.1,0l0.1,0
	l73.3,17l-0.1,0L1333,554l-0.1,0c49.8-2,99.7-3.8,149.6-5.1c12.5-0.3,24.9-0.7,37.4-0.9c12.5-0.2,25-0.2,37.5-0.2
	c25,0.1,50,0.4,74.9,1c49.9,1.1,99.8,3,149.6,5.3c24.9,1.2,49.8,2.4,74.6,3.9c12.4,0.7,24.8,1.5,37.3,2.3c6.2,0.4,12.4,0.9,18.6,1.4
	c3.1,0.3,6.2,0.5,9.3,0.8c1.5,0.2,3.1,0.3,4.6,0.5c0.8,0.1,1.5,0.2,2.3,0.3c0.4,0.1,0.8,0.1,1.1,0.2c0.2,0,0.4,0.1,0.5,0.1
	c0.2,0.1,0.4,0.1,0.4,0.2c0-0.1-0.2-0.2-0.4-0.2c-0.2,0-0.4-0.1-0.5-0.1c-0.4-0.1-0.7-0.1-1.1-0.2c-0.8-0.1-1.5-0.2-2.3-0.3
	c-1.5-0.2-3.1-0.3-4.6-0.5c-3.1-0.3-6.2-0.6-9.3-0.8c-6.2-0.5-12.4-0.9-18.6-1.3c-12.4-0.8-24.8-1.6-37.3-2.3
	c-24.9-1.4-49.7-2.6-74.6-3.7c-49.8-2.2-99.7-3.9-149.6-5.1c-25-0.5-49.9-0.9-74.9-1c-12.5,0-25,0-37.4,0.2
	c-12.5,0.2-24.9,0.6-37.4,0.9c-49.9,1.4-99.7,3.2-149.6,5.2l-0.1,0l-0.1,0l-591.6-60.4l-0.1,0l-0.1,0l-73.3-17l0.2,0L375,457.5
	l0.3,0l-192.2,64c-16,5.4-32.2,10.5-48.4,15.7l-48.5,15.5L-10.8,583.7z"/>
<radialGradient id="SVGID_52_" cx="959.8893" cy="927.4764" r="689.812" gradientTransform="matrix(1 0 0 0.6267 0 -50.7514)" gradientUnits="userSpaceOnUse">
	<stop  offset="0" style="stop-color:#263867"/>
	<stop  offset="1" style="stop-color:#141935"/>
</radialGradient>
<path class="st51" d="M-10.7,591.9l92.3-30.3l46.1-15.2c15.4-5.1,30.8-10.1,46-15.3l183.3-62l0.1,0l0.1,0l300.9,11.3l0.1,0l0.1,0
	l75.2,15.7l-0.1,0l594.3,67.7l-0.2,0c50.2-1.8,100.5-3.5,150.8-4.7c50.3-1.5,100.7-1.5,151-1c50.3,0.5,100.6,1.7,150.9,3.3
	c25.1,0.8,50.3,1.7,75.4,2.7c12.6,0.5,25.1,1.1,37.6,1.8c6.3,0.3,12.5,0.7,18.8,1.1c3.1,0.2,6.3,0.4,9.4,0.7
	c1.6,0.1,3.1,0.3,4.7,0.4c0.8,0.1,1.5,0.2,2.3,0.3c0.4,0.1,0.8,0.1,1.1,0.2c0.2,0,0.4,0.1,0.5,0.1c0.2,0.1,0.4,0.1,0.4,0.2
	c0-0.1-0.2-0.2-0.4-0.2c-0.2-0.1-0.4-0.1-0.5-0.1c-0.4-0.1-0.8-0.1-1.1-0.2c-0.8-0.1-1.5-0.2-2.3-0.3c-1.5-0.2-3.1-0.3-4.7-0.4
	c-3.1-0.3-6.2-0.5-9.4-0.7c-6.3-0.4-12.5-0.7-18.8-1.1c-12.5-0.6-25.1-1.2-37.6-1.7c-25.1-1-50.2-1.8-75.4-2.6
	c-50.3-1.5-100.6-2.5-150.9-3c-50.3-0.5-100.7-0.4-150.9,1.1c-50.3,1.3-100.5,3-150.8,4.8l-0.1,0l-0.1,0l-594.3-67.6l-0.1,0l0,0
	L658,481.1l0.2,0l-300.9-11.4l0.3,0L174,531.5c-15.2,5.2-30.7,10.2-46.1,15.2l-46.2,15.1L-10.7,591.9z"/>
<radialGradient id="SVGID_53_" cx="959.9303" cy="943.7563" r="689.5628" gradientTransform="matrix(1 0 0 0.6267 0 -50.7514)" gradientUnits="userSpaceOnUse">
	<stop  offset="0" style="stop-color:#263867"/>
	<stop  offset="1" style="stop-color:#141935"/>
</radialGradient>
<path class="st52" d="M-10.6,600.1L77,570.7l43.8-14.7c14.6-4.9,29.3-9.8,43.8-14.8l174.5-59.8l0.1,0l0.1,0l308.9,3l0.1,0l0.1,0
	l77.2,14.5l-0.1,0l597,74.8l-0.2,0c50.7-1.7,101.3-3.1,152-4.3c50.7-1.3,101.4-1.8,152.2-1.8c50.7,0,101.5,0.5,152.2,1.3
	c25.4,0.4,50.7,0.9,76.1,1.5c12.7,0.3,25.3,0.7,38,1.1c6.3,0.2,12.7,0.5,19,0.8c3.2,0.2,6.3,0.3,9.5,0.5c1.6,0.1,3.1,0.2,4.7,0.4
	c0.8,0.1,1.6,0.2,2.3,0.3c0.4,0.1,0.8,0.1,1.1,0.2c0.2,0,0.4,0.1,0.6,0.1c0.2,0.1,0.4,0.1,0.4,0.2c0-0.1-0.2-0.2-0.4-0.2
	c-0.2-0.1-0.4-0.1-0.6-0.1c-0.4-0.1-0.8-0.1-1.1-0.2c-0.8-0.1-1.6-0.2-2.3-0.2c-1.6-0.1-3.1-0.3-4.7-0.4c-3.2-0.2-6.3-0.4-9.5-0.5
	c-6.3-0.3-12.7-0.5-19-0.8c-12.7-0.4-25.3-0.8-38-1.1c-25.3-0.6-50.7-1-76.1-1.4c-50.7-0.7-101.5-1-152.2-1
	c-50.7,0-101.5,0.5-152.1,1.9c-50.7,1.2-101.4,2.7-152,4.4l-0.1,0l-0.1,0l-597-74.7l0,0l0,0l-77.1-14.5l0.2,0l-308.9-3.2l0.3,0
	l-174.7,59.6c-14.5,5-29.2,9.8-43.8,14.7l-43.9,14.7L-10.6,600.1z"/>
<radialGradient id="SVGID_54_" cx="959.9716" cy="955.8443" r="689.6058" gradientTransform="matrix(1 0 0 0.6267 0 -50.7514)" gradientUnits="userSpaceOnUse">
	<stop  offset="0" style="stop-color:#263867"/>
	<stop  offset="1" style="stop-color:#141935"/>
</radialGradient>
<path class="st53" d="M-10.6,608.3l83.1-28.6c27.7-9.5,55.4-19,83-28.6l165.8-57.6l0.1,0l0.1,0l316.9-5.3l0.1,0l0.1,0l42,7l21,3.5
	l10.5,1.8l5.2,0.9c1.8,0.3,3.5,0.5,5.3,0.7l85,11.6l170,23.2l339.8,46.6l-0.2,0l153.3-3.9c25.6-0.7,51.1-1.2,76.7-1.6
	c25.6-0.4,51.1-0.7,76.7-1c51.2-0.5,102.3-0.8,153.5-0.7c25.6,0,51.2,0.1,76.7,0.3c12.8,0.1,25.6,0.3,38.4,0.5
	c6.4,0.1,12.8,0.3,19.2,0.5c3.2,0.1,6.4,0.2,9.6,0.4c1.6,0.1,3.2,0.2,4.8,0.3c0.8,0.1,1.6,0.1,2.4,0.2c0.4,0,0.8,0.1,1.2,0.2
	c0.2,0,0.4,0.1,0.6,0.1c0.2,0.1,0.4,0.1,0.3,0.3c0.1-0.1-0.2-0.2-0.3-0.3c-0.2-0.1-0.4-0.1-0.6-0.1c-0.4-0.1-0.8-0.1-1.2-0.2
	c-0.8-0.1-1.6-0.2-2.4-0.2c-1.6-0.1-3.2-0.2-4.8-0.3c-3.2-0.2-6.4-0.3-9.6-0.4c-6.4-0.2-12.8-0.3-19.2-0.4
	c-12.8-0.2-25.6-0.3-38.4-0.4c-25.6-0.2-51.2-0.2-76.7-0.2c-51.2,0.1-102.3,0.4-153.5,1c-25.6,0.3-51.1,0.6-76.7,1.1
	c-25.6,0.4-51.1,1-76.7,1.7l-153.3,4l-0.1,0l-0.1,0l-340-46.3l-169.9-23.3l-85-11.6c-1.8-0.2-3.5-0.5-5.3-0.7l-5.2-0.9l-10.5-1.8
	l-21-3.5l-42-7l0.2,0l-316.9,5l0.2,0l-165.9,57.4c-27.7,9.6-55.5,19-83.2,28.5L-10.6,608.3z"/>
<radialGradient id="SVGID_55_" cx="960.0118" cy="965.5353" r="689.8191" gradientTransform="matrix(1 0 0 0.6267 0 -50.7514)" gradientUnits="userSpaceOnUse">
	<stop  offset="0" style="stop-color:#263867"/>
	<stop  offset="1" style="stop-color:#141935"/>
</radialGradient>
<path class="st54" d="M-10.5,616.6l313.9-110.8l0.1,0l0.1,0l324.9-13.5l0.1,0l0.1,0l341.8,50.5l341.7,50.7l-0.2,0
	c103.1-2.5,206.2-4.7,309.4-6.8c51.6-1,103.1-1.9,154.7-2.7c25.8-0.4,51.6-0.7,77.4-0.9c12.9-0.1,25.8-0.2,38.7-0.1
	c6.4,0,12.9,0,19.3,0.1c3.2,0,6.4,0.1,9.7,0.2c1.6,0.1,3.2,0.1,4.8,0.2c0.8,0.1,1.6,0.1,2.4,0.2c0.4,0,0.8,0.1,1.2,0.2
	c0.2,0,0.4,0.1,0.6,0.1c0.2,0.1,0.4,0.1,0.3,0.3c0.1-0.1-0.2-0.2-0.3-0.3c-0.2-0.1-0.4-0.1-0.6-0.1c-0.4-0.1-0.8-0.1-1.2-0.2
	c-0.8-0.1-1.6-0.1-2.4-0.2c-1.6-0.1-3.2-0.2-4.8-0.2c-3.2-0.1-6.4-0.2-9.7-0.2c-6.4-0.1-12.9-0.1-19.3-0.1
	c-12.9,0-25.8,0.1-38.7,0.2c-25.8,0.2-51.6,0.6-77.4,1c-51.6,0.8-103.1,1.9-154.7,2.9c-103.1,2.1-206.2,4.5-309.3,7l-0.1,0l-0.1,0
	l-341.8-50.4l-341.7-50.6l0.2,0l-324.9,13.3l0.2,0L-10.5,616.6z"/>
</svg>
