<svg xmlns="http://www.w3.org/2000/svg" xmlns:xlink="http://www.w3.org/1999/xlink" viewBox="0 0 788 443"><defs><style>.a{opacity:0.8;}.b{fill:url(#a);}.c{fill:url(#b);}</style><linearGradient id="a" y1="221.5" x2="788" y2="221.5" gradientUnits="userSpaceOnUse"><stop offset="0" stop-color="#16244c"/><stop offset="1" stop-color="#233470"/></linearGradient><linearGradient id="b" x1="394.00052" y1="174.59505" x2="394.00052" y2="270.44997" gradientUnits="userSpaceOnUse"><stop offset="0" stop-color="#22bac1"/><stop offset="1" stop-color="#6448e5"/></linearGradient></defs><title>youtube_sampe</title><g class="a"><rect class="b" width="788" height="443" rx="16.50386"/></g><path class="c" d="M432.5861,175.20173H355.41492A27.4149,27.4149,0,0,0,328,202.61665v38.57743A27.41491,27.41491,0,0,0,355.41492,268.609h77.17119A27.41491,27.41491,0,0,0,460.001,241.19408V202.61665A27.41492,27.41492,0,0,0,432.5861,175.20173ZM414.04559,223.7823l-36.09547,17.21536a1.449,1.449,0,0,1-2.07279-1.308V204.18291a1.449,1.449,0,0,1,2.104-1.29252l36.09547,18.2914A1.449,1.449,0,0,1,414.04559,223.7823Z"/></svg>