<svg xmlns="http://www.w3.org/2000/svg" xmlns:xlink="http://www.w3.org/1999/xlink" viewBox="0 0 1920 1134.53"><defs><style>.aaab1038-d3c1-4bbf-84a4-a38b67039f20{isolation:isolate;}.f4d73422-bae1-4f04-9bb7-7c66a2c82c31{fill:url(#b899aacd-cb1f-4399-a90f-6eac22388ba6);}.a230eeaf-198f-4039-af67-45932c20cda3{fill:url(#f3a285a6-cf28-47f1-b1e2-14d26440fd24);}.ff709a1e-08a3-44e0-af0f-c61ed8acdd99{fill:url(#bd4e7749-9bfb-4eb4-9ff2-33469730f29b);}.b8f3410f-7d80-43f1-bd09-a2fe9358b2d9{fill:url(#bd1373a8-aca6-4e6d-83f8-5851581ecccc);}.fd4f08a4-cdbc-4472-bbec-7e2e7a587310{fill:url(#b8179db2-9baf-41ba-9ec6-73d3b275b5cb);}.f51805c9-c354-4015-a76b-5ce9fa663ed3{fill:url(#bc9518ca-d3b3-42b1-9e00-29bf3dc079af);}.a9f2f3ce-0a5a-4490-a1a2-a7316faf85a3{fill:url(#fa7d9c99-999f-4048-adaa-153d614e1d77);}.a30872b2-43ae-448a-b694-39e335409a2b{fill:url(#bc61d79a-aa61-43ee-8bd9-2eaf4022e286);}.b35acb60-8b41-402c-a64a-a925425e88ea{fill:url(#ae578b8a-1731-461a-8638-408c15a29cd0);}.e01553ff-6dfe-4613-b219-6233d1f866a4{fill:url(#ef877c6a-9ae8-474d-b0cd-9c6b2ceaf977);}.f932beeb-dbf3-4a9d-bbcf-b6f6340b5ac2{fill:url(#a11a790e-b355-4146-87ad-fa37106e9db8);}.fc9d4d6b-3857-4ccd-b584-351eaac67fb2{fill:url(#a7000d8e-49d0-45b9-a1f8-6385affc6d46);}.fc33871e-99d4-4631-8bd0-f081fc7b942e{fill:url(#b1dcd83e-51f0-4929-b17b-146d0c9ec757);}.e61661dc-8eff-4257-a6fb-57ba77dca362{fill:url(#f548e1d6-a030-4a99-acae-609a28d01e29);}.e9c0e52b-1a9c-4ab3-81c6-169ab4152575{fill:url(#bc1c23bd-0c19-498e-88a8-45bbc8f2f55f);}.a21d73cb-22f5-4d71-a8a1-e1fd117ad7e2{fill:url(#a213bd79-5da0-4c03-bc67-063681243c73);}.b4de1676-e2d7-4850-852d-a9e92fab85da{fill:url(#bd9125b9-1416-4f31-958c-8052e9363e89);}.a735e4a6-145c-41af-a32f-b0a1a363dd85{fill:url(#abf53789-0880-4b4e-8e2b-9534a5d0d8d3);}.bf054f6a-94b2-44d4-9e54-063ec4a509da{fill:url(#b03d00f2-8f24-4464-84ab-a11fe2adb2c3);}.f6750279-fb65-4937-a469-385b42f747ee{fill:url(#b0519a1a-9cfc-4dd5-8fcb-23d2d24ffe79);}.ad87657b-9736-480d-b4c9-c32fdb19f0c5{fill:url(#ea38c812-3976-4ae1-87ca-7e2fe9c3b320);}.bb97ec4f-0b99-4a01-82e1-a06949bb363c{fill:url(#ecdc1e37-f9c6-4350-b5d1-2c9805003390);}.b10f3e37-ff88-4d36-a39c-ba388565ffa2{fill:url(#b373ba5d-5a12-418b-a1f3-82d15fb9823b);}.e70a18bc-c1e9-40ff-baf6-2d6ffc416a1f{fill:url(#b3954681-9b36-4ac1-b281-9111892e87c3);}.e74df224-8762-43f2-b61c-84c1daf6c33d{fill:url(#efc1cfcd-5c23-46a7-a590-2497ca39c5eb);}.f24a9ad5-0b40-4237-a50d-0a0a2edf2846{fill:url(#b4f8330a-0637-4e9e-bb7f-05ccd652fae7);}.e30bb98b-1e72-4d31-b6de-d99a1d58bb8b{fill:url(#be819ff8-3693-497e-b3de-1d133409712a);}.a918bf50-367e-457c-961b-2fc7d8fe97a4{fill:url(#aca13bc1-776e-4818-9adf-5174319f4c05);}.ed8f2a9e-f8e9-484d-a57d-e1897df010ae{fill:url(#e4207f2e-c009-410e-a041-9ba7578f4331);}.b758df78-6b8b-4e57-9161-8d677c49d2e2{fill:url(#a9bd6c3c-be73-4b9d-b4c3-8d45f2896987);}.f2ce65a5-820d-4876-b0d2-4fdaf098a3f3{fill:url(#fd2dd47a-3903-4313-a127-f2952cbfb3fc);}.a6cba9aa-9945-4f8f-b609-fd72e823cfd9{fill:url(#bd82303f-3fa4-4ee8-be68-72f5ed94db1c);}.efc746fb-728c-4cce-9a95-bfefc6c546d1{fill:url(#f60da359-1ed0-431f-9217-078e1cebce18);}.aeede748-af95-4e6d-a155-806d21d9f1b8{fill:url(#b685902a-42b6-48d9-b0db-72a8ffafb560);}.e0ba0042-1351-4236-b223-512fa2871a40{fill:url(#a47f1f10-e8e7-446b-b362-bdb131af35f3);}.f856bc7b-c2b5-40f6-8e55-3097f6b4b443{fill:url(#a730aea9-1cdc-4824-b613-c73b24d172fc);}.e754eb80-89bf-48f4-8e03-805c6f4694a9{fill:url(#b87e243a-fed8-47ed-bc5b-e9454ffc55c4);}.f6ea066e-878b-42c5-bc5a-634fd56ddaf0{fill:url(#a1691f92-40fc-4222-865c-57941b70c4a4);}.e490b785-8d7a-40c8-ac91-01c594f50c90{fill:url(#b340d7bf-16e3-4ced-bf8b-3a0b1e65b214);}.a06f80eb-58f3-4325-a732-0006a9dbdd2c{fill:url(#a5982427-bc5c-4b6e-83b0-ed7010e8a9e6);}.feda19df-bab5-4ee5-a3b8-96e025b8d93a{fill:url(#b901f3bb-22fa-4cc6-b509-306fa5600306);}.b8a19a5d-06f3-4382-91a7-9d0db92066f6{fill:url(#ba27e843-31b2-4b7f-84ff-9cb0f3dbf094);}.e31a0fe9-ec51-4ade-8823-3dc8239d4b3f{fill:url(#f61f6a91-be2a-47c8-b905-54091959d3b5);}.b3f65ef7-9c38-4e05-83e4-314a2583c086{fill:url(#bd5777a9-31a5-4620-be38-a9556e2e96e9);}.b743b6c9-3f16-4d82-bd82-a9e0a3223968{fill:url(#ff138343-0678-4178-a25f-e64e57f713d6);}.ebef373c-46f9-4ac6-aa26-519c095fea2c{fill:url(#b8cdff57-779f-463e-b6c0-838ec063db4c);}.f7ab479b-447d-4a4c-9551-702394bf9960{fill:url(#b803527d-e540-4e91-b67f-0fc5079cf207);}.aca803d9-1f95-42d9-a52b-7ee0b2b68fe4{fill:url(#af6c2d10-060a-4115-953f-e5a83970cae6);}.bc9f5510-3910-4842-ab4c-1c32a3d0493a{fill:url(#b4fab7ac-bbab-47a2-b4cc-6c888f698c0f);}.a5aa136d-b89e-4206-893a-973e283c0be0{fill-rule:evenodd;mix-blend-mode:lighten;fill:url(#a9bf93fe-d9ec-45ae-82b3-dbdcac2a4636);}</style><radialGradient id="b899aacd-cb1f-4399-a90f-6eac22388ba6" cx="241.28" cy="393.35" r="3.08" gradientUnits="userSpaceOnUse"><stop offset="0" stop-color="#478bff"/><stop offset="1" stop-opacity="0"/></radialGradient><radialGradient id="f3a285a6-cf28-47f1-b1e2-14d26440fd24" cx="345.82" cy="394.89" r="1.54" xlink:href="#b899aacd-cb1f-4399-a90f-6eac22388ba6"/><radialGradient id="bd4e7749-9bfb-4eb4-9ff2-33469730f29b" cx="476.14" cy="300.66" r="2.16" xlink:href="#b899aacd-cb1f-4399-a90f-6eac22388ba6"/><radialGradient id="bd1373a8-aca6-4e6d-83f8-5851581ecccc" cx="529.93" cy="342.81" r="2.74" xlink:href="#b899aacd-cb1f-4399-a90f-6eac22388ba6"/><radialGradient id="b8179db2-9baf-41ba-9ec6-73d3b275b5cb" cx="566.42" cy="281.21" r="1.33" xlink:href="#b899aacd-cb1f-4399-a90f-6eac22388ba6"/><radialGradient id="bc9518ca-d3b3-42b1-9e00-29bf3dc079af" cx="566.42" cy="228.67" r="1.33" xlink:href="#b899aacd-cb1f-4399-a90f-6eac22388ba6"/><radialGradient id="fa7d9c99-999f-4048-adaa-153d614e1d77" cx="633.84" cy="352.29" r="1.25" xlink:href="#b899aacd-cb1f-4399-a90f-6eac22388ba6"/><radialGradient id="bc61d79a-aa61-43ee-8bd9-2eaf4022e286" cx="708.83" cy="336.83" r="1.41" xlink:href="#b899aacd-cb1f-4399-a90f-6eac22388ba6"/><radialGradient id="ae578b8a-1731-461a-8638-408c15a29cd0" cx="718.31" cy="336" r="2.24" xlink:href="#b899aacd-cb1f-4399-a90f-6eac22388ba6"/><radialGradient id="ef877c6a-9ae8-474d-b0cd-9c6b2ceaf977" cx="148.09" cy="485.22" r="1.23" xlink:href="#b899aacd-cb1f-4399-a90f-6eac22388ba6"/><radialGradient id="a11a790e-b355-4146-87ad-fa37106e9db8" cx="299.47" cy="622.81" r="2.08" xlink:href="#b899aacd-cb1f-4399-a90f-6eac22388ba6"/><radialGradient id="a7000d8e-49d0-45b9-a1f8-6385affc6d46" cx="288.75" cy="195.41" r="2.16" xlink:href="#b899aacd-cb1f-4399-a90f-6eac22388ba6"/><radialGradient id="b1dcd83e-51f0-4929-b17b-146d0c9ec757" cx="598.9" cy="3.33" r="3.33" xlink:href="#b899aacd-cb1f-4399-a90f-6eac22388ba6"/><radialGradient id="f548e1d6-a030-4a99-acae-609a28d01e29" cx="728.06" cy="920.16" r="4.59" xlink:href="#b899aacd-cb1f-4399-a90f-6eac22388ba6"/><radialGradient id="bc1c23bd-0c19-498e-88a8-45bbc8f2f55f" cx="320.82" cy="686.76" r="5.41" xlink:href="#b899aacd-cb1f-4399-a90f-6eac22388ba6"/><radialGradient id="a213bd79-5da0-4c03-bc67-063681243c73" cx="1687.75" cy="523.03" r="4.59" xlink:href="#b899aacd-cb1f-4399-a90f-6eac22388ba6"/><radialGradient id="bd9125b9-1416-4f31-958c-8052e9363e89" cx="1557.98" cy="718.9" r="4.59" xlink:href="#b899aacd-cb1f-4399-a90f-6eac22388ba6"/><radialGradient id="abf53789-0880-4b4e-8e2b-9534a5d0d8d3" cx="1397.22" cy="180" r="4.59" xlink:href="#b899aacd-cb1f-4399-a90f-6eac22388ba6"/><radialGradient id="b03d00f2-8f24-4464-84ab-a11fe2adb2c3" cx="619.95" cy="175.4" r="4.59" xlink:href="#b899aacd-cb1f-4399-a90f-6eac22388ba6"/><radialGradient id="b0519a1a-9cfc-4dd5-8fcb-23d2d24ffe79" cx="484.69" cy="484.84" r="4.59" xlink:href="#b899aacd-cb1f-4399-a90f-6eac22388ba6"/><radialGradient id="ea38c812-3976-4ae1-87ca-7e2fe9c3b320" cx="1134.07" cy="508" r="4.59" xlink:href="#b899aacd-cb1f-4399-a90f-6eac22388ba6"/><radialGradient id="ecdc1e37-f9c6-4350-b5d1-2c9805003390" cx="401.81" cy="567.19" r="2.99" xlink:href="#b899aacd-cb1f-4399-a90f-6eac22388ba6"/><radialGradient id="b373ba5d-5a12-418b-a1f3-82d15fb9823b" cx="785.73" cy="464.61" r="2.16" xlink:href="#b899aacd-cb1f-4399-a90f-6eac22388ba6"/><radialGradient id="b3954681-9b36-4ac1-b281-9111892e87c3" cx="758.38" cy="529.04" r="2.41" xlink:href="#b899aacd-cb1f-4399-a90f-6eac22388ba6"/><radialGradient id="efc1cfcd-5c23-46a7-a590-2497ca39c5eb" cx="775.59" cy="539.59" r="1.66" xlink:href="#b899aacd-cb1f-4399-a90f-6eac22388ba6"/><radialGradient id="b4f8330a-0637-4e9e-bb7f-05ccd652fae7" cx="811.34" cy="565.37" r="2.83" xlink:href="#b899aacd-cb1f-4399-a90f-6eac22388ba6"/><radialGradient id="be819ff8-3693-497e-b3de-1d133409712a" cx="1066.31" cy="493.45" r="1.75" xlink:href="#b899aacd-cb1f-4399-a90f-6eac22388ba6"/><radialGradient id="aca13bc1-776e-4818-9adf-5174319f4c05" cx="1069.2" cy="473.65" r="2.89" xlink:href="#b899aacd-cb1f-4399-a90f-6eac22388ba6"/><radialGradient id="e4207f2e-c009-410e-a041-9ba7578f4331" cx="1210.22" cy="606.1" r="3.99" xlink:href="#b899aacd-cb1f-4399-a90f-6eac22388ba6"/><radialGradient id="a9bd6c3c-be73-4b9d-b4c3-8d45f2896987" cx="1391.62" cy="475.69" r="4.93" xlink:href="#b899aacd-cb1f-4399-a90f-6eac22388ba6"/><radialGradient id="fd2dd47a-3903-4313-a127-f2952cbfb3fc" cx="1238.93" cy="356.36" r="2.11" xlink:href="#b899aacd-cb1f-4399-a90f-6eac22388ba6"/><radialGradient id="bd82303f-3fa4-4ee8-be68-72f5ed94db1c" cx="1269.97" cy="213.59" r="2.55" xlink:href="#b899aacd-cb1f-4399-a90f-6eac22388ba6"/><radialGradient id="f60da359-1ed0-431f-9217-078e1cebce18" cx="1253.15" cy="173.71" r="1.69" xlink:href="#b899aacd-cb1f-4399-a90f-6eac22388ba6"/><radialGradient id="b685902a-42b6-48d9-b0db-72a8ffafb560" cx="1443.44" cy="266.02" r="1.33" xlink:href="#b899aacd-cb1f-4399-a90f-6eac22388ba6"/><radialGradient id="a47f1f10-e8e7-446b-b362-bdb131af35f3" cx="1521.38" cy="495.12" r="1.67" xlink:href="#b899aacd-cb1f-4399-a90f-6eac22388ba6"/><radialGradient id="a730aea9-1cdc-4824-b613-c73b24d172fc" cx="1565.16" cy="508.04" r="2.58" xlink:href="#b899aacd-cb1f-4399-a90f-6eac22388ba6"/><radialGradient id="b87e243a-fed8-47ed-bc5b-e9454ffc55c4" cx="1590.41" cy="515.02" r="2.43" xlink:href="#b899aacd-cb1f-4399-a90f-6eac22388ba6"/><radialGradient id="a1691f92-40fc-4222-865c-57941b70c4a4" cx="1517.93" cy="637.58" r="1.77" xlink:href="#b899aacd-cb1f-4399-a90f-6eac22388ba6"/><radialGradient id="b340d7bf-16e3-4ced-bf8b-3a0b1e65b214" cx="1591.31" cy="268.02" r="3.33" xlink:href="#b899aacd-cb1f-4399-a90f-6eac22388ba6"/><radialGradient id="a5982427-bc5c-4b6e-83b0-ed7010e8a9e6" cx="1644.96" cy="285.75" r="2" xlink:href="#b899aacd-cb1f-4399-a90f-6eac22388ba6"/><radialGradient id="b901f3bb-22fa-4cc6-b509-306fa5600306" cx="1635.21" cy="76.03" r="1.55" xlink:href="#b899aacd-cb1f-4399-a90f-6eac22388ba6"/><radialGradient id="ba27e843-31b2-4b7f-84ff-9cb0f3dbf094" cx="1627.23" cy="70.71" r="2" xlink:href="#b899aacd-cb1f-4399-a90f-6eac22388ba6"/><radialGradient id="f61f6a91-be2a-47c8-b905-54091959d3b5" cx="1739.96" cy="184.33" r="2.11" xlink:href="#b899aacd-cb1f-4399-a90f-6eac22388ba6"/><radialGradient id="bd5777a9-31a5-4620-be38-a9556e2e96e9" cx="1872.98" cy="164.82" r="1.66" xlink:href="#b899aacd-cb1f-4399-a90f-6eac22388ba6"/><radialGradient id="ff138343-0678-4178-a25f-e64e57f713d6" cx="1775.24" cy="358.72" r="2.36" xlink:href="#b899aacd-cb1f-4399-a90f-6eac22388ba6"/><radialGradient id="b8cdff57-779f-463e-b6c0-838ec063db4c" cx="1759.69" cy="462.11" r="3.21" xlink:href="#b899aacd-cb1f-4399-a90f-6eac22388ba6"/><radialGradient id="b803527d-e540-4e91-b67f-0fc5079cf207" cx="800.75" cy="285.09" r="1.55" xlink:href="#b899aacd-cb1f-4399-a90f-6eac22388ba6"/><radialGradient id="af6c2d10-060a-4115-953f-e5a83970cae6" cx="487.11" cy="811" r="2.05" xlink:href="#b899aacd-cb1f-4399-a90f-6eac22388ba6"/><radialGradient id="b4fab7ac-bbab-47a2-b4cc-6c888f698c0f" cx="477.36" cy="830.73" r="1.61" xlink:href="#b899aacd-cb1f-4399-a90f-6eac22388ba6"/><radialGradient id="a9bf93fe-d9ec-45ae-82b3-dbdcac2a4636" cx="960" cy="784.54" r="1325.37" gradientTransform="matrix(1, 0, 0, 0.3, -0.2, 547.96)" gradientUnits="userSpaceOnUse"><stop offset="0" stop-color="#263867"/><stop offset="1" stop-color="#141935"/></radialGradient></defs><title>1</title><g class="aaab1038-d3c1-4bbf-84a4-a38b67039f20"><g id="ea0bc6a2-1c5e-46aa-993a-fef4cda7c2ca" data-name="Layer 1"><g id="a1bbd553-1a92-4256-b048-7238ad45f1c9" data-name="Layer 4"><circle class="f4d73422-bae1-4f04-9bb7-7c66a2c82c31" cx="241.28" cy="393.35" r="3.08"/><circle class="a230eeaf-198f-4039-af67-45932c20cda3" cx="345.82" cy="394.89" r="1.54"/><circle class="ff709a1e-08a3-44e0-af0f-c61ed8acdd99" cx="476.14" cy="300.66" r="2.16"/><circle class="b8f3410f-7d80-43f1-bd09-a2fe9358b2d9" cx="529.93" cy="342.81" r="2.74"/><circle class="fd4f08a4-cdbc-4472-bbec-7e2e7a587310" cx="566.42" cy="281.21" r="1.33"/><circle class="f51805c9-c354-4015-a76b-5ce9fa663ed3" cx="566.42" cy="228.67" r="1.33"/><circle class="a9f2f3ce-0a5a-4490-a1a2-a7316faf85a3" cx="633.84" cy="352.29" r="1.25"/><circle class="a30872b2-43ae-448a-b694-39e335409a2b" cx="708.83" cy="336.83" r="1.41"/><circle class="b35acb60-8b41-402c-a64a-a925425e88ea" cx="718.31" cy="336" r="2.24"/><ellipse class="e01553ff-6dfe-4613-b219-6233d1f866a4" cx="148.09" cy="485.22" rx="1.66" ry="0.5"/><circle class="f932beeb-dbf3-4a9d-bbcf-b6f6340b5ac2" cx="299.47" cy="622.81" r="2.08"/><circle class="fc9d4d6b-3857-4ccd-b584-351eaac67fb2" cx="288.75" cy="195.41" r="2.16"/><circle class="fc33871e-99d4-4631-8bd0-f081fc7b942e" cx="598.9" cy="3.33" r="3.33"/><circle class="e61661dc-8eff-4257-a6fb-57ba77dca362" cx="728.06" cy="920.16" r="4.59"/><circle class="e9c0e52b-1a9c-4ab3-81c6-169ab4152575" cx="320.82" cy="686.76" r="5.41"/><circle class="a21d73cb-22f5-4d71-a8a1-e1fd117ad7e2" cx="1687.75" cy="523.03" r="4.59"/><circle class="b4de1676-e2d7-4850-852d-a9e92fab85da" cx="1557.98" cy="718.9" r="4.59"/><circle class="a735e4a6-145c-41af-a32f-b0a1a363dd85" cx="1397.22" cy="180" r="4.59"/><circle class="bf054f6a-94b2-44d4-9e54-063ec4a509da" cx="619.95" cy="175.4" r="4.59"/><circle class="f6750279-fb65-4937-a469-385b42f747ee" cx="484.69" cy="484.84" r="4.59"/><circle class="ad87657b-9736-480d-b4c9-c32fdb19f0c5" cx="1134.07" cy="508" r="4.59"/><circle class="bb97ec4f-0b99-4a01-82e1-a06949bb363c" cx="401.81" cy="567.19" r="2.99"/><circle class="b10f3e37-ff88-4d36-a39c-ba388565ffa2" cx="785.73" cy="464.61" r="2.16"/><circle class="e70a18bc-c1e9-40ff-baf6-2d6ffc416a1f" cx="758.38" cy="529.04" r="2.41"/><circle class="e74df224-8762-43f2-b61c-84c1daf6c33d" cx="775.59" cy="539.59" r="1.66"/><circle class="f24a9ad5-0b40-4237-a50d-0a0a2edf2846" cx="811.34" cy="565.37" r="2.83"/><circle class="e30bb98b-1e72-4d31-b6de-d99a1d58bb8b" cx="1066.31" cy="493.45" r="1.75"/><circle class="a918bf50-367e-457c-961b-2fc7d8fe97a4" cx="1069.2" cy="473.65" r="2.89"/><circle class="ed8f2a9e-f8e9-484d-a57d-e1897df010ae" cx="1210.22" cy="606.1" r="3.99"/><circle class="b758df78-6b8b-4e57-9161-8d677c49d2e2" cx="1391.62" cy="475.69" r="4.93"/><circle class="f2ce65a5-820d-4876-b0d2-4fdaf098a3f3" cx="1238.93" cy="356.36" r="2.11"/><circle class="a6cba9aa-9945-4f8f-b609-fd72e823cfd9" cx="1269.97" cy="213.59" r="2.55"/><circle class="efc746fb-728c-4cce-9a95-bfefc6c546d1" cx="1253.15" cy="173.71" r="1.69"/><circle class="aeede748-af95-4e6d-a155-806d21d9f1b8" cx="1443.44" cy="266.02" r="1.33"/><circle class="e0ba0042-1351-4236-b223-512fa2871a40" cx="1521.38" cy="495.12" r="1.67"/><circle class="f856bc7b-c2b5-40f6-8e55-3097f6b4b443" cx="1565.16" cy="508.04" r="2.58"/><circle class="e754eb80-89bf-48f4-8e03-805c6f4694a9" cx="1590.41" cy="515.02" r="2.43"/><circle class="f6ea066e-878b-42c5-bc5a-634fd56ddaf0" cx="1517.93" cy="637.58" r="1.77"/><circle class="e490b785-8d7a-40c8-ac91-01c594f50c90" cx="1591.31" cy="268.02" r="3.33"/><circle class="a06f80eb-58f3-4325-a732-0006a9dbdd2c" cx="1644.96" cy="285.75" r="2"/><circle class="feda19df-bab5-4ee5-a3b8-96e025b8d93a" cx="1635.21" cy="76.03" r="1.55"/><circle class="b8a19a5d-06f3-4382-91a7-9d0db92066f6" cx="1627.23" cy="70.71" r="2"/><circle class="e31a0fe9-ec51-4ade-8823-3dc8239d4b3f" cx="1739.96" cy="184.33" r="2.11"/><circle class="b3f65ef7-9c38-4e05-83e4-314a2583c086" cx="1872.98" cy="164.82" r="1.66"/><circle class="b743b6c9-3f16-4d82-bd82-a9e0a3223968" cx="1775.24" cy="358.72" r="2.36"/><circle class="ebef373c-46f9-4ac6-aa26-519c095fea2c" cx="1759.69" cy="462.11" r="3.21"/><circle class="f7ab479b-447d-4a4c-9551-702394bf9960" cx="800.75" cy="285.09" r="1.55"/><circle class="aca803d9-1f95-42d9-a52b-7ee0b2b68fe4" cx="487.11" cy="811" r="2.05"/><circle class="bc9f5510-3910-4842-ab4c-1c32a3d0493a" cx="477.36" cy="830.73" r="1.61"/></g><path class="a5aa136d-b89e-4206-893a-973e283c0be0" d="M1888.32,363.16l-.61.49,5.59,6.86H1879l-.53.39h15.2l12.55,15.35h-37.64l-4-5.14-.66.47,3.67,4.67h-10.4l-.57.4h11.29l12.38,15.87h-38.17l-3.21-4.29-.7.44,2.88,3.85h-9.09l-.65.4h10.06l12.19,16.27h-38.71l-3.34-4.66-.75.42,3,4.24H1803.1l-.74.4h11.74l12,16.67h-39.26l-4.27-6.23-.79.4,4,5.83H1770l-1.08.52h17.1L1797.8,454H1758l-6-9.17-.83.39,5.71,8.78h-25.44l-.91.4h26.65l11.51,17.73h-40.42l-8.19-13.28-.87.36,8,12.92h-40.32l-1.38.53h.44l10.64,18.25h-41l-3.39-6.15-.94.33,3.2,5.82H1634l-1.19.4h21.87L1665,510.08h-41.65l-7-13.48-1,.3,6.8,13.18h-41.66l-1.12-2.32-1,.29,1,2h-8.09l-1.89.52h10.23l9.37,19.45h-42.31l-5.32-11.84-1,.27,5.19,11.57h-42.32l-.87-2.11-1.05.25.77,1.86h-8.74l-2.27.53h11.23l8.34,20h-43l-5.24-13.63-1.08.24,5.14,13.39h-43l-1.89-5.36-1.09.21,1.8,5.15h-29.73l-3,.53h33l7.23,20.63h-43.67l-6-19-1.12.19,6,18.8h-43.67l-3.45-12.19-1.14.17,3.4,12h-43.65l-1.54-6.15-1.16.15,1.49,6h-43.65l-.18-.85-1.17.13.16.72h-6.73l-4.88.53h11.73l4.6,21.3h-44.37l-3.33-18.14-1.18.11,3.31,18h-44.38L1163,579.19l-1.18.09,2.14,14.27h-44.39l-1.32-11.33-1.19.07,1.31,11.26H1074l-.76-9.06-1.21,0,.75,9h-44.36L1028,586l-1.2,0,.37,7.52H982.82l-.12-6.8h-1.21l.11,6.79H937.23l.11-6.79h-1.2l-.11,6.8H891.65L892,586l-1.2,0-.38,7.55H846.06l.75-9-1.2,0-.76,9.07H800.48l1.31-11.26-1.19-.07-1.33,11.33H754.9L757,579.28l-1.2-.09-2.16,14.36H709.31l3.3-18-1.17-.11-3.34,18.15H663.72l4.61-21.3H680.1l-4.87-.53h-6.77l.16-.73-1.16-.12-.19.85H633.15v.53h34l-4.63,21.3H633.15v.66h29.24l-4.78,22H633.15v.67h24.32l-4.94,22.75H633.15v.53h19.24l0,.13h0l-5.08,23.42H633.15v.66h14l-5.29,24.34h-8.7v.66h8.55l-5.48,25.27h-3.07v.66h2.92l-2.92,13.36v6.19l4.23-19.55h48.33l-4.8,26.06H633.16v.8h47.63l-5,27H633.16v.79h42.51L670.5,798h-51l6.08-28.05h7.58v-.79h-7.42l5.86-27h1.56v-.8h-1.4l1.41-6.48v-6.19l-2.74,12.67H581.23l6.52-26.06h45.4v-.66H587.93l6.29-25.27h38.93v-.66H594.39l6.08-24.34h32.68v-.66H600.64l5.83-23.42h0l0-.13h26.64v-.53H606.66l5.68-22.75h20.81v-.67H612.5l5.5-22h15.15v-.66h-15l5.32-21.3h9.68v-.53h-9.54l1.5-6-1.15-.16-1.54,6.16H578.76l3.4-12-1.13-.17-3.47,12.2H533.9l6-18.8-1.11-.19-6,19H489.05l7.21-20.63h33l-3-.53H496.46l1.8-5.16-1.09-.21-1.89,5.37h-43l5.14-13.4-1.07-.23-5.24,13.63h-43l8.33-20h11.28l-2.27-.53h-8.79l.78-1.87-1.05-.25-.88,2.12H373.25l5.2-11.58-1-.27-5.32,11.85H329.79l9.37-19.45h10.27l-1.89-.52h-8.13l1-2-1-.29-1.13,2.33H296.61l6.81-13.19-1-.3-7,13.49H253.8l10.34-18.79h21.92l-1.19-.4H264.42l3.21-5.84-.94-.32-3.39,6.16h-41l10.64-18.25h.49l-1.38-.53H191.66l8-12.93-.87-.36-8.2,13.29H150.13l11.52-17.73h26.69l-.92-.4H162l5.72-8.8-.83-.38-6,9.18H121l11.75-17.2h17.15l-1.08-.52H133.11l4-5.84-.8-.4L132,436.26H92.77l12-16.67h11.76l-.73-.4H105.06l3-4.25-.75-.43L104,419.19H65.3l12.19-16.27h10.1l-.65-.4H77.81l2.89-3.87-.71-.44-3.22,4.31H38.61L51,386.65H62.32l-.58-.4H51.31L55,381.56l-.65-.47-4.05,5.16H12.65L25.2,370.9H40.44l-.53-.39H25.54l5.61-6.88-.61-.49-6,7.37H0v.39H24.19L11.63,386.25H0v.4H11.27L0,400.5v1.29l12.3-15.14H50L37.57,402.52H0v.4H37.22L24.48,419.19H0v.4H24.13L11,436.26H0v.52H10.66L0,450.38v1.38l11.74-15H51L38.1,454H0v.4H37.74l-13.3,17.73H0v.53H24.07L10.38,490.89H0v.4H10L0,504.59v1.51l11.12-14.81H52.17L38.68,510.08H0v.52H38.3L24.4,530.05H0v.53H24l-14.35,20H0v.53H9.27L0,564v1.65l10.44-14.57h43L39.32,571.72H0v.53H38.92l-14.57,21.3H0v.66H23.94l-15.06,22H0v.67H8.47L0,629.21V631l9.7-14.2H54.83L40,639.59H0v.53H39.6l-.1.13h0L24.29,663.67H0v.66H23.86L8,688.67H0v.66H7.58L0,701v2l8.87-13.69H56.36L40.79,714.6H0v.66H40.36L24.23,741.32H0v.8H23.78l-16.72,27H0v.79H6.6L0,780.56v2.24l8-12.9h50.1L41.66,798H0v.79H41.19l-17,29.1H0v.8H23.69L6,858.93H0v.93H5.5L0,869.27v2.49l7-11.9H60L42.62,891.34H0v.8H42.13L24.85,923.49h0L24.08,925H0v.92H23.58L4.78,960H0v.93H4.26L0,968.64v2.8l5.79-10.51H62.1L43.7,996.39H0v1.05H43.19l-19.19,37H0v1H23.46l-20,38.77H0v1H2.86L0,1080.89v3.17l4.5-8.7h60l-19.58,40.35H0v1.19H44.39L23.9,1159.24H0v1.19H23.33L1.87,1204.75H0v1.19H633.15v-1.19H597.42l8.11-44.32h62.79l-6.68,44.32H633.15v1.19H1920v-1.19h-3l-21.46-44.32H1920v-1.19h-25.06l-20.49-42.34H1920v-1.19h-46.1l-19.59-40.35h60l5.67,10.94v-3.18l-4-7.76h4v-1h-4.58l-20.05-38.77H1920v-1h-25.15l-19.2-37H1920v-1.05h-44.86l-18.4-35.46H1913l7,12.62v-2.81l-5.42-9.81H1920V960h-5.94l-18.81-34.13H1920V925h-25.24l-.76-1.46-17.29-31.35H1920v-.8h-43.77l-17.35-31.48h53l8.11,13.91v-2.51l-6.66-11.4H1920v-.93h-7.15l-17.7-30.29H1920v-.8h-25.32l-17-29.1H1920V798h-42.82l-16.41-28.05h50.11l9.12,14.77v-2.24l-7.75-12.53H1920v-.79h-8.22l-16.72-27H1920v-.8h-25.39l-16.12-26.06H1920v-.66h-42l-15.56-25.27H1910l10,15.48v-2l-8.74-13.47H1920v-.66h-9.17L1895,664.33h25v-.66h-25.45l-15.21-23.42-.1-.13H1920v-.53h-41.17L1864,616.84h45.12l10.86,15.9v-1.83l-9.63-14.07H1920v-.67h-10l-15-22H1920v-.66h-25.51l-14.57-21.3H1920v-.53h-40.48l-14.11-20.63h43l11.61,16.2v-1.66l-10.43-14.54H1920v-.53h-10.82l-14.36-20H1920v-.53h-25.56l-13.91-19.45H1920v-.52h-39.85l-13.48-18.79h41L1920,507.65v-1.51l-11.15-14.85H1920v-.4h-11.53l-13.7-18.25H1920v-.53h-25.6l-13.31-17.73H1920V454h-39.26l-12.91-17.2h39.28L1920,453.25v-1.39l-11.82-15.08H1920v-.52h-12.18l-13.12-16.67H1920v-.4h-25.65l-12.73-16.27h38.17l.21.26v-1.25l-12.43-15.28H1920v-.4h-12.79l-12.56-15.35H1920v-.39h-25.68Zm-73.16,56.43h38.72l12.53,16.67h-39.27Zm-28,17.19h39.28l12.31,17.2h-39.83ZM82.94,923.49l16.21-31.35h54.08L138,923.49h0l-.67,1.46H82.23l.72-1.46Zm5-283.24.09-.13h45.89l-.09.13h0l-13.65,23.42H73.49L87.9,640.25Zm470.18,0-6.63,23.42H504.79l7.39-23.42h0l.05-.13h45.89l0,.13Zm331.26,0v-.13h45.88v.13h0l-.39,23.42H888.18l1.16-23.42Zm94.23,75,.43,26.06H934.83l.42-26.06Zm-48.3-.66.41-25.27h47.48l.42,25.27Zm95.4-50.93H984l-.4-23.42v-.13h45.89v.13Zm762.75-153.59h-41.65l-11.61-18.79h41Zm-23.29-37.44h40.43L1823,490.89h-41ZM818.5,925.87h55.17L872,960H815.67ZM814.13,960H757.86l4-34.13H817Zm61-34.13h55.17L929.76,960H873.49ZM885.6,715.26h48.33l-.45,26.06H884.31ZM836,714.6l2.09-25.27h47.49l-1.28,25.27Zm806-75h-45.85l-10.26-22.75H1631Zm-20.7-45.38h44.39l11.37,22h-45.11ZM1414.06,827.84l-8.29-29.1h51l9.22,29.1Zm52.23.8,9.58,30.29h-53l-8.61-30.29Zm-322.68-29.9h51.05l4.37,29.1h-52Zm2,29.1h-52l-2.45-29.1h51Zm50.43-29.1h51l5.32,29.1h-52Zm52.43,0h51l6.3,29.1h-52Zm103.27-.79h-51l-6.09-28.05h50.1Zm-5.64-28.05h50.1l7.94,28.05h-51Zm-45.19,28.84h51l7.28,29.1h-52Zm52.43,0h51l8.26,29.1h-52Zm52.2-.79-8-28.05h50.1l8.89,28.05Zm34.66-55.83h49.19l9.48,27H1448.8Zm7.23,27h-50.08l-7.68-27h49.19Zm-51.44,0h-50.08l-6.78-27h49.19Zm-51.44,0h-50.08l-5.89-27h49.2ZM1299.35,798h-51l-5.17-28.05h50.09Zm-52.41,0h-51l-4.23-28.05h50.11Zm-52.4,0h-51l-3.28-28.05h50.1Zm-52.4,0h-51l-2.36-28.05h50.09Zm-52.41,0h-51l-1.41-28.05h50.09Zm.06.79,2.42,29.1h-52l-1.48-29.1Zm2.47,29.9,2.51,30.29h-53l-1.53-30.29Zm1.43,0h52l3.53,30.29h-53Zm53.42,0h52l4.53,30.29h-53Zm53.43,0h52l5.53,30.29h-53Zm53.45,0h52l6.55,30.29h-53Zm53.43,0h52l7.56,30.29h-53Zm53.43,0h52l8.58,30.29h-53Zm60.82,31.22,8.93,31.48h-54l-7.89-31.48Zm9.17,32.28,8.89,31.35.39,1.46H1385l-.34-1.46-7.87-31.35Zm1.48,0h54.07l9.93,31.35.44,1.46h-55.13l-.4-1.46Zm-.25-.8-9-31.48h53l9.95,31.48Zm35.64-62.7h52l10.6,30.29h-53Zm-.25-.8-9.27-29.1h51l10.21,29.1ZM1457.94,798,1449,769.9h50.11L1509,798Zm32.81-55.83h49.19l10.38,27h-50.07Zm-.26-.8-9.15-26.06h48.31l10,26.06Zm-9.4-26.72-8.84-25.27h47.48l9.66,25.27Zm8.06,26.72H1440l-8.29-26.06H1480Zm-50.52,0h-49.16l-7.42-26.06h48.32Zm-50.51,0H1339l-6.56-26.06h48.33Zm-50.51,0h-49.18l-2.75-12.56-2.93-13.5h48.34Zm-44.51,27.79H1243l-5-27h49.19Zm-51.44,0h-50.07l-4.07-27h49.19Zm-51.43,0h-50.08l-3.17-27h49.19Zm-51.44,0h-50.08l-2.27-27h49.19Zm-51.44,0h-50.08l-1.36-27h49.19Zm-51.42.79,1.4,28.05h-51l-.48-28.05Zm1.44,28.84,1.44,29.1h-52l-.51-29.1Zm1.47,29.9,1.5,30.29h-53l-.51-30.29Zm1.56,31.22,1.57,31.48h-54l-.55-31.48Zm1.45,0h53l2.61,31.48h-54Zm54.46,0h53l3.66,31.48h-54Zm54.48,0h53l4.71,31.48h-54Zm54.46,0h53l5.78,31.48h-54Zm54.47,0h53l6.8,31.48h-54Zm54.47,0h53l7.86,31.48h-54Zm61.11,32.28,7.83,31.35.34,1.46h-55.13l-.3-1.46-6.83-31.35Zm8.41,33.73,8.52,34.13H1336l-7.41-34.13Zm1.5,0h55.16L1450,960h-56.28Zm56.68,0H1497l10.8,34.13h-56.27Zm56.66,0h55.17L1565.65,960h-56.27Zm-.29-.92-.44-1.46-10-31.35h54.07l11,31.35.48,1.46Zm-10.68-33.61-10-31.48h53l11,31.48Zm33.57-62.7h52l11.61,30.29h-53Zm-.29-.8-10.22-29.1h51l11.18,29.1ZM1510.37,798l-9.86-28.05h50.09L1561.37,798Zm30.92-55.83h49.19l11.28,27h-50.07Zm-.28-.8-10-26.06h48.32l10.87,26.06Zm-10.3-26.72L1521,689.33h47.48L1579,714.6Zm28.65-50.27H1606l11,24.34h-47.46Zm-.28-.66-9.75-23.42-.06-.13h45.89l.07.13,10.5,23.42Zm9.15,25h-47.46l-9.36-24.34h46.68Zm-48.76,0H1472l-8.53-24.34h46.66Zm-39.7,25.93h-48.3l-8-25.27H1471Zm-49.62,0h-48.3l-7.16-25.27h47.48Zm-49.62,0h-48.3l-6.32-25.27h47.49Zm-49.62,0h-48.3l-5.48-25.27h47.48Zm-45.23,20.24,1.41,6.48h-49.17l-4.8-26.06h48.33Zm-49.1,6.48h-49.17l-3.94-26.06h48.33Zm-50.51,0h-49.18l-3.06-26.06h48.32Zm-50.53,0h-49.16l-2.19-26.06h48.32Zm-50.5,0h-49.17l-1.32-26.06h48.32Zm-50.48.8,1.35,27H985.83l-.47-27ZM985.9,858.93h-53l.5-30.29h52Zm-53,.93h53l.51,31.48H932.4Zm53.55,32.28.51,31.35,0,1.46H931.85l0-1.46.5-31.35Zm-54.6,33.73H987l.55,34.13H931.3Zm55.71,35.06.57,35.46H930.69l.58-35.46Zm.36-68.79H1042l1.56,31.35.07,1.46H988.5l0-1.46Zm55.55,0h54.07l2.61,31.35h0l.12,1.46h-55.15l-.06-1.46Zm55.55,0h54.07l3.65,31.35h0l.15,1.46h-55.13l-.11-1.46h0Zm55.55,0h54.07l4.7,31.35h0l.21,1.46h-55.14l-.16-1.46h0Zm55.55,0h54.07l5.74,31.35h0l.25,1.46h-55.13l-.21-1.46h0Zm55.55,0h54.07l6.78,31.35.3,1.46H1271.7l-.25-1.46Zm20,33.73H1327l7.38,34.13h-56.27l-6.28-34.13Zm0,35.06h49l7.68,35.46h-57.45l-6.54-35.46Zm50.48,0h56.3l8.89,35.46h-57.47Zm57.85,0h56.29l10.07,35.46h-57.45Zm57.84,0h56.29l11.25,35.46h-57.45Zm57.83,0H1566l12.43,35.46H1521Zm45.54-35.06h55.17L1623.46,960H1567.2Zm-.31-.92-.49-1.46-11-31.35h54.07l12,31.35L1610,925Zm-11.8-33.61-11-31.48h53l12.07,31.48Zm31.47-62.7h52l12.61,30.29h-53Zm-.32-.8-11.2-29.1h51l12.14,29.1ZM1562.76,798,1552,769.9h50.09l11.7,28.05Zm29.06-55.83H1641l12.18,27h-50.08Zm-.3-.8-10.9-26.06H1629l11.75,26.06Zm-11.2-26.72-10.52-25.27h47.49l11.34,25.27Zm27-50.27H1654l11.76,24.34h-47.46Zm-.28-.66-10.54-23.42-.06-.13h45.87l.07.13,11.29,23.42Zm-12.15-24.08H1549l-9.5-22.75h45.13Zm-46.79.66,9.73,23.42h-46.65l-9-23.42-.06-.13H1548Zm-38.19,23.42h-46.65l-8.19-23.42,0-.13h45.88l0,.13Zm-39.17,25h-47.47l-7.73-24.34h46.68Zm-48.76,0H1374.5l-6.91-24.34h46.66Zm-48.76,0h-47.46l-6.1-24.34h46.67Zm-48.76,0H1277l-5.28-24.34h46.67Zm-43.15,25.93H1233l-4.63-25.27h47.47Zm-49.62,0h-48.3l-3.8-25.27h47.49Zm-49.62,0h-48.3l-3-25.27h47.49Zm-49.62,0h-48.3L1082,689.33h47.47Zm-49.61,0h-48.31l-1.27-25.27h47.48Zm-48.3,26.72H985.34l-.44-26.06h48.32Zm-49.11,86.52h-52l.47-29.1h51Zm-51.92-85.72-.47,27H882.94l1.34-27ZM933,769.9,932.52,798h-51l1.39-28.05Zm-.49,28.84-.5,29.1H880l1.45-29.1Zm-.52,29.9-.53,30.29h-53l1.5-30.29Zm-.52,31.22-.54,31.48h-54l1.56-31.48Zm-.56,32.28-.54,31.35,0,1.46H875.21l.07-1.46h0l1.56-31.35Zm-.24,105.3h57.5l.59,37H930.07Zm57.84-71.57h55.17l1.69,34.13H989.09Zm56.68,0h55.15l2.84,34.13h-56.26Zm56.67,0H1157l4,34.13h-56.27Zm56.66,0h55.17l5.12,34.13h-56.28Zm56.68,0h55.17l6.24,34.13h-56.27Zm61.57,35.06,6.52,35.46h-57.46l-5.35-35.46Zm6.7,36.51,2.21,12,4.57,25h-58.69l-5.58-37Zm2.21,3.58-.64-3.58h57.49l8,37h-58.69Zm58.42-3.58h57.5l9.26,37h-58.71Zm59.07,0h57.48l10.5,37h-58.69Zm59,0h57.49l11.74,37h-58.69Zm59.06,0h57.5l13,37H1533Zm59.07,0h57.48l14.21,37h-58.69Zm-.36-1.05-12.47-35.46h56.31l13.62,35.46Zm31.91-70.52h55.15L1681.28,960H1625Zm-.36-.92-.52-1.46-12-31.35H1653l13.06,31.35.57,1.46Zm-12.91-33.61-12.09-31.48h53l13.12,31.48Zm29.38-62.7h52l13.63,30.29h-53Zm-.34-.8-12.19-29.1h51l13.11,29.1ZM1615.17,798l-11.73-28.05h50.1L1666.18,798Zm27.19-55.83h49.2l13.09,27h-50.08Zm-.33-.8-11.76-26.06h48.31l12.63,26.06ZM1630,714.6l-11.38-25.27h47.49l12.17,25.27Zm25.29-50.27h46.68l12.57,24.34H1667Zm-.31-.66-11.32-23.42-.07-.13h45.88l.08.13,12.08,23.42Zm-11.7-24.08-11-22.75h45.13l11.75,22.75Zm23.64-45.38h44.39l12.1,22h-45.1Zm-.31-.66-11-21.3h43.68l11.71,21.3Zm-1.21,0H1621l-10.31-21.3h43.68Zm-34.66,22.62h-45.11l-9.91-22h44.38Zm-46.34,0h-45.1l-9.19-22h44.39Zm-36.61,23.42h-45.86l-8.75-22.75h45.14Zm-47.11,0h-45.86l-8-22.75h45.11Zm-46.84.66,8.17,23.42h-46.65l-7.42-23.42-.05-.13h45.89ZM1414,663.67h-46.65l-6.63-23.42,0-.13h45.88l.05.13Zm-47.92,0h-46.63l-5.87-23.42,0-.13h45.88l0,.13Zm-47.92,0h-46.65l-5.07-23.42,0-.13h45.89l0,.13Zm-42.51,25h-47.46l-4.48-24.34h46.66Zm-48.76,0h-47.46l-3.67-24.34h46.68Zm-48.76,0h-47.46l-2.85-24.34h46.68Zm-48.75,0H1082l-2-24.34h46.68Zm-48.76,0H1033.2L1032,664.33h46.66ZM1033.2,714.6H984.89l-.44-25.27h47.49ZM984.92,798h-51l.46-28.05h50.1ZM934,714.6h-48.3l1.25-25.27h47.48Zm-48.31-25.93H838.18l2-24.34h46.68Zm-48.76,0H789.42l2.83-24.34h46.67Zm-.06.66-2.11,25.27h-48.3l2.93-25.27ZM836,715.26h48.32L883,741.32H833.8Zm47,26.86-1.37,27H831.5l2.24-27Zm-1.42,27.78L880.12,798h-51l2.32-28.05Zm-1.46,28.84-1.47,29.1h-52l2.42-29.1Zm-1.51,29.9L877,858.93H824l2.51-30.29ZM877,859.86l-1.59,31.48h-54L824,859.86Zm-1.64,32.28-1.59,31.35L873.7,925H818.57l.11-1.46,2.6-31.35Zm-58.18,31.35-.12,1.46H761.93l.16-1.46,3.65-31.35h54.07Zm-56.59,0-.17,1.46H705.29l.2-1.46,4.7-31.35h54.07Zm-.27,2.38-4,34.13H700.05l5.1-34.13Zm-4.12,35.06L752,996.39H694.58l5.32-35.46Zm1.54,0H814l-3,35.46H753.6Zm57.84,0h56.31l-1.8,35.46H812.63Zm57.85,0h56.3l-.61,35.46H871.66Zm56.63,74.61h58.72l.63,38.77h-60Zm59.05-74.61h56.31l1.77,35.46H989.71Zm57.84,0h56.31l2.94,35.46h-57.46Zm57.84,0h56.31l4.13,35.46h-57.46Zm57.84,0h56.31l5.32,35.46H1166.8Zm61.79,36.51,5.55,37h-58.71l-4.34-37Zm5.69,38.1,5.8,38.77h-60l-4.54-38.77Zm1.61,0h58.73l7.09,38.77h-60Zm60.34,0h58.71l8.39,38.77h-60Zm60.32,0h58.73l9.67,38.77h-60Zm60.34,0h58.73l11,38.77h-60Zm60.33,0h58.72l12.25,38.77h-60Zm60.33,0h58.73l13.55,38.77h-60Zm60.33,0h58.73l14.84,38.77h-60Zm60.34,0h58.72l16.13,38.77h-60Zm-.4-1-14.25-37h57.49l15.45,37ZM1639,996.39l-13.66-35.46h56.31l14.81,35.46Zm29.55-70.52h55.17L1739.09,960h-56.28Zm-.38-.92-.59-1.46-13.1-31.35h54.09l14.1,31.35.63,1.46Zm-14-33.61L1641,859.86h53l14.17,31.48Zm27.29-62.7h52l14.63,30.29h-53Zm-.36-.8-13.15-29.1h51l14.08,29.1ZM1667.58,798l-12.67-28.05H1705L1718.58,798Zm25.32-55.83h49.2l14,27H1706Zm-.36-.8-12.64-26.06h48.33l13.5,26.06Zm-13-26.72-12.19-25.27h47.48l13,25.27Zm23.64-50.27h46.67l13.39,24.34H1715.8Zm-.34-.66-12.1-23.42-.07-.13h45.87l.1.13,12.85,23.42Zm-12.5-24.08-11.78-22.75h45.13l12.51,22.75Zm22.13-45.38h44.38l12.84,22H1724.6Zm-.33-.66-11.74-21.3h43.68l12.43,21.3Zm-12.05-21.83-11.36-20.63h43l12,20.63Zm20.79-41.14h42.33l12.33,20h-43Zm-.31-.53-11.32-19.45H1751l12,19.45Zm10.82,20.51h-43l-11-20h42.32Zm-32.49,21.16h-43.66l-10.68-20.63h43Zm-44.86,0h-43.65l-10-20.63h43Zm-34.29,21.83h-44.36l-9.6-21.3h43.68Zm-45.57,0h-44.38l-8.89-21.3h43.69ZM1538,616.17h-45.1l-8.45-22h44.39Zm-46.33,0h-45.1l-7.72-22h44.38Zm-38.17,23.42h-45.86l-7.23-22.75h45.14Zm-47.12,0h-45.87l-6.45-22.75h45.12Zm-47.11,0h-45.86l-5.71-22.75h45.13Zm-47.12,0h-45.86l-5-22.75h45.13Zm-47,.66,5.06,23.42h-46.65l-4.3-23.42,0-.13h45.89Zm-42.87,23.42h-46.64l-3.52-23.42,0-.13h45.88l0,.13Zm-47.92,0h-46.65l-2.73-23.42,0-.13h45.88l0,.13Zm-47.92,0h-46.65l-2-23.42,0-.13h45.9v.13Zm-47.92,0h-46.65l-1.18-23.42v-.13h45.89v.13Zm-46.67,25H984.44L984,664.33h46.67Zm-47.46,80.44H934.38l.44-27H984Zm-50.07-80.44H886.93l1.21-24.34h46.67Zm-46.31-48.42h0l-1.18,23.42H840.25l1.94-23.42h0l0-.13h45.88Zm-47.14,0h0l-2,23.42H792.33l2.72-23.42h0l0-.13H841Zm-47.14,0h0l-2.74,23.42H744.4l3.5-23.42h0l0-.13h45.89ZM791,664.33l-2.85,24.34H740.66l3.65-24.34Zm-2.93,25-3,25.27h-48.3l3.77-25.27Zm-1.73,25.93h48.33l-2.19,26.06H783.29Zm46.08,26.86-2.27,27H780.06l3.15-27Zm-2.33,27.78L827.72,798h-51L780,769.9Zm-2.42,28.84-2.44,29.1h-52l3.39-29.1Zm-2.52,29.9-2.54,30.29h-53l3.52-30.29Zm-2.6,31.22-2.65,31.48h-54l3.67-31.48Zm-58.16,31.48H710.31L715,859.86h53Zm-55.53,0h-54l5.76-31.48h53Zm-.13.8L704,923.49h0l-.21,1.46H648.65l.25-1.46,5.74-31.35Zm-5.07,33.73L698.51,960H642.23l6.25-34.13Zm-5.28,35.06L693,996.39H635.55l6.51-35.46Zm-3.93,36.51h57.49l-4.35,37h-58.7Zm53,38.1-4.54,38.77h-60l5.79-38.77Zm-4.66,39.82-4.75,40.35H676.72l6-40.35Zm1.63,0h60l-3.39,40.35H739.72Zm.13-1,4.5-38.77h58.72l-3.24,38.77Zm4.62-39.82,4.32-37H811l-3.1,37Zm63.37-37h57.5l-1.88,37h-58.7Zm59.06,0H929.1l-.64,37H869.77Zm57.8,77.92h60l.66,40.35H928.75Zm60.32-77.92h57.5l1.84,37h-58.7Zm59.07,0h57.48l3.08,37h-58.69Zm59.06,0h57.49l4.3,37H1111Zm61.91,38.1,4.52,38.77h-60l-3.24-38.77Zm4.63,39.82,4.72,40.35h-61.34l-3.39-40.35Zm1.65,0h60l6,40.35h-61.33Zm61.66,0h60l7.39,40.35H1243.8Zm61.66,0h60l8.77,40.35h-61.34Zm61.66,0h60l10.1,40.35h-61.33Zm61.66,0h60l11.45,40.35h-61.34Zm61.66,0h60l12.79,40.35h-61.33Zm61.66,0h60l14.15,40.35h-61.33Zm61.66,0h60l15.51,40.35h-61.34Zm61.66,0h60l16.86,40.35h-61.33Zm45-39.82h58.74l17.42,38.77h-60Zm-.43-1-15.48-37H1756l16.68,37Zm-15.89-38.1-14.84-35.46h56.3l16,35.46Zm27.19-70.52h55.16L1796.9,960h-56.28Zm-.41-.92-.62-1.46-14.14-31.35h54.07l15.15,31.35L1780,925Zm-15.16-33.61-14.21-31.48h53l15.22,31.48Zm25.19-62.7h52l15.65,30.29h-53Zm-.39-.8-14.12-29.1h51l15.08,29.1ZM1720,798l-13.59-28.05h50.1L1771,798Zm23.48-55.83h49.19l14.89,27h-50.07Zm-.38-.8-13.52-26.06h48.33l14.35,26.06ZM1729.2,714.6l-13-25.27h47.47l13.86,25.27Zm21.94-50.27h46.66L1812,688.67h-47.47Zm-.35-.66-12.88-23.42-.09-.13h45.88l.09.13,13.64,23.42Zm-13.32-24.08-12.53-22.75h45.12l13.27,22.75Zm20.62-45.38h44.39l13.57,22h-45.11Zm-.35-.66-12.45-21.3H1789l13.14,21.3ZM1745,571.72l-12-20.63h43l12.73,20.63Zm19.42-41.14h42.34l13,20h-43Zm-.32-.53-12-19.45h41.68l12.6,19.45Zm-13.43-20H1709l-11-18.79h41Zm-31.2,20h-42.3l-10.68-19.45h41.68Zm-32.16,20.51h-43l-10.35-20h42.32Zm-44.15,0h-43l-9.69-20h42.33Zm-33.91,21.16h-43.66l-9.31-20.63h43Zm-44.85,0h-43.67l-8.61-20.63h43Zm-35.75,21.83h-44.38l-8.17-21.3h43.67Zm-45.58,0h-44.37l-7.48-21.3h43.68Zm-37.67,22.62h-45.12l-7-22h44.39Zm-46.35,0H1353.9l-6.24-22h44.39Zm-46.34,0h-45.11l-5.5-22h44.38Zm-46.34,0h-45.1l-4.78-22h44.39Zm-41.28,23.42h-45.87L1215,616.84h45.12Zm-47.11,0h-45.86l-3.43-22.75h45.13Zm-47.12,0H1125l-2.67-22.75h45.14Zm-47.13,0h-45.85l-1.91-22.75h45.12Zm-47.11,0h-45.86l-1.15-22.75h45.13Zm-188.46,0H842.25l1.89-22.75h45.13Zm-47.12,0H795.14l2.65-22.75h45.12Zm-47.11,0H748l3.4-22.75h45.13Zm-47.12,0H700.9l4.17-22.75h45.12Zm-.09.53,0,.13h0l-3.52,23.42H696.48l4.28-23.42h0l0-.13ZM743,664.33l-3.67,24.34H691.91l4.45-24.34Zm-3.76,25-3.8,25.27h-48.3l4.61-25.27Zm-2.58,25.93H785L782,741.32H732.78Zm45.18,26.86-3.17,27H728.61l4.06-27ZM778.6,769.9,775.31,798h-51l4.2-28.05Zm-3.38,28.84-3.42,29.1h-52l4.36-29.1Zm-3.51,29.9-3.55,30.29h-53l4.54-30.29Zm-58,30.29h-53l5.55-30.29h52Zm-54.45,0h-53l6.55-30.29h52ZM590.8,923.49l-.3,1.46H535.36l.35-1.46h0l7.83-31.35h54.07l-6.81,31.35Zm-451.26,0,15.16-31.35h54.07l-14.14,31.35h0L194,925H138.87l.67-1.46ZM135,640.25l.09-.13H181l-.08.13h0l-12.87,23.42H121.42l13.63-23.42Zm375.89,0-7.41,23.42H456.87L465,640.25h0l.06-.13H511l-.05.13ZM196.13,923.49l14.12-31.35h54.07l-13.1,31.35h0l-.58,1.46H195.51l.63-1.46ZM182.18,640.25l.09-.13h45.88l-.08.13h0L216,663.67H169.33l12.85-23.42Zm4.93-89.16h43l-11.37,20.63H175.07Zm-.86-.53h-43l12.33-20h42.32Zm277.54,89.69-8.2,23.42H409l8.95-23.42h0l.06-.13h45.88l0,.13ZM252.73,923.49l13.07-31.35h54.07l-12.05,31.35h0L307.3,925H252.16l.57-1.46Zm-23.4-283.24.08-.13h45.88l-.07.13h0L263.9,663.67H217.25l12.08-23.42Zm187.32,0-9,23.42H361l9.74-23.42h0l.07-.13h45.89l-.06.13ZM421,923.49l-.44,1.46H365.44l.48-1.46h0l11-31.35H431l-10,31.35Zm-111.68,0,12-31.35h54.07l-11,31.35-.49,1.46H308.8l.53-1.46ZM276.47,640.25l.07-.13h45.89l-.07.13h0l-10.53,23.42H265.18l11.29-23.42Zm47.14,0,.07-.13h45.89l-.07.13h0l-9.76,23.42H313.1l10.51-23.42Zm35.87,24.08-10.17,24.34H301.85l11-24.34Zm-48,0-11,24.34H253.1l11.76-24.34Zm-10,25H349L338.51,714.6h-48.3Zm36.66,25.93-10.9,26.06H278.14l11.75-26.06Zm-9.85,26.86h49.19l-10.4,27H317.08Zm-1.34,0-11.31,27H265.63l12.18-27ZM316.77,769.9h50.1L356.08,798h-51ZM346,827.84l11.17-29.1h51L398,827.84Zm51.69.8-10.62,30.29h-53l11.6-30.29Zm-41.92-29.9-11.2,29.1h-52l12.15-29.1Zm-11.51,29.9-11.63,30.29h-53l12.62-30.29Zm-10.51,31.22h53l-11,31.48h-54Zm29.87,66-12,34.13H295.38l13.07-34.13Zm1.51,0h55.16L409.46,960H353.19Zm12.07-34.53h0l11-31.48h53l-10,31.48Zm11.31-32.41,10.6-30.29h52l-9.61,30.29Zm10.89-31.09,10.2-29.1h51l-9.26,29.1ZM408.48,798h-51l10.76-28.05h50.1Zm-40-28.84,10.38-27h49.19l-9.5,27Zm9.31-27.79H328.65l10.88-26.06h48.33Zm-38-26.72,10.5-25.27h47.48l-9.68,25.27Zm10.78-25.93,10.14-24.34h46.67l-9.35,24.34Zm19.23-49.08H324l10.23-22.75h45.13Zm-47.13,0H276.85l11-22.75H333Zm-35.8-23.42h-45.1l11.37-22h44.39Zm-46.33,0H195.46l12.11-22H252Zm.91.67h45.12l-11,22.75H229.73Zm22.1,47.49L251.8,688.67H204.34l12.58-24.34Zm-10.82,25h47.48L288.89,714.6h-48.3Zm35.8,25.93-11.78,26.06H227.63l12.62-26.06Zm-12.1,26.86-12.2,27H214.2l13.08-27ZM265.29,769.9h50.1L303.67,798h-51Zm38,28.84-12.17,29.1h-52l13.12-29.1Zm-12.5,29.9-12.65,30.29h-53l13.63-30.29Zm-11.56,31.22h53l-12.09,31.48h-54Zm27.66,66L293.83,960H237.56l14.22-34.13ZM295,960.93h56.3l-12.47,35.46H281.38Zm43.48,36.51-13,37h-58.7l14.21-37Zm1.58,0h57.49l-11.77,37h-58.7Zm.34-1.05,12.43-35.46h56.31l-11.29,35.46Zm70.28-35.46H467L456.9,996.39H399.43ZM411,960l10.8-34.13H477L467.27,960Zm11.07-35,.44-1.46,9.93-31.35h54.07l-8.91,31.35h0l-.4,1.46Zm10.64-33.61h0l10-31.48h53l-8.95,31.48Zm10.22-32.41,9.59-30.29h52l-8.6,30.29Zm9.86-31.09,9.23-29.1h51l-8.28,29.1ZM460.88,798h-51l9.83-28.05h50.1ZM420,769.11l9.47-27h49.21l-8.6,27Zm8.38-27.79H379.17l10-26.06H437.5ZM389.45,714.6l9.66-25.27h47.48l-8.84,25.27Zm9.92-25.93,9.32-24.34h46.67l-8.54,24.34Zm18.84-49.08,8.72-22.75h45.12l-8,22.75Zm-1.25,0H371.09l9.47-22.75h45.13Zm-37.38-23.42H334.47l9.91-22h44.39Zm-46.33,0H288.14l10.64-22h44.39Zm-35.4-22.62H253.47l11-21.3h43.68Zm-45.59,0H207.89l11.72-21.3h43.68Zm-33.84-21.3-11.74,21.3H162.31l12.43-21.3Zm-12.07,22-12.12,22h-45.1l12.83-22Zm-11.22,22.63h45.12l-11.77,22.75H182.62Zm20.51,47.49L203,688.67H155.58L169,664.33Zm-11.65,25h47.48l-12.2,25.27H191Zm34.94,25.93-12.65,26.06H177.11l13.49-26.06Zm-13,26.86-13.11,27H162.75l14-27ZM213.83,769.9h50.1L251.26,798h-51Zm37.09,28.84-13.15,29.1h-52l14.09-29.1Zm-13.52,29.9-13.66,30.29h-53l14.64-30.29Zm-12.59,31.22h53l-13.15,31.48h-54Zm25.46,66L236,960H179.75l15.36-34.13Zm-13.11,35.06h56.31l-13.66,35.46H222.36Zm42.27,36.51-14.24,37h-58.7l15.45-37Zm-14.64,38.1-14.87,38.77h-60l16.13-38.77Zm1.61,0h58.72l-13.58,38.77h-60Zm60.33,0h58.73l-12.29,38.77h-60Zm60.33,0h58.73l-11,38.77h-60Zm.33-1,11.73-37h57.5l-10.53,37Zm70.8-37h57.49l-9.29,37h-58.7Zm.28-1.05,10.06-35.46h56.31l-8.91,35.46ZM468.82,960h0l9.66-34.13h55.17L525.09,960Zm9.9-35,.39-1.46L488,892.14h54.07l-7.86,31.35-.35,1.46Zm9.52-33.61h0l8.92-31.48h53l-7.89,31.48Zm9.14-32.41L506,828.64h52l-7.59,30.29Zm8.83-31.09,8.25-29.1h51l-7.3,29.1ZM513.28,798h-51l8.89-28.05h50.09ZM471.4,769.11l8.57-27h49.2l-7.69,27Zm7.46-27.79H429.68l9.14-26.06h48.33ZM439.07,714.6l8.81-25.27h47.49l-8,25.27Zm9.05-25.93,8.52-24.34h46.67l-7.73,24.34Zm17.19-49.08,7.95-22.75h45.13l-7.22,22.75Zm6.95-23.42H427.15l8.43-22H480Zm-46.34,0H380.81l9.17-22h44.39ZM389,593.55H344.64l9.59-21.3h43.68Zm-45.58,0H299.06l10.29-21.3H353Zm-35-21.83H264.78l10.66-20.63h43Zm-44.86,0H219.92l11.34-20.63h43ZM230.4,550.56h-43l11.66-20h42.32Zm-32.15-20.51H155.94l11.95-19.45h41.68Zm-43.47,0h-42.3l12.59-19.45h41.68Zm-.33.53-12.34,20h-43l13-20Zm-11.51,20.51h43l-12.05,20.63H130.21Zm30.6,21.16-12.44,21.3H116.73l13.13-21.3Zm-12.79,22-12.86,22h-45.1l13.57-22Zm-12,22.63H193.9l-12.53,22.75H135.5Zm18.93,47.49-13.41,24.34H106.83L121,664.33Zm-12.48,25H202.7l-13,25.27h-48.3Zm34.06,25.93-13.51,26.06H126.6L141,715.26ZM175.4,742.12l-14,27H111.31l14.89-27Zm-13,27.78h50.1L198.87,798h-51Zm36.12,28.84-14.11,29.1h-52l15.06-29.1ZM184,828.64l-14.66,30.29h-53L132,828.64Zm-13.62,31.22h53l-14.2,31.48h-54Zm23.25,66L178.22,960H121.94l16.49-34.13Zm-14.28,35.06h56.31l-14.84,35.46H163.33Zm41.05,36.51-15.48,37H146.2l16.68-37Zm-15.91,38.1-16.16,38.77h-60l17.42-38.77Zm-15,39.82h60L234,1115.71H172.63Zm61.67,0h60L297,1115.71H235.64Zm61.65,0h60L360,1115.71H298.65Zm61.66,0h60L423,1115.71H361.66Zm61.67,0h60L486,1115.71H424.67Zm.3-1,11-38.77h58.73l-9.7,38.77Zm71.3-38.77h58.73L558,1074.31h-60Zm60.33,0h58.72l-7.12,38.77h-60Zm-1.38-1H508l9.26-37h57.49Zm-49.18-38.1,8.88-35.46h56.3L575,996.39ZM526.63,960h0l8.52-34.13h55.16L582.9,960Zm17.13-68.66,7.87-31.48h53l-6.84,31.48Zm8.06-32.41,7.56-30.29h52l-6.58,30.29Zm59.77-31.09h-52l7.28-29.1h51ZM565.7,798h-51l8-28.05h50.11Zm-42.85-28.84,7.66-27h49.2l-6.79,27Zm6.52-27.79H480.2l8.26-26.06h48.33ZM488.69,714.6l8-25.27h47.48L537,714.6Zm8.19-25.93,7.7-24.34h46.67l-6.91,24.34Zm15.55-49.08h0l7.2-22.75h45.14l-6.46,22.75Zm7.4-23.42,7-22h44.39l-6.25,22Zm-1.23,0H473.49l7.7-22h44.39Zm-38.42-22.62H435.81l8.16-21.3h43.68Zm-45.58,0H390.23l8.87-21.3h43.68Zm-36.45-21.83H354.48l9.29-20.63h43Zm-44.86,0H309.63l10-20.63h43Zm-34.6-21.16h-43l10.33-20h42.32Zm-44.14,0h-43l11-20h42.32Zm-32.84-20.51H199.4l11.31-19.45h41.67Zm-31.84-20H168.21l11.59-18.79h41Zm-42.8,0H125.41l12.21-18.79h41.06Zm-30.24-19.19h-41l12.46-18.25h40.44ZM107.5,472.11H67.08l12.69-17.73h39.85Zm-.33.53L94.68,490.89h-41l13.07-18.25ZM95.46,491.29h41.05l-12.23,18.79H82.62Zm28.47,19.31-12.61,19.45H69L82.26,510.6Zm-13,20-13,20H55l13.66-20ZM98.77,551.09h43L129,571.72H85.36Zm29.9,21.16-13.16,21.3H71.14L85,572.25Zm-13.52,22-13.59,22H56.45l14.31-22Zm-12.74,22.63h45.13l-13.29,22.75H88.38Zm17.35,47.49-14.23,24.34H58.07l15-24.34Zm-13.33,25h47.48L140,714.6H91.73Zm33.21,25.93-14.39,26.06H76.08l15.24-26.06Zm-14.78,26.86-14.92,27H59.87l15.79-27Zm-14,27.78H161L146.46,798h-51Zm35.15,28.84L131,827.84H79l16-29.1Zm-15.5,29.9-15.68,30.29h-53l16.66-30.29Zm-14.67,31.22h53l-15.25,31.48h-54Zm21.05,66L120.41,960H64.14l17.63-34.13Zm-15.45,35.06h56.3l-16,35.46H104.3Zm39.84,36.51-16.72,37H85.9l17.93-37Zm-17.19,38.1-17.46,38.77h-60l18.71-38.77Zm-16.3,39.82h60L171,1115.71H109.62Zm42.65,41.54-17.66,42.34H90.07l19-42.34Zm1.68,0h61.37l-16.25,42.34H154.53Zm63.05,0h61.37l-14.84,42.34H219Zm63,0h61.38l-13.44,42.34H283.45Zm63.05,0h61.37l-12,42.34H347.91Zm63.05,0h61.37l-10.6,42.34H412.37Zm63,0h61.37l-9.19,42.34H476.83Zm.28-1.19,10.11-40.35h60l-8.8,40.35Zm71.76-40.35h60L612,1115.71H550.69Zm61.66,0h12v-1H621.3l7.09-38.77h4.76v-1h-4.58l4.58-25h0v-8.59l-6.18,33.6H568.28l8-37h56.84v-1.05H576.52l7.7-35.46h48.93V960H584.42l7.39-34.13h41.34V925H592l.3-1.46h0l6.79-31.35h34.06v-.8H599.28l6.82-31.48h53l-5.79,31.48H633.15v.8h20l-5.77,31.35-.26,1.46h-14v.92H647L640.69,960h-7.53v.93h7.36L634,996.39h-.83v1.05h.64l-.64,3.44h0v8.6l2.21-12h57.51l-5.59,37H633.15v1h54l-5.83,38.77H633.15v1h48L675,1115.71H613.7Zm55.44,41.54h61.37l-5,42.34H670.21Zm63.05,0H801l-3.54,42.34H734.67Zm63,0H864l-2.13,42.34H799.13Zm.09-1.19,3.36-40.35h60l-2,40.35Zm3.45-41.4h0l3.21-38.77h58.73l-2,38.77Zm63.54-38.77h58.73l-.65,38.77h-60Zm59,81.36h61.38l.68,42.34H928.05Zm61.65-81.36h58.74l1.91,38.77h-60Zm60.34,0h58.73l3.22,38.77h-60Zm62,39.82,3.37,40.35h-61.33l-2-40.35Zm3.46,41.54,3.51,42.34H1057l-2.13-42.34Zm1.67,0h61.38l4.92,42.34h-62.75Zm63.05,0h61.37l6.34,42.34h-62.75Zm63,0h61.37l7.75,42.34h-62.75Zm63,0h61.38l9.16,42.34H1314.8Zm63,0h61.39l10.56,42.34h-62.75Zm63.06,0h61.37l12,42.34h-62.75Zm63.05,0h61.36l13.4,42.34h-62.75Zm63,0h61.39l14.8,42.34h-62.75Zm63.06,0h61.37l16.22,42.34H1637.1Zm63,0h61.36l17.64,42.34h-62.75Zm63,0h61.38l19,42.34H1766Zm-.47-1.19L1731,1075.36h60l18.21,40.35Zm26.83-80.17h58.73l18.71,38.77h-60Zm-.46-1-16.72-37H1815l17.93,37Zm-17.17-38.1-16-35.46h56.31l17.18,35.46Zm24.83-70.52h55.16L1854.71,960h-56.28Zm-.44-.92-.68-1.46-15.19-31.35h54.08l16.22,31.35.72,1.46Zm-16.29-33.61-15.24-31.48h53l16.27,31.48Zm23.11-62.7h52L1857,858.93h-53Zm-.42-.8-15.09-29.1h51l16,29.1ZM1772.38,798l-14.54-28.05H1808L1823.39,798Zm21.6-55.83h49.19l15.8,27H1808.9Zm-.4-.8-14.38-26.06h48.32l15.23,26.06ZM1778.8,714.6l-13.88-25.27h47.49l14.69,25.27Zm20.29-50.27h46.67l15,24.34h-47.46Zm-.4-.66-13.64-23.42-.1-.13h45.9l.09.13,14.42,23.42Zm-14.1-24.08-13.3-22.75h45.14l14,22.75Zm19.1-45.38h44.39l14.32,22h-45.11Zm-.36-.66-13.15-21.3h43.68l13.84,21.3Zm-13.51-21.83-12.74-20.63h43l13.42,20.63Zm18-41.14h42.32l13.66,20h-43Zm-.36-.53L1794.9,510.6h41.68l13.24,19.45Zm-13-20-12.22-18.79h41l12.85,18.79Zm17.12-37.44h40.43l13.07,18.25h-41Zm-.34-.53-12.12-17.73h39.84l12.7,17.73Zm-53-17.73h39.84l12.11,17.73H1769.8ZM1769,472.64l11.87,18.25h-41l-11.27-18.25Zm-82,0h40.45l11.24,18.25h-41Zm-31.22,18.65h41l11,18.79h-41.67Zm9.5,19.31L1676,530.05h-42.31l-10-19.45Zm-84.49,0h41.68l10,19.45H1590.2Zm8.49,20,9.66,20h-43l-9-20Zm-85.8,0h42.32l9,20h-43Zm7.39,20.51,8.6,20.63h-43.67l-7.91-20.63Zm-87.15,0h43l7.9,20.63H1431Zm6.24,21.16,7.45,21.3h-44.37l-6.76-21.3Zm-44.87,0,6.74,21.3h-44.37l-6-21.3Zm-44.88,0,6,21.3h-44.36l-5.35-21.3Zm-88.55,0h43.68l5.32,21.3h-44.37Zm3.54,22,4.77,22h-45.11l-4-22Zm-45.6,0,4,22h-45.1l-3.32-22Zm-45.6,0,3.3,22h-45.11l-2.58-22Zm-45.61,0,2.57,22h-45.11l-1.84-22Zm-45.6,0,1.83,22h-45.1l-1.12-22Zm-43.36,45.38H983.6l-.4-22.75h45.14Zm-2.24-45.38,1.1,22H983.21l-.38-22Zm-90,0h44.39l.36,22h-45.1Zm-.37,22.63H982l.36,22.75H936.49Zm-.37,23.41h0v-.13h45.88v.13l.38,23.42H936.1Zm-.4,24.08h46.66l.4,24.34H935.68Zm-44.46-70.12H936l-.38,22h-45.1Zm-1.12,22.63h45.13l-.4,22.75H889.37ZM846,594.21h44.39l-1.11,22H844.19Zm-45.61,0H844.8l-1.84,22H797.85Zm-45.6,0h44.4l-2.58,22H751.52Zm-45.6,0H753.6l-3.31,22H705.18Zm-45.6,0H708l-4,22H658.84Zm-4.9,22.63h45.12l-4.18,22.75H653.78Zm-5.1,23.41h0l0-.13h45.9l0,.13h0l-4.29,23.42H648.56Zm-5.19,24.08h46.67l-4.48,24.34H643.15ZM637.55,714.6,643,689.33h47.48l-4.64,25.27Zm49.49.66h48.32l-3.92,26.06H682.26Zm-4.91,26.86h49.2l-4.08,27H677.17ZM677,769.9h50.1L722.9,798h-51Zm-5.3,28.84h51l-4.39,29.1h-52Zm-38.58,0h37.21L665,827.84H613l6.31-29.1Zm-15-.79h-51l7-28.05h50.1Zm12.14-55.83-5.88,27H574.29l6.76-27Zm-50.35-.8H530.71l7.4-26.06h48.32Zm6.72-26.72h-48.3l7.14-25.27h47.48Zm6.49-25.93H545.64l6.89-24.34H599.2Zm12.12-48.42-5.86,23.42H552.72l6.61-23.42h0l0-.13h45.88l0,.13Zm.19-.66H559.55L566,616.84h45.13Zm5.86-23.42h-45.1l6.23-22h44.39Zm-32.68-43.92h43.68l-5.33,21.3H572.56Zm-44.87,0h43.69l-6,21.3H527Zm-1.19,0-6.76,21.3H481.39l7.46-21.3ZM452.1,551.09h43l-7.24,20.63H444.19Zm-1.18,0L443,571.72H399.34l8.59-20.63ZM373,530.58h42.32l-8.34,20H364Zm-1.16,0-9,20h-43l9.66-20Zm-75.51-20H338l-9.39,19.45h-42.3Zm-1.14,0-10,19.45H242.87l10.66-19.45ZM263,491.29l-10.36,18.79H211l11-18.79Zm-71.66-18.65H231.8l-10.65,18.25h-41Zm-1.1,0L179,490.89H138l11.86-18.25Zm-29.7-18.26L149,472.11H108.61l12.1-17.73Zm-28.85-17.6L119.94,454H80.11l12.32-17.2Zm-28-17.19-12,16.67H52.43L65,419.59ZM38.27,402.92H76.44L64.25,419.19H25.54ZM12.1,436.26h0l13.08-16.67H63.9L51.36,436.26Zm40,.52H91.36L79,454H39.19Zm-13.26,17.6H78.68L66,472.11H25.55ZM11.5,490.89l13.68-18.25H65.62L52.53,490.89Zm41.79.4H94.34L81.48,510.08H39.82ZM39.44,510.6H81.12L67.86,530.05H25.55Zm-28.6,40,14.33-20H67.5l-13.68,20Zm43.77.53h43L84.17,571.72H40.51ZM40.12,572.25H83.79l-13.87,21.3H25.56Zm-30,43.92h0l15-22H69.54l-14.32,22Zm45.94.67h45.13L87.13,639.59H41.27Zm-15.3,23.41.11-.13H86.74l-.1.13h0L72.22,663.67H25.56ZM9.32,688.67l15.82-24.34H71.81l-15,24.34Zm48.33.66h47.49L90.41,714.6H42.11Zm-16,25.93H90L74.74,741.32H25.57ZM8.43,769.11l16.7-27h49.2l-15.82,27Zm51,.79h50.1L94.06,798h-51ZM42.57,798.74h51l-16.06,29.1h-52ZM7.44,858.93l17.67-30.29h52L60.43,858.93Zm54,.93h53l-16.3,31.48h-54ZM26.35,923.49l17.26-31.35H97.68L81.44,923.49,80.72,925H25.59ZM6.33,960h0l18.77-34.13H80.25L62.6,960Zm57.31.93h56.3l-17.21,35.46H45.27ZM44.76,997.44h57.49l-18,37H25.6Zm-39.7,76.87,20-38.77H83.8l-18.75,38.77Zm61.11,1h60L108,1115.71H46.61Zm-20.1,41.54h61.37l-19.08,42.34H25.62ZM3.63,1204.75l21.42-44.32H87.83l-20,44.32Zm66,0,19.94-44.32h62.78l-18.49,44.32Zm66,0L154,1160.43h62.78l-17,44.32Zm66,0h0l17-44.32h62.78l-15.54,44.32Zm66,0L283,1160.43h62.78l-14.06,44.32Zm66,0,14-44.32h62.78l-12.59,44.32Zm66,0L412,1160.43h62.79l-11.11,44.32Zm66,0h0l11.07-44.32h62.78l-9.62,44.32Zm130.2,0H531.44l9.59-44.32h62.79Zm8.37-45.51H541.29l9.16-42.34h61.37Zm29.11,0h-27.4l7.74-42.34h61.38l-6.37,42.34Zm30.25,45.51,6.63-44.32h62.79l-5.2,44.32Zm66,0,5.15-44.32h62.78l-3.71,44.32Zm66,0h0l3.68-44.32h62.78l-2.23,44.32Zm130.21,0H861.33l2.2-44.32h62.78Zm.76-45.51H863.58l2.09-42.34h61.38Zm-60.58-43.53,2-40.35h60l-.69,40.35Zm61.57,89,.72-44.32h62.78l.72,44.32Zm63.76-129.39h60l2,40.35H991.76Zm.71,41.54h61.37l2.11,42.34H992.5Zm1.51,87.85-.76-44.32h62.78l2.2,44.32Zm66,0-2.23-44.32h62.78l3.68,44.32Zm66,0-3.71-44.32h62.78l5.16,44.32Zm66,0-5.2-44.32h62.79l6.63,44.32Zm94.46,0H1257.2l-6.68-44.32h62.79l8.11,44.32Zm37.5,0-8.16-44.32h62.79l9.58,44.32Zm66,0-9.63-44.32h62.79l11.07,44.32Zm66,0L1444,1160.43h62.79l12.55,44.32Zm66,0-12.58-44.32h62.77l14,44.32Zm66,0L1573,1160.43h62.79l15.5,44.32Zm66,0-15.54-44.32h62.78l17,44.32Zm66,0-17-44.32h62.77l18.46,44.32Zm66,0-18.49-44.32h62.78l19.93,44.32Zm130.2,0H1851l-20-44.32h62.77Zm-22-45.51h-62.75l-19.08-42.34h61.37Zm-21-43.53h-61.33l-18.24-40.35h60Zm41.56-41.4h-60l-18.74-38.77h58.72Zm-20.54-39.82h-58.7l-18-37h57.5Zm-19.67-38.1H1816.1l-17.21-35.46h56.31ZM1912.51,960h-56.26l-17.66-34.13h55.16Zm-20-36.51.77,1.46h-55.14l-.71-1.46-16.24-31.35h54.07Zm-17.73-32.15h-54l-16.29-31.48h53Zm36.65-32.41h-53l-16.68-30.29h52Zm-18.15-31.09h-52l-16.07-29.1h51ZM1875.8,798h-51l-15.48-28.05h50.1Zm34.61-28.84h-50.07l-15.82-27h49.2Zm-17.15-27.79h-49.17l-15.25-26.06h48.33Zm-16.52-26.72h-48.31l-14.73-25.27h47.49Zm32.78-25.93h-47.45l-15-24.34h46.67Zm-31.43-48.42,15.19,23.42h-46.65l-14.44-23.42-.09-.13H1878Zm-.52-.66h-45.86l-14-22.75h45.13Zm31.15-23.42h-45.09l-14.33-22h44.38Zm-15.44-22.62H1848.9l-13.85-21.3h43.68Zm-15-21.83h-43.66l-13.43-20.63h43ZM1908,550.56h-43l-13.68-20h42.32Zm-14.71-20.51H1851l-13.26-19.45h41.67Zm-14.28-20h-41.65l-12.86-18.79h41Zm28.33-19.19h-41l-13.09-18.25h40.44Zm-14-18.78h-40.42l-12.71-17.73H1880ZM1879.66,454h-39.85l-12.34-17.2h39.28Zm27.08-17.72h-39.25l-12.55-16.67h38.7Zm-13.44-17.07h-38.7l-12.2-16.27h38.17Zm26.14-16.67h-38.16l-12.39-15.87h37.64Z" transform="translate(0 -71.41)"/></g></g></svg>