<svg id="e7941653-68b0-4452-8083-ceeaf92c7f72" data-name="Layer 1" xmlns="http://www.w3.org/2000/svg" viewBox="0 0 16 16">
  <defs>
    <style>
      .f2b9b7d4-b6e8-4313-a5cf-8303b4198b92 {
        fill: #4e578a;
      }
    </style>
  </defs>
  <title>estimate1</title>
  <path class="f2b9b7d4-b6e8-4313-a5cf-8303b4198b92" d="M8,0a8,8,0,1,0,8,8A8.02352,8.02352,0,0,0,8,0ZM8,14a6,6,0,1,1,6-6A6.01764,6.01764,0,0,1,8,14Z"/>
  <path class="f2b9b7d4-b6e8-4313-a5cf-8303b4198b92" d="M9.98828,10.99219a.996.996,0,0,1-.708-.294L7,8.41357V4.5a1,1,0,0,1,2,0V7.58643l1.69629,1.6997a1,1,0,0,1-.708,1.70606Z"/>
</svg>
