<?xml version="1.0" encoding="utf-8"?>
<!-- Generator: Adobe Illustrator 23.0.1, SVG Export Plug-In . SVG Version: 6.00 Build 0)  -->
<svg version="1.1" id="Layer_1" xmlns="http://www.w3.org/2000/svg" xmlns:xlink="http://www.w3.org/1999/xlink" x="0px" y="0px"
	 viewBox="0 0 80 80" style="enable-background:new 0 0 80 80;" xml:space="preserve">
<style type="text/css">
	.st0{fill:#1F2751;}
</style>
<g id="gpu">
</g>
<g id="macos">
</g>
<g id="linux">
	<path class="st0" d="M69.6,63.6c-0.7-0.4-1.3-0.9-1.9-1.4c-0.3-0.3,0-1.7,0-2.4c0.3-1.3,0.1-2.8-0.7-3.9c-0.2-0.2-0.3-0.3-0.5-0.4
		c0-0.7,0-1.4,0-2.1c-0.1-8.2-3.3-16.1-8.9-22.1c-2.2-2.1-3.7-4.9-4.3-7.9v-0.8c0-4.6,0-14.2-5-19.2C46.1,1.2,43.1,0,40,0.1
		c-6.9,0-11.6,3.3-11.6,20c-0.3,4.4-1.6,8.6-3.9,12.3c-0.9,1.7-1.8,3.5-2.6,5.4c-2.2,5.1-3.9,10.5-5.1,16c-1.4,0.8-2.4,2.3-2.6,4
		l-0.3,1.1c-0.6,0.2-1.2,0.4-1.8,0.5c-2,0.4-5.3,1.1-5.3,4.1c0,0.8,0.1,1.6,0.3,2.4c0.4,1.8,0.3,3.7-0.3,5.5c0,0.1,0,0.3,0,0.4
		c0,4,6.2,4.5,9.9,5h1.5c0.9,0.3,1.8,0.6,2.6,1.1c2.3,1.3,4.9,2,7.5,2.3c1.1,0,2.1-0.5,2.8-1.3h0.2c2.7-1.3,5.6-2,8.6-2H50
		c0.2,0.7,0.5,1.3,1,1.8c1,1,2.4,1.6,3.8,1.5c3.3-0.1,6.3-1.7,8.3-4.4l1.1-1.1c1.2-0.9,2.5-1.6,3.9-2c2.4-0.9,4.8-1.8,4.8-4.2
		S71.1,64.6,69.6,63.6z M43.4,10c1.9,0,3.3,2.1,3.3,4.9s-1.1,4.5-2.7,4.8c0.7-0.6,1-1.4,1-2.3c0-1.4-0.7-2.5-1.6-2.5
		s-1.6,1.1-1.6,2.5c-0.1,0.9,0.3,1.7,1,2.3c-1.6-0.4-2.7-2.3-2.7-4.8S41.4,10,43.4,10z M44.8,22.9c-2.4,1.9-5.1,3.1-8.1,3.7
		c-1.9-0.7-3.6-1.8-5-3.3c1.7-1.9,4.1-3.1,6.6-3.3C40.8,20.4,43,21.4,44.8,22.9z M33.4,10c1.9,0,3.3,2.1,3.3,4.9s-1.1,4.4-2.7,4.8
		c0.7-0.6,1-1.4,1-2.3c0-1.4-0.7-2.5-1.6-2.5c-0.9,0-1.6,1.1-1.6,2.5c-0.1,0.9,0.3,1.7,1,2.3c-1.6-0.4-2.7-2.3-2.7-4.8
		S31.5,10,33.4,10z M29.4,75.7c-0.2,0.6-0.5,1-0.9,1c-2.2-0.3-4.3-0.9-6.2-2c-1-0.6-2.2-1-3.3-1.3h-1.9c-4.9-0.4-6.4-1-6.8-1.5
		c0.6-2.2,0.7-4.5,0.2-6.7c-0.1-0.6-0.2-1.2-0.2-1.9c0.8-0.5,1.8-0.8,2.7-0.9c1.2-0.1,2.3-0.6,3.3-1.3c0.6-0.8,1.1-1.7,1.2-2.7
		c0.4-1.8,0.6-1.8,0.8-1.8c1,1.2,1.8,2.5,2.3,3.9c1.1,2.9,2.8,5.4,5.1,7.5C28.4,69.6,29.8,72.7,29.4,75.7z M50.4,65.7
		c-4.9,4.9-14.6,4.6-18.9,3.9c-0.9-1.7-2.2-3.2-3.8-4.3c-1.8-1.7-3.1-3.8-4-6.2c-0.7-2-1.8-3.8-3.3-5.2c1.1-5.1,2.7-10.1,4.7-14.9
		c0.7-1.8,1.6-3.3,2.4-5.2c1.2-2.2,2.2-4.6,3.1-7c1.7,1.6,3.8,2.7,6,3.1c3.3-0.8,6.5-2.2,9.4-4c4.8,9.2,7.3,19.4,7.2,29.8
		C51.5,58.8,50.5,62.2,50.4,65.7L50.4,65.7z M67.2,69.4c-1.9,0.5-3.6,1.5-5.1,2.8L61,73.4c-1.3,2-3.6,3.3-6,3.3
		c-0.5,0.1-1-0.1-1.4-0.4c-0.5-0.6-0.4-1.9-0.3-2.4c0-0.5,0-0.6,0-0.6c0-1,0.9-10.4,1.2-11.9c0.1,0.2,0.3,0.4,0.4,0.6
		c0.9,0.9,2.1,1.4,3.3,1.4h1.2c1.8,0.2,3.5-0.4,4.9-1.5c0,1,0.4,1.9,1.1,2.7c0.7,0.7,1.5,1.3,2.4,1.9c1.3,0.8,2,1.4,2.1,1.8
		C69,68.7,68.1,69.1,67.2,69.4L67.2,69.4z"/>
</g>
<g id="windows">
</g>
</svg>
