<?xml version="1.0" encoding="utf-8"?>
<!-- Generator: Adobe Illustrator 23.0.1, SVG Export Plug-In . SVG Version: 6.00 Build 0)  -->
<svg version="1.1" id="Layer_1" xmlns="http://www.w3.org/2000/svg" xmlns:xlink="http://www.w3.org/1999/xlink" x="0px" y="0px"
	 viewBox="0 0 80 80" style="enable-background:new 0 0 80 80;" xml:space="preserve">
<style type="text/css">
	.st0{fill:#1F2751;}
</style>
<g id="gpu">
	<path class="st0" d="M48.6,37.7c0.9-2.3,3-4,5.5-4.5c0.3-0.8,0.8-1.7,1.6-2.6s1.9-1.6,3.1-2.1c-1-0.3-2.1-0.4-3.2-0.4
		c-3.6,0-6.9,1.5-9.1,4c0.1,2.5,0.8,4.4,1.9,5.5C48.4,37.5,48.5,37.6,48.6,37.7z"/>
	<circle class="st0" cx="55.5" cy="40.5" r="3.5"/>
	<path class="st0" d="M52.7,47.4c-2.3-0.9-4-3-4.5-5.5c-0.8-0.3-1.7-0.8-2.6-1.6c-0.9-0.8-1.6-1.9-2.1-3.1c-0.3,1-0.4,2.1-0.4,3.2
		c0,3.6,1.5,6.9,4,9.1c2.5-0.1,4.4-0.8,5.5-1.9C52.5,47.6,52.6,47.5,52.7,47.4z"/>
	<path class="st0" d="M62.4,43.3c-0.9,2.3-3,4-5.5,4.5c-0.3,0.8-0.8,1.7-1.6,2.6c-0.8,0.9-1.9,1.6-3.1,2.1c1,0.3,2.1,0.4,3.2,0.4
		c3.6,0,6.9-1.5,9.1-4c-0.1-2.5-0.8-4.4-1.9-5.4C62.7,43.5,62.5,43.4,62.4,43.3z"/>
	<path class="st0" d="M14,14V5H0v5h9v14h10v33H9v18h5v-9h66V14H14z M31,57h-5V47h5V57z M31,34h-5V24h5V34z M55.5,57
		C46.4,57,39,49.6,39,40.5S46.4,24,55.5,24S72,31.4,72,40.5S64.6,57,55.5,57z"/>
	<path class="st0" d="M58.6,33.2c-0.1,0.1-0.2,0.2-0.3,0.3c2.3,0.9,4,3,4.5,5.5c0.8,0.3,1.7,0.8,2.6,1.6s1.6,1.9,2.1,3.1
		c0.3-1,0.4-2.1,0.4-3.2c0-3.6-1.5-6.9-4-9.1C61.5,31.5,59.7,32.1,58.6,33.2z"/>
	<rect x="9" y="29" class="st0" width="5" height="23"/>
</g>
<g id="macos">
</g>
<g id="linux">
</g>
<g id="windows">
</g>
</svg>
