<?xml version="1.0" encoding="utf-8"?>
<!-- Generator: Adobe Illustrator 23.0.1, SVG Export Plug-In . SVG Version: 6.00 Build 0)  -->
<svg version="1.1" id="Layer_1" xmlns="http://www.w3.org/2000/svg" xmlns:xlink="http://www.w3.org/1999/xlink" x="0px" y="0px"
	 viewBox="0 0 32 32" style="enable-background:new 0 0 32 32;" xml:space="preserve">
<style type="text/css">
	.st0{fill-rule:evenodd;clip-rule:evenodd;fill:url(#telegram_1_);}
</style>
<linearGradient id="telegram_1_" gradientUnits="userSpaceOnUse" x1="16.013" y1="25.1654" x2="16.013" y2="3.4408" gradientTransform="matrix(1 0 0 -1 0 32)">
	<stop  offset="0" style="stop-color:#1ECED0"/>
	<stop  offset="0.5" style="stop-color:#8AA9F4"/>
	<stop  offset="1" style="stop-color:#6A44FB"/>
</linearGradient>
<path id="telegram" class="st0" d="M24.5,28.7c0.4,0.3,1,0.4,1.5,0.2c0.5-0.2,0.8-0.6,1-1.1c1.2-5.3,4-18.7,5-23.6
	c0.1-0.4-0.1-0.7-0.4-1C31.3,3,30.9,2.9,30.5,3C25,5.1,7.8,11.4,0.7,13.9C0.3,14.1,0,14.5,0,15s0.3,0.9,0.8,1
	c3.2,0.9,7.3,2.2,7.3,2.2s1.9,5.7,3,8.6c0.1,0.4,0.4,0.7,0.8,0.7c0.4,0.1,0.8,0,1.1-0.3c1.6-1.5,4.1-3.8,4.1-3.8
	S21.8,26.8,24.5,28.7L24.5,28.7L24.5,28.7z M9.8,17.4l2.2,7.2l0.5-4.6c0,0,8.6-7.6,13.6-11.9c0.1-0.1,0.2-0.3,0.1-0.5l0,0
	c-0.1-0.1-0.3-0.2-0.5-0.1L9.8,17.4L9.8,17.4z"/>
</svg>
