<?xml version="1.0" encoding="utf-8"?>
<!-- Generator: Adobe Illustrator 23.0.1, SVG Export Plug-In . SVG Version: 6.00 Build 0)  -->
<svg version="1.1" id="Layer_1" xmlns="http://www.w3.org/2000/svg" xmlns:xlink="http://www.w3.org/1999/xlink" x="0px" y="0px"
	 viewBox="0 0 32 32" style="enable-background:new 0 0 32 32;" xml:space="preserve">
<style type="text/css">
	.st0{fill:url(#SVGID_1_);}
	.st1{fill:url(#SVGID_2_);}
	.st2{fill:url(#SVGID_3_);}
	.st3{fill:url(#SVGID_4_);}
	.st4{fill:url(#SVGID_5_);}
</style>
<g>
	<linearGradient id="SVGID_1_" gradientUnits="userSpaceOnUse" x1="16" y1="-2.649187e-02" x2="16" y2="32.0118">
		<stop  offset="1.044321e-03" style="stop-color:#1ECED0"/>
		<stop  offset="0.5" style="stop-color:#8AA9F4"/>
		<stop  offset="1" style="stop-color:#6A44FB"/>
	</linearGradient>
	<path class="st0" d="M16,21.2c-1.5,0-2.7,1.2-2.7,2.7c0,1.5,1.2,2.7,2.7,2.7s2.7-1.2,2.7-2.7C18.7,22.4,17.5,21.2,16,21.2z
		 M4.7,30.5L1.1,17.7L1,17.1c0-0.7,0.6-1.4,1.4-1.4h6.2h14.8h6.2c0.8,0,1.4,0.6,1.4,1.4l-0.1,0.4l-3.6,13c-0.4,0.9-1.4,1.5-2.4,1.5
		H7.1C6.1,32,5.1,31.4,4.7,30.5z"/>
	<linearGradient id="SVGID_2_" gradientUnits="userSpaceOnUse" x1="16" y1="4.515717e-02" x2="16" y2="32.0345">
		<stop  offset="1.044321e-03" style="stop-color:#1ECED0"/>
		<stop  offset="0.5" style="stop-color:#8AA9F4"/>
		<stop  offset="1" style="stop-color:#6A44FB"/>
	</linearGradient>
	<polygon class="st1" points="13.7,0 18.3,0 18.3,6.5 22,6.5 16,12.9 10,6.5 13.7,6.5 	"/>
</g>
</svg>
