<svg xmlns="http://www.w3.org/2000/svg" xmlns:xlink="http://www.w3.org/1999/xlink" viewBox="0 0 120 120"><defs><style>.a{fill:#232e64;}.b{fill:url(#a);}.c{fill:url(#b);}.d{fill:url(#c);}.e{fill:url(#d);}</style><linearGradient id="a" x1="60" y1="-0.09467" x2="60" y2="104.10176" gradientUnits="userSpaceOnUse"><stop offset="0" stop-color="#26cbd3"/><stop offset="0.99193" stop-color="#664ce9"/></linearGradient><linearGradient id="b" x1="28.29053" y1="-0.09467" x2="28.29053" y2="104.10176" xlink:href="#a"/><linearGradient id="c" x1="92.17432" y1="-0.09467" x2="92.17432" y2="104.10176" xlink:href="#a"/><linearGradient id="d" x1="60.0083" y1="-0.09467" x2="60.0083" y2="104.10176" xlink:href="#a"/></defs><title>icons_5</title><path class="a" d="M49.99926,70,50,70.00073,49.99926,114,6,113.99927,6.00074,70H49.99926m0-6H6.00074A6.00075,6.00075,0,0,0,0,70.00073v43.99854A6.00073,6.00073,0,0,0,6.00074,120H49.99926A6.00073,6.00073,0,0,0,56,113.99927V70.00073A6.00075,6.00075,0,0,0,49.99926,64Z"/><path class="a" d="M113.99926,70,114,70.00073,113.99926,114,70,113.99927,70.00074,70h43.99852m0-6H70.00074A6.00075,6.00075,0,0,0,64,70.00073v43.99854A6.00073,6.00073,0,0,0,70.00074,120h43.99852A6.00073,6.00073,0,0,0,120,113.99927V70.00073A6.00075,6.00075,0,0,0,113.99926,64Z"/><path class="b" d="M81.99926,6,82,6.00073,81.99926,50,38,49.99927,38.00074,6H81.99926m0-6H38.00074A6.00075,6.00075,0,0,0,32,6.00073V49.99927A6.00073,6.00073,0,0,0,38.00074,56H81.99926A6.00073,6.00073,0,0,0,88,49.99927V6.00073A6.00075,6.00075,0,0,0,81.99926,0Z"/><path class="c" d="M19.30908,104V79.82812h8.4668q4.39893,0,6.67383,1.68555a5.76146,5.76146,0,0,1,2.27441,4.93848A5.46524,5.46524,0,0,1,35.811,89.582a5.28052,5.28052,0,0,1-2.54,1.9834,5.104,5.104,0,0,1,2.93017,1.876,5.54543,5.54543,0,0,1,1.0708,3.45312,6.3796,6.3796,0,0,1-2.22461,5.2793A10.01776,10.01776,0,0,1,28.70557,104Zm4.98047-14.04492H27.9751q3.7683-.06592,3.76855-3.00488a2.77955,2.77955,0,0,0-.95459-2.36622,5.02957,5.02957,0,0,0-3.01318-.72168H24.28955Zm0,3.51953V99.999h4.2666a4.11492,4.11492,0,0,0,2.74756-.83886,2.87408,2.87408,0,0,0,.98779-2.31543q0-3.32081-3.43652-3.37012Z"/><path class="d" d="M102.01074,95.94824a8.55593,8.55593,0,0,1-2.88037,6.14258,10.11707,10.11707,0,0,1-6.84814,2.24121,9.09649,9.09649,0,0,1-7.313-3.12891q-2.66455-3.13036-2.66455-8.59179V91.13379a14.4838,14.4838,0,0,1,1.22851-6.14258A9.19951,9.19951,0,0,1,87.04443,80.916a10.97137,10.97137,0,0,1,12.04444.82128,9.19409,9.19409,0,0,1,2.95508,6.292H97.06348a5.047,5.047,0,0,0-1.30323-3.39453,4.82444,4.82444,0,0,0-3.41162-1.05469,4.23014,4.23014,0,0,0-3.72705,1.78515,9.99734,9.99734,0,0,0-1.27,5.53614v1.82617q0,3.91845,1.187,5.72754a4.15348,4.15348,0,0,0,3.74366,1.80957,4.92083,4.92083,0,0,0,3.44482-1.05371,4.7664,4.7664,0,0,0,1.30322-3.2627Z"/><path class="e" d="M64.36621,35.01953H55.63379L53.97363,40h-5.2959l8.99805-24.17188H62.291L71.33887,40H66.043Zm-7.38769-4.03418h6.043L59.9834,21.9375Z"/></svg>