<svg xmlns="http://www.w3.org/2000/svg" xmlns:xlink="http://www.w3.org/1999/xlink" viewBox="0 0 120 120"><defs><style>.a{fill:#232e64;}.b{fill:url(#a);}.c{fill:url(#b);}.d{fill:url(#c);}.e{fill:url(#d);}</style><linearGradient id="a" x1="19.28809" y1="0.0164" x2="19.28809" y2="117.10108" gradientUnits="userSpaceOnUse"><stop offset="0" stop-color="#26cbd3"/><stop offset="0.99193" stop-color="#664ce9"/></linearGradient><linearGradient id="b" x1="100.28809" y1="0.0164" x2="100.28809" y2="117.10108" xlink:href="#a"/><linearGradient id="c" x1="60" y1="0" x2="60" y2="117.08467" xlink:href="#a"/><linearGradient id="d" x1="60" y1="0.0164" x2="60" y2="117.10108" xlink:href="#a"/></defs><title>icons_2</title><path class="a" d="M67.76831,90.12756,60,102.39307,52.235,90.13245a33.59681,33.59681,0,0,1-9.49024-3.77051L60,113.60693,77.263,86.34906A33.61625,33.61625,0,0,1,67.76831,90.12756Z"/><path class="a" d="M85,43V56a25,25,0,0,1-50,0V43H29V56A31,31,0,0,0,60,87h.00006A31,31,0,0,0,91,56V43Z"/><path class="b" d="M28.89264,70.83649a33.56023,33.56023,0,0,1-2.06232-6.27289L1.03271,88.51855,20.11414,99.9671l-13.28748,13.965,4.34668,4.13574,14.21289-14.93762,9.07031,5.442,3.08692-5.14454L10.96729,87.48145Z"/><path class="c" d="M118.54346,88.51855l-25.452-23.634a33.57428,33.57428,0,0,1-2.11438,6.22449l17.63178,16.37238L82.03271,103.42773l3.08692,5.14454,9.07031-5.442,14.21289,14.93762,4.34668-4.13574L99.462,99.9671Z"/><path class="d" d="M91.35156,33C83.178.02063,79.173,0,77,0a14.45522,14.45522,0,0,0-5.84668,1.5791A24.9204,24.9204,0,0,1,60,4,24.92213,24.92213,0,0,1,48.84668,1.5791,14.45522,14.45522,0,0,0,43,0c-2.173,0-6.17853.02063-14.35114,33H12v6h96V33ZM34.83984,33c2.98438-11.65234,6.85157-23.92529,8.94971-26.90576a16.57834,16.57834,0,0,1,2.6919.99853A30.85876,30.85876,0,0,0,60,10,30.85692,30.85692,0,0,0,73.51855,7.09277a16.58123,16.58123,0,0,1,2.69239-.99853C78.30762,9.07373,82.1748,21.34668,85.16016,33Z"/><path class="e" d="M80,44c-1,0-10,3-20,3s-19-3-20-3-1,2-1,2v5.44916a7.9989,7.9989,0,0,0,.41742,2.57422A8.92209,8.92209,0,0,0,47,60a8.937,8.937,0,0,0,9-7h8a8.55691,8.55691,0,0,0,16.58258,1.02338A7.9989,7.9989,0,0,0,81,51.44916V46S81,44,80,44Z"/></svg>