<?xml version="1.0" encoding="utf-8"?>
<!-- Generator: Adobe Illustrator 23.0.1, SVG Export Plug-In . SVG Version: 6.00 Build 0)  -->
<svg version="1.1" id="Layer_1" xmlns="http://www.w3.org/2000/svg" xmlns:xlink="http://www.w3.org/1999/xlink" x="0px" y="0px"
	 viewBox="0 0 32 32" style="enable-background:new 0 0 32 32;" xml:space="preserve">
<style type="text/css">
	.st0{fill:url(#SVGID_1_);}
	.st1{fill:url(#SVGID_2_);}
	.st2{fill:url(#SVGID_3_);}
	.st3{fill:url(#SVGID_4_);}
	.st4{fill:url(#SVGID_5_);}
	.st5{fill:url(#SVGID_6_);}
	.st6{fill:url(#SVGID_7_);}
	.st7{fill:url(#SVGID_8_);}
	.st8{fill:url(#SVGID_9_);}
</style>
<g>
	<linearGradient id="SVGID_1_" gradientUnits="userSpaceOnUse" x1="16" y1="-5.155813e-03" x2="16" y2="31.9881">
		<stop  offset="7.171313e-03" style="stop-color:#1ECED0"/>
		<stop  offset="0.5" style="stop-color:#8AA9F4"/>
		<stop  offset="1" style="stop-color:#6A44FB"/>
	</linearGradient>
	<path class="st0" d="M16,20c-8.8,0-16,3.6-16,8v4h32v-4C32,23.6,24.8,20,16,20z"/>
	<linearGradient id="SVGID_2_" gradientUnits="userSpaceOnUse" x1="16" y1="0" x2="16" y2="31.9932">
		<stop  offset="7.171313e-03" style="stop-color:#1ECED0"/>
		<stop  offset="0.5" style="stop-color:#8AA9F4"/>
		<stop  offset="1" style="stop-color:#6A44FB"/>
	</linearGradient>
	<path class="st1" d="M23.7,7.8c0-4.7-4.1-6.1-4.1-6.1v4.1h-1.8V0.8c0-0.5-0.3-0.8-0.9-0.8h-1.8c-0.5,0-0.9,0.3-0.9,0.8v4.9h-1.8
		V1.6c0,0-4.1,1.4-4.1,6.1c0,0-1.3,0.2-1.3,2h18C24.9,8,23.7,7.8,23.7,7.8z"/>
	<linearGradient id="SVGID_3_" gradientUnits="userSpaceOnUse" x1="16" y1="-5.155813e-03" x2="16" y2="31.9881">
		<stop  offset="7.171313e-03" style="stop-color:#1ECED0"/>
		<stop  offset="0.5" style="stop-color:#8AA9F4"/>
		<stop  offset="1" style="stop-color:#6A44FB"/>
	</linearGradient>
	<path class="st2" d="M16,18c4,0,7.2-2.9,7.2-6.5H8.8C8.8,15.1,12,18,16,18z"/>
</g>
</svg>
