<?xml version="1.0" encoding="utf-8"?>
<!-- Generator: Adobe Illustrator 23.0.1, SVG Export Plug-In . SVG Version: 6.00 Build 0)  -->
<svg version="1.1" id="Layer_1" xmlns="http://www.w3.org/2000/svg" xmlns:xlink="http://www.w3.org/1999/xlink" x="0px" y="0px"
	 viewBox="0 0 32 32" style="enable-background:new 0 0 32 32;" xml:space="preserve">
<style type="text/css">
	.st0{fill:url(#medium_1_);}
</style>
<linearGradient id="medium_1_" gradientUnits="userSpaceOnUse" x1="16" y1="29" x2="16" y2="3" gradientTransform="matrix(1 0 0 -1 0 32)">
	<stop  offset="0" style="stop-color:#1ECED0"/>
	<stop  offset="0.5" style="stop-color:#8AA9F4"/>
	<stop  offset="1" style="stop-color:#6A44FB"/>
</linearGradient>
<path id="medium" class="st0" d="M3.8,8.3c0-0.4-0.1-0.8-0.4-1.1l-3-3.7V3h9.3l7.2,16.1L23.2,3H32v0.6l-2.6,2.5
	c-0.2,0.2-0.3,0.5-0.3,0.7v18.4c0,0.3,0.1,0.6,0.3,0.7l2.5,2.5V29H19.4v-0.6l2.6-2.6c0.3-0.2,0.3-0.3,0.3-0.7V10.3L15,28.9h-1
	L5.7,10.3v12.5c-0.1,0.5,0.1,1,0.5,1.4l3.4,4.2v0.5H0v-0.5l3.4-4.2c0.4-0.4,0.5-0.9,0.4-1.4C3.8,22.8,3.8,8.3,3.8,8.3z"/>
</svg>
